<svg width="76" height="75" viewBox="0 0 76 75" fill="none" xmlns="http://www.w3.org/2000/svg">
<path d="M57.719 12.5C57.6204 12.4721 57.5172 12.4646 57.4157 12.4781C57.3141 12.4916 57.2164 12.5257 57.1286 12.5784C57.0407 12.6311 56.9646 12.7013 56.9049 12.7845C56.8452 12.8678 56.8032 12.9624 56.7815 13.0625L55.219 19.3125C55.1873 19.4276 55.1835 19.5486 55.2079 19.6655C55.2324 19.7823 55.2844 19.8917 55.3596 19.9844C55.4316 20.0773 55.524 20.1524 55.6297 20.2039C55.7353 20.2554 55.8514 20.2819 55.969 20.2812H61.4377V25.75C61.4377 25.9572 61.52 26.1559 61.6666 26.3024C61.8131 26.4489 62.0118 26.5312 62.219 26.5312C62.4262 26.5312 62.6249 26.4489 62.7714 26.3024C62.9179 26.1559 63.0002 25.9572 63.0002 25.75V13.25C63.0002 13.0428 62.9179 12.8441 62.7714 12.6976C62.6249 12.5511 62.4262 12.4688 62.219 12.4688C62.0118 12.4688 61.8131 12.5511 61.6666 12.6976C61.52 12.8441 61.4377 13.0428 61.4377 13.25V18.75H56.969L58.3127 13.4687C58.3456 13.366 58.3559 13.2574 58.343 13.1504C58.3301 13.0433 58.2942 12.9403 58.2378 12.8483C58.1815 12.7564 58.106 12.6777 58.0164 12.6175C57.9269 12.5574 57.8254 12.5173 57.719 12.5V12.5ZM45.9377 25.3437C45.8579 25.4619 45.8119 25.5996 45.8047 25.7421C45.7975 25.8845 45.8295 26.0261 45.8971 26.1517C45.9647 26.2772 46.0654 26.3819 46.1882 26.4543C46.3111 26.5267 46.4514 26.5641 46.594 26.5625H52.844C53.0512 26.5625 53.2499 26.4802 53.3964 26.3337C53.5429 26.1872 53.6252 25.9885 53.6252 25.7813C53.6252 25.5741 53.5429 25.3753 53.3964 25.2288C53.2499 25.0823 53.0512 25 52.844 25H48.0471L52.594 18.2031C52.9635 17.6396 53.1757 16.9876 53.2087 16.3146C53.2417 15.6415 53.0942 14.9719 52.7815 14.375C52.4887 13.801 52.0405 13.3208 51.4879 12.9893C50.9354 12.6578 50.3008 12.4882 49.6565 12.5C48.6314 12.5164 47.6538 12.9352 46.9347 13.666C46.2156 14.3968 45.8126 15.381 45.8127 16.4062C45.8127 16.6135 45.895 16.8122 46.0416 16.9587C46.1881 17.1052 46.3868 17.1875 46.594 17.1875C46.8012 17.1875 46.9999 17.1052 47.1464 16.9587C47.2929 16.8122 47.3752 16.6135 47.3752 16.4062C47.3752 16.0958 47.4369 15.7885 47.5566 15.5021C47.6763 15.2156 47.8518 14.9559 48.0727 14.7378C48.2937 14.5198 48.5557 14.3478 48.8437 14.2319C49.1317 14.1159 49.4398 14.0584 49.7502 14.0625C50.0802 14.0823 50.399 14.1898 50.6736 14.3738C50.9483 14.5578 51.1689 14.8117 51.3127 15.1094C51.4992 15.4538 51.5877 15.8428 51.5684 16.234C51.5491 16.6253 51.4228 17.0037 51.2034 17.3281L45.9377 25.3437Z" fill="#FFB600"/>
<path d="M15.3438 42.1875H30.9688C31.176 42.1875 31.3747 42.1052 31.5212 41.9587C31.6677 41.8122 31.75 41.6135 31.75 41.4062C31.75 41.199 31.6677 41.0003 31.5212 40.8538C31.3747 40.7073 31.176 40.625 30.9688 40.625H15.3438C15.1365 40.625 14.9378 40.7073 14.7913 40.8538C14.6448 41.0003 14.5625 41.199 14.5625 41.4062C14.5625 41.6135 14.6448 41.8122 14.7913 41.9587C14.9378 42.1052 15.1365 42.1875 15.3438 42.1875ZM15.3438 46.875H27.8438C28.051 46.875 28.2497 46.7927 28.3962 46.6462C28.5427 46.4997 28.625 46.301 28.625 46.0938C28.625 45.8865 28.5427 45.6878 28.3962 45.5413C28.2497 45.3948 28.051 45.3125 27.8438 45.3125H15.3438C15.1365 45.3125 14.9378 45.3948 14.7913 45.5413C14.6448 45.6878 14.5625 45.8865 14.5625 46.0938C14.5625 46.301 14.6448 46.4997 14.7913 46.6462C14.9378 46.7927 15.1365 46.875 15.3438 46.875Z" fill="#2D3142"/>
<path d="M55.1875 3.90624C53.1356 3.80364 51.0836 4.10621 49.1486 4.79665C47.2136 5.48709 45.4336 6.5519 43.9101 7.93027C40.8334 10.714 38.9885 14.606 38.7812 18.75C38.574 22.894 40.0215 26.9506 42.8053 30.0274C45.589 33.1041 49.481 34.949 53.625 35.1562V35.9375C53.6252 36.0776 53.6632 36.2151 53.7348 36.3355C53.8064 36.456 53.9091 36.5549 54.0321 36.622C54.1552 36.6891 54.294 36.7219 54.434 36.7169C54.5741 36.712 54.7102 36.6694 54.8281 36.5937L57.2813 35.0312C57.3909 34.9604 57.4811 34.8632 57.5435 34.7486C57.6059 34.634 57.6386 34.5055 57.6386 34.375C57.6386 34.2445 57.6059 34.116 57.5435 34.0014C57.4811 33.8867 57.3909 33.7896 57.2813 33.7187L54.8281 32.1562C54.7102 32.0806 54.5741 32.038 54.434 32.033C54.294 32.0281 54.1552 32.0608 54.0321 32.1279C53.9091 32.195 53.8064 32.294 53.7348 32.4144C53.6632 32.5349 53.6252 32.6724 53.625 32.8125V33.5625C50.2721 33.1831 47.1675 31.6107 44.8776 29.1323C42.5878 26.654 41.2654 23.4349 41.1518 20.0626C41.0382 16.6902 42.141 13.3894 44.2589 10.7626C46.3768 8.13583 49.3686 6.35812 52.6884 5.75394C56.0081 5.14977 59.4344 5.7594 62.342 7.47158C65.2496 9.18377 67.4446 11.8843 68.5264 15.0805C69.6083 18.2766 69.5049 21.7552 68.235 24.8814C66.9652 28.0076 64.6136 30.573 61.6094 32.1094C61.4404 32.2111 61.3161 32.3729 61.2615 32.5625C61.2068 32.7521 61.226 32.9552 61.315 33.1313C61.404 33.3073 61.5563 33.4432 61.7413 33.5116C61.9263 33.58 62.1304 33.5758 62.3125 33.5C63.1076 33.0712 63.8609 32.569 64.5625 32V61.6875C64.5666 61.9979 64.5091 62.306 64.3931 62.594C64.2772 62.882 64.1052 63.144 63.8872 63.365C63.6691 63.586 63.4094 63.7614 63.1229 63.8811C62.8365 64.0009 62.5292 64.0625 62.2188 64.0625H13.7812C13.1596 64.0625 12.5635 63.8156 12.124 63.376C11.6844 62.9365 11.4375 62.3403 11.4375 61.7187V22.6562C11.4375 22.449 11.3552 22.2503 11.2087 22.1038C11.0622 21.9573 10.8635 21.875 10.6562 21.875C10.449 21.875 10.2503 21.9573 10.1038 22.1038C9.95731 22.2503 9.875 22.449 9.875 22.6562V61.7187C9.875 62.7547 10.2866 63.7483 11.0191 64.4809C11.7517 65.2134 12.7452 65.625 13.7812 65.625H62.2188C63.2548 65.625 64.2483 65.2134 64.9809 64.4809C65.7135 63.7483 66.125 62.7547 66.125 61.7187V30.6719C68.3352 28.4983 69.849 25.7164 70.4737 22.6801C71.0985 19.6438 70.8059 16.4903 69.6333 13.6207C68.4607 10.7511 66.461 8.29517 63.8886 6.56531C61.3162 4.83545 58.2874 3.90984 55.1875 3.90624V3.90624Z" fill="#2D3142"/>
<path d="M46.5938 52.3438H51.2812M46.5938 47.6562H55.9688H46.5938Z" stroke="#231F20" stroke-linecap="round" stroke-linejoin="round"/>
<path d="M59.0938 42.1875H43.4688C42.1743 42.1875 41.125 43.2368 41.125 44.5312V55.4688C41.125 56.7632 42.1743 57.8125 43.4688 57.8125H59.0938C60.3882 57.8125 61.4375 56.7632 61.4375 55.4688V44.5312C61.4375 43.2368 60.3882 42.1875 59.0938 42.1875Z" fill="#FFB600"/>
<path d="M21.5938 50H16.9062C15.6118 50 14.5625 51.0493 14.5625 52.3438V55.4688C14.5625 56.7632 15.6118 57.8125 16.9062 57.8125H21.5938C22.8882 57.8125 23.9375 56.7632 23.9375 55.4688V52.3438C23.9375 51.0493 22.8882 50 21.5938 50Z" fill="#FFB600"/>
<path d="M32.5312 50H29.4062C28.1118 50 27.0625 51.0493 27.0625 52.3438V55.4688C27.0625 56.7632 28.1118 57.8125 29.4062 57.8125H32.5312C33.8257 57.8125 34.875 56.7632 34.875 55.4688V52.3438C34.875 51.0493 33.8257 50 32.5312 50Z" fill="#FFB600"/>
<path d="M40.6719 23.4375H10.6562C9.62025 23.4375 8.62668 23.0259 7.89411 22.2934C7.16155 21.5608 6.75 20.5673 6.75 19.5312V13.2812C6.75 12.2452 7.16155 11.2517 7.89411 10.5191C8.62668 9.78655 9.62025 9.375 10.6562 9.375H43.6875C43.8947 9.375 44.0934 9.45731 44.2399 9.60382C44.3864 9.75034 44.4687 9.94905 44.4687 10.1562C44.4687 10.3635 44.3864 10.5622 44.2399 10.7087C44.0934 10.8552 43.8947 10.9375 43.6875 10.9375H10.6562C10.0346 10.9375 9.43851 11.1844 8.99897 11.624C8.55943 12.0635 8.3125 12.6596 8.3125 13.2812V19.5312C8.3125 20.1529 8.55943 20.749 8.99897 21.1885C9.43851 21.6281 10.0346 21.875 10.6562 21.875H40.6719C40.8791 21.875 41.0778 21.9573 41.2243 22.1038C41.3708 22.2503 41.4531 22.449 41.4531 22.6562C41.4531 22.8635 41.3708 23.0622 41.2243 23.2087C41.0778 23.3552 40.8791 23.4375 40.6719 23.4375Z" fill="#231F20"/>
<path d="M39.5625 19.5312C39.5584 15.8009 40.9011 12.1944 43.3438 9.375H26.2812C26.074 9.375 25.8753 9.45731 25.7288 9.60382C25.5823 9.75034 25.5 9.94905 25.5 10.1562V25.4063C25.5079 25.9516 25.7033 26.4775 26.0533 26.8958C26.4033 27.3141 26.8865 27.5991 27.4219 27.7031C28.0058 27.8745 28.6303 27.8461 29.1963 27.6225C29.7624 27.399 30.2376 26.9929 30.5469 26.4688C31.1094 25.4375 31.5937 25 32.1094 25C32.58 25.0192 33.0397 25.1478 33.4519 25.3757C33.8642 25.6035 34.2177 25.9242 34.4844 26.3125C34.892 26.8642 35.4211 27.3146 36.0307 27.6289C36.6404 27.9432 37.3142 28.113 38 28.125C38.6233 28.1198 39.2378 27.9771 39.7996 27.707C40.3614 27.4369 40.8567 27.0461 41.25 26.5625C40.1421 24.3842 39.564 21.9751 39.5625 19.5312V19.5312Z" fill="#FFB600"/>
</svg>
