<svg width="76" height="75" viewBox="0 0 76 75" fill="none" xmlns="http://www.w3.org/2000/svg">
<path d="M18.4688 64.0625H15.3438C15.1365 64.0625 14.9378 64.1448 14.7913 64.2913C14.6448 64.4378 14.5625 64.6366 14.5625 64.8438C14.5625 65.0509 14.6448 65.2497 14.7913 65.3962C14.9378 65.5427 15.1365 65.625 15.3438 65.625H18.4688C18.676 65.625 18.8747 65.5427 19.0212 65.3962C19.1677 65.2497 19.25 65.0509 19.25 64.8438C19.25 64.6366 19.1677 64.4378 19.0212 64.2913C18.8747 64.1448 18.676 64.0625 18.4688 64.0625ZM20.0312 60.9375H15.3438C15.1365 60.9375 14.9378 61.0198 14.7913 61.1663C14.6448 61.3128 14.5625 61.5116 14.5625 61.7188C14.5625 61.9259 14.6448 62.1247 14.7913 62.2712C14.9378 62.4177 15.1365 62.5 15.3438 62.5H20.0312C20.2385 62.5 20.4372 62.4177 20.5837 62.2712C20.7302 62.1247 20.8125 61.9259 20.8125 61.7188C20.8125 61.5116 20.7302 61.3128 20.5837 61.1663C20.4372 61.0198 20.2385 60.9375 20.0312 60.9375ZM16.9062 20.3125H24.7188C24.926 20.3125 25.1247 20.2302 25.2712 20.0837C25.4177 19.9372 25.5 19.7385 25.5 19.5312C25.5 19.324 25.4177 19.1253 25.2712 18.9788C25.1247 18.8323 24.926 18.75 24.7188 18.75H16.9062C16.699 18.75 16.5003 18.8323 16.3538 18.9788C16.2073 19.1253 16.125 19.324 16.125 19.5312C16.125 19.7385 16.2073 19.9372 16.3538 20.0837C16.5003 20.2302 16.699 20.3125 16.9062 20.3125ZM16.9062 17.1875H26.2812C26.4885 17.1875 26.6872 17.1052 26.8337 16.9587C26.9802 16.8122 27.0625 16.6135 27.0625 16.4062C27.0625 16.199 26.9802 16.0003 26.8337 15.8538C26.6872 15.7073 26.4885 15.625 26.2812 15.625H16.9062C16.699 15.625 16.5003 15.7073 16.3538 15.8538C16.2073 16.0003 16.125 16.199 16.125 16.4062C16.125 16.6135 16.2073 16.8122 16.3538 16.9587C16.5003 17.1052 16.699 17.1875 16.9062 17.1875ZM38.7812 64.0625H34.0938C33.8865 64.0625 33.6878 64.1448 33.5413 64.2913C33.3948 64.4378 33.3125 64.6366 33.3125 64.8438C33.3125 65.0509 33.3948 65.2497 33.5413 65.3962C33.6878 65.5427 33.8865 65.625 34.0938 65.625H38.7812C38.9885 65.625 39.1872 65.5427 39.3337 65.3962C39.4802 65.2497 39.5625 65.0509 39.5625 64.8438C39.5625 64.6366 39.4802 64.4378 39.3337 64.2913C39.1872 64.1448 38.9885 64.0625 38.7812 64.0625ZM40.3438 60.9375H34.0938C33.8865 60.9375 33.6878 61.0198 33.5413 61.1663C33.3948 61.3128 33.3125 61.5116 33.3125 61.7188C33.3125 61.9259 33.3948 62.1247 33.5413 62.2712C33.6878 62.4177 33.8865 62.5 34.0938 62.5H40.3438C40.551 62.5 40.7497 62.4177 40.8962 62.2712C41.0427 62.1247 41.125 61.9259 41.125 61.7188C41.125 61.5116 41.0427 61.3128 40.8962 61.1663C40.7497 61.0198 40.551 60.9375 40.3438 60.9375ZM49.7188 15.625H55.9688C56.1759 15.625 56.3747 15.5427 56.5212 15.3962C56.6677 15.2497 56.75 15.051 56.75 14.8438C56.75 14.6365 56.6677 14.4378 56.5212 14.2913C56.3747 14.1448 56.1759 14.0625 55.9688 14.0625H49.7188C49.5116 14.0625 49.3128 14.1448 49.1663 14.2913C49.0198 14.4378 48.9375 14.6365 48.9375 14.8438C48.9375 15.051 49.0198 15.2497 49.1663 15.3962C49.3128 15.5427 49.5116 15.625 49.7188 15.625ZM57.5312 25C57.3241 25 57.1253 25.0823 56.9788 25.2288C56.8323 25.3753 56.75 25.574 56.75 25.7812V33.5938C56.75 33.801 56.8323 33.9997 56.9788 34.1462C57.1253 34.2927 57.3241 34.375 57.5312 34.375C57.7384 34.375 57.9372 34.2927 58.0837 34.1462C58.2302 33.9997 58.3125 33.801 58.3125 33.5938V25.7812C58.3125 25.574 58.2302 25.3753 58.0837 25.2288C57.9372 25.0823 57.7384 25 57.5312 25ZM60.6562 25C60.4491 25 60.2503 25.0823 60.1038 25.2288C59.9573 25.3753 59.875 25.574 59.875 25.7812V35.1562C59.875 35.3635 59.9573 35.5622 60.1038 35.7087C60.2503 35.8552 60.4491 35.9375 60.6562 35.9375C60.8634 35.9375 61.0622 35.8552 61.2087 35.7087C61.3552 35.5622 61.4375 35.3635 61.4375 35.1562V25.7812C61.4375 25.574 61.3552 25.3753 61.2087 25.2288C61.0622 25.0823 60.8634 25 60.6562 25Z" fill="#2D3142"/>
<path d="M64.0938 20.3125H61.2969C61.384 20.061 61.4315 19.7974 61.4375 19.5312V13.2812C61.4375 12.6596 61.1906 12.0635 60.751 11.624C60.3115 11.1844 59.7154 10.9375 59.0938 10.9375H46.5938C46.0153 10.9395 45.4583 11.1567 45.0312 11.5469C44.6042 11.1567 44.0472 10.9395 43.4688 10.9375H40.9844C41.0715 10.686 41.119 10.4224 41.125 10.1562V7.03125C41.125 6.40965 40.8781 5.81351 40.4385 5.37397C39.999 4.93443 39.4029 4.6875 38.7812 4.6875H15.3438C14.7221 4.6875 14.126 4.93443 13.6865 5.37397C13.2469 5.81351 13 6.40965 13 7.03125V10.1562C12.9996 10.4563 13.058 10.7536 13.1719 11.0312C12.675 11.1623 12.2354 11.4541 11.9217 11.8611C11.608 12.268 11.4378 12.7674 11.4375 13.2812V50.0938C10.9964 50.1926 10.6019 50.438 10.3181 50.7898C10.0344 51.1417 9.87818 51.5793 9.875 52.0312V69.5312C9.875 69.7384 9.95731 69.9372 10.1038 70.0837C10.2503 70.2302 10.449 70.3125 10.6562 70.3125H65.3438C65.5509 70.3125 65.7497 70.2302 65.8962 70.0837C66.0427 69.9372 66.125 69.7384 66.125 69.5312V22.3438C66.125 21.805 65.911 21.2884 65.5301 20.9074C65.1491 20.5265 64.6325 20.3125 64.0938 20.3125ZM46.5938 12.5H59.0938C59.3009 12.5 59.4997 12.5823 59.6462 12.7288C59.7927 12.8753 59.875 13.074 59.875 13.2812V19.5312C59.875 19.7385 59.7927 19.9372 59.6462 20.0837C59.4997 20.2302 59.3009 20.3125 59.0938 20.3125H46.5938C46.3866 20.3125 46.1878 20.2302 46.0413 20.0837C45.8948 19.9372 45.8125 19.7385 45.8125 19.5312V13.2812C45.8125 13.074 45.8948 12.8753 46.0413 12.7288C46.1878 12.5823 46.3866 12.5 46.5938 12.5ZM48.9375 45.3125H45.8125V21.7344C46.064 21.8215 46.3276 21.869 46.5938 21.875H49.0781C48.991 22.1265 48.9435 22.3901 48.9375 22.6562V45.3125ZM39.5625 7.03125V10.1562C39.5625 10.3635 39.4802 10.5622 39.3337 10.7087C39.1872 10.8552 38.9885 10.9375 38.7812 10.9375H36.4375V6.25H38.7812C38.9885 6.25 39.1872 6.33231 39.3337 6.47882C39.4802 6.62534 39.5625 6.82405 39.5625 7.03125ZM14.5625 7.03125C14.5625 6.82405 14.6448 6.62534 14.7913 6.47882C14.9378 6.33231 15.1365 6.25 15.3438 6.25H34.875V10.9375H15.3438C15.1365 10.9375 14.9378 10.8552 14.7913 10.7087C14.6448 10.5622 14.5625 10.3635 14.5625 10.1562V7.03125ZM13.7812 12.5H43.4688C43.6759 12.5 43.8747 12.5823 44.0212 12.7288C44.1677 12.8753 44.25 13.074 44.25 13.2812V45.3125H39.5625V33.5938C39.5625 32.9721 39.3156 32.376 38.876 31.9365C38.4365 31.4969 37.8404 31.25 37.2188 31.25H18.4688C17.8471 31.25 17.251 31.4969 16.8115 31.9365C16.3719 32.376 16.125 32.9721 16.125 33.5938V50H13V13.2812C13 13.074 13.0823 12.8753 13.2288 12.7288C13.3753 12.5823 13.574 12.5 13.7812 12.5ZM30.9688 45.3125C30.3471 45.3125 29.751 45.5594 29.3115 45.999C28.8719 46.4385 28.625 47.0346 28.625 47.6562V50H17.6875V33.5938C17.6875 33.3865 17.7698 33.1878 17.9163 33.0413C18.0628 32.8948 18.2615 32.8125 18.4688 32.8125H37.2188C37.426 32.8125 37.6247 32.8948 37.7712 33.0413C37.9177 33.1878 38 33.3865 38 33.5938V45.3125H30.9688ZM11.4375 52.0312C11.4414 51.9082 11.4921 51.7912 11.5791 51.7041C11.6662 51.6171 11.7832 51.5664 11.9063 51.5625H28.625V68.75H11.4375V52.0312ZM30.1875 47.6562C30.1875 47.4491 30.2698 47.2503 30.4163 47.1038C30.5628 46.9573 30.7615 46.875 30.9688 46.875H51.5938C51.7168 46.8789 51.8338 46.9296 51.9209 47.0166C52.0079 47.1037 52.0586 47.2207 52.0625 47.3438V68.75H30.1875V47.6562ZM64.5625 68.75H53.625V47.3438C53.625 46.805 53.411 46.2884 53.0301 45.9074C52.6491 45.5265 52.1325 45.3125 51.5938 45.3125H50.5V22.6562C50.5 22.449 50.5823 22.2503 50.7288 22.1038C50.8753 21.9573 51.0741 21.875 51.2812 21.875H64.0938C64.2168 21.8789 64.3338 21.9296 64.4209 22.0166C64.5079 22.1037 64.5586 22.2207 64.5625 22.3438V68.75Z" fill="#2D3142"/>
<path d="M23.1562 50H16.9062C16.4748 50 16.125 50.3498 16.125 50.7812V55.4688C16.125 55.9002 16.4748 56.25 16.9062 56.25H23.1562C23.5877 56.25 23.9375 55.9002 23.9375 55.4688V50.7812C23.9375 50.3498 23.5877 50 23.1562 50Z" fill="#FFB600"/>
<path d="M32.5312 31.25H23.1562C22.7248 31.25 22.375 31.5998 22.375 32.0312V36.7188C22.375 37.1502 22.7248 37.5 23.1562 37.5H32.5312C32.9627 37.5 33.3125 37.1502 33.3125 36.7188V32.0312C33.3125 31.5998 32.9627 31.25 32.5312 31.25Z" fill="#FFB600"/>
<path d="M38.7812 14.0625H34.0938C32.7993 14.0625 31.75 15.1118 31.75 16.4062V21.0938C31.75 22.3882 32.7993 23.4375 34.0938 23.4375H38.7812C40.0757 23.4375 41.125 22.3882 41.125 21.0938V16.4062C41.125 15.1118 40.0757 14.0625 38.7812 14.0625Z" fill="#FFB600"/>
<path d="M45.0312 45.3125H37.2188C36.7873 45.3125 36.4375 45.6623 36.4375 46.0938V50.7812C36.4375 51.2127 36.7873 51.5625 37.2188 51.5625H45.0312C45.4627 51.5625 45.8125 51.2127 45.8125 50.7812V46.0938C45.8125 45.6623 45.4627 45.3125 45.0312 45.3125Z" fill="#FFB600"/>
</svg>
