<svg width="76" height="75" viewBox="0 0 76 75" fill="none" xmlns="http://www.w3.org/2000/svg">
<path d="M18.4688 17.1875H10.6562C10.449 17.1875 10.2503 17.2698 10.1038 17.4163C9.95731 17.5628 9.875 17.7615 9.875 17.9688C9.875 18.176 9.95731 18.3747 10.1038 18.5212C10.2503 18.6677 10.449 18.75 10.6562 18.75H18.4688C18.676 18.75 18.8747 18.6677 19.0212 18.5212C19.1677 18.3747 19.25 18.176 19.25 17.9688C19.25 17.7615 19.1677 17.5628 19.0212 17.4163C18.8747 17.2698 18.676 17.1875 18.4688 17.1875ZM15.3438 21.875H10.6562C10.449 21.875 10.2503 21.9573 10.1038 22.1038C9.95731 22.2503 9.875 22.449 9.875 22.6562C9.875 22.8635 9.95731 23.0622 10.1038 23.2087C10.2503 23.3552 10.449 23.4375 10.6562 23.4375H15.3438C15.551 23.4375 15.7497 23.3552 15.8962 23.2087C16.0427 23.0622 16.125 22.8635 16.125 22.6562C16.125 22.449 16.0427 22.2503 15.8962 22.1038C15.7497 21.9573 15.551 21.875 15.3438 21.875Z" fill="#2D3142"/>
<path d="M60.6562 43.75C54.8125 43.75 50.8281 48.1094 50.5312 54.6875H23.9375C21.8655 54.6875 19.8784 53.8644 18.4132 52.3993C16.9481 50.9341 16.125 48.947 16.125 46.875C16.125 44.803 16.9481 42.8159 18.4132 41.3507C19.8784 39.8856 21.8655 39.0625 23.9375 39.0625H53.625C56.9402 39.0625 60.1196 37.7455 62.4638 35.4013C64.808 33.0571 66.125 29.8777 66.125 26.5625C66.125 23.2473 64.808 20.0679 62.4638 17.7237C60.1196 15.3795 56.9402 14.0625 53.625 14.0625H31.75V7.03125C31.75 6.40965 31.5031 5.81351 31.0635 5.37397C30.624 4.93443 30.0279 4.6875 29.4062 4.6875H7.53125C6.90965 4.6875 6.31351 4.93443 5.87397 5.37397C5.43443 5.81351 5.1875 6.40965 5.1875 7.03125V25.7812C5.1875 26.4029 5.43443 26.999 5.87397 27.4385C6.31351 27.8781 6.90965 28.125 7.53125 28.125H29.4062C30.0279 28.125 30.624 27.8781 31.0635 27.4385C31.5031 26.999 31.75 26.4029 31.75 25.7812V20.3125H53.625C55.2826 20.3125 56.8723 20.971 58.0444 22.1431C59.2165 23.3152 59.875 24.9049 59.875 26.5625C59.875 28.2201 59.2165 29.8098 58.0444 30.9819C56.8723 32.154 55.2826 32.8125 53.625 32.8125H23.9375C20.2079 32.8125 16.631 34.2941 13.9938 36.9313C11.3566 39.5685 9.875 43.1454 9.875 46.875C9.875 50.6046 11.3566 54.1815 13.9938 56.8187C16.631 59.4559 20.2079 60.9375 23.9375 60.9375H51.7969C53.8594 65.7969 58.0469 70.3125 60.6562 70.3125C64.8281 70.3125 70.8125 61.5781 70.8125 55.4688C70.8125 48.4375 66.7344 43.75 60.6562 43.75ZM30.1875 25.7812C30.1875 25.9885 30.1052 26.1872 29.9587 26.3337C29.8122 26.4802 29.6135 26.5625 29.4062 26.5625H7.53125C7.32405 26.5625 7.12534 26.4802 6.97882 26.3337C6.83231 26.1872 6.75 25.9885 6.75 25.7812V7.03125C6.75 6.82405 6.83231 6.62534 6.97882 6.47882C7.12534 6.33231 7.32405 6.25 7.53125 6.25H29.4062C29.6135 6.25 29.8122 6.33231 29.9587 6.47882C30.1052 6.62534 30.1875 6.82405 30.1875 7.03125V25.7812ZM23.9375 59.375C20.6223 59.375 17.4429 58.058 15.0987 55.7138C12.7545 53.3696 11.4375 50.1902 11.4375 46.875C11.4375 43.5598 12.7545 40.3804 15.0987 38.0362C17.4429 35.692 20.6223 34.375 23.9375 34.375H53.625C55.697 34.375 57.6841 33.5519 59.1493 32.0868C60.6144 30.6216 61.4375 28.6345 61.4375 26.5625C61.4375 24.4905 60.6144 22.5034 59.1493 21.0382C57.6841 19.5731 55.697 18.75 53.625 18.75H31.75V15.625H53.625C56.5258 15.625 59.3078 16.7773 61.359 18.8285C63.4102 20.8797 64.5625 23.6617 64.5625 26.5625C64.5625 29.4633 63.4102 32.2453 61.359 34.2965C59.3078 36.3477 56.5258 37.5 53.625 37.5H23.9375C21.4511 37.5 19.0665 38.4877 17.3084 40.2459C15.5502 42.004 14.5625 44.3886 14.5625 46.875C14.5625 49.3614 15.5502 51.746 17.3084 53.5041C19.0665 55.2623 21.4511 56.25 23.9375 56.25H50.5C50.5879 57.3149 50.8084 58.3647 51.1562 59.375H23.9375ZM60.6562 68.75C58.3125 68.75 52.0625 61.375 52.0625 55.4688C52.0625 50.4062 54.7188 45.3125 60.6562 45.3125C66.5938 45.3125 69.25 50.4062 69.25 55.4688C69.25 61.4531 63.5 68.75 60.6562 68.75Z" fill="#2D3142"/>
<path d="M23.1562 4.6875H13.7812C13.3498 4.6875 13 5.03728 13 5.46875V11.7188C13 12.1502 13.3498 12.5 13.7812 12.5H23.1562C23.5877 12.5 23.9375 12.1502 23.9375 11.7188V5.46875C23.9375 5.03728 23.5877 4.6875 23.1562 4.6875Z" fill="#FFB600"/>
<path d="M60.6562 59.375C63.6766 59.375 66.125 56.9266 66.125 53.9062C66.125 50.8859 63.6766 48.4375 60.6562 48.4375C57.6359 48.4375 55.1875 50.8859 55.1875 53.9062C55.1875 56.9266 57.6359 59.375 60.6562 59.375Z" fill="#FFB600"/>
</svg>
