<svg width="75" height="75" viewBox="0 0 75 75" fill="none" xmlns="http://www.w3.org/2000/svg">
<path d="M52.0425 35H44.9575C43.3241 35 42 36.4667 42 38.276V40.724C42 42.5333 43.3241 44 44.9575 44H52.0425C53.6759 44 55 42.5333 55 40.724V38.276C55 36.4667 53.6759 35 52.0425 35Z" fill="#FFB600"/>
<path d="M10.8627 70H5.83753C5.61541 70 5.40238 69.9131 5.24531 69.7584C5.08824 69.6036 5 69.3938 5 69.175V59.275C5.00127 59.1471 5.0321 59.0213 5.09015 58.9069C5.1482 58.7925 5.23194 58.6927 5.33501 58.615L12.6048 53.302C13.9062 52.3597 15.4789 51.851 17.094 51.85H27.6134C28.7227 51.8543 29.7853 52.2903 30.5697 53.063C31.3541 53.8356 31.7967 54.8823 31.8011 55.975C31.8267 56.2494 31.8267 56.5256 31.8011 56.8H39.0039C39.606 56.8026 40.2049 56.7135 40.7795 56.536L58.2839 51.0745C59.1642 50.8161 60.1108 50.8924 60.9368 51.2883C61.7627 51.6842 62.4078 52.3709 62.7445 53.2126C63.0813 54.0544 63.0852 54.99 62.7556 55.8345C62.4259 56.6789 61.7866 57.3709 60.964 57.7735L43.4428 66.0235C42.4196 66.4882 41.303 66.7195 40.1764 66.7H15.5362L11.3653 69.835C11.2197 69.9411 11.0438 69.9988 10.8627 70ZM6.67507 68.35H10.578L14.7321 65.215C14.8853 65.1114 15.0657 65.0541 15.2514 65.05H40.1764C41.0454 65.045 41.9028 64.8536 42.689 64.489L60.2103 56.239C60.6525 56.0366 61.0031 55.6804 61.1948 55.2387C61.3866 54.7971 61.4058 54.3012 61.2488 53.8465C61.0803 53.3586 60.7253 52.9547 60.2592 52.7206C59.7932 52.4864 59.2528 52.4405 58.7529 52.5925L41.1982 58.1035C40.4615 58.3336 39.6931 58.4505 38.9201 58.45H30.9636L30.5783 58.8955C29.7904 59.6671 28.7245 60.1001 27.6134 60.1H20.9132C20.691 60.1 20.478 60.0131 20.3209 59.8584C20.1639 59.7036 20.0756 59.4938 20.0756 59.275C20.0756 59.0562 20.1639 58.8464 20.3209 58.6916C20.478 58.5369 20.691 58.45 20.9132 58.45H27.6134C28.2789 58.4459 28.9162 58.1853 29.389 57.724C29.7399 57.3779 29.9789 56.9371 30.0757 56.4572C30.1724 55.9774 30.1227 55.4801 29.9327 55.0281C29.7427 54.5762 29.421 54.1898 29.0082 53.9178C28.5954 53.6458 28.11 53.5004 27.6134 53.5H17.094C15.8386 53.5012 14.617 53.9004 13.6099 54.6385L6.67507 59.6875V68.35ZM37.6638 37H25.9384C25.7162 37 25.5032 37.0869 25.3461 37.2416C25.1891 37.3964 25.1008 37.6062 25.1008 37.825C25.1008 38.0438 25.1891 38.2536 25.3461 38.4084C25.5032 38.5631 25.7162 38.65 25.9384 38.65H37.6638C37.886 38.65 38.099 38.5631 38.2561 38.4084C38.4131 38.2536 38.5014 38.0438 38.5014 37.825C38.5014 37.6062 38.4131 37.3964 38.2561 37.2416C38.099 37.0869 37.886 37 37.6638 37ZM34.3137 41.95H25.9384C25.7162 41.95 25.5032 42.0369 25.3461 42.1916C25.1891 42.3464 25.1008 42.5562 25.1008 42.775C25.1008 42.9938 25.1891 43.2036 25.3461 43.3584C25.5032 43.5131 25.7162 43.6 25.9384 43.6H34.3137C34.5358 43.6 34.7489 43.5131 34.9059 43.3584C35.063 43.2036 35.1512 42.9938 35.1512 42.775C35.1512 42.5562 35.063 42.3464 34.9059 42.1916C34.7489 42.0369 34.5358 41.95 34.3137 41.95Z" fill="#2D3142"/>
<path d="M46.9637 14.4375C46.9655 13.6198 47.045 12.8039 47.2012 12H30.8495C30.6246 12 30.4089 12.0856 30.2498 12.238C30.0908 12.3903 30.0014 12.597 30.0014 12.8125V21.4087C29.9821 21.9717 30.1629 22.5243 30.5142 22.976C30.8655 23.4277 31.3665 23.7517 31.9351 23.895C32.4927 24.0127 33.0755 23.9449 33.5873 23.7026C34.0992 23.4604 34.5096 23.0582 34.7509 22.5625C34.9035 22.27 35.2258 21.75 35.5142 21.75C36.2096 21.75 36.5658 22.205 37.2104 23.0175C37.4796 23.5688 37.8957 24.0424 38.4169 24.3904C38.938 24.7385 39.5458 24.9487 40.1788 25C40.8237 24.9599 41.4456 24.7548 41.9796 24.4061C42.5137 24.0574 42.9403 23.5779 43.2151 23.0175C43.7918 22.205 44.165 21.75 44.9113 21.75C45.1997 21.75 45.5219 22.27 45.6746 22.5625C45.9133 23.0602 46.3234 23.4642 46.836 23.7068C47.3486 23.9494 47.9327 24.0158 48.4904 23.895C48.8048 23.8187 49.1003 23.6831 49.3595 23.4961C49.6187 23.3092 49.8365 23.0747 50 22.8062C48.0528 20.4135 46.9854 17.4714 46.9637 14.4375Z" fill="#FFB600"/>
<path d="M60.8333 0C57.5125 0.0059204 54.2989 1.193 51.7528 3.35437C49.2066 5.51573 47.4892 8.51433 46.9 11.8276H24.1833C23.0738 11.8276 22.0098 12.2744 21.2253 13.0698C20.4407 13.8651 20 14.9438 20 16.0686V44.911C20 45.9955 20.4249 47.0355 21.1813 47.8024C21.9377 48.5692 22.9636 49 24.0333 49H55.9667C57.0364 49 58.0623 48.5692 58.8187 47.8024C59.5751 47.0355 60 45.9955 60 44.911V28.7241H60.8333C64.5906 28.7241 68.1939 27.211 70.8507 24.5176C73.5074 21.8242 75 18.1711 75 14.3621C75 10.553 73.5074 6.89996 70.8507 4.20655C68.1939 1.51314 64.5906 0 60.8333 0ZM58.3333 44.911C58.329 45.546 58.0782 46.1537 57.6353 46.6027C57.1924 47.0517 56.593 47.3059 55.9667 47.3103H24.0333C23.407 47.3059 22.8076 47.0517 22.3647 46.6027C21.9218 46.1537 21.671 45.546 21.6667 44.911V16.0686C21.671 15.3933 21.9376 14.7469 22.4086 14.2694C22.8796 13.7919 23.5172 13.5217 24.1833 13.5172H46.6667V14.3621C46.6725 17.7287 47.8434 20.9866 49.9754 23.5679C52.1074 26.1492 55.0652 27.8902 58.3333 28.4876V44.911ZM60.8333 27.0345C58.3611 27.0345 55.9443 26.2913 53.8887 24.8988C51.8331 23.5063 50.2309 21.5272 49.2848 19.2116C48.3387 16.896 48.0912 14.348 48.5735 11.8898C49.0558 9.4316 50.2463 7.17359 51.9945 5.40132C53.7427 3.62905 55.9699 2.42212 58.3947 1.93315C60.8195 1.44418 63.3328 1.69514 65.6169 2.65428C67.901 3.61343 69.8532 5.23769 71.2267 7.32165C72.6002 9.40562 73.3333 11.8557 73.3333 14.3621C73.3333 17.723 72.0164 20.9463 69.6722 23.3228C67.328 25.6994 64.1485 27.0345 60.8333 27.0345Z" fill="#2D3142"/>
<path d="M64.2 20.3411H61.8V7.89899C61.8125 7.72412 61.7712 7.54965 61.6821 7.40062C61.593 7.25159 61.4606 7.13567 61.304 7.06952C61.1598 7.00176 60.9986 6.98292 60.8435 7.01569C60.6884 7.04846 60.5472 7.13116 60.44 7.252L57.24 10.5699C57.0915 10.7239 57.008 10.9327 57.008 11.1505C57.008 11.3683 57.0915 11.5772 57.24 11.7311C57.3885 11.8851 57.59 11.9717 57.8 11.9717C58.01 11.9717 58.2115 11.8851 58.36 11.7311L60.2 9.90631V20.3411H57.8C57.5878 20.3411 57.3843 20.4284 57.2343 20.584C57.0843 20.7396 57 20.9505 57 21.1705C57 21.3905 57.0843 21.6015 57.2343 21.7571C57.3843 21.9126 57.5878 22 57.8 22H64.2C64.4122 22 64.6157 21.9126 64.7657 21.7571C64.9157 21.6015 65 21.3905 65 21.1705C65 20.9505 64.9157 20.7396 64.7657 20.584C64.6157 20.4284 64.4122 20.3411 64.2 20.3411Z" fill="#2D3142"/>
</svg>
