<svg width="40" height="40" viewBox="0 0 40 40" fill="none" xmlns="http://www.w3.org/2000/svg">
<path fill-rule="evenodd" clip-rule="evenodd" d="M9 0C4.02944 0 0 4.02944 0 9V31C0 35.9706 4.02944 40 9 40H31C35.9706 40 40 35.9706 40 31V9C40 4.02944 35.9706 0 31 0H9ZM28.0153 9.52327C24.9267 6.80631 21.9343 6.4379 17.8033 6.68756C14.2865 6.90011 11.8656 7.55709 9.47504 10.1098C5.58714 14.2613 5.7564 20.281 9.47504 24.5808C11.8127 27.2837 15.2255 28.0563 17.8033 28.492C21.5619 29.1272 26.3298 24.8743 26.3298 24.8743C26.3298 24.8743 21.0406 25.8525 17.8033 24.5808C16.0375 23.887 14.9101 23.4168 13.7383 21.9409C11.4708 19.0846 10.8987 14.9578 13.7383 12.652C15.0333 11.6005 17.8033 11.2832 17.8033 11.2832C17.8033 11.2832 22.2649 10.6001 24.4461 12.652C25.5129 13.6556 26.1595 14.5365 26.7264 15.8787C28.4387 19.9322 28.3678 23.0411 26.7264 27.123C25.279 30.7228 20.1828 34.6519 20.1828 34.6519C20.1828 34.6519 23.949 34.549 26.0324 33.4786C28.9105 32 30.9625 29.0191 31.882 25.9498C33.1709 21.6476 32.8735 19.7899 31.882 15.5854C31.882 15.5854 31.1039 12.2402 28.0153 9.52327ZM18.4973 18.0299C19.4829 18.0299 20.2819 17.2419 20.2819 16.2699C20.2819 15.2979 19.4829 14.5099 18.4973 14.5099C17.5117 14.5099 16.7127 15.2979 16.7127 16.2699C16.7127 17.2419 17.5117 18.0299 18.4973 18.0299Z" fill="#FDB90B"/>
</svg>
