<svg width="75" height="75" viewBox="0 0 75 75" fill="none" xmlns="http://www.w3.org/2000/svg">
<path d="M23.4548 42.6923H53.8529C54.8711 42.6923 55.8477 42.2778 56.5677 41.5399C57.2878 40.802 57.6923 39.8012 57.6923 38.7577V11.004C57.6923 9.92171 57.2727 8.8837 56.5259 8.11838C55.7791 7.35305 54.7662 6.9231 53.7101 6.9231H23.5658C22.5152 6.93168 21.5104 7.36541 20.7705 8.12981C20.0305 8.89421 19.6153 9.92732 19.6154 11.004V38.7577C19.6154 39.8012 20.0199 40.802 20.7399 41.5399C21.4599 42.2778 22.4365 42.6923 23.4548 42.6923ZM21.2019 11.004C21.2061 10.3542 21.4598 9.73225 21.9082 9.27275C22.3565 8.81326 22.9635 8.55323 23.5976 8.54897H53.7418C54.3704 8.56167 54.9692 8.82542 55.4108 9.28401C55.8524 9.74261 56.1017 10.3598 56.1057 11.004V38.7577C56.1016 39.3687 55.8629 39.9535 55.4413 40.3855C55.0197 40.8176 54.4491 41.0622 53.8529 41.0665H23.4548C22.8586 41.0622 22.2879 40.8176 21.8663 40.3855C21.4447 39.9535 21.206 39.3687 21.2019 38.7577V11.004Z" fill="#2D3142"/>
<path d="M24.9747 32.8647H36.2399C36.4533 32.8647 36.6579 32.7788 36.8088 32.6258C36.9597 32.4728 37.0445 32.2654 37.0445 32.0491C37.0445 31.8327 36.9597 31.6253 36.8088 31.4723C36.6579 31.3193 36.4533 31.2334 36.2399 31.2334H24.9747C24.7613 31.2334 24.5566 31.3193 24.4057 31.4723C24.2548 31.6253 24.17 31.8327 24.17 32.0491C24.17 32.2654 24.2548 32.4728 24.4057 32.6258C24.5566 32.7788 24.7613 32.8647 24.9747 32.8647ZM24.9747 37.7586H33.0212C33.2346 37.7586 33.4393 37.6727 33.5902 37.5197C33.7411 37.3667 33.8259 37.1593 33.8259 36.943C33.8259 36.7266 33.7411 36.5192 33.5902 36.3662C33.4393 36.2132 33.2346 36.1273 33.0212 36.1273H24.9747C24.7613 36.1273 24.5566 36.2132 24.4057 36.3662C24.2548 36.5192 24.17 36.7266 24.17 36.943C24.17 37.1593 24.2548 37.3667 24.4057 37.5197C24.5566 37.6727 24.7613 37.7586 24.9747 37.7586ZM20.0663 44.6753C19.5922 44.1081 18.9748 43.6823 18.2802 43.4438C17.5856 43.2053 16.84 43.1629 16.1235 43.3213V28.7865C16.1235 27.2722 15.53 25.8199 14.4737 24.7492C13.4174 23.6784 11.9847 23.0769 10.4909 23.0769C9.85065 23.0769 9.23665 23.3347 8.78394 23.7936C8.33123 24.2525 8.0769 24.8749 8.0769 25.5239V48.9983C8.07785 49.8049 8.31291 50.5935 8.75282 51.2658L17.3304 64.3162C17.591 64.7246 17.7306 65.2001 17.7328 65.6865V69.5689C17.7328 69.7853 17.8175 69.9927 17.9685 70.1457C18.1194 70.2987 18.324 70.3846 18.5374 70.3846H29.8026C30.016 70.3846 30.2207 70.2987 30.3716 70.1457C30.5225 69.9927 30.6073 69.7853 30.6073 69.5689V59.0797C30.6132 57.2225 29.9229 55.4324 28.6761 54.0716L20.0663 44.6753ZM28.998 68.7533H19.3421V65.6701C19.3411 64.8635 19.1061 64.0749 18.6662 63.4026L10.0885 50.3522C9.83094 49.9485 9.69145 49.479 9.68622 48.9983V25.5239C9.68622 25.3075 9.77099 25.1001 9.92189 24.9471C10.0728 24.7941 10.2775 24.7082 10.4909 24.7082C11.5579 24.7082 12.5812 25.1379 13.3358 25.9027C14.0903 26.6675 14.5142 27.7048 14.5142 28.7865V44.088L14.4015 44.1859C13.5847 44.8807 13.0733 45.8757 12.9797 46.9524C12.8862 48.029 13.2181 49.0993 13.9026 49.9281L20.018 57.3342C20.0807 57.4299 20.1627 57.5111 20.2585 57.5724C20.3544 57.6338 20.4619 57.6739 20.5741 57.6902C20.6863 57.7065 20.8007 57.6985 20.9097 57.6669C21.0186 57.6353 21.1198 57.5807 21.2065 57.5067C21.2932 57.4327 21.3635 57.3409 21.4128 57.2374C21.4621 57.134 21.4892 57.0211 21.4925 56.9063C21.4958 56.7914 21.4751 56.6772 21.4317 56.571C21.3884 56.4648 21.3234 56.3691 21.2411 56.2902L15.1418 48.8841C14.924 48.6388 14.7574 48.3514 14.6521 48.0392C14.5467 47.727 14.5047 47.3964 14.5286 47.0674C14.5526 46.7383 14.6419 46.4175 14.7913 46.1243C14.9406 45.8311 15.147 45.5716 15.3978 45.3614C15.6487 45.1511 15.9389 44.9944 16.2511 44.9008C16.5632 44.8072 16.8908 44.7785 17.2142 44.8165C17.5375 44.8545 17.85 44.9584 18.1327 45.122C18.4154 45.2856 18.6626 45.5054 18.8593 45.7683L27.5013 55.1972C28.4664 56.253 29.0012 57.6403 28.998 59.0797V68.7533ZM66.8168 23.0769C65.3229 23.0769 63.8903 23.6784 62.8339 24.7492C61.7776 25.8199 61.1842 27.2722 61.1842 28.7865V43.3213C60.474 43.1582 59.7332 43.1967 59.0433 43.4327C58.3534 43.6687 57.741 44.093 57.2736 44.659L48.6316 54.0716C47.3848 55.4324 46.6945 57.2225 46.7004 59.0797V69.5689C46.7004 69.7853 46.7852 69.9927 46.9361 70.1457C47.087 70.2987 47.2916 70.3846 47.505 70.3846H58.7702C58.9836 70.3846 59.1883 70.2987 59.3392 70.1457C59.4901 69.9927 59.5749 69.7853 59.5749 69.5689V65.6701C59.5771 65.1838 59.7167 64.7083 59.9772 64.2999L68.5548 51.2495C68.9917 50.5818 69.2267 49.7994 69.2307 48.9983V25.5239C69.2307 24.8749 68.9764 24.2525 68.5237 23.7936C68.071 23.3347 67.457 23.0769 66.8168 23.0769ZM67.6214 48.9983C67.6193 49.4846 67.4796 49.9601 67.2191 50.3685L58.6415 63.4189C58.2046 64.0866 57.9697 64.869 57.9656 65.6701V68.7533H48.3097V59.0797C48.3065 57.6403 48.8412 56.253 49.8064 55.1972L58.4645 45.7357C58.8282 45.2932 59.3343 44.995 59.8936 44.8936C60.4529 44.7921 61.0296 44.8939 61.5221 45.181H61.6348L61.8762 45.3605C62.365 45.7815 62.6697 46.3813 62.724 47.0291C62.7782 47.677 62.5776 48.3203 62.1659 48.8188L56.0666 56.2249C55.9842 56.3039 55.9193 56.3996 55.8759 56.5057C55.8326 56.6119 55.8119 56.7262 55.8152 56.841C55.8184 56.9559 55.8456 57.0687 55.8949 57.1722C55.9442 57.2757 56.0145 57.3674 56.1012 57.4414C56.1879 57.5154 56.289 57.57 56.398 57.6017C56.507 57.6333 56.6213 57.6412 56.7335 57.6249C56.8457 57.6087 56.9533 57.5685 57.0491 57.5072C57.1449 57.4458 57.2269 57.3646 57.2897 57.2689L63.405 49.8628C64.0895 49.0341 64.4215 47.9638 64.3279 46.8871C64.2344 45.8104 63.723 44.8154 62.9062 44.1207L62.7935 44.088V28.7865C62.7935 27.7048 63.2174 26.6675 63.9719 25.9027C64.7264 25.1379 65.7497 24.7082 66.8168 24.7082C67.0302 24.7082 67.2349 24.7941 67.3858 24.9471C67.5367 25.1001 67.6214 25.3075 67.6214 25.5239V48.9983Z" fill="#2D3142"/>
<path d="M41.579 18.6577C42.1347 17.7923 42.4942 17.3077 43.2134 17.3077C43.5075 17.3077 43.8017 17.8442 43.9488 18.1731C44.1812 18.7011 44.5767 19.1294 45.0699 19.3875C45.5631 19.6455 46.1246 19.7177 46.6618 19.5923C47.1975 19.4267 47.6655 19.076 47.9913 18.5962C48.3171 18.1163 48.4819 17.5348 48.4596 16.9443V7.78848C48.4596 7.55897 48.3735 7.33885 48.2202 7.17656C48.067 7.01427 47.8591 6.9231 47.6424 6.9231H29.6647C29.448 6.9231 29.2401 7.01427 29.0869 7.17656C28.9336 7.33885 28.8475 7.55897 28.8475 7.78848V16.9443C28.8289 17.5439 29.0031 18.1324 29.3416 18.6135C29.6801 19.0946 30.1628 19.4397 30.7107 19.5923C31.248 19.721 31.8108 19.6502 32.3047 19.3919C32.7986 19.1335 33.1937 18.7032 33.4237 18.1731C33.5708 17.8442 33.8813 17.3077 34.1591 17.3077C34.8292 17.3077 35.1724 17.7923 35.7935 18.6577C36.0528 19.2449 36.4538 19.7493 36.9559 20.12C37.458 20.4907 38.0436 20.7147 38.6536 20.7692C39.2749 20.7265 39.8741 20.5081 40.3887 20.1367C40.9032 19.7653 41.3143 19.2546 41.579 18.6577Z" fill="#FFB600"/>
<path d="M48.7188 31.25H41.9062C40.3357 31.25 39.0625 32.5232 39.0625 34.0937V36.2188C39.0625 37.7893 40.3357 39.0625 41.9062 39.0625H48.7188C50.2893 39.0625 51.5625 37.7893 51.5625 36.2188V34.0937C51.5625 32.5232 50.2893 31.25 48.7188 31.25Z" fill="#FFB600"/>
<circle cx="55" cy="11" r="9.5" fill="#F6F4F4" stroke="#2D3142"/>
<path d="M52.0246 9.3134C51.3862 9.3134 50.8824 9.08134 50.513 8.61722C50.171 8.18182 50 7.62679 50 6.95215C50 6.48325 50.2326 6.03589 50.6977 5.61005C51.1446 5.20335 51.5937 5 52.0451 5C52.7063 5 53.233 5.22967 53.6252 5.689C53.9991 6.13397 54.186 6.70574 54.186 7.40431C54.186 7.98804 53.9535 8.45933 53.4884 8.81818C53.0734 9.14833 52.5855 9.3134 52.0246 9.3134ZM57.435 6.2488C57.2663 6.53589 57.0862 6.91627 56.8947 7.38995L56.409 8.55263L55.0547 11.6029L53.5226 14.9904C53.3812 15.3589 53.1509 15.9019 52.8317 16.6196C52.7041 16.8732 52.5331 17 52.3187 17C52.1683 17 52.0315 16.9426 51.9083 16.8278C51.7898 16.7177 51.7305 16.5789 51.7305 16.4115C51.7305 16.3397 51.7442 16.2608 51.7715 16.1746C51.995 15.5287 52.3552 14.6842 52.8523 13.6411C53.4405 12.4115 53.8235 11.5766 54.0014 11.1364L55.8482 6.83014C56.0944 6.19378 56.3201 5.75837 56.5253 5.52392C56.6667 5.36124 56.8126 5.2799 56.9631 5.2799C57.1181 5.2799 57.2549 5.34211 57.3735 5.46651C57.4966 5.58612 57.5581 5.72727 57.5581 5.88995C57.5581 5.99522 57.5171 6.11483 57.435 6.2488ZM57.6129 16.9211C56.9927 16.9211 56.4774 16.7273 56.067 16.3397C55.6384 15.933 55.4241 15.4043 55.4241 14.7536C55.4241 14.0455 55.6156 13.4593 55.9986 12.9952C56.3999 12.4976 56.9334 12.2488 57.5992 12.2488C58.2193 12.2488 58.762 12.4306 59.2271 12.7943C59.7424 13.201 60 13.7225 60 14.3589C60 15.0909 59.7766 15.701 59.3297 16.189C58.8828 16.677 58.3105 16.9211 57.6129 16.9211ZM52.0246 6.20574C51.8149 6.20574 51.6188 6.27751 51.4364 6.42105C51.2403 6.57895 51.1423 6.75598 51.1423 6.95215C51.1423 7.33493 51.2152 7.6244 51.3611 7.82057C51.5116 8.01196 51.7328 8.10766 52.0246 8.10766C52.2709 8.10766 52.4943 8.05024 52.6949 7.93541C52.9229 7.80144 53.0369 7.6244 53.0369 7.40431C53.0369 7.00239 52.9526 6.70335 52.7839 6.50718C52.6151 6.30622 52.3621 6.20574 52.0246 6.20574ZM57.5992 13.4545C57.2709 13.4545 57.0132 13.5837 56.8263 13.8421C56.6575 14.0813 56.5732 14.3852 56.5732 14.7536C56.5732 15.0742 56.6712 15.3158 56.8673 15.4785C57.0679 15.6411 57.3666 15.7225 57.7633 15.7225C58.1281 15.7225 58.3995 15.61 58.5773 15.3852C58.7597 15.1555 58.8509 14.8134 58.8509 14.3589C58.8509 14.0813 58.7095 13.8541 58.4268 13.677C58.1806 13.5287 57.9047 13.4545 57.5992 13.4545Z" fill="#FFB600"/>
</svg>
