<svg width="75" height="75" viewBox="0 0 75 75" fill="none" xmlns="http://www.w3.org/2000/svg">
<path d="M58.1875 44.4062C57.9742 44.1896 57.7183 44.0194 57.4359 43.9064C57.1536 43.7935 56.8509 43.7402 56.5469 43.75H40.9219C40.3005 43.7554 39.7033 43.992 39.2469 44.4138C38.7905 44.8355 38.5075 45.4122 38.4532 46.0312L37.5 56.9688C37.4681 57.2763 37.5018 57.587 37.5987 57.8806C37.6957 58.1742 37.8538 58.4439 38.0625 58.6719C38.2718 58.897 38.5259 59.0759 38.8085 59.197C39.091 59.3181 39.3958 59.3787 39.7032 59.375H55.3282C55.9598 59.3725 56.5671 59.1311 57.0279 58.6992C57.4888 58.2673 57.7691 57.677 57.8125 57.0469L58.7657 46.1094C58.7945 45.8008 58.7579 45.4896 58.6583 45.1961C58.5587 44.9027 58.3983 44.6335 58.1875 44.4062ZM26.0313 51.5625H20.0782C19.4162 51.5673 18.7796 51.8177 18.2917 52.2652C17.8039 52.7127 17.4995 53.3253 17.4375 53.9844L17.1875 56.7656C17.157 57.0935 17.1954 57.4242 17.3004 57.7364C17.4053 58.0485 17.5745 58.3353 17.7969 58.5781C18.0126 58.8267 18.279 59.0264 18.5781 59.1638C18.8772 59.3013 19.2021 59.3733 19.5313 59.375H25.4844C26.1538 59.3691 26.7966 59.1122 27.2856 58.655C27.7746 58.1978 28.0742 57.5737 28.125 56.9062L28.375 54.0781C28.4036 53.7552 28.3639 53.4298 28.2585 53.1232C28.1531 52.8166 27.9845 52.5355 27.7635 52.2983C27.5425 52.0611 27.274 51.873 26.9756 51.7462C26.6772 51.6195 26.3555 51.5569 26.0313 51.5625ZM59.9063 22.5312L56.625 23.1875C56.5142 23.0718 56.388 22.972 56.25 22.8906V16.4062C56.25 16.199 56.1677 16.0003 56.0212 15.8538C55.8747 15.7073 55.676 15.625 55.4688 15.625C55.2616 15.625 55.0629 15.7073 54.9164 15.8538C54.7699 16.0003 54.6875 16.199 54.6875 16.4062V22.8906C54.4015 23.0676 54.1802 23.3322 54.0566 23.645C53.933 23.9579 53.9136 24.3022 54.0014 24.627C54.0892 24.9517 54.2794 25.2394 54.5437 25.4474C54.8081 25.6553 55.1325 25.7724 55.4688 25.7812C55.791 25.7756 56.1036 25.6705 56.3637 25.4803C56.6239 25.2901 56.8188 25.0241 56.9219 24.7188L60.2188 24.0625C60.3203 24.044 60.4171 24.0051 60.5032 23.9482C60.5894 23.8913 60.6631 23.8176 60.7201 23.7315C60.777 23.6454 60.8159 23.5487 60.8345 23.4471C60.8531 23.3456 60.8509 23.2413 60.8282 23.1406C60.7831 22.9396 60.6619 22.7638 60.49 22.6502C60.3181 22.5366 60.1089 22.4939 59.9063 22.5312Z" fill="#FFB600"/>
<path d="M70.3125 24.2188C70.3055 20.9652 69.232 17.8038 67.2565 15.2187C65.281 12.6336 62.5125 10.7675 59.375 9.90625V8.59375C59.375 7.55775 58.9635 6.56418 58.2309 5.83161C57.4983 5.09905 56.5048 4.6875 55.4688 4.6875C54.4328 4.6875 53.4392 5.09905 52.7066 5.83161C51.974 6.56418 51.5625 7.55775 51.5625 8.59375V9.375H17.1875C16.7463 9.37782 16.3084 9.45168 15.8906 9.59375C15.6834 9.6269 15.4979 9.74101 15.3748 9.91096C15.2517 10.0809 15.2012 10.2928 15.2344 10.5C15.2675 10.7072 15.3816 10.8927 15.5516 11.0158C15.7215 11.1389 15.9334 11.1894 16.1406 11.1562C16.2232 11.1727 16.3081 11.1727 16.3906 11.1562C16.6441 11.0447 16.9126 10.971 17.1875 10.9375H48.875C46.7619 11.9911 44.93 13.5326 43.5307 15.4345C42.1315 17.3364 41.2051 19.5441 40.8281 21.875H16.1406C15.8043 21.8816 15.4715 21.8052 15.1717 21.6526C14.872 21.5 14.6144 21.2759 14.4219 21C14.3025 20.8338 14.1227 20.721 13.9211 20.686C13.7195 20.6509 13.5122 20.6963 13.3438 20.8125C13.2585 20.869 13.1855 20.9421 13.129 21.0273C13.0725 21.1125 13.0336 21.2082 13.0147 21.3087C12.9957 21.4092 12.9971 21.5125 13.0188 21.6124C13.0404 21.7124 13.0818 21.807 13.1406 21.8906C13.472 22.3793 13.9197 22.7779 14.4434 23.0506C14.967 23.3234 15.5503 23.4617 16.1406 23.4531H40.625V24.2344C40.6333 28.1672 42.2003 31.9364 44.9827 34.7158C47.7651 37.4953 51.5359 39.0584 55.4688 39.0625C57.9245 39.0653 60.3418 38.4529 62.5 37.2812L60.375 61.6562C60.308 62.2982 60.0122 62.8946 59.5417 63.3364C59.0712 63.7782 58.4574 64.036 57.8125 64.0625H15.625C15.3331 64.069 15.043 64.014 14.7738 63.9009C14.5046 63.7878 14.2622 63.6193 14.0625 63.4063C13.8742 63.1944 13.7302 62.947 13.639 62.6787C13.5478 62.4103 13.5111 62.1265 13.5313 61.8438L15.3125 41.5312C15.3302 41.4225 15.3248 41.3113 15.2965 41.2048C15.2683 41.0984 15.2178 40.9991 15.1484 40.9135C15.0791 40.8279 14.9924 40.758 14.8941 40.7083C14.7958 40.6586 14.6882 40.6302 14.5781 40.625C14.4751 40.6143 14.3709 40.6246 14.2719 40.6553C14.1729 40.686 14.0812 40.7365 14.0023 40.8037C13.9234 40.8709 13.859 40.9534 13.813 41.0462C13.7669 41.1391 13.7402 41.2403 13.7344 41.3438L11.9531 61.6562C11.9025 62.161 11.9585 62.6707 12.1173 63.1525C12.2761 63.6343 12.5342 64.0774 12.875 64.4531C13.2211 64.836 13.6463 65.1391 14.1211 65.3415C14.596 65.5438 15.1091 65.6405 15.625 65.625H57.8125C58.8572 65.6038 59.858 65.2012 60.6264 64.4932C61.3948 63.7852 61.8778 62.8207 61.9844 61.7812L64.2188 36.2188C66.109 34.8409 67.6464 33.0355 68.7055 30.9499C69.7646 28.8644 70.3152 26.5578 70.3125 24.2188ZM53.125 8.59375C53.125 7.97215 53.3719 7.37601 53.8115 6.93647C54.251 6.49693 54.8472 6.25 55.4688 6.25C56.0904 6.25 56.6865 6.49693 57.126 6.93647C57.5656 7.37601 57.8125 7.97215 57.8125 8.59375V9.57812C57.038 9.44712 56.2542 9.37918 55.4688 9.375H53.125V8.59375ZM55.4688 37.5C52.842 37.5 50.2742 36.7211 48.0901 35.2617C45.906 33.8023 44.2037 31.7281 43.1985 29.3013C42.1933 26.8744 41.9302 24.204 42.4427 21.6277C42.9552 19.0514 44.2201 16.6849 46.0775 14.8275C47.9349 12.9701 50.3014 11.7052 52.8777 11.1927C55.454 10.6802 58.1244 10.9432 60.5513 11.9485C62.9781 12.9537 65.0523 14.656 66.5117 16.8401C67.9711 19.0242 68.75 21.592 68.75 24.2188C68.7459 27.7399 67.3453 31.1156 64.8554 33.6054C62.3656 36.0953 58.9899 37.4959 55.4688 37.5Z" fill="#2D3142"/>
<path d="M53.0156 50C53.2228 50 53.4215 49.9177 53.5681 49.7712C53.7146 49.6247 53.7969 49.4259 53.7969 49.2188C53.7969 49.0116 53.7146 48.8128 53.5681 48.6663C53.4215 48.5198 53.2228 48.4375 53.0156 48.4375H43.6406C43.4334 48.4375 43.2347 48.5198 43.0882 48.6663C42.9417 48.8128 42.8594 49.0116 42.8594 49.2188C42.8594 49.4259 42.9417 49.6247 43.0882 49.7712C43.2347 49.9177 43.4334 50 43.6406 50H53.0156ZM42.4531 53.9062C42.4531 54.1134 42.5354 54.3122 42.6819 54.4587C42.8285 54.6052 43.0272 54.6875 43.2344 54.6875H47.9219C48.1291 54.6875 48.3278 54.6052 48.4743 54.4587C48.6208 54.3122 48.7031 54.1134 48.7031 53.9062C48.7031 53.6991 48.6208 53.5003 48.4743 53.3538C48.3278 53.2073 48.1291 53.125 47.9219 53.125H43.2344C43.0272 53.125 42.8285 53.2073 42.6819 53.3538C42.5354 53.5003 42.4531 53.6991 42.4531 53.9062ZM35.5938 42.9688C35.5938 42.7615 35.5114 42.5628 35.3649 42.4163C35.2184 42.2698 35.0197 42.1875 34.8125 42.1875H19.1875C18.9803 42.1875 18.7816 42.2698 18.6351 42.4163C18.4886 42.5628 18.4062 42.7615 18.4062 42.9688C18.4062 43.176 18.4886 43.3747 18.6351 43.5212C18.7816 43.6677 18.9803 43.75 19.1875 43.75H34.8125C35.0197 43.75 35.2184 43.6677 35.3649 43.5212C35.5114 43.3747 35.5938 43.176 35.5938 42.9688ZM18.75 46.875C18.5428 46.875 18.3441 46.9573 18.1976 47.1038C18.0511 47.2503 17.9688 47.4491 17.9688 47.6562C17.9688 47.8634 18.0511 48.0622 18.1976 48.2087C18.3441 48.3552 18.5428 48.4375 18.75 48.4375H31.25C31.4572 48.4375 31.6559 48.3552 31.8024 48.2087C31.9489 48.0622 32.0312 47.8634 32.0312 47.6562C32.0312 47.4491 31.9489 47.2503 31.8024 47.1038C31.6559 46.9573 31.4572 46.875 31.25 46.875H18.75ZM5.46875 18.75H19.5312C19.7385 18.75 19.9372 18.6677 20.0837 18.5212C20.2302 18.3747 20.3125 18.176 20.3125 17.9688C20.3125 17.7615 20.2302 17.5628 20.0837 17.4163C19.9372 17.2698 19.7385 17.1875 19.5312 17.1875H5.46875C5.26155 17.1875 5.06284 17.2698 4.91632 17.4163C4.76981 17.5628 4.6875 17.7615 4.6875 17.9688C4.6875 18.176 4.76981 18.3747 4.91632 18.5212C5.06284 18.6677 5.26155 18.75 5.46875 18.75ZM22.6562 25H10.1562C9.94905 25 9.75034 25.0823 9.60382 25.2288C9.45731 25.3753 9.375 25.574 9.375 25.7812C9.375 25.9885 9.45731 26.1872 9.60382 26.3337C9.75034 26.4802 9.94905 26.5625 10.1562 26.5625H22.6562C22.8635 26.5625 23.0622 26.4802 23.2087 26.3337C23.3552 26.1872 23.4375 25.9885 23.4375 25.7812C23.4375 25.574 23.3552 25.3753 23.2087 25.2288C23.0622 25.0823 22.8635 25 22.6562 25ZM18.75 38.2812C18.75 38.074 18.6677 37.8753 18.5212 37.7288C18.3747 37.5823 18.176 37.5 17.9688 37.5H5.46875C5.26155 37.5 5.06284 37.5823 4.91632 37.7288C4.76981 37.8753 4.6875 38.074 4.6875 38.2812C4.6875 38.4885 4.76981 38.6872 4.91632 38.8337C5.06284 38.9802 5.26155 39.0625 5.46875 39.0625H17.9688C18.176 39.0625 18.3747 38.9802 18.5212 38.8337C18.6677 38.6872 18.75 38.4885 18.75 38.2812ZM7.03125 29.6875C6.82405 29.6875 6.62534 29.7698 6.47882 29.9163C6.33231 30.0628 6.25 30.2615 6.25 30.4688C6.25 30.676 6.33231 30.8747 6.47882 31.0212C6.62534 31.1677 6.82405 31.25 7.03125 31.25H11.7188C11.926 31.25 12.1247 31.1677 12.2712 31.0212C12.4177 30.8747 12.5 30.676 12.5 30.4688C12.5 30.2615 12.4177 30.0628 12.2712 29.9163C12.1247 29.7698 11.926 29.6875 11.7188 29.6875H7.03125ZM8.59375 14.0625H16.4062C16.6135 14.0625 16.8122 13.9802 16.9587 13.8337C17.1052 13.6872 17.1875 13.4885 17.1875 13.2812C17.1875 13.074 17.1052 12.8753 16.9587 12.7288C16.8122 12.5823 16.6135 12.5 16.4062 12.5H8.59375C8.38655 12.5 8.18784 12.5823 8.04132 12.7288C7.89481 12.8753 7.8125 13.074 7.8125 13.2812C7.8125 13.4885 7.89481 13.6872 8.04132 13.8337C8.18784 13.9802 8.38655 14.0625 8.59375 14.0625ZM14.875 28.125L14.2344 35.5781C14.217 35.783 14.281 35.9865 14.4126 36.1444C14.5443 36.3024 14.7329 36.4021 14.9375 36.4219C15.1343 36.4225 15.3241 36.3488 15.469 36.2156C15.6138 36.0823 15.703 35.8993 15.7188 35.7031L16.375 28.2656C16.3835 28.163 16.3717 28.0596 16.3401 27.9616C16.3086 27.8635 16.258 27.7726 16.1912 27.6942C16.1244 27.6158 16.0427 27.5514 15.9509 27.5046C15.8591 27.4579 15.759 27.4298 15.6563 27.4219C15.4599 27.4133 15.268 27.4822 15.1219 27.6137C14.9757 27.7452 14.8871 27.9288 14.875 28.125Z" fill="#2D3142"/>
<path d="M51.5625 9.875V9.375H29.6875C29.4918 9.3779 29.3039 9.45277 29.1598 9.58534C29.0157 9.71791 28.9255 9.89889 28.9063 10.0938L27.5782 25.3281C27.5308 25.8367 27.6604 26.3461 27.9451 26.7703C28.2297 27.1944 28.652 27.5074 29.1407 27.6563C29.7459 27.8599 30.4014 27.8585 31.0058 27.6524C31.6101 27.4462 32.1298 27.0467 32.4844 26.5156C33.1563 25.4531 33.7032 24.9531 34.3125 24.9531C34.7592 24.9665 35.1953 25.0924 35.5804 25.3191C35.9655 25.5458 36.2872 25.866 36.5157 26.25C36.8899 26.8251 37.4017 27.2977 38.0046 27.6251C38.6076 27.9525 39.2827 28.1243 39.9688 28.125C40.3594 28.1244 40.7483 28.0719 41.125 27.9688C40.6174 26.0953 40.4849 24.14 40.7352 22.2152C40.9855 20.2904 41.6136 18.434 42.5835 16.7527C43.5534 15.0714 44.8459 13.5983 46.3868 12.418C47.9277 11.2377 49.6866 10.3735 51.5625 9.875Z" fill="#FFB600"/>
</svg>
