<svg width="967" height="900" viewBox="0 0 967 900" fill="none" xmlns="http://www.w3.org/2000/svg">
<g opacity="0.35">
<path d="M447.704 -112.801C441.423 -92.7951 440.887 -72.1303 441.191 -51.7024C441.561 -28.1703 442.193 -4.64381 440.155 18.7466C438.076 45.8857 433.613 72.7869 426.822 99.1137C424.665 106.894 423.387 114.904 423.016 122.98C422.682 131.758 421.988 140.501 421.561 149.26C420.58 173.612 422.691 197.97 427.841 221.704C431.754 240.521 439.801 257.809 446.018 275.84C451.947 292.745 457.826 309.709 465.372 325.975C466.012 327.368 467.324 328.639 466.612 330.845C465.443 329.534 464.359 328.381 463.336 327.21C458.734 321.535 454.514 315.536 450.705 309.255C439.901 292.7 425.145 279.857 411.381 266.164C403.028 257.852 394.957 249.096 385.307 242.335C360.837 225.234 336.859 207.31 311.382 191.86C302.739 186.639 293.616 182.464 284.497 178.129C283.462 177.486 282.249 177.219 281.047 177.37C279.845 177.521 278.723 178.082 277.856 178.965C276.988 179.848 276.425 181.003 276.254 182.249C276.083 183.496 276.314 184.763 276.911 185.853C277.455 187.398 278.082 188.911 278.789 190.383C285.486 203.401 292.177 216.398 301.867 227.456C306.046 232.227 311.232 235.688 315.486 240.323C341.251 268.456 367.106 296.427 392.892 324.645C407.884 341.091 423.945 356.301 444.832 363.814C459.357 369.109 473.887 374.425 488.027 380.969C489.796 381.792 492.032 382.119 492.807 384.043C496.059 392.243 498.479 400.883 501.988 409.148C498.736 407.529 495.594 405.681 492.586 403.616C481.369 396.477 471.104 387.815 459.337 381.537C445.536 374.168 431.642 367.123 416.597 362.544C403.528 358.57 391.025 352.591 377.954 348.778C351.515 341.297 325.887 331.059 301.458 318.219C288.548 311.575 274.816 306.797 260.64 304.018C254.072 302.633 250.881 306.314 251.976 313.116C252.652 317.107 254.358 320.825 256.911 323.874C265.884 334.827 276.293 344.412 287.836 352.352C313.566 369.828 341.57 383.038 368.373 398.433C379.303 404.274 389.769 411.002 399.674 418.554C409.659 426.634 419.866 434.719 431.162 440.446C454.039 451.626 477.746 460.894 502.06 468.162C506.133 469.385 510.38 469.883 514.623 469.634C523.09 469.488 531.532 470.47 539.744 472.557C541.286 472.92 543.178 472.933 544.059 474.326C549.237 482.325 557.548 487.799 560.873 497.233C565.825 510.903 573.918 522.593 582.658 533.804C585.444 537.327 588.082 540.959 590.867 544.482C591.913 545.828 592.998 547.414 591.828 548.769C590.657 550.125 589.312 548.635 588.127 548.035C575.296 541.746 562.479 535.482 549.676 529.246C529.272 519.317 507.329 514.04 485.97 507.002C478.964 504.669 472.055 501.945 464.956 500.026C439.549 493.218 416.287 481.383 394.044 467.597C374.652 455.605 357.173 440.863 339.725 426.158C306.741 398.306 273.565 370.736 238.53 345.695C233.089 341.656 227.006 338.635 220.555 336.769C216.326 335.682 214.105 337.311 213.953 341.89C213.795 346.133 214.692 350.339 216.558 354.102C222.077 365.515 227.726 377.005 235.376 386.951C248.05 403.435 261.056 419.758 275.067 435.022C300.671 463.427 329.337 488.672 360.504 510.264C391.822 531.315 424.853 548.486 462.133 556.209C489.716 561.903 517.613 565.638 545.19 571.31C570.199 576.489 594.757 583.734 618.632 592.975C626.999 595.863 634.589 600.747 640.799 607.238C644.947 611.686 649.457 615.752 654.281 619.392C657.048 621.454 659.146 624.343 660.3 627.678C650.497 622.214 641.069 619.082 631.895 615.31C618.919 609.691 605.534 605.136 591.861 601.685C583.312 599.674 574.728 597.787 566.225 595.876C542.195 590.594 518.429 584.281 493.487 584.476C473.625 584.697 454.16 586.652 435.286 593.342C418.766 599.185 402.626 606.175 385.903 611.392C365.572 618.079 343.826 618.322 323.448 612.089C300.092 604.885 281.517 589.723 265.009 571.721C252.217 557.709 240.9 542.415 229.258 527.395C219.156 514.288 207.75 502.438 199.053 488.206C194.071 479.822 187.8 472.352 180.486 466.089C174.65 461.193 169.319 461.648 164.169 467.294C162.144 469.266 160.672 471.772 159.91 474.542C159.149 477.311 159.127 480.238 159.847 483.009C164.711 500.214 170.259 517.431 179.935 532.23C193.308 552.666 207.238 572.876 223.482 591.043C239.725 609.211 256.688 626.583 276.311 640.948C290.806 651.925 307.386 659.584 324.968 663.424C364.953 671.683 405.188 669.797 445.486 666.344C470.413 664.193 495.196 660.442 519.875 656.628C551.557 651.684 583.201 649.349 615.15 652.352C637.036 654.386 658.416 659.868 680.337 661.437C681.408 661.478 682.457 661.756 683.413 662.253C684.369 662.75 685.21 663.454 685.881 664.319C693.002 673.734 699.04 683.988 703.872 694.871C690.92 693.167 678.517 691.718 666.18 689.84C648.666 686.787 630.823 686.177 613.122 688.025C591.205 690.786 570.315 698.614 549.111 704.866C531.017 710.219 513.149 716.374 494.322 719.107C472.298 722.121 450.089 723.299 427.909 722.63C393.181 721.823 359.049 716.974 327.326 702.008C303.776 690.938 281.085 677.894 257.327 667.042C240.945 659.627 224.357 652.611 208.215 644.672C200.522 640.762 192.269 638.165 183.768 636.978C178.145 636.284 174.288 639.423 175.4 645.081C177.013 653.402 178.64 661.946 186.593 667.134C193.615 671.294 200.21 676.186 206.276 681.733C218.283 693.442 231.501 703.734 245.692 712.422C270.407 727.747 296.752 740.057 324.211 749.111C353.435 758.923 383.25 766.654 412.776 775.492C451.958 787.237 490.694 785.067 529.37 772.748C554.233 764.826 576.842 751.157 601.125 741.735C614.011 736.711 626.68 730.837 640.325 728.539C657.167 725.682 673.938 722.549 691.03 721.627C698.937 721.199 706.836 719.45 714.652 719.525C724.087 719.669 733.796 720.281 741.6 727.039C749.404 733.796 757.552 738.974 765.44 745.024C768.097 747.118 770.488 749.553 772.556 752.272C777.498 758.873 783.067 764.938 789.178 770.378C798.176 778.029 803.996 788.378 810.074 799.314C801.246 799.023 792.44 798.265 783.692 797.043C766.724 795.263 749.822 793.396 732.64 794.913C713.65 796.575 695.164 801.081 676.55 804.825C665.874 806.969 655.143 808.81 644.914 813.312C628.054 820.755 611.635 829.237 593.943 834.704C591.058 835.551 588.296 836.805 585.735 838.432C577.649 843.385 568.688 846.579 559.4 847.818C505.61 856.671 452.702 851.394 400.645 836.692C375.899 829.721 351.467 821.657 325.462 820.693C318.446 820.392 311.527 822.457 304.543 821.076C298.432 819.875 292.095 821.148 286.826 824.635C279.614 829.085 279.23 832.407 285.312 838.351C286.072 839.094 286.766 839.923 287.461 840.753C298.032 853.405 312.022 862.454 327.633 866.738C356.718 874.88 386.331 880.867 415.83 887.273C445.866 893.802 476.419 896.151 506.781 900.08C525.821 902.923 545.199 902.547 564.166 898.966C575.226 896.691 586.357 894.692 597.499 892.827C620.337 888.947 642.562 881.76 663.523 871.475C677.031 864.931 689.627 856.183 703.45 850.097C717.887 843.747 731.406 834.829 746.92 831.504C762.788 828.101 778.351 823.416 794.281 820.429C807.88 817.779 821.756 815.782 834.431 823.559C848.62 832.276 862.537 841.481 876.358 850.827C892.685 861.905 905.917 876.955 921.654 888.997C945.087 906.938 967.262 926.669 989.953 945.663C994.194 949.208 998.369 952.84 1002.55 956.424C1004.07 957.728 1005.84 959.257 1007.62 957.274C1009.4 955.291 1008.78 953.187 1006.98 951.461C1004.91 949.231 1002.74 947.113 1000.46 945.115C986.204 933.614 972.47 921.418 957.905 910.276C943.944 899.602 931.452 886.941 916.909 877.001C909.061 871.624 903.443 863.704 896.2 857.768C879.832 844.286 861.397 833.984 844.03 822.014C831.057 813.068 817.186 807.839 801.343 810.733C792.198 812.423 783.022 814.076 774.078 816.552C756.634 821.357 738.395 823.035 721.96 831.886C705.525 840.737 687.332 847.599 671.25 857.923C655.168 868.247 637.639 874.785 619.839 880.259C603.243 885.372 586.068 887.867 569.079 891.176C558.007 893.318 546.911 895.626 535.559 895.545C508.01 895.335 480.85 890.958 453.585 887.979C424.208 884.729 395.35 877.047 366.202 871.59C355.756 869.635 345.526 866.457 335.156 864.025C318.137 860.436 302.669 851.371 290.938 838.109C284.766 831.119 285.392 829.006 294.722 826.58C295.912 826.219 297.144 826.033 298.381 826.027C308.362 826.244 318.369 826.386 328.331 826.699C352.157 827.731 374.46 835.369 397.223 842.056C447.272 856.891 498.207 862.701 550.183 856.297C564.432 854.559 578.424 851.981 590.962 843.955C593.923 842.303 597.075 841.055 600.338 840.24C607.942 837.846 615.204 834.544 622.562 831.444C636.762 825.457 650.358 817.703 665.524 814.476C675.378 812.381 685.327 810.92 695.079 808.421C720.83 801.919 747.424 799.985 773.735 802.7C774.883 802.809 776.694 802.161 776.949 804.369C775.619 805.701 773.945 805.421 772.421 805.646C750.296 808.192 728.868 814.598 707.332 820.579C681.918 827.631 658.147 839.668 633.334 848.647C611.108 857.058 588.144 863.143 564.786 866.813C534.318 871.096 503.738 869.416 473.188 868.024C450.209 866.958 427.4 863.885 404.583 861.042C401.885 860.709 399.177 860.423 395.738 860.026C398.05 862.08 400.932 863.318 403.973 863.561C437.952 869.275 472.031 874.003 506.536 875.054C533.548 875.917 560.4 875.548 587.071 869.897C610.511 864.929 633.012 856.784 655.246 847.939C681.47 837.513 707.627 827.084 734.977 820.306C749.439 816.73 763.383 810.428 778.603 809.829C790.139 809.187 801.62 807.664 812.953 805.272C818.292 804.245 819.647 801.287 816.321 796.937C814.464 794.475 813.087 791.74 811.368 789.216C807.024 782.851 803.566 775.826 798.106 770.163C790.799 762.855 782.832 756.235 777.144 747.263C774.989 743.687 772.095 740.658 768.67 738.393C760.117 732.918 752.407 726.271 744.425 720.02C740.334 716.446 735.174 714.455 729.813 714.384C707.666 715.204 685.478 715.261 663.531 719.284C656.754 720.523 649.918 721.377 643.056 721.843C631.956 722.608 621.081 725.551 611.006 730.516C578.961 746.024 546.616 760.615 512.864 771.659C482.07 781.732 451.491 779.71 421.228 771.08C401.976 765.59 382.84 759.521 363.542 754.113C325.33 743.416 287.637 731.137 253.24 709.724C241.496 702.413 229.352 695.945 219.11 686.252C210.227 677.93 201.353 669.559 190.618 663.88C183.314 660.036 182.109 652.717 180.184 645.761C179.518 643.145 180.48 641.574 183.665 642.181C189.036 643.265 194.604 643.655 199.401 646.542C210.571 653.148 222.843 657.187 234.336 662.995C256.1 673.953 278.405 683.755 299.825 695.517C316.228 704.568 332.625 713.506 350.825 718.745C385.956 728.897 421.783 731.605 458.013 730.894C477.598 730.744 497.117 728.253 516.186 723.472C539.765 717.234 562.927 709.358 586.316 702.376C601.185 697.672 616.591 695.115 632.102 694.777C651.831 694.638 671.005 698.44 690.46 699.724C691.175 699.773 692.116 699.759 692.186 700.81L692.153 700.683C692.221 700.485 692.346 700.314 692.512 700.194C692.819 700.108 693.147 700.357 693.539 700.862C693.551 700.76 693.577 700.661 693.617 700.566C693.916 699.844 694.621 700.283 695.197 700.303L696.506 700.527C697.122 700.4 697.743 700.309 698.368 700.252C698.903 700.187 699.443 700.268 699.936 700.49C700.428 700.711 700.854 701.064 701.171 701.514C704.262 700.027 707.248 701.145 710.25 701.894L713.221 701.489C714.622 700.091 715.479 698.71 714.187 696.658C712.489 694.128 711.051 691.411 709.481 688.868C704.7 680.962 697.006 675.496 692.633 667.293C687.17 657.049 678.373 653.375 667.698 652.852C661.01 652.459 654.321 652.065 647.708 651.104C626.732 647.901 605.795 644.072 584.489 643.538C579.603 643.411 574.653 644.67 569.767 644.544C536.181 643.734 502.991 647.417 469.901 653.214C428.617 660.296 387.199 666.162 345.353 660.342C327.369 657.846 309.227 654.3 293.909 643.735C277.221 632.189 261.106 619.958 246.681 604.879C232.777 590.291 220.373 574.438 207.212 559.23C201.92 553.11 198.832 544.863 193.499 538.754C179.77 523.046 174.306 503.138 166.644 484.261C165.396 480.604 165.45 476.595 166.797 472.958C168.047 468.639 170.372 467.938 173.783 470.555C180.144 475.44 186.399 480.514 190.701 487.575C195.854 496.082 202.295 503.611 207.85 511.8C226.349 539.734 247.45 565.695 270.849 589.312C288.057 606.523 308.186 618.216 331.619 621.843C347.696 624.12 364.056 623.368 379.916 619.621C400.15 615.079 419.339 606.955 438.976 600.416C472.276 589.317 505.972 589.092 539.636 597.105C557.108 601.296 574.665 604.87 592.178 608.707C607.016 612.235 621.646 616.625 636 621.857C643.989 624.596 651.707 627.913 659.522 631.179C661.114 631.825 663.158 632.434 664.415 630.643C665.672 628.853 664.185 627.152 663.094 625.887C659.483 621.709 655.628 617.781 652.057 613.591C645.859 605.894 639.096 598.71 631.828 592.103C623.363 584.734 612.678 581.753 602.016 579.038C587.935 575.486 574.798 568.911 560.265 567.037C531.121 563.201 502.221 557.653 473.702 550.417C463.959 547.945 453.832 547.244 444.371 543.895C421.342 535.937 399.036 525.906 377.706 513.915C340.236 492.528 306.59 464.631 278.213 431.422C265.054 416.138 252.097 400.585 239.342 384.762C230.571 373.946 224.594 361.34 218.918 348.536C218.001 346.401 217.318 343.631 219.553 341.975C220.504 341.413 221.604 341.192 222.683 341.345C223.762 341.498 224.76 342.017 225.522 342.821C229.479 345.854 233.31 349.082 237.422 351.866C250.202 360.57 261.71 371.093 274.146 380.259C297.212 397.278 319.346 415.38 340.915 434.37C359.511 450.735 378.87 466.132 400.313 478.502C426.696 493.339 454.695 504.87 483.727 512.854C489.816 514.602 495.748 516.941 501.925 518.344C519.451 522.314 536.395 528.621 552.338 537.111C570.581 546.919 589.955 554.266 607.764 565.041C609.323 565.991 611.351 566.536 612.503 564.593C613.655 562.65 612.269 561.172 610.56 560.24C604.156 556.736 600.77 550.51 597.466 544.262C592.381 533.832 586.101 524.085 578.764 515.232C567.442 502.333 559.369 486.671 547.374 474.234C545.512 471.917 543.071 470.177 540.317 469.204C529.455 466.044 518.139 465.588 507.192 462.703C490.683 458.241 475.737 450.169 460.108 443.727C451.621 440.239 442.497 438.732 434.337 434.286C410.614 421.327 387.975 406.331 365.34 391.607C356.562 385.854 346.862 382.344 338.24 376.341C329.618 370.339 320.219 366.63 311.762 360.672C298.229 351.336 283.014 344.367 271.697 331.831C266.924 326.543 261.217 322.067 258.258 315.106C257.676 313.766 257.104 312.126 257.942 310.933C258.78 309.739 260.57 310.557 261.808 310.937C264.846 311.828 267.85 312.842 270.819 313.98C292.905 322.409 315.022 330.783 337.069 339.314C356.569 346.898 377.153 351.237 396.586 359.593C422.848 370.879 449.545 380.856 473.084 397.833C490.54 410.416 509.358 420.928 525.329 435.525C534.965 444.387 544.484 453.396 554.397 462.658C554.883 458.911 554.199 455.109 552.447 451.812C550.434 446.542 549.258 440.962 548.965 435.288C547.266 415.595 550.771 396.327 554.845 377.309C559.966 353.436 568.55 330.571 576.371 307.555C583.109 287.753 587.571 267.207 589.664 246.346C591.479 227.6 591.351 208.467 591.446 189.522C591.532 171.491 595.985 154.394 600.567 137.284C601.168 134.279 602.694 131.552 604.914 129.517C606.461 130.334 606.428 131.757 606.726 132.926C610.158 145.218 612.282 157.872 613.063 170.663C614.131 195.297 620.661 218.961 623.596 243.252C626.169 264.567 627.367 285.746 620.578 306.259C614.356 324.949 608.661 343.809 599.898 361.574C597.982 365.305 596.489 369.252 595.449 373.336C590.548 393.591 579.648 411.844 576.833 432.787C576.696 433.682 576.393 434.542 575.94 435.318C569.234 447.101 569.362 460.627 566.694 473.437C565.987 477.627 566.862 481.929 569.137 485.444C578.107 501.787 589.402 516.563 598.414 532.894C599.637 534.887 600.988 536.79 602.457 538.593C603.879 540.471 605.589 542.268 608.263 541.127C609.264 540.703 610.089 539.922 610.589 538.924C611.088 537.926 611.228 536.778 610.984 535.687C609.697 522.784 613.814 510.751 616.339 498.415C620.562 477.827 627.344 457.976 631.649 437.366C634.851 422.081 636.467 406.262 642.364 391.562C643.014 389.465 643.391 387.289 643.484 385.092C645.591 367.494 649.811 350.258 651.507 332.685C653.204 315.112 656.651 297.775 655.867 280.035C655.637 274.903 656.558 269.811 656.565 264.749C656.615 249.076 657.262 233.417 654.315 217.792C650.371 196.039 648.664 173.897 649.223 151.737C649.595 135.951 651.047 120.179 652.129 104.42C652.98 92.2364 656.621 80.7477 660.799 69.4723C661.366 67.9904 662.128 66.0661 663.765 65.8552C665.403 65.6442 666.017 67.7961 666.901 69.0281C668.729 71.9248 670.165 75.0704 671.171 78.3776C675.863 90.2516 674.908 103.148 677.364 115.379C681.743 137.234 683.567 159.49 686.448 181.585C687.965 193.237 687.541 205.027 689.186 216.575C693.093 244.078 696.866 271.574 698.161 299.427C698.769 317.497 697.108 335.589 693.219 353.244C689.146 373.038 679.81 390.622 673.435 409.401C664.222 436.524 653.718 463.145 642.226 489.338C637.851 499.324 636.116 510.366 630.207 519.759C623.652 530.154 623.63 542.401 622.183 554.137C621.444 559.861 624.001 564.816 627.231 569.307C637.429 583.481 650.305 595.326 660.564 609.483C661.144 610.197 661.867 610.771 662.683 611.165C663.258 611.603 663.949 611.847 664.664 611.866C665.379 611.884 666.084 611.675 666.684 611.267C667.114 610.784 667.384 610.172 667.455 609.52C667.527 608.868 667.395 608.211 667.08 607.646C663.304 599.114 665.084 589.974 664.311 581.075C662.645 563.381 665.08 545.5 671.412 528.928C673.087 524.297 674.401 519.536 675.342 514.691C677.598 503.197 680.953 491.958 685.356 481.142C699.673 447.93 709.279 413.038 720.528 378.731C728.531 354.274 730.022 328.303 736.668 303.521C739.523 292.824 737.698 281.692 739.23 270.889C743.366 242.371 743.171 213.661 742.344 184.97C741.864 177.683 742.21 170.356 743.373 163.14C744.406 156.98 744.897 150.738 744.84 144.492C745.391 121.818 754.04 101.965 765.152 82.9907C766.148 81.2966 767.33 79.2993 769.548 79.4717C771.766 79.6441 772.372 81.935 773.054 83.8395C775.106 89.107 776.217 94.7255 776.332 100.42C776.056 113.741 775.338 127.049 775.15 140.368C775.225 147.873 774.628 155.375 773.367 162.775C772.123 169.636 772.01 176.658 773.033 183.542C775.121 200.367 774.474 217.576 779.569 233.964C779.887 235.207 780.007 236.497 779.927 237.783C779.756 247.723 781.547 257.43 782.532 267.249C784.251 284.521 785.508 301.876 786.127 319.23C787.254 350.822 780.719 381.475 774.775 412.121C770.97 431.679 765.336 450.864 760.609 470.249C757.332 483.253 754.287 496.306 748.938 508.504C735.908 538.231 724.331 568.573 711.688 598.441C703.361 618.089 699.863 638.244 702.923 659.491C703.097 660.962 703.534 662.385 704.211 663.686C710.356 674.721 717.574 685.066 725.753 694.559C736.262 706.11 747.807 716.592 760.232 725.865C762.351 727.547 764.383 729.664 767.25 727.556C770.118 725.448 768.667 722.598 767.894 720.081C765.404 711.939 762.104 703.98 760.3 695.691C753.432 663.466 756.238 629.758 768.341 599.106C781.52 564.619 790.517 528.713 805.403 494.976C814.759 473.762 817.416 450.562 823.815 428.517C826.262 420.1 829.694 411.93 830.543 403.189C833.483 376.011 841.208 349.513 841.062 321.86C840.999 310.14 844.648 298.512 843.708 286.628C841.405 257.487 838.291 228.438 840.421 199.027C841.416 185.686 843.257 172.995 849.212 161.105C851.858 155.8 852.9 155.666 857.304 159.507C859.037 161.082 860.4 163.048 861.29 165.257C862.18 167.467 862.573 169.861 862.439 172.259C862.329 184.416 864.882 196.255 865.901 208.276C867.556 227.799 870.863 247.084 873.067 266.521C875.019 283.931 877.305 301.362 880.75 318.602C883.508 332.366 886.382 346.326 886.818 360.198C887.163 380.291 885.323 400.377 881.333 420.072C877.161 442.24 869.166 463.709 860.629 484.693C852.093 505.676 841.843 525.364 834.163 546.516C824.506 573.104 813.681 599.245 803.823 625.73C796.367 645.952 794.362 667.92 786.4 687.967C779.36 705.77 784.646 722.651 787.796 739.678C788.127 741.106 788.78 742.43 789.702 743.54C795.308 750.552 800.223 758.124 806.353 764.692C822.978 782.547 840.809 799.013 858.594 815.56C874.995 830.811 892.932 843.988 910.242 857.98C911.817 859.245 913.598 861.068 915.893 859.213C916.678 858.603 917.217 857.712 917.406 856.714C917.594 855.717 917.419 854.685 916.913 853.82C910.236 836.738 904.264 819.322 896.77 802.653C885.316 777.164 881.47 749.985 878.822 722.423C878.591 718.555 878.803 714.669 879.454 710.848C882.127 690.469 885.616 670.362 892.991 651.028C895.047 645.759 896.752 640.351 898.093 634.843C902.653 614.115 908.497 593.708 915.588 573.748C925.158 548.028 930.46 520.982 937.434 494.468C943.12 472.898 945.443 450.544 946.672 428.202C947.22 418.019 946.327 407.786 947.799 397.524C949.196 386.832 949.6 376.032 949.008 365.273C947.943 340.911 945.41 316.644 949.717 292.249C951.411 282.426 950.559 272.182 953.931 262.57C957.124 253.464 962.972 247.279 972.194 245.203C979.32 243.604 982.508 246.033 984.676 253.08C988.256 264.812 987.147 276.931 987.852 288.927C989.444 316.308 992.032 343.637 993.953 371.017C994.802 383.496 998.683 395.371 999.743 407.813C1001.82 432.437 999.654 456.798 995.581 481.081C994.017 491.79 991.56 502.343 988.24 512.622C979.701 537.39 976.414 563.549 969.392 588.755C964.489 606.412 964.811 625.444 958.116 642.877C957.68 644.461 957.357 646.076 957.15 647.708C953.091 666.266 949.435 684.939 944.814 703.359C942.007 714.157 940.157 725.192 939.285 736.327C937.66 758.234 936.328 780.171 933.916 802.003C932.042 818.966 930.222 835.707 934.93 852.386C935.257 853.628 935.406 854.915 935.375 856.204C935.203 868.379 940.714 878.381 948.146 886.61C968.37 908.59 991.492 927.477 1016.83 942.712C1017.11 942.92 1017.42 943.101 1017.73 943.254C1018.49 943.548 1019.31 943.578 1020.08 943.339C1020.85 943.101 1021.53 942.608 1022.01 941.935C1023.36 940.436 1022.19 939.103 1021.22 938.145C1018.72 935.638 1016.38 932.924 1013.94 930.351C1008.72 924.849 1001.24 923.563 995.632 918.807C987.173 911.459 978.035 904.896 970.319 896.587C965.45 891.35 959.722 886.879 955.311 881.285C949.521 873.983 944.709 866.04 944.556 855.781C944.365 841.748 939.553 828.541 942.116 813.595C946.323 788.978 946.99 763.74 948.986 738.72C949.557 727.556 951.504 716.505 954.778 705.838C957.725 697.428 959.86 688.74 961.153 679.902C961.768 676.293 962.598 672.725 963.637 669.219C967.671 653.494 973.12 637.894 975.057 621.871C978.432 594.07 987.247 567.628 992.324 540.304C995.585 522.837 1003.35 506.515 1005.12 488.694C1007.06 469.069 1011.97 449.723 1010.71 429.769C1010.06 414.075 1008.48 398.445 1005.98 382.966C1002.34 362.908 1001.7 342.278 1000.25 321.853C999.332 308.916 997.824 296.007 997.421 283.038C997.375 272.247 995.936 261.522 993.144 251.148C989.423 238.522 981.322 233.786 969.03 237.434C954.933 241.409 947.581 252.12 945.264 266.221C942.56 282.597 941.005 299.173 939.058 315.677C938.892 318.045 938.895 320.421 939.068 322.786C939.502 339.758 939.875 356.748 940.459 373.701C940.919 387.497 937.212 401.056 937.744 414.787C938.871 441.639 934.516 467.916 928.024 493.565C920.066 525.098 912.186 556.678 901.741 587.59C892.174 615.907 885.684 645.271 877.666 674.154C872.545 692.51 868.994 711.769 871.393 731.196C874.844 759.238 880.006 786.753 892.846 812.17C897.558 821.532 900.437 831.889 904.568 842.941C902.762 841.627 902.041 841.123 901.356 840.587C872.744 818.188 845.657 793.764 820.286 767.487C812.214 758.915 804.584 749.906 797.425 740.496C796.08 738.81 795.198 736.776 794.871 734.606C794.064 729.021 792.893 723.471 792.019 717.882C790.664 711.238 790.867 704.341 792.608 697.772C797.67 682.526 801.977 667.025 805.51 651.329C809.258 633.018 816.569 615.845 823.569 598.577C833.565 573.923 842.484 548.752 852.992 524.386C862.793 501.815 873.129 479.618 880.52 455.949C886.677 436.229 893.147 416.877 893.343 395.829C893.451 384.608 897.389 373.423 896.036 362.248C893.761 343.219 890.089 324.402 887.408 305.419C881.153 261.278 874.262 217.224 869.957 172.806C869.045 163.445 865.674 155.985 857.485 151.251C852.492 148.373 850.255 148.731 846.665 153.344C842.684 158.544 839.791 164.547 838.172 170.965C832.447 194.278 832.254 218.014 832.916 241.829C833.593 266.049 839.065 290.126 834.078 314.439C831.52 326.99 834.129 339.998 831.058 352.603C828.56 363.303 826.702 374.149 825.492 385.079C823.898 398.725 820.858 412.157 816.43 425.129C810.8 441.395 809.566 458.975 803.532 475.036C793.345 502.388 783.132 529.724 774.336 557.619C766.062 583.862 754.265 608.682 751.291 636.849C748.578 662.504 749.482 687.185 757.783 711.421C757.877 711.595 757.932 711.789 757.945 711.989C757.957 712.189 757.928 712.389 757.858 712.576C757.789 712.763 757.68 712.932 757.541 713.072C757.402 713.211 757.235 713.317 757.053 713.382C742.853 702.17 729.603 689.718 717.445 676.16C711.761 669.968 709.914 662.625 709.184 653.896C707.751 639.321 709.789 624.579 715.119 610.967C717.545 604.881 719.815 598.703 722.488 592.729C729.238 577.583 734.19 561.668 741.266 546.68C752.872 522.142 764.261 497.528 770.063 470.637C771.907 461.118 774.263 451.711 777.119 442.459C785.118 418.846 786.91 393.975 792.088 369.722C795.555 353.496 794.525 336.6 795.149 319.991C795.675 306.531 791.487 293.535 792.106 280.095C792.656 268.543 788.635 257.323 788.44 245.776C788.093 236.457 786.827 227.206 784.661 218.168C781.255 202.467 779.095 186.05 780.271 170.31C781.863 149.051 780.557 127.88 781.647 106.717C781.878 97.6956 780.192 88.746 776.708 80.5073C773.74 72.8195 767.854 72.0403 762.622 78.1426C752.445 89.9241 746.774 104.219 742.215 118.747C736.231 137.506 736.236 157.449 734.939 176.847C733.96 191.46 735.073 206.44 734.519 221.252C733.212 257.087 731.652 292.878 723.257 327.954C722.109 332.563 721.202 337.232 720.537 341.94C718.589 357.488 714.014 372.294 709.001 387.019C700.323 412.623 693.665 438.912 683.056 463.83C680.202 470.561 677.73 477.412 675.419 484.377C669.591 502.112 666.544 520.591 661.052 538.436C657.772 549.963 656.689 562.03 657.865 573.958C658.666 581.993 658.884 590.084 658.516 598.162C649.033 590.646 641.356 580.948 636.08 569.82C630.057 556.772 629.089 543.916 634.413 531.36C639.512 519.301 645.692 507.78 649.316 495.02C652.585 483.362 659.508 473.205 663.191 461.796C668.688 444.746 675.803 428.358 681.895 411.574C684.144 405.401 685.711 398.964 688.969 393.214C699.017 375.497 703.22 355.781 706.327 335.896C711.06 305.842 706.101 276.105 702.577 246.396C701.031 233.338 697.882 220.368 697.216 207.313C696.007 185.317 691.72 163.824 689.229 142.052C687.272 125.053 683.144 108.325 679.5 91.5967C677.457 82.2805 675.423 72.8252 669.65 64.9026C665.4 59.0805 661.608 59.1926 658.052 65.7566C655.674 70.8663 653.673 76.1549 652.066 81.5761C647.459 94.2717 647.881 107.829 646.157 120.896C643.204 143.957 642.513 167.253 644.097 190.426C645.47 210.826 650.473 230.818 649.824 251.47C649.369 266.071 650.263 280.794 648.748 295.285C647.233 309.775 646.197 324.336 643.798 338.802C641.781 351.064 639.038 363.234 637.556 375.526C635.422 393.018 629.832 409.615 626.786 426.976C623.74 444.337 618.948 461.484 614.326 478.605C609.703 495.727 603.823 512.998 604.351 532.406C603.53 531.48 602.766 530.5 602.067 529.471C595.224 516.121 587.605 503.221 579.252 490.843C576.652 487.017 573.454 482.562 574.093 477.915C575.738 465.918 575.495 453.405 581.309 442.26C583.949 437.064 585.696 431.434 586.473 425.624C587.223 419.809 588.972 414.174 591.636 408.988C594.461 403.286 596.79 397.336 598.594 391.208C601.353 382.726 603.368 373.907 607.565 366.068C612.183 357.621 615.995 348.729 618.945 339.519C620.458 334.853 622.347 330.286 624.216 325.724C632.465 305.164 637.19 284.047 634.685 261.619C632.993 243.4 630.06 225.337 625.907 207.567C623.295 198.639 621.559 189.453 620.727 180.149C619.911 163.922 615.043 148.77 611.547 133.231C610.734 129.608 610.636 123.96 605.807 123.886C601.663 123.824 599.879 128.634 598.467 132.315C589.376 156.121 586.308 180.987 586.26 206.415C586.328 233.335 582.875 260.164 575.998 286.167C568.83 312.782 558.548 338.382 550.905 364.858C545.526 382.88 542.444 401.543 541.74 420.368C541.555 429.357 542.173 438.339 543.586 447.199C541.857 446.459 540.447 445.091 539.619 443.348C532.086 432.822 527.352 420.527 520.61 409.573C511.583 394.909 514.403 379.937 522.054 367.294C526.555 359.871 531.158 352.419 535.514 344.946C540.125 337.123 543.551 328.614 545.671 319.722C548.899 305.66 551.77 291.494 555.281 277.512C558.499 264.707 560.842 251.829 562.865 238.904C565.501 222.001 564.342 205.028 564.39 188.056C564.455 167.524 560.691 147.137 561.343 126.326C561.927 108.178 565.74 90.8966 569.433 73.4898C571.841 62.0753 575.243 50.7681 573.229 38.891C572.859 36.3433 571.85 33.9464 570.302 31.9419C568.755 29.9373 566.724 28.3958 564.414 27.4727C559.772 25.5449 555.882 28.4652 552.708 31.8675C548.209 36.366 545.365 42.3562 544.674 48.7886C544.33 52.0826 543.648 55.3313 542.64 58.4794C537.516 75.4573 533.356 92.7273 530.181 110.2C522.539 148.613 517.079 187.446 513.83 226.496C513.561 231.433 513.559 236.38 513.825 241.313C514.468 262.343 513.365 283.404 510.529 304.262C508.585 317.848 502.48 330.35 499.191 343.654L498.625 344.794L498.194 343.707C496.318 334.031 495.205 324.207 494.865 314.331C494.725 311.886 494.622 309.408 494.523 306.952C494.3 302.023 494.2 297.059 493.808 292.156C493.669 289.71 493.483 287.256 493.271 284.785C491.202 261.049 493.986 237.311 495.865 213.555C498.737 177.142 502.011 140.753 502.959 104.199C503.576 79.4546 503.993 54.7888 501.979 30.1476C500.175 8.22796 497.955 -13.6882 491.243 -34.6117C484.672 -55.0731 479.186 -75.8407 474.33 -96.8087C473.321 -101.633 471.719 -106.298 469.566 -110.691C465.637 -118.359 458.739 -121.816 451.474 -119.904L447.551 -114.695C447.696 -114.076 447.747 -113.437 447.704 -112.801ZM456.383 -114.336C459.029 -114.9 460.679 -112.471 462.218 -110.397C465.995 -105.308 467.256 -99.2358 468.788 -93.2175C473.877 -72.1101 481.02 -51.65 486.032 -30.4983C493.012 -1.10313 494.538 28.7812 495.229 58.8329C495.866 89.9707 492.884 121.035 492.477 152.126C492.253 169.443 489.191 186.74 487.444 204.031C484.859 230.015 487.225 256.039 486.32 281.981C485.493 305.555 489.018 328.197 494.241 350.862C496.332 359.937 497.73 369.139 502.272 377.317C503.052 378.738 502.72 381.749 505.185 381.168C507.651 380.587 507.654 377.668 507.552 375.714C507.542 370.445 508.358 365.203 509.969 360.195C513.376 347.701 519.134 336.504 524.222 324.835C532.514 305.653 543.169 287.127 544.123 264.999C545.028 244.23 547.202 223.445 546.121 202.553C545.651 193.204 547.473 183.8 546.226 174.419C546.063 172.407 546.025 170.385 546.112 168.366C544.09 167.842 543.611 168.547 543.53 169.094C541.43 187.237 538.881 205.255 539.314 223.687C539.745 243.235 536.732 262.707 533.866 282.069C532.976 288.063 529.661 293.329 527.135 298.759C523.432 306.641 521.157 315.215 516.943 322.899C516.81 323.297 516.555 323.638 516.216 323.87C515.877 324.101 515.475 324.21 515.073 324.178C516.048 321.282 517.186 318.591 517.859 315.803C520.364 306.432 521.735 296.78 521.941 287.072C521.892 268.852 522.497 250.788 523.319 232.801C524.526 203.181 527.71 173.669 532.849 144.48C536.958 121.805 541.072 99.1514 545.675 76.6101C547.843 66.0613 551.676 55.9316 553.276 45.2236C553.611 43.6031 554.338 42.0956 555.389 40.8442C557.209 38.5074 559.001 34.6746 562.067 35.6789C565.134 36.6832 567.209 40.52 567.557 44.3878C568.022 50.4324 567.333 56.5212 565.531 62.3046C561.156 78.2265 557.592 94.3719 554.854 110.673C554.127 113.887 553.8 117.181 553.88 120.475C555.067 137.988 556.336 155.477 557.477 172.979C559.755 207.803 558.988 242.391 550.044 276.436C547.403 286.503 546.602 296.985 543.791 307.078C540.237 319.571 535.053 331.509 528.383 342.557C521.852 353.211 516.302 364.476 511.805 376.202C507.379 388.231 510.153 399.985 516.236 410.852C518.834 415.022 520.783 419.594 522.014 424.402C517.021 420.75 512.782 417.729 510.373 412.322C505.822 402.209 500.898 392.36 496.158 382.369C495.518 380.794 494.548 379.389 493.318 378.257C492.088 377.126 490.628 376.295 489.046 375.827C474.427 371.196 460.066 365.513 445.436 361.182C435.935 358.26 427.166 353.238 419.726 346.459C395.794 325.287 373.688 301.984 353.656 276.811C338.575 257.86 324.082 238.287 305.187 222.987C301.56 220.044 298.923 215.636 296.172 211.648C290.748 204.06 287.89 194.905 282.548 185.311C291.968 190.112 301.038 195.614 309.689 201.774C334.761 219.252 359.263 237.598 384.532 254.816C409.801 272.034 430.887 293.782 449.445 318.796C459.382 331.949 469.566 345.466 483.212 355.157C484.364 355.972 485.457 357.419 486.88 356.197C488.589 354.713 487.289 353.233 486.439 351.877C483.888 347.81 480.811 344.005 480.4 338.855C479.689 338.304 479.034 337.714 479.333 336.649C479.203 336.139 479.074 335.628 478.944 335.118C478.605 334.393 478.287 333.662 477.949 332.937C474.694 326.538 471.619 320.065 468.917 313.42C468.024 311.21 467.168 308.967 466.373 306.706C462.564 295.974 456.01 286.448 454.077 274.89C452.366 264.637 449.857 254.609 444.303 245.735C443.295 244.009 442.582 242.113 442.195 240.13C436.556 213.411 428.116 187.254 428.225 159.393C428.296 135.71 430.79 112.084 435.667 88.9157C439.522 70.6487 442.048 52.1148 443.224 33.4718C444.29 17.2162 444.376 0.735441 444.951 -15.6327C445.566 -32.9692 444.519 -50.3615 445.432 -67.7363C446.117 -81.6053 447.377 -95.1122 451.386 -108.346C452.219 -111.111 453.624 -113.786 456.322 -114.319L456.383 -114.336Z" fill="#FDB90B"/>
<path d="M913.836 738.163C914.207 724.96 918.035 712.187 919.964 699.135C922.639 681.037 925.01 662.868 930.881 645.293C938.888 621.337 947.241 597.443 952.331 572.599C957.42 547.756 967.388 524.062 970.385 498.704C972.937 477.532 975.913 456.377 974.135 434.97C973.521 427.5 971.138 420.249 971.28 412.727C971.556 399.328 971.069 385.872 970.499 372.439C970.375 369.698 969.855 366.954 969.705 364.197C969.592 362.533 969.701 360.86 970.03 359.223L968.509 358.286C967.391 364.86 966.925 371.526 967.119 378.184C967.128 380.403 967.157 382.615 967.166 384.833C967.253 399.198 964.173 413.565 966.856 427.928C967.841 433.188 968.233 438.548 968.026 443.906C966.774 474.247 964.046 504.328 954.734 533.548C952.42 540.844 950.473 548.283 948.501 555.708C943.584 574.153 940.394 593.058 933.719 611.008C919.057 650.555 913.236 691.764 907.614 733.141C906.004 744.973 908.343 756.678 907.225 768.375C905.535 786.202 908.331 803.599 910.952 821C911.176 822.586 911.9 824.054 913.016 825.186C914.761 819.245 913.742 813.507 913.089 807.402C910.786 784.407 913.173 761.26 913.836 738.163Z" fill="#FDB90B"/>
<path d="M687.151 628.62C687.208 627.916 687.173 627.193 687.298 626.493C689.208 615.979 694.206 606.172 695.104 595.492C696.543 578.792 700.881 562.46 707.918 547.244C716.309 528.892 720.644 509.078 727.587 490.235C744.345 445.035 757.923 399.286 761.845 351.013C762.333 345.063 764.14 339.283 763.982 333.133C763.425 306.646 762.238 280.02 760.831 253.477C760.53 243.789 759.34 234.156 757.278 224.703L754.749 224.619C755.105 228.162 755.841 231.646 756.279 235.167C756.566 237.285 756.67 239.425 756.59 241.564C755.402 265.755 756.346 289.939 756.496 314.118C756.492 336.348 754.247 358.536 749.795 380.336C743.005 414.633 734.398 448.54 721.004 481.051C714.253 497.266 712.289 514.965 704.875 530.918C693.445 555.72 688.418 582.051 685.237 608.876C684.269 615.576 683.965 622.353 684.331 629.105C684.659 628.684 685.13 628.401 685.652 628.311C686.173 628.222 686.708 628.332 687.151 628.62Z" fill="#FDB90B"/>
<path d="M775.573 681.786C775.766 680.423 775.944 679.087 776.116 677.73C779.377 651.461 786.416 626.688 799.995 603.628C810.206 586.742 819.145 569.107 826.735 550.875C841.787 513.448 856.695 476.06 862.302 435.74C863.664 425.821 865.167 416.107 863.743 406.131C863.353 402.418 863.154 398.686 863.147 394.95C862.485 376.462 862.255 357.944 861.033 339.499C859.516 316.317 857.202 293.198 855.212 270.057L852.427 269.666C852.669 278.99 853.22 288.318 853.348 297.629C853.389 300.726 853.389 303.834 853.343 306.932C853.027 321.604 855.17 336.089 855.119 350.844C855.04 369.358 855.295 387.891 856.266 406.383C857.047 416.315 856.415 426.319 854.389 436.09C851.888 447.032 849.759 458.05 847.748 469.101C844.495 486.998 836.463 503.275 830.323 520.144C820.492 547.717 808.35 574.405 794.03 599.914C774.591 634.104 767.95 671.067 770.458 709.961L773.064 710.423C772.595 700.651 774.246 691.251 775.573 681.786Z" fill="#FDB90B"/>
<path d="M672.454 655.386C669.734 653.367 667.01 655.264 664.355 655.085C656.977 654.609 650.792 650.821 644.147 648.375C630.61 643.373 616.354 641.068 602.543 637.114C562.485 625.563 521.776 626.087 480.854 630.981C468.866 632.684 457.008 635.248 445.37 638.653C431.385 642.487 417.618 647.986 402.869 648.734C399.181 648.902 395.504 649.275 391.855 649.852C366.385 654.422 340.243 652.73 315.642 644.918C303.493 640.951 291.969 635.774 282.126 627.305C279.8 625.15 277.186 623.336 274.359 621.916C264.998 617.716 258.102 610.628 251.695 602.898L249.946 605.589C252.504 608.581 254.991 611.636 257.808 614.358C258.935 615.445 260.118 616.472 261.352 617.433C261.991 617.921 262.639 618.385 263.294 618.824C275.476 626.85 287.027 635.647 300.39 642.156C316.286 650.21 333.444 655.453 351.124 657.657C372.82 660.09 394.232 656.255 415.75 654.579C418.018 654.238 420.246 653.664 422.402 652.866C435.712 648.885 449.217 645.227 462.723 642.497C494.156 636.091 526.058 633.316 558.146 636.858C589.422 640.313 619.861 647.934 650.468 654.691C656.421 656 662.514 656.673 668.568 657.535C669.361 657.739 670.204 657.631 670.925 657.232C671.646 656.833 672.193 656.173 672.454 655.386Z" fill="#FDB90B"/>
<path d="M619.519 553.843C623.403 543.475 624.819 532.586 627.417 521.927C628.268 518.361 629.299 514.84 630.506 511.378C640.317 483.911 646.783 455.429 656.34 427.832C663.58 406.842 670.178 385.585 675.845 364.049C679.671 350.048 682.083 335.699 683.043 321.225C683.833 302.21 682.711 283.177 679.695 264.419C677.394 248.488 677.008 232.231 672.513 216.657L670.14 215.997C671.535 226.028 672.137 236.142 672.788 246.354C672.992 249.739 673.212 253.098 673.457 256.472C675.452 283.41 677.598 310.174 672.595 337.188C668.122 359.309 662.199 381.115 654.866 402.46C650.206 416.837 647.397 431.816 641.155 445.694C640.453 447.723 640.037 449.84 639.92 451.983C639.047 457.986 637.652 463.904 635.752 469.666C627.158 497.142 620.704 525.242 616.448 553.708C617.438 554.968 618.488 554.525 619.519 553.843Z" fill="#FDB90B"/>
<path d="M710.735 715.009C707.605 717.94 704.703 715.225 701.716 714.609C699.992 715.213 698.374 715.391 697.09 713.669C696.968 714.54 696.544 714.678 696.026 714.622C695.507 714.565 695.358 714.496 695.045 714.471L694.654 714.401L694.304 714.321C694.304 714.321 694.25 714.115 694.101 714.045C693.7 714.773 693.182 714.716 692.632 714.205C692.078 715.018 691.185 714.954 690.36 714.981C668.432 716.041 646.625 718.568 624.821 720.851C609.046 722.2 593.526 725.809 578.73 731.57C557.457 740.007 535.524 746.608 513.169 751.303C460.249 763.086 405.223 759.754 354.28 741.683C348.331 739.626 341.912 739.618 336.271 736.727L333.376 737.63C345.721 741.863 358.345 745.491 370.408 750.486C392.843 759.79 416.552 761.928 440.251 764.113C469.428 766.806 498.21 762.569 526.49 755.666C543.185 751.604 559.997 747.487 575.468 739.259C589.169 732.207 604.088 727.929 619.381 726.665C630.751 725.568 642.051 723.786 653.219 721.33C662.308 719.328 671.609 716.296 680.802 717.531C689.225 718.668 697.615 717.342 705.948 718.636C709.745 719.251 713.792 718.232 717.731 717.97L717.787 717.182L712.999 715.625C712.039 715.976 711.165 716.149 710.735 715.009Z" fill="#FDB90B"/>
<path d="M608.258 584.203C602.609 582.318 597.02 580.24 591.486 578.036C573.412 570.919 555.554 563.034 537.375 556.434C503.616 544.204 468.461 536.612 434.087 526.39C405.614 518.204 378.615 505.545 354.072 488.873C340.021 479.19 326.767 468.358 313.257 457.972C310.507 455.846 307.246 454.282 305.802 452.285C306.464 453.603 307.201 454.88 308.009 456.111C308.775 457.082 309.652 457.957 310.622 458.717C327.28 473.892 345.15 487.649 364.052 499.851C377.18 508.103 390.189 516.743 404.627 521.954C432.002 531.837 459.379 541.896 487.594 549.288C501.519 552.956 515.35 556.938 529.049 561.422C548.943 567.951 567.879 576.936 587.673 583.669C596.706 586.752 605.947 589.291 616.126 592.392C613.858 587.917 611.863 585.407 608.258 584.203Z" fill="#FDB90B"/>
<path d="M501.387 458.524C487.24 449.021 472.43 440.561 457.072 433.21C441.491 425.984 426.809 416.827 411.462 409.071C392.331 399.428 371.89 392.827 352.288 384.156C341.62 379.437 330.303 376.183 320.127 370.243L318.264 371.508C318.922 371.729 319.56 372.006 320.17 372.337C334.398 381.353 349.717 388.163 364.792 395.551C381.06 403.475 397.932 410.102 413.7 419.05C430.659 428.691 447.145 439.126 465.341 446.454C478.679 451.814 492.186 456.816 505.177 463.114C510.277 465.322 515.486 467.265 520.785 468.936C515.003 463.941 507.428 462.496 501.387 458.524Z" fill="#FDB90B"/>
<path d="M561.782 449.692C562.056 447.797 562.401 445.926 562.829 444.033C566.179 429.529 568.605 414.857 574.283 400.935C576.666 395.087 576.303 388.238 579.548 382.576C584.81 372.684 588.956 362.232 591.906 351.416C595.183 340.75 601.222 330.725 601.805 319.511C602.456 307.3 606.12 295.507 605.172 283.07C604.225 270.632 607.161 257.906 604.58 245.362C603.873 244.845 603.146 244.334 602.417 243.735C602.946 250.227 602.986 256.754 602.537 263.259C602.446 264.172 602.32 265.117 602.152 266.073C599.543 281.306 599.203 296.805 596.337 312.064C595.105 318.529 593.799 324.88 591.963 331.222C585.038 355.165 573.674 377.438 567.354 401.681C561.672 423.484 556.723 445.064 558.253 467.708L561.146 466.582C560.809 460.948 561.022 455.291 561.782 449.692Z" fill="#FDB90B"/>
<path d="M478.562 354.768C478.763 355.535 478.964 356.302 479.165 357.069C479.29 357.545 479.421 358.043 479.546 358.52C479.641 358.697 479.745 358.868 479.857 359.034C480.056 359.266 480.183 359.551 480.224 359.856C480.264 360.16 480.217 360.47 480.086 360.749L481.59 362.026C482.877 359.452 481.82 356.853 481.282 354.379C479.873 347.744 478.011 341.233 476.628 334.614C473.122 317.8 468.341 301.335 466.856 284.324C465.222 265.398 464.008 246.224 465.53 227.145C466.658 213.373 464.548 199.443 467.495 185.795C471.672 166.5 471.333 146.798 472.494 127.351C473.571 108.928 473.448 90.2993 473.035 71.6612C472.804 60.8605 469.14 50.7552 467.571 40.2319C465.889 42.2253 466.822 44.1027 466.878 45.998C467.61 57.1948 471.506 68.0143 470.614 79.4112C469.274 96.6628 469.607 113.99 467.452 131.242C465.297 148.495 465.269 165.454 461.937 182.34C456.428 210.034 455.362 238.411 458.779 266.385C459.515 272.47 457.497 278.31 458.503 284.5C460.996 298.547 466.801 311.688 468.812 325.911C469.668 330.914 471.11 335.792 473.108 340.443C475.002 345.145 477.082 349.797 478.555 354.659L478.562 354.768Z" fill="#FDB90B"/>
<path d="M322.095 248.976C325.623 252.889 328.328 256.007 331.176 258.998C353.823 282.669 375.37 307.507 400.031 329.05C415.862 342.789 431.785 356.546 450.319 366.592C456.104 369.73 461.349 374.326 469.455 375.252C458.049 367.089 447.447 359.814 437.193 352.111C413.363 334.245 392.098 313.256 370.902 292.36C356.964 278.634 343.625 264.346 328.459 251.889C327.68 250.957 326.705 250.212 325.605 249.709C324.504 249.205 323.306 248.955 322.095 248.976Z" fill="#FDB90B"/>
</g>
</svg>
