<svg width="375" height="571" viewBox="0 0 375 571" fill="none" xmlns="http://www.w3.org/2000/svg">
<g opacity="0.25">
<path d="M152.314 -165.94C148.669 -154.332 148.358 -142.341 148.534 -130.487C148.749 -116.832 149.116 -103.181 147.933 -89.6081C146.727 -73.8603 144.137 -58.2505 140.196 -42.974C138.945 -38.4593 138.204 -33.8116 137.988 -29.1255C137.794 -24.0317 137.391 -18.9583 137.143 -13.8759C136.574 0.254627 137.799 14.3886 140.787 28.1604C143.058 39.0796 147.728 49.1108 151.335 59.5739C154.776 69.3829 158.187 79.2266 162.565 88.6653C162.937 89.4732 163.698 90.2108 163.285 91.4912C162.607 90.7301 161.978 90.061 161.384 89.3819C158.714 86.0888 156.265 82.6078 154.055 78.9633C147.786 69.3567 139.223 61.9043 131.237 53.9591C126.39 49.1361 121.706 44.0553 116.107 40.1321C101.908 30.2088 87.9943 19.8082 73.2106 10.8433C68.1957 7.8134 62.9022 5.3911 57.6105 2.87572C57.0099 2.50231 56.3059 2.34736 55.6086 2.43513C54.9112 2.5229 54.26 2.84843 53.7567 3.36075C53.2535 3.87308 52.9267 4.54329 52.8275 5.26646C52.7283 5.98962 52.8622 6.72495 53.2084 7.35731C53.5242 8.25433 53.8881 9.13199 54.2983 9.98615C58.1842 17.5402 62.067 25.082 67.6894 31.4984C70.1146 34.2665 73.1236 36.2749 75.5925 38.9646C90.5426 55.2891 105.545 71.5194 120.508 87.8933C129.207 97.4363 138.527 106.262 150.647 110.622C159.075 113.694 167.507 116.779 175.712 120.576C176.738 121.054 178.035 121.244 178.485 122.36C180.372 127.118 181.776 132.132 183.813 136.927C181.925 135.988 180.102 134.916 178.357 133.717C171.848 129.575 165.892 124.549 159.064 120.906C151.056 116.63 142.993 112.542 134.263 109.885C126.68 107.579 119.425 104.109 111.84 101.897C96.4985 97.5559 81.6274 91.6153 67.4521 84.1649C59.9613 80.3092 51.9929 77.5368 43.767 75.9244C39.9561 75.1208 38.1043 77.2566 38.7398 81.2039C39.1322 83.5194 40.1219 85.6766 41.6035 87.4458C46.8102 93.8014 52.8501 99.3635 59.5483 103.971C74.4784 114.111 90.728 121.777 106.281 130.71C112.623 134.099 118.696 138.003 124.444 142.386C130.238 147.074 136.16 151.766 142.715 155.089C155.99 161.576 169.746 166.954 183.854 171.171C186.218 171.881 188.682 172.169 191.144 172.025C196.057 171.94 200.956 172.51 205.721 173.721C206.615 173.932 207.713 173.94 208.225 174.748C211.229 179.389 216.052 182.566 217.981 188.04C220.855 195.972 225.551 202.755 230.623 209.261C232.239 211.305 233.77 213.413 235.386 215.456C235.993 216.238 236.622 217.158 235.943 217.945C235.264 218.731 234.483 217.867 233.796 217.518C226.35 213.869 218.913 210.235 211.484 206.616C199.645 200.855 186.912 197.792 174.518 193.708C170.452 192.355 166.443 190.774 162.324 189.661C147.581 185.71 134.084 178.843 121.177 170.843C109.924 163.885 99.7816 155.331 89.6572 146.798C70.5178 130.636 51.2673 114.638 30.9378 100.108C27.7802 97.764 24.2509 96.0113 20.5076 94.9284C18.0532 94.2978 16.7648 95.243 16.6767 97.8998C16.5845 100.362 17.1051 102.803 18.188 104.986C21.3907 111.609 24.6686 118.276 29.1073 124.047C36.4617 133.613 44.0088 143.084 52.1386 151.941C66.9959 168.424 83.6293 183.072 101.714 195.601C119.887 207.816 139.054 217.78 160.686 222.262C176.691 225.565 192.879 227.733 208.881 231.024C223.393 234.029 237.643 238.233 251.497 243.595C256.352 245.271 260.756 248.105 264.359 251.872C266.766 254.453 269.383 256.812 272.182 258.924C273.788 260.121 275.006 261.797 275.675 263.732C269.987 260.561 264.516 258.745 259.193 256.556C251.663 253.295 243.896 250.652 235.963 248.65C231.002 247.483 226.021 246.387 221.087 245.279C207.143 242.214 193.352 238.55 178.88 238.664C167.354 238.792 156.06 239.927 145.108 243.808C135.522 247.199 126.156 251.255 116.452 254.282C104.655 258.162 92.0372 258.303 80.2123 254.687C66.6596 250.506 55.8815 241.708 46.3022 231.263C38.8798 223.132 32.3129 214.257 25.5571 205.542C19.6957 197.936 13.077 191.06 8.03045 182.802C5.13988 177.937 1.50075 173.602 -2.74299 169.968C-6.12968 167.127 -9.22279 167.391 -12.2115 170.667C-13.3862 171.812 -14.2405 173.266 -14.6824 174.873C-15.1243 176.48 -15.137 178.178 -14.7192 179.786C-11.8968 189.769 -8.67751 199.76 -3.06295 208.348C4.69686 220.206 12.7802 231.933 22.2055 242.475C31.6309 253.016 41.4739 263.097 52.8606 271.432C61.2714 277.802 70.892 282.246 81.0942 284.474C104.296 289.267 127.643 288.172 151.026 286.169C165.491 284.921 179.871 282.744 194.192 280.531C212.576 277.662 230.937 276.307 249.476 278.05C262.176 279.23 274.582 282.411 287.302 283.321C287.923 283.345 288.532 283.506 289.087 283.795C289.641 284.083 290.13 284.492 290.519 284.994C294.651 290.457 298.154 296.407 300.958 302.722C293.443 301.733 286.246 300.892 279.087 299.803C268.924 298.031 258.571 297.677 248.299 298.75C235.582 300.352 223.46 304.894 211.156 308.522C200.657 311.628 190.289 315.199 179.364 316.785C166.584 318.534 153.698 319.218 140.827 318.829C120.676 318.361 100.87 315.547 82.4625 306.863C68.7975 300.44 55.6307 292.871 41.845 286.574C32.3389 282.271 22.7135 278.2 13.3467 273.593C8.88322 271.325 4.09385 269.817 -0.839046 269.129C-4.10184 268.726 -6.33962 270.547 -5.69472 273.831C-4.75846 278.659 -3.81455 283.617 0.800398 286.627C4.87515 289.041 8.70174 291.88 12.2217 295.099C19.1889 301.893 26.8588 307.865 35.0933 312.906C49.4344 321.799 64.7218 328.942 80.6549 334.195C97.6129 339.889 114.913 344.375 132.046 349.503C154.782 356.318 177.259 355.059 199.701 347.911C214.128 343.314 227.248 335.383 241.338 329.915C248.815 327 256.167 323.592 264.085 322.258C273.857 320.601 283.588 318.782 293.507 318.248C298.094 317.999 302.678 316.984 307.213 317.028C312.689 317.111 318.322 317.467 322.851 321.388C327.379 325.309 332.107 328.313 336.684 331.824C338.226 333.039 339.613 334.452 340.813 336.03C343.681 339.86 346.912 343.379 350.459 346.536C355.68 350.976 359.056 356.98 362.584 363.326C357.461 363.157 352.351 362.717 347.275 362.008C337.429 360.975 327.621 359.892 317.651 360.772C306.632 361.737 295.905 364.351 285.104 366.524C278.91 367.768 272.683 368.836 266.747 371.449C256.964 375.768 247.437 380.689 237.171 383.862C235.497 384.353 233.894 385.081 232.408 386.025C227.716 388.899 222.516 390.752 217.126 391.471C185.914 396.608 155.214 393.547 125.007 385.016C110.648 380.97 96.4709 376.291 81.3809 375.732C77.3096 375.557 73.2948 376.755 69.2423 375.954C65.6967 375.257 62.0196 375.996 58.9621 378.019C54.7772 380.601 54.5544 382.529 58.0832 385.978C58.5243 386.409 58.9272 386.89 59.3302 387.372C65.4643 394.713 73.5823 399.964 82.6409 402.45C99.5178 407.174 116.701 410.648 133.818 414.366C151.247 418.154 168.976 419.517 186.594 421.797C197.642 423.447 208.886 423.229 219.892 421.151C226.31 419.83 232.768 418.671 239.234 417.588C252.486 415.337 265.382 411.167 277.545 405.199C285.384 401.401 292.693 396.325 300.714 392.794C309.091 389.109 316.935 383.935 325.937 382.005C335.145 380.03 344.176 377.312 353.419 375.578C361.311 374.041 369.362 372.882 376.717 377.394C384.95 382.453 393.026 387.794 401.046 393.217C410.519 399.645 418.197 408.379 427.329 415.366C440.926 425.777 453.794 437.226 466.961 448.247C469.421 450.304 471.844 452.412 474.272 454.491C475.153 455.248 476.182 456.135 477.214 454.985C478.246 453.834 477.884 452.613 476.839 451.612C475.641 450.318 474.38 449.088 473.06 447.929C464.785 441.256 456.816 434.178 448.364 427.713C440.263 421.52 433.015 414.173 424.576 408.405C420.022 405.285 416.762 400.689 412.559 397.245C403.061 389.422 392.364 383.444 382.287 376.498C374.759 371.307 366.71 368.273 357.517 369.953C352.211 370.933 346.886 371.892 341.696 373.329C331.574 376.117 320.991 377.091 311.454 382.226C301.917 387.362 291.361 391.344 282.029 397.335C272.697 403.325 262.526 407.119 252.197 410.296C242.567 413.263 232.601 414.71 222.743 416.63C216.318 417.873 209.88 419.212 203.292 419.165C187.307 419.044 171.547 416.504 155.726 414.775C138.68 412.889 121.935 408.432 105.021 405.266C98.9596 404.131 93.0232 402.287 87.0059 400.875C77.1305 398.793 68.1552 393.533 61.3479 385.838C57.7666 381.782 58.1296 380.555 63.5438 379.148C64.2343 378.938 64.9488 378.83 65.6667 378.827C71.4586 378.953 77.2649 379.035 83.0456 379.217C96.8713 379.815 109.813 384.247 123.021 388.128C152.063 396.736 181.619 400.107 211.778 396.391C220.047 395.383 228.165 393.887 235.441 389.23C237.159 388.271 238.988 387.547 240.881 387.074C245.293 385.685 249.508 383.769 253.777 381.97C262.017 378.496 269.906 373.997 278.706 372.124C284.424 370.908 290.198 370.061 295.856 368.611C310.799 364.838 326.23 363.715 341.497 365.291C342.163 365.354 343.214 364.979 343.362 366.259C342.59 367.033 341.619 366.87 340.735 367C327.896 368.478 315.463 372.195 302.966 375.666C288.219 379.758 274.426 386.742 260.027 391.952C247.131 396.833 233.806 400.364 220.252 402.493C202.573 404.978 184.828 404.004 167.101 403.196C153.767 402.578 140.532 400.794 127.292 399.145C125.726 398.951 124.155 398.786 122.159 398.555C123.501 399.747 125.173 400.465 126.938 400.607C146.655 403.922 166.429 406.665 186.451 407.276C202.125 407.776 217.707 407.562 233.183 404.283C246.785 401.4 259.841 396.674 272.742 391.542C287.959 385.492 303.137 379.44 319.007 375.507C327.399 373.432 335.49 369.775 344.322 369.428C351.016 369.055 357.678 368.171 364.254 366.783C367.352 366.188 368.138 364.471 366.208 361.947C365.131 360.518 364.332 358.932 363.334 357.467C360.814 353.773 358.807 349.697 355.639 346.411C351.399 342.171 346.776 338.329 343.475 333.123C342.225 331.048 340.545 329.29 338.558 327.976C333.595 324.799 329.121 320.942 324.49 317.315C322.116 315.241 319.122 314.086 316.011 314.045C303.16 314.521 290.285 314.553 277.55 316.888C273.617 317.607 269.651 318.102 265.669 318.373C259.228 318.817 252.918 320.524 247.072 323.405C228.477 332.404 209.709 340.87 190.123 347.279C172.255 353.124 154.511 351.951 136.95 346.943C125.779 343.758 114.675 340.236 103.478 337.098C81.3044 330.891 59.4325 323.766 39.4732 311.34C32.6588 307.098 25.6119 303.345 19.6686 297.72C14.5141 292.891 9.36528 288.034 3.13575 284.739C-1.10222 282.508 -1.80129 278.261 -2.91828 274.225C-3.30477 272.707 -2.74673 271.796 -0.898599 272.148C2.21795 272.777 5.44866 273.003 8.23264 274.678C14.7137 278.511 21.8349 280.855 28.5039 284.225C41.133 290.584 54.0756 296.272 66.5048 303.097C76.0231 308.349 85.5376 313.535 96.0984 316.575C116.484 322.466 137.273 324.037 158.296 323.625C169.66 323.537 180.986 322.092 192.051 319.318C205.733 315.698 219.173 311.128 232.745 307.077C241.373 304.347 250.313 302.864 259.313 302.667C270.761 302.587 281.887 304.793 293.176 305.538C293.591 305.567 294.137 305.558 294.177 306.168L294.158 306.094C294.197 305.979 294.27 305.88 294.367 305.811C294.545 305.76 294.735 305.905 294.962 306.198C294.969 306.139 294.984 306.081 295.008 306.027C295.181 305.607 295.59 305.862 295.925 305.874L296.684 306.004C297.041 305.93 297.402 305.877 297.765 305.845C298.075 305.806 298.389 305.854 298.674 305.982C298.96 306.111 299.207 306.316 299.391 306.576C301.185 305.713 302.917 306.362 304.659 306.797L306.383 306.562C307.196 305.751 307.693 304.95 306.944 303.759C305.959 302.291 305.124 300.714 304.213 299.239C301.439 294.651 296.974 291.479 294.437 286.719C291.267 280.775 286.162 278.644 279.968 278.34C276.087 278.112 272.206 277.883 268.368 277.325C256.197 275.467 244.048 273.245 231.685 272.935C228.85 272.862 225.977 273.592 223.142 273.519C203.653 273.049 184.395 275.186 165.194 278.55C141.238 282.659 117.205 286.063 92.9233 282.686C82.4874 281.238 71.9602 279.18 63.0719 273.05C53.3888 266.35 44.0377 259.252 35.6675 250.503C27.5994 242.038 20.4019 232.839 12.7647 224.015C9.694 220.463 7.90212 215.678 4.80765 212.133C-3.15846 203.018 -6.32922 191.466 -10.775 180.512C-11.4994 178.391 -11.468 176.064 -10.6865 173.954C-9.96107 171.448 -8.61195 171.041 -6.63246 172.559C-2.94158 175.394 0.688083 178.338 3.18407 182.436C6.17414 187.372 9.91165 191.741 13.135 196.493C23.8695 212.701 36.1135 227.766 49.6913 241.47C59.6763 251.457 71.3563 258.242 84.9538 260.346C94.2826 261.668 103.776 261.231 112.979 259.057C124.719 256.421 135.855 251.708 147.249 247.913C166.572 241.473 186.124 241.342 205.658 245.992C215.797 248.424 225.984 250.498 236.146 252.724C244.756 254.771 253.245 257.319 261.575 260.354C266.21 261.944 270.689 263.868 275.224 265.764C276.147 266.138 277.333 266.492 278.063 265.453C278.792 264.414 277.929 263.427 277.296 262.693C275.201 260.268 272.964 257.989 270.892 255.558C267.296 251.092 263.371 246.923 259.154 243.089C254.242 238.814 248.042 237.083 241.855 235.508C233.685 233.447 226.061 229.632 217.629 228.544C200.718 226.319 183.948 223.099 167.399 218.901C161.746 217.466 155.87 217.06 150.379 215.116C137.017 210.498 124.073 204.677 111.696 197.72C89.9538 185.31 70.4302 169.122 53.9643 149.852C46.3285 140.984 38.81 131.958 31.4088 122.777C26.3192 116.501 22.8511 109.186 19.5574 101.756C19.0253 100.518 18.6288 98.9101 19.926 97.9491C20.4776 97.6235 21.1159 97.4951 21.742 97.5839C22.3681 97.6727 22.9472 97.9738 23.3898 98.4406C25.6856 100.2 27.9083 102.073 30.2948 103.689C37.7104 108.74 44.3878 114.845 51.6039 120.164C64.9883 130.039 77.8319 140.543 90.348 151.563C101.138 161.059 112.371 169.993 124.814 177.171C140.123 185.781 156.37 192.471 173.216 197.104C176.749 198.118 180.192 199.475 183.776 200.29C193.945 202.593 203.777 206.253 213.029 211.18C223.615 216.871 234.857 221.134 245.19 227.386C246.095 227.938 247.272 228.254 247.94 227.126C248.609 225.999 247.804 225.141 246.813 224.601C243.097 222.567 241.132 218.955 239.215 215.329C236.264 209.277 232.62 203.621 228.363 198.484C221.793 190.999 217.109 181.911 210.148 174.695C209.068 173.35 207.652 172.34 206.054 171.776C199.75 169.942 193.184 169.677 186.832 168.003C177.253 165.414 168.58 160.731 159.511 156.992C154.586 154.968 149.292 154.094 144.557 151.514C130.792 143.995 117.655 135.293 104.521 126.749C99.427 123.411 93.7984 121.374 88.7955 117.891C83.7926 114.408 78.3386 112.256 73.4315 108.799C65.5786 103.381 56.7501 99.3371 50.1829 92.0629C47.4138 88.995 44.1018 86.3975 42.3852 82.3583C42.047 81.5807 41.7156 80.6293 42.2019 79.9367C42.6881 79.2441 43.7264 79.7184 44.4452 79.939C46.208 80.456 47.9508 81.0447 49.6736 81.7051C62.4896 86.5958 75.3231 91.455 88.116 96.4051C99.4311 100.806 111.375 103.324 122.651 108.173C137.89 114.721 153.382 120.511 167.04 130.361C177.17 137.663 188.089 143.763 197.357 152.233C202.948 157.375 208.471 162.603 214.223 167.977C214.505 165.803 214.109 163.597 213.092 161.683C211.924 158.626 211.241 155.388 211.071 152.096C210.086 140.669 212.12 129.488 214.483 118.452C217.455 104.6 222.436 91.3319 226.974 77.977C230.884 66.4866 233.473 54.5643 234.688 42.4595C235.741 31.5817 235.666 20.4797 235.722 9.48658C235.772 -0.976075 238.356 -10.8967 241.014 -20.8251C241.363 -22.5692 242.249 -24.1514 243.536 -25.3321C244.434 -24.8579 244.415 -24.0325 244.588 -23.3538C246.579 -16.2217 247.812 -8.87891 248.265 -1.45675C248.885 12.8377 252.674 26.569 254.377 40.6639C255.87 53.0324 256.565 65.3217 252.626 77.2249C249.016 88.0697 245.711 99.0135 240.626 109.322C239.515 111.487 238.648 113.777 238.044 116.147C235.201 127.9 228.876 138.492 227.242 150.644C227.163 151.164 226.987 151.662 226.724 152.113C222.833 158.95 222.907 166.799 221.359 174.232C220.949 176.663 221.456 179.16 222.776 181.199C227.982 190.682 234.536 199.256 239.765 208.733C240.475 209.889 241.258 210.993 242.111 212.039C242.936 213.129 243.928 214.172 245.48 213.51C246.061 213.264 246.54 212.811 246.829 212.231C247.119 211.652 247.201 210.986 247.059 210.353C246.312 202.866 248.701 195.884 250.166 188.725C252.617 176.779 256.552 165.261 259.05 153.301C260.908 144.432 261.845 135.253 265.268 126.723C265.645 125.506 265.863 124.244 265.917 122.969C267.14 112.757 269.589 102.756 270.573 92.5588C271.557 82.3618 273.558 72.3015 273.103 62.0077C272.969 59.0299 273.504 56.0752 273.508 53.138C273.537 44.0436 273.912 34.9573 272.202 25.8903C269.914 13.2682 268.923 0.419855 269.247 -12.4386C269.463 -21.5989 270.306 -30.7509 270.934 -39.8951C271.428 -46.9647 273.54 -53.6311 275.965 -60.1739C276.294 -61.0337 276.736 -62.1503 277.686 -62.2727C278.636 -62.3951 278.992 -61.1465 279.506 -60.4316C280.566 -58.7508 281.4 -56.9255 281.983 -55.0064C284.706 -48.1164 284.152 -40.633 285.577 -33.5357C288.118 -20.8542 289.176 -7.93992 290.848 4.88082C291.728 11.6423 291.482 18.4833 292.437 25.1843C294.704 41.1436 296.893 57.0985 297.644 73.2604C297.997 83.7457 297.033 94.2437 294.777 104.489C292.413 115.974 286.996 126.178 283.297 137.074C277.951 152.812 271.856 168.26 265.187 183.458C262.649 189.253 261.642 195.66 258.213 201.111C254.41 207.143 254.397 214.249 253.557 221.059C253.128 224.381 254.612 227.256 256.486 229.862C262.404 238.086 269.875 244.96 275.828 253.174C276.165 253.589 276.584 253.922 277.058 254.15C277.392 254.404 277.793 254.546 278.207 254.557C278.622 254.568 279.031 254.446 279.38 254.21C279.629 253.93 279.786 253.574 279.827 253.196C279.868 252.818 279.792 252.436 279.609 252.108C277.418 247.158 278.451 241.854 278.002 236.69C277.036 226.423 278.449 216.048 282.123 206.431C283.095 203.744 283.857 200.981 284.403 198.17C285.712 191.5 287.659 184.979 290.214 178.703C298.522 159.431 304.096 139.185 310.623 119.277C315.267 105.086 316.132 90.0158 319.989 75.6362C321.645 69.4291 320.586 62.9692 321.475 56.7008C323.875 40.1529 323.762 23.4937 323.282 6.84527C323.004 2.61658 323.204 -1.63487 323.88 -5.82175C324.479 -9.3965 324.764 -13.0184 324.731 -16.6425C325.05 -29.7999 330.069 -41.3195 336.517 -52.3296C337.095 -53.3126 337.781 -54.4716 339.068 -54.3716C340.355 -54.2715 340.706 -52.9422 341.102 -51.8371C342.293 -48.7805 342.937 -45.5203 343.004 -42.2158C342.844 -34.4864 342.427 -26.764 342.318 -19.0357C342.362 -14.6806 342.016 -10.3278 341.284 -6.03383C340.562 -2.05283 340.496 2.0223 341.09 6.01675C342.301 15.7797 341.926 25.7654 344.882 35.2745C345.067 35.9958 345.137 36.7444 345.09 37.4908C344.991 43.2587 346.03 48.891 346.602 54.5889C347.599 64.6107 348.329 74.6816 348.688 84.751C349.342 103.083 345.55 120.87 342.1 138.653C339.893 150.001 336.624 161.134 333.881 172.382C331.979 179.928 330.212 187.502 327.109 194.58C319.548 211.829 312.83 229.436 305.494 246.767C300.662 258.168 298.632 269.864 300.407 282.192C300.509 283.046 300.762 283.871 301.155 284.626C304.721 291.03 308.909 297.032 313.655 302.541C319.753 309.243 326.452 315.326 333.662 320.707C334.891 321.683 336.071 322.911 337.734 321.688C339.398 320.465 338.557 318.811 338.108 317.35C336.663 312.626 334.748 308.008 333.702 303.197C329.716 284.499 331.344 264.939 338.367 247.153C346.015 227.142 351.235 206.307 359.873 186.73C365.302 174.421 366.844 160.958 370.557 148.166C371.977 143.283 373.968 138.542 374.461 133.47C376.167 117.699 380.649 102.323 380.565 86.2776C380.528 79.4766 382.645 72.7294 382.1 65.8337C380.764 48.9242 378.957 32.0681 380.192 15.002C380.77 7.26075 381.838 -0.103212 385.294 -7.00266C386.829 -10.0808 387.434 -10.1587 389.989 -7.92984C390.995 -7.01632 391.786 -5.87531 392.302 -4.5933C392.818 -3.31128 393.046 -1.92185 392.969 -0.530317C392.905 6.524 394.386 13.3937 394.977 20.3691C395.938 31.6975 397.857 42.8878 399.136 54.166C400.268 64.2688 401.595 74.3829 403.594 84.3867C405.195 92.3735 406.862 100.474 407.115 108.523C407.315 120.183 406.248 131.838 403.932 143.266C401.511 156.13 396.872 168.587 391.919 180.763C386.965 192.939 381.018 204.363 376.561 216.637C370.958 232.065 364.677 247.234 358.956 262.602C354.63 274.336 353.466 287.083 348.846 298.716C344.761 309.046 347.829 318.842 349.656 328.722C349.848 329.551 350.227 330.319 350.762 330.963C354.015 335.031 356.867 339.425 360.425 343.236C370.071 353.597 380.418 363.151 390.738 372.753C400.255 381.603 410.663 389.249 420.707 397.368C421.621 398.102 422.655 399.16 423.986 398.083C424.441 397.729 424.755 397.212 424.864 396.634C424.974 396.055 424.872 395.456 424.578 394.954C420.704 385.042 417.238 374.936 412.89 365.264C406.244 350.473 404.012 334.702 402.475 318.709C402.341 316.465 402.464 314.21 402.842 311.993C404.393 300.168 406.418 288.5 410.697 277.282C411.89 274.224 412.88 271.086 413.658 267.89C416.303 255.862 419.694 244.021 423.809 232.439C429.363 217.514 432.439 201.821 436.486 186.435C439.785 173.919 441.133 160.948 441.846 147.984C442.164 142.075 441.646 136.137 442.5 130.182C443.31 123.978 443.545 117.711 443.201 111.468C442.584 97.332 441.114 83.2508 443.613 69.0953C444.596 63.3956 444.102 57.451 446.058 51.8734C447.911 46.5895 451.305 43.0008 456.656 41.7961C460.791 40.8684 462.64 42.2778 463.898 46.367C465.976 53.1746 465.332 60.207 465.741 67.1676C466.665 83.0561 468.167 98.9137 469.281 114.801C469.774 122.042 472.026 128.933 472.641 136.153C473.845 150.441 472.59 164.577 470.226 178.667C469.318 184.881 467.893 191.005 465.967 196.97C461.012 211.341 459.104 226.52 455.03 241.147C452.185 251.392 452.372 262.436 448.487 272.552C448.233 273.471 448.046 274.408 447.926 275.355C445.571 286.124 443.449 296.959 440.768 307.647C439.139 313.913 438.065 320.316 437.56 326.777C436.617 339.489 435.844 352.218 434.444 364.887C433.357 374.729 432.301 384.444 435.033 394.122C435.222 394.843 435.309 395.589 435.291 396.338C435.191 403.402 438.389 409.206 442.702 413.981C454.437 426.735 467.853 437.694 482.555 446.535C482.722 446.655 482.898 446.76 483.081 446.849C483.517 447.02 483.995 447.037 484.443 446.899C484.891 446.761 485.284 446.474 485.562 446.084C486.348 445.214 485.667 444.441 485.105 443.885C483.651 442.43 482.294 440.855 480.882 439.362C477.852 436.169 473.507 435.424 470.256 432.664C465.348 428.4 460.045 424.592 455.568 419.77C452.742 416.731 449.419 414.137 446.859 410.891C443.499 406.654 440.707 402.045 440.619 396.092C440.508 387.949 437.715 380.285 439.202 371.613C441.644 357.328 442.031 342.684 443.189 328.166C443.52 321.688 444.65 315.275 446.55 309.085C448.26 304.206 449.499 299.164 450.249 294.036C450.606 291.942 451.087 289.871 451.691 287.837C454.031 278.712 457.193 269.66 458.317 260.363C460.275 244.231 465.39 228.888 468.336 213.032C470.228 202.897 474.736 193.426 475.76 183.085C476.888 171.697 479.738 160.471 479.007 148.893C478.629 139.787 477.711 130.717 476.259 121.735C474.149 110.096 473.777 98.1254 472.938 86.2734C472.403 78.7665 471.528 71.276 471.294 63.7504C471.267 57.4889 470.432 51.2652 468.812 45.2461C466.653 37.9191 461.952 35.1711 454.82 37.288C446.64 39.5944 442.374 45.81 441.029 53.9924C439.46 63.4946 438.558 73.113 437.428 82.6897C437.331 84.0636 437.333 85.4424 437.434 86.8146C437.686 96.663 437.902 106.521 438.241 116.359C438.508 124.364 436.357 132.232 436.666 140.2C437.32 155.78 434.793 171.028 431.026 185.912C426.408 204.209 421.835 222.533 415.775 240.47C410.223 256.902 406.457 273.941 401.804 290.7C398.833 301.352 396.772 312.527 398.165 323.8C400.167 340.072 403.162 356.037 410.613 370.786C413.347 376.218 415.017 382.228 417.415 388.641C416.367 387.879 415.949 387.587 415.551 387.276C398.949 374.278 383.231 360.106 368.509 344.858C363.825 339.884 359.398 334.656 355.244 329.196C354.463 328.218 353.951 327.038 353.762 325.779C353.294 322.538 352.614 319.317 352.107 316.075C351.321 312.219 351.438 308.217 352.448 304.405C355.386 295.559 357.885 286.564 359.935 277.456C362.11 266.831 366.352 256.866 370.414 246.846C376.214 232.54 381.39 217.934 387.487 203.796C393.174 190.699 399.172 177.819 403.461 164.084C407.033 152.642 410.787 141.412 410.902 129.199C410.964 122.688 413.249 116.197 412.464 109.713C411.144 98.6714 409.013 87.7523 407.457 76.7374C403.828 51.1236 399.829 25.5611 397.332 -0.21295C396.802 -5.64504 394.846 -9.97389 390.094 -12.7209C387.197 -14.3904 385.899 -14.1831 383.816 -11.506C381.506 -8.48874 379.827 -5.00561 378.888 -1.28159C375.566 12.2462 375.454 26.0195 375.838 39.8382C376.231 53.8925 379.406 67.8632 376.512 81.9712C375.028 89.254 376.542 96.8023 374.76 104.116C373.31 110.325 372.232 116.619 371.53 122.961C370.605 130.88 368.841 138.673 366.272 146.201C363.004 155.639 362.289 165.84 358.787 175.16C352.876 191.031 346.95 206.893 341.846 223.08C337.045 238.307 330.199 252.71 328.474 269.054C326.9 283.941 327.424 298.262 332.241 312.325C332.295 312.426 332.327 312.539 332.335 312.655C332.342 312.771 332.325 312.887 332.285 312.995C332.244 313.104 332.181 313.202 332.101 313.283C332.02 313.364 331.923 313.425 331.817 313.463C323.578 306.957 315.889 299.732 308.834 291.865C305.536 288.271 304.464 284.011 304.041 278.946C303.209 270.488 304.392 261.934 307.485 254.036C308.892 250.504 310.209 246.919 311.76 243.453C315.678 234.664 318.551 225.429 322.657 216.732C329.391 202.494 336 188.211 339.367 172.607C340.437 167.084 341.804 161.625 343.461 156.256C348.102 142.555 349.142 128.123 352.147 114.05C354.159 104.635 353.561 94.8307 353.923 85.1927C354.228 77.3827 351.798 69.8413 352.157 62.0426C352.476 55.3396 350.143 48.829 350.03 42.1289C349.829 36.7212 349.094 31.3531 347.837 26.109C345.861 16.998 344.608 7.4716 345.29 -1.66139C346.214 -13.9972 345.456 -26.282 346.088 -38.5621C346.223 -43.7969 345.244 -48.99 343.222 -53.7706C341.5 -58.2316 338.084 -58.6837 335.049 -55.1428C329.143 -48.3064 325.852 -40.0116 323.208 -31.5816C319.735 -20.6963 319.738 -9.12438 318.985 2.13159C318.417 10.6109 319.063 19.3033 318.741 27.8984C317.983 48.6918 317.078 69.4604 312.206 89.8133C311.541 92.4882 311.014 95.1974 310.629 97.9293C309.498 106.951 306.843 115.542 303.934 124.086C298.899 138.944 295.036 154.198 288.88 168.657C287.224 172.563 285.789 176.538 284.448 180.58C281.067 190.871 279.298 201.593 276.112 211.949C274.208 218.637 273.58 225.639 274.262 232.56C274.727 237.223 274.853 241.918 274.64 246.606C269.137 242.244 264.683 236.616 261.621 230.16C258.126 222.588 257.564 215.128 260.654 207.842C263.612 200.845 267.198 194.16 269.302 186.755C271.198 179.991 275.215 174.097 277.352 167.477C280.542 157.584 284.671 148.074 288.206 138.335C289.511 134.753 290.42 131.018 292.31 127.681C298.141 117.401 300.58 105.96 302.383 94.4217C305.129 76.9825 302.252 59.7272 300.207 42.4884C299.31 34.9116 297.483 27.3854 297.096 19.8102C296.394 7.04654 293.907 -5.42511 292.461 -18.0583C291.326 -27.9222 288.931 -37.6292 286.816 -47.3359C285.631 -52.7417 284.45 -58.2283 281.101 -62.8255C278.635 -66.2038 276.434 -66.1388 274.371 -62.3299C272.991 -59.3649 271.829 -56.2962 270.897 -53.1504C268.224 -45.7836 268.469 -37.917 267.468 -30.3343C265.755 -16.9533 265.354 -3.43514 266.273 10.0113C267.07 21.8487 269.973 33.4494 269.596 45.4325C269.332 53.9053 269.851 62.4485 268.972 70.8568C268.093 79.2651 267.492 87.714 266.099 96.1083C264.929 103.223 263.338 110.285 262.478 117.418C261.239 127.568 257.995 137.198 256.228 147.272C254.46 157.346 251.68 167.296 248.998 177.231C246.316 187.166 242.904 197.188 243.21 208.449C242.733 207.912 242.29 207.343 241.884 206.747C237.914 199 233.493 191.515 228.646 184.332C227.138 182.112 225.282 179.527 225.652 176.83C226.607 169.869 226.466 162.608 229.84 156.141C231.371 153.126 232.385 149.859 232.836 146.488C233.271 143.114 234.286 139.844 235.832 136.835C237.471 133.526 238.822 130.073 239.869 126.517C241.471 121.596 242.64 116.478 245.075 111.929C247.755 107.028 249.966 101.868 251.678 96.5242C252.556 93.8167 253.653 91.1665 254.737 88.5197C259.524 76.5893 262.265 64.3361 260.812 51.3216C259.83 40.7497 258.128 30.2687 255.718 19.9574C254.202 14.7768 253.195 9.44649 252.712 4.04775C252.239 -5.36794 249.414 -14.1602 247.386 -23.1771C246.914 -25.2793 246.857 -28.5565 244.055 -28.5997C241.65 -28.6358 240.615 -25.8443 239.796 -23.7086C234.52 -9.89459 232.74 4.53424 232.713 19.289C232.752 34.9095 230.748 50.4777 226.758 65.566C222.598 81.0096 216.632 95.8648 212.198 111.227C209.076 121.685 207.288 132.515 206.879 143.438C206.772 148.654 207.13 153.866 207.951 159.007C206.947 158.578 206.129 157.784 205.649 156.773C201.277 150.665 198.53 143.53 194.618 137.174C189.38 128.665 191.016 119.977 195.456 112.641C198.068 108.334 200.739 104.01 203.266 99.6733C205.942 95.1338 207.93 90.1967 209.16 85.0367C211.033 76.8773 212.699 68.6571 214.737 60.5438C216.604 53.1134 217.963 45.6409 219.137 38.1414C220.667 28.333 219.994 18.4842 220.022 8.6361C220.06 -3.27782 217.876 -15.1077 218.254 -27.1838C218.593 -37.7146 220.805 -47.7421 222.948 -57.8426C224.346 -64.4661 226.32 -71.0272 225.151 -77.919C224.936 -79.3974 224.351 -80.7882 223.453 -81.9514C222.555 -83.1145 221.376 -84.009 220.036 -84.5446C217.343 -85.6633 215.085 -83.9687 213.243 -81.9945C210.633 -79.3842 208.983 -75.9083 208.582 -72.1758C208.382 -70.2644 207.986 -68.3793 207.401 -66.5526C204.428 -56.701 202.014 -46.6798 200.172 -36.5413C195.737 -14.2515 192.569 8.28182 190.684 30.9412C190.528 33.8059 190.527 36.6763 190.681 39.5388C191.054 51.7419 190.414 63.9629 188.768 76.066C187.641 83.9492 184.098 91.2041 182.19 98.9238L181.861 99.5852L181.611 98.9546C180.523 93.3399 179.877 87.6391 179.679 81.9088C179.598 80.49 179.538 79.0522 179.481 77.6267C179.352 74.7667 179.294 71.8865 179.066 69.041C178.985 67.6222 178.877 66.1977 178.754 64.7643C177.554 50.9907 179.169 37.2167 180.259 23.4321C181.926 2.30311 183.826 -18.8121 184.376 -40.023C184.734 -54.3815 184.976 -68.6941 183.808 -82.9925C182.761 -95.7117 181.472 -108.429 177.578 -120.57C173.765 -132.443 170.581 -144.494 167.764 -156.661C167.178 -159.46 166.249 -162.167 164.999 -164.716C162.719 -169.165 158.717 -171.171 154.501 -170.062L152.225 -167.039C152.309 -166.68 152.339 -166.31 152.314 -165.94ZM157.35 -166.831C158.885 -167.158 159.843 -165.749 160.735 -164.545C162.927 -161.592 163.659 -158.069 164.548 -154.577C167.501 -142.329 171.645 -130.457 174.554 -118.183C178.604 -101.126 179.49 -83.7854 179.89 -66.3475C180.26 -48.2793 178.53 -30.2537 178.294 -12.2131C178.164 -2.16441 176.387 7.87254 175.373 17.9058C173.873 32.9831 175.246 48.0836 174.721 63.1373C174.241 76.816 176.287 89.9546 179.317 103.106C180.53 108.372 181.342 113.711 183.977 118.457C184.43 119.282 184.237 121.029 185.668 120.692C187.098 120.354 187.1 118.661 187.041 117.527C187.035 114.469 187.509 111.428 188.444 108.522C190.42 101.272 193.761 94.7748 196.714 88.0038C201.526 76.8731 207.709 66.1229 208.262 53.2832C208.787 41.2318 210.049 29.1711 209.421 17.0479C209.148 11.6228 210.206 6.16653 209.482 0.723043C209.388 -0.444643 209.366 -1.61797 209.416 -2.78964C208.243 -3.09365 207.965 -2.68458 207.918 -2.36723C206.699 8.16038 205.22 18.616 205.471 29.3111C205.722 40.6544 203.973 51.9531 202.31 63.188C201.794 66.6664 199.87 69.7217 198.404 72.8728C196.256 77.4464 194.936 82.4213 192.49 86.8802C192.413 87.111 192.265 87.3091 192.068 87.4435C191.872 87.5779 191.639 87.6409 191.405 87.6227C191.971 85.9421 192.631 84.3805 193.022 82.7625C194.475 77.3249 195.271 71.7244 195.391 66.0913C195.362 55.5186 195.713 45.0372 196.19 34.5997C196.89 17.4122 198.738 0.287942 201.72 -16.6495C204.104 -29.807 206.491 -42.9522 209.163 -56.032C210.42 -62.1531 212.645 -68.031 213.573 -74.2444C213.767 -75.1848 214.19 -76.0595 214.799 -76.7857C215.855 -78.1416 216.895 -80.3657 218.674 -79.7829C220.454 -79.2001 221.658 -76.9738 221.86 -74.7294C222.129 -71.222 221.73 -67.6889 220.684 -64.333C218.145 -55.0941 216.077 -45.7255 214.489 -36.2664C214.067 -34.4018 213.877 -32.4902 213.924 -30.5786C214.612 -20.4169 215.349 -10.2686 216.011 -0.112532C217.333 20.0942 216.887 40.1646 211.698 59.9194C210.165 65.761 209.7 71.8436 208.069 77.6997C206.007 84.9491 202.999 91.8764 199.129 98.2873C195.339 104.469 192.118 111.006 189.509 117.81C186.941 124.79 188.55 131.61 192.08 137.916C193.587 140.336 194.719 142.989 195.433 145.779C192.536 143.66 190.076 141.906 188.678 138.769C186.037 132.901 183.18 127.186 180.429 121.388C180.058 120.474 179.495 119.659 178.782 119.003C178.068 118.346 177.221 117.864 176.303 117.592C167.82 114.905 159.487 111.607 150.997 109.094C145.484 107.399 140.396 104.485 136.079 100.551C122.192 88.2659 109.365 74.7439 97.7408 60.137C88.9897 49.1404 80.5801 37.7831 69.6159 28.9051C67.5117 27.1971 65.9812 24.6396 64.3852 22.3254C61.238 17.9224 59.5795 12.6103 56.4799 7.04326C61.9455 9.82913 67.2087 13.0215 72.2287 16.5957C86.777 26.738 100.995 37.3834 115.657 47.3744C130.32 57.3654 142.555 69.9849 153.324 84.4995C159.09 92.1318 164.999 99.975 172.917 105.599C173.586 106.071 174.22 106.911 175.046 106.202C176.037 105.34 175.284 104.482 174.79 103.695C173.31 101.335 171.524 99.1271 171.286 96.1391C170.873 95.8191 170.493 95.4766 170.667 94.8589C170.591 94.5627 170.516 94.2665 170.441 93.9704C170.244 93.5496 170.06 93.1255 169.864 92.7047C167.975 88.9916 166.191 85.2361 164.622 81.3798C164.105 80.0974 163.608 78.7959 163.146 77.4843C160.936 71.2565 157.133 65.7291 156.011 59.0224C155.019 53.0728 153.563 47.2539 150.34 42.1051C149.755 41.1033 149.341 40.003 149.117 38.8525C145.845 23.3486 140.948 8.17047 141.011 -7.99624C141.052 -21.7387 142.499 -35.4477 145.329 -48.8916C147.566 -59.4912 149.032 -70.2458 149.714 -81.0636C150.332 -90.4961 150.382 -100.059 150.716 -109.557C151.073 -119.617 150.466 -129.709 150.995 -139.791C151.392 -147.839 152.124 -155.676 154.45 -163.355C154.934 -164.96 155.749 -166.512 157.314 -166.821L157.35 -166.831Z" fill="#FDB90B"/>
<path d="M422.792 327.843C423.007 320.182 425.229 312.77 426.348 305.196C427.9 294.695 429.276 284.152 432.683 273.954C437.329 260.053 442.176 246.188 445.129 231.772C448.083 217.356 453.866 203.608 455.605 188.894C457.087 176.608 458.813 164.332 457.782 151.911C457.425 147.576 456.042 143.369 456.125 139.004C456.285 131.229 456.002 123.422 455.672 115.627C455.6 114.036 455.298 112.444 455.211 110.844C455.145 109.879 455.209 108.908 455.4 107.958L454.517 107.414C453.868 111.229 453.598 115.097 453.71 118.96C453.715 120.248 453.732 121.531 453.738 122.818C453.788 131.154 452.001 139.49 453.558 147.825C454.129 150.877 454.357 153.987 454.237 157.096C453.51 174.702 451.927 192.157 446.524 209.112C445.181 213.346 444.051 217.663 442.907 221.971C440.054 232.674 438.203 243.644 434.329 254.06C425.822 277.007 422.444 300.919 419.182 324.928C418.247 331.794 419.605 338.586 418.956 345.374C417.975 355.718 419.598 365.813 421.118 375.91C421.249 376.83 421.669 377.682 422.316 378.339C423.329 374.892 422.738 371.562 422.359 368.019C421.022 354.677 422.408 341.245 422.792 327.843Z" fill="#FDB90B"/>
<path d="M291.256 264.279C291.289 263.87 291.269 263.451 291.341 263.045C292.449 256.944 295.349 251.253 295.871 245.056C296.706 235.366 299.223 225.888 303.306 217.059C308.175 206.411 310.691 194.913 314.72 183.979C324.443 157.751 332.322 131.205 334.598 103.194C334.881 99.7411 335.93 96.3875 335.838 92.8187C335.515 77.4489 334.826 61.999 334.01 46.597C333.835 40.9755 333.145 35.386 331.948 29.9005L330.481 29.852C330.687 31.908 331.114 33.9293 331.368 35.9723C331.534 37.2013 331.595 38.4433 331.549 39.6843C330.859 53.7215 331.407 67.7545 331.494 81.7848C331.492 94.6842 330.189 107.559 327.605 120.209C323.666 140.11 318.671 159.785 310.9 178.65C306.982 188.059 305.842 198.329 301.541 207.586C294.908 221.978 291.991 237.257 290.145 252.822C289.583 256.71 289.407 260.642 289.619 264.56C289.81 264.316 290.083 264.152 290.386 264.1C290.688 264.048 290.999 264.111 291.256 264.279Z" fill="#FDB90B"/>
<path d="M342.563 295.129C342.675 294.339 342.778 293.563 342.879 292.776C344.771 277.533 348.855 263.158 356.734 249.777C362.66 239.979 367.847 229.746 372.251 219.167C380.985 197.449 389.635 175.754 392.889 152.358C393.679 146.602 394.552 140.966 393.725 135.177C393.499 133.023 393.384 130.857 393.379 128.689C392.995 117.961 392.862 107.216 392.153 96.5129C391.272 83.0612 389.93 69.6463 388.775 56.2184L387.159 55.9917C387.299 61.4021 387.619 66.8148 387.693 72.2175C387.717 74.0144 387.717 75.8178 387.69 77.6157C387.507 86.129 388.751 94.5346 388.721 103.096C388.675 113.839 388.823 124.593 389.387 135.323C389.84 141.087 389.473 146.892 388.298 152.561C386.846 158.91 385.611 165.304 384.444 171.717C382.556 182.101 377.896 191.546 374.333 201.334C368.628 217.334 361.583 232.82 353.274 247.622C341.994 267.462 338.14 288.91 339.595 311.478L341.107 311.746C340.835 306.076 341.794 300.622 342.563 295.129Z" fill="#FDB90B"/>
<path d="M282.728 279.81C281.149 278.639 279.568 279.74 278.028 279.636C273.747 279.359 270.158 277.161 266.302 275.742C258.447 272.84 250.175 271.502 242.161 269.208C218.917 262.505 195.295 262.809 171.549 265.649C164.593 266.637 157.712 268.125 150.959 270.101C142.844 272.325 134.855 275.516 126.297 275.951C124.158 276.048 122.024 276.265 119.906 276.599C105.127 279.251 89.9578 278.269 75.6825 273.736C68.633 271.434 61.9463 268.43 56.2345 263.516C54.8853 262.265 53.3684 261.213 51.728 260.389C46.2961 257.952 42.2945 253.839 38.5768 249.354L37.5616 250.915C39.0461 252.651 40.4895 254.424 42.1238 256.003C42.7776 256.634 43.4642 257.23 44.1805 257.787C44.5513 258.071 44.927 258.34 45.3074 258.595C52.3762 263.252 59.0788 268.356 66.8325 272.133C76.0563 276.807 86.0124 279.849 96.2718 281.128C108.861 282.54 121.286 280.314 133.772 279.342C135.088 279.144 136.381 278.811 137.631 278.348C145.355 276.038 153.191 273.916 161.029 272.331C179.268 268.614 197.779 267.004 216.399 269.059C234.547 271.064 252.21 275.486 269.97 279.407C273.424 280.166 276.96 280.557 280.473 281.057C280.933 281.176 281.422 281.113 281.84 280.881C282.259 280.65 282.576 280.267 282.728 279.81Z" fill="#FDB90B"/>
<path d="M252.011 220.889C254.265 214.873 255.086 208.554 256.594 202.369C257.088 200.3 257.686 198.257 258.386 196.248C264.079 180.31 267.831 163.783 273.377 147.769C277.578 135.59 281.406 123.255 284.695 110.758C286.915 102.634 288.314 94.308 288.871 85.909C289.33 74.8756 288.679 63.8315 286.929 52.9466C285.593 43.7023 285.37 34.269 282.761 25.2321L281.385 24.8495C282.194 30.6696 282.543 36.5384 282.921 42.4641C283.039 44.4284 283.167 46.3774 283.309 48.3351C284.466 63.9666 285.712 79.4966 282.809 95.1721C280.213 108.008 276.776 120.661 272.522 133.047C269.817 141.389 268.188 150.081 264.565 158.134C264.158 159.311 263.917 160.54 263.849 161.783C263.342 165.267 262.533 168.7 261.43 172.044C256.444 187.987 252.698 204.293 250.229 220.81C250.803 221.542 251.413 221.285 252.011 220.889Z" fill="#FDB90B"/>
<path d="M304.94 314.407C303.124 316.108 301.44 314.533 299.707 314.175C298.706 314.526 297.768 314.629 297.023 313.63C296.952 314.135 296.706 314.216 296.405 314.183C296.104 314.15 296.018 314.11 295.836 314.095L295.609 314.055L295.406 314.008C295.406 314.008 295.375 313.888 295.288 313.848C295.056 314.27 294.755 314.237 294.436 313.941C294.115 314.413 293.597 314.375 293.118 314.391C280.393 315.006 267.74 316.472 255.087 317.797C245.934 318.58 236.928 320.674 228.343 324.017C215.999 328.913 203.272 332.743 190.3 335.467C159.592 342.304 127.663 340.371 98.1028 329.885C94.6509 328.692 90.9263 328.687 87.6525 327.01L85.9727 327.533C93.1361 329.99 100.461 332.095 107.461 334.993C120.479 340.392 134.237 341.633 147.989 342.901C164.919 344.464 181.62 342.005 198.03 337.999C207.717 335.642 217.473 333.253 226.45 328.479C234.4 324.387 243.057 321.904 251.931 321.171C258.529 320.534 265.085 319.501 271.566 318.075C276.84 316.913 282.237 315.154 287.571 315.871C292.459 316.53 297.328 315.761 302.163 316.512C304.366 316.869 306.714 316.278 309 316.126L309.032 315.669L306.254 314.765C305.697 314.968 305.19 315.069 304.94 314.407Z" fill="#FDB90B"/>
<path d="M245.477 238.505C242.199 237.412 238.956 236.206 235.744 234.927C225.257 230.797 214.895 226.222 204.346 222.392C184.757 215.295 164.358 210.89 144.412 204.958C127.89 200.208 112.223 192.863 97.9821 183.189C89.8291 177.57 82.1381 171.285 74.2985 165.258C72.7028 164.025 70.8105 163.117 69.9727 161.958C70.3567 162.723 70.7844 163.464 71.2536 164.178C71.6977 164.742 72.2065 165.249 72.7696 165.691C82.4358 174.496 92.8051 182.479 103.773 189.559C111.391 194.347 118.94 199.361 127.317 202.385C143.202 208.119 159.088 213.956 175.46 218.245C183.54 220.374 191.566 222.685 199.515 225.286C211.059 229.075 222.046 234.289 233.532 238.196C238.774 239.985 244.136 241.457 250.042 243.257C248.727 240.661 247.569 239.204 245.477 238.505Z" fill="#FDB90B"/>
<path d="M183.464 165.579C175.255 160.064 166.661 155.156 157.749 150.89C148.708 146.697 140.189 141.383 131.284 136.883C120.183 131.288 108.321 127.457 96.9475 122.425C90.757 119.688 84.1903 117.799 78.2855 114.353L77.2044 115.087C77.5862 115.215 77.9563 115.375 78.3105 115.568C86.5665 120.799 95.4554 124.751 104.203 129.038C113.642 133.636 123.433 137.481 132.582 142.674C142.423 148.268 151.989 154.323 162.548 158.575C170.287 161.685 178.125 164.588 185.663 168.242C188.622 169.523 191.645 170.651 194.72 171.62C191.364 168.722 186.969 167.883 183.464 165.579Z" fill="#FDB90B"/>
<path d="M218.509 160.454C218.668 159.354 218.868 158.269 219.117 157.17C221.06 148.754 222.468 140.24 225.763 132.162C227.146 128.768 226.935 124.794 228.818 121.509C231.871 115.769 234.277 109.704 235.989 103.428C237.89 97.2387 241.395 91.4215 241.733 84.9142C242.111 77.8291 244.236 70.986 243.687 63.7688C243.137 56.5517 244.841 49.1675 243.343 41.8883C242.933 41.5886 242.511 41.2922 242.088 40.9444C242.395 44.7116 242.418 48.4988 242.158 52.2734C242.105 52.8031 242.031 53.3514 241.934 53.9061C240.421 62.7454 240.223 71.7389 238.56 80.5933C237.845 84.3445 237.087 88.0301 236.022 91.71C232.003 105.603 225.409 118.528 221.742 132.594C218.445 145.246 215.573 157.768 216.461 170.908L218.14 170.254C217.944 166.985 218.068 163.703 218.509 160.454Z" fill="#FDB90B"/>
<path d="M173.403 92.5137C173.52 92.9587 173.637 93.4038 173.753 93.8488C173.826 94.1255 173.902 94.4141 173.974 94.6908C174.029 94.7934 174.09 94.8931 174.155 94.9894C174.27 95.1238 174.344 95.2893 174.367 95.4659C174.391 95.6425 174.363 95.8226 174.288 95.9843L175.16 96.7253C175.907 95.2316 175.294 93.7235 174.981 92.2879C174.164 88.438 173.083 84.66 172.281 80.8189C170.247 71.0625 167.472 61.5087 166.611 51.6376C165.662 40.6558 164.958 29.5299 165.841 18.4591C166.496 10.4676 165.271 2.38454 166.981 -5.53488C169.405 -16.7309 169.208 -28.1635 169.882 -39.4476C170.507 -50.1382 170.436 -60.9476 170.196 -71.7626C170.062 -78.0299 167.936 -83.8936 167.025 -89.9998C166.049 -88.8431 166.591 -87.7538 166.624 -86.654C167.048 -80.1569 169.309 -73.8787 168.791 -67.2656C168.014 -57.2551 168.207 -47.201 166.956 -37.1899C165.706 -27.1788 165.69 -17.338 163.756 -7.53968C160.56 8.52992 159.941 24.9962 161.924 41.2282C162.351 44.7595 161.18 48.1483 161.764 51.7399C163.21 59.891 166.579 67.5159 167.745 75.7694C168.242 78.672 169.079 81.5025 170.238 84.2014C171.338 86.9299 172.544 89.6291 173.399 92.4503L173.403 92.5137Z" fill="#FDB90B"/>
<path d="M96.4268 43.9854C98.474 46.2559 100.044 48.0653 101.696 49.8005C114.837 63.5359 127.34 77.9487 141.65 90.4495C150.836 98.4214 160.076 106.404 170.83 112.233C174.187 114.054 177.23 116.721 181.934 117.259C175.316 112.522 169.164 108.301 163.214 103.831C149.386 93.4637 137.047 81.2847 124.747 69.1592C116.66 61.195 108.92 52.9037 100.119 45.6757C99.6673 45.1348 99.1016 44.7027 98.4632 44.4105C97.8247 44.1182 97.1293 43.9731 96.4268 43.9854Z" fill="#FDB90B"/>
</g>
</svg>
