<svg width="384" height="293" viewBox="0 0 384 293" fill="none" xmlns="http://www.w3.org/2000/svg">
<rect x="2" width="382" height="293" rx="9" fill="white"/>
<mask id="mask0_134_1768" style="mask-type:alpha" maskUnits="userSpaceOnUse" x="0" y="0" width="384" height="293">
<rect width="384" height="293" fill="#D9D9D9"/>
</mask>
<g mask="url(#mask0_134_1768)">
<path d="M7.117 276.992C7.31911 269.661 6.70626 262.349 6.94748 255.011C7.16916 248.274 7.20827 241.53 7.59945 234.773C7.89936 229.622 8.90339 224.569 9.80311 219.503C10.8137 213.83 12.411 208.353 15.56 203.45C15.9888 202.788 16.5616 202.232 17.2355 201.824C21.2862 199.384 25.4576 197.151 29.7338 195.133C34.6692 192.684 39.7936 190.87 45.4723 191.046C51.0531 191.222 54.4955 196.118 52.5331 201.341C51.8298 203.367 50.7966 205.261 49.4754 206.949C45.5049 211.806 42.4406 217.277 39.0243 222.5C36.8402 225.842 35.3537 229.355 35.1581 233.363C35.0669 235.119 35.0995 236.875 35.0278 238.638C34.7931 244.918 37.088 250.35 40.6086 255.364C42.0123 257.54 44.1616 259.128 46.6524 259.829C52.8395 261.396 58.7529 261.298 63.8122 256.598C66.3545 254.282 69.2886 252.438 72.4768 251.153C76.6755 249.41 80.6134 247.02 85.1967 246.296C89.9756 245.538 94.722 244.67 99.6183 245.212C106.099 245.943 111.497 248.378 115.148 254.097C116.631 256.386 118.407 258.471 120.429 260.299C123.49 263.031 126.404 265.923 129.159 268.962C131.176 271.187 133.898 272.646 136.865 273.095C138.86 273.454 140.92 273.787 142.648 272.377C147.342 268.551 150.856 263.89 151.945 257.792C152.304 255.775 152.389 253.712 152.597 251.669C152.897 248.326 153.21 244.97 152.812 241.634C152.073 235.028 149.868 228.671 146.358 223.028C143.502 218.459 140.373 214.13 135.47 211.454C131.18 209.11 126.936 206.668 122.665 204.272C121.133 203.411 119.621 202.523 118.18 201.511C115.396 199.552 113.616 196.765 111.973 193.879C111.608 193.226 111.321 192.417 112.56 192.404C116.061 192.365 119.582 191.96 123.03 193.011C125.228 193.664 127.457 194.245 129.674 194.858C131.284 195.322 132.947 195.577 134.622 195.616C137.23 195.616 138.723 194.623 139.571 192.188C140.452 189.634 140.427 186.853 139.499 184.315C138.502 181.358 136.454 179.053 134.935 176.435C131.82 171.316 128.098 166.592 123.852 162.366C120.312 158.743 115.872 156.321 111.771 153.449C107.67 150.576 102.93 149.316 98.5881 147.07C94.9975 145.236 91.0557 144.194 87.0287 144.015C84.5252 143.878 82.0216 143.715 79.5181 143.545C76.7822 143.35 74.1853 142.263 72.1248 140.451C71.7048 140.096 71.388 139.635 71.2079 139.116C71.0277 138.597 70.9909 138.038 71.1012 137.5C71.2576 136.52 72.203 136.364 72.9462 136.253C75.9648 135.796 79.0095 135.365 82.0021 136.37C86.6245 137.931 91.4621 137.898 96.228 138.375C96.7947 138.415 97.3633 138.327 97.8908 138.115C98.4182 137.904 98.8908 137.575 99.2727 137.154C100.616 135.764 101.607 134.071 102.161 132.218C104.319 126.075 103.198 120.252 100.433 114.592C99.8275 113.377 98.859 112.382 97.6623 111.745C94.9602 110.143 92.0545 108.913 89.0238 108.089C86.9094 107.574 84.8486 106.86 82.8692 105.954C75.3585 102.501 67.3263 100.81 59.3266 99.0735C55.3692 98.2183 51.327 97.585 47.2456 98.029C44.866 98.2836 42.4863 98.3097 40.074 98.4141C38.3938 98.4804 36.7489 97.9197 35.4581 96.8408C34.8061 96.3577 34.2389 95.8158 33.613 95.3262C31.0703 93.3677 29.1731 90.6388 26.4413 88.8761C24.3975 87.5625 22.5287 85.994 20.8801 84.2083C19.3721 82.6202 17.6091 81.2962 15.6643 80.2913C14.067 79.4491 12.4892 78.496 10.9506 77.5689C9.45824 76.5613 7.86005 75.7207 6.18468 75.062C3.12695 74.0109 0.108339 72.6922 -3.20366 73.0643C-5.968 73.3137 -8.63878 74.1928 -11.0118 75.6343C-13.3848 77.0759 -15.3971 79.0417 -16.895 81.3815C-20.7416 87.2897 -22.2998 93.7594 -19.7571 100.869C-18.1468 105.386 -15.8062 109.016 -11.5163 111.314C-9.89563 112.256 -8.36757 113.349 -6.95248 114.578C-4.42503 116.647 -1.60071 118.321 1.42531 119.547C7.945 122.158 13.7475 126.075 19.7261 129.62C23.1685 131.676 25.4699 134.843 26.8977 138.57C27.7974 140.908 27.4975 141.743 25.3982 143.068C24.1595 143.845 22.8751 144.55 21.6168 145.308C14.6538 149.506 8.40137 154.728 1.72522 159.344C-0.327755 160.813 -2.01995 162.731 -3.22322 164.952C-5.27505 168.361 -7.02048 171.946 -8.43896 175.665C-11.2229 183.577 -11.1251 191.333 -6.58085 198.717C-5.71631 200.157 -4.5712 201.409 -3.21369 202.397C-1.85618 203.385 -0.314022 204.089 1.321 204.468C3.43338 205.01 5.61095 204.964 7.84068 205.239C7.33867 206.283 6.83013 207.236 6.41939 208.222C5.9843 209.259 5.60988 210.321 5.29801 211.401C1.67306 224.04 -0.804417 236.862 -1.05216 250.063C-1.2282 259.202 -2.22571 268.283 -2.3561 277.423C-2.42782 282.646 -2.50605 287.803 -2.21919 292.993H0.29089C0.348053 292.541 0.36985 292.085 0.356087 291.629C-0.295883 284.722 0.316967 277.815 0.401724 270.908C0.479959 264.68 0.981974 258.445 1.39923 252.224C1.56223 249.795 1.28188 247.373 1.47095 244.944C1.95341 238.684 2.84009 232.475 3.90931 226.286C4.82888 220.297 6.20419 214.387 8.02323 208.607C8.23898 208.111 8.42832 207.603 8.59044 207.086C9.07942 204.893 10.8006 204.566 12.6783 204.272C12.6404 204.457 12.5881 204.638 12.5218 204.814C8.87731 211.343 7.80808 218.609 6.57586 225.823C5.08286 234.525 4.86119 243.312 4.83511 252.106C4.83511 255.625 4.54172 259.144 4.67212 262.656C4.78947 265.92 4.94594 269.184 5.04374 272.449C5.11486 277.766 4.82297 283.081 4.1701 288.358C4.00711 289.892 4.08534 291.453 4.05274 293H5.81306C5.86522 291.747 5.89782 290.493 5.98257 289.24C6.2564 285.172 6.99964 281.105 7.117 276.992ZM10.8854 201.87C7.10672 202.916 3.08253 202.613 -0.497992 201.015C-1.73191 200.461 -2.78815 199.575 -3.5492 198.456C-6.03603 195.026 -7.45996 190.939 -7.64356 186.704C-7.93695 180.45 -5.53119 175.156 -2.8842 169.789C-0.727882 165.365 2.65614 161.657 6.86273 159.109C9.69879 157.34 12.3393 155.264 15.0384 153.279C18.5267 150.74 22.1457 148.387 25.8806 146.228C30.6596 143.428 31.3507 141.006 28.8536 136.031C26.7888 131.91 23.4938 128.535 19.4262 126.375C13.4476 123.111 7.69073 119.416 1.2884 117.033C-1.27909 116.009 -3.6704 114.588 -5.79849 112.822C-7.55303 111.396 -9.42921 110.127 -11.4054 109.029C-16.2626 106.418 -17.9251 101.939 -18.7792 96.88C-19.1638 94.595 -18.877 92.3819 -18.6031 90.1426C-18.5367 89.43 -18.3353 88.7365 -18.0099 88.0993C-16.908 86.0559 -15.9888 83.8362 -14.5935 81.9887C-12.4815 79.2834 -9.39845 77.5103 -6.0006 77.0466C0.0149689 76.0228 6.19146 77.4061 11.1983 80.8984C14.9406 83.3857 18.5199 86.0559 22.034 88.8239C25.4308 91.481 28.5537 94.4188 31.8592 97.2194C33.2544 98.4207 34.6105 99.6676 36.0644 100.797C36.3345 100.988 36.5604 101.235 36.7269 101.521C36.8933 101.807 36.9965 102.126 37.0293 102.455C37.35 105.071 37.9736 107.641 38.8874 110.113C40.8955 115.577 42.245 121.251 43.9662 126.793C43.9861 127.06 43.9861 127.329 43.9662 127.596C37.4096 120.528 30.4131 113.882 23.0185 107.698C15.723 101.626 7.29303 97.1542 -0.602306 91.9314C0.0496616 93.1979 1.3536 93.792 2.36415 94.6277C8.71432 99.7916 15.8403 103.957 21.9232 109.441C28.9971 115.793 35.8166 122.419 42.5124 129.143C42.6411 129.307 42.7876 129.456 42.9492 129.587C45.3028 131.102 46.1569 133.485 46.8088 136.07C48.3996 142.311 51.49 147.873 54.9454 153.246C55.7343 154.474 55.7278 154.454 54.2934 154.611C48.3576 155.25 42.5766 156.911 37.2053 159.52C33.6195 161.27 29.7794 162.504 26.4479 164.743C20.4497 168.83 14.8559 173.38 10.2856 179.105C8.15239 181.687 6.26847 184.465 4.65907 187.403C5.77394 186.097 6.93444 184.792 8.00367 183.394C13.006 176.932 19.1791 171.47 26.2001 167.295C29.8772 165.128 33.6325 163.091 37.4987 161.289C43.4992 158.457 50.0977 157.128 56.7253 157.418C57.0359 157.429 57.3385 157.519 57.6052 157.679C57.872 157.839 58.094 158.063 58.2509 158.332C60.5784 161.557 62.945 164.756 65.24 168C67.0499 170.673 69.1013 173.173 71.3685 175.469C77.5491 181.482 83.2604 187.971 89.8844 193.52C91.26 194.669 92.6618 195.792 94.22 197.065C91.9806 197.88 89.8379 198.939 87.8307 200.225C87.3208 200.513 86.8288 200.831 86.3572 201.178C83.8602 203.202 81.3436 205.193 78.7488 207.099C75.339 209.6 72.5877 212.812 69.7646 215.958C63.2971 223.139 58.3682 231.32 54.3782 240.074C53.3285 242.366 52.0833 244.644 51.9529 247.288C51.9529 247.673 51.6138 248.202 52.2071 248.352C52.6765 248.47 52.9504 248.013 53.1655 247.667C54.1327 246.051 54.972 244.361 55.6756 242.614C57.6523 237.996 60.0532 233.573 62.8473 229.4C66.2895 224.098 70.1785 219.101 74.4718 214.463C77.3796 211.356 80.3396 208.274 84.3296 206.433C86.1486 205.591 87.3221 203.913 88.8934 202.725C90.7841 201.276 93.0268 200.355 94.8067 198.743C95.224 198.364 95.6282 198.56 95.9672 198.997C99.6052 203.744 104.078 207.667 108.355 211.787C111.021 214.346 113.088 217.427 115.135 220.489C119.047 226.325 123.154 232.018 126.153 238.449C129.002 244.559 132.073 250.552 134.433 256.878C134.73 257.663 135.11 258.414 135.568 259.118C136.75 261.004 137.494 263.133 137.745 265.346C137.802 265.781 137.88 266.192 137.98 266.58C138.195 267.48 138.339 268.61 139.623 268.303C140.751 268.035 140.418 267.076 140.405 266.155C140.327 261.846 137.798 258.452 136.331 254.672C132.766 245.774 128.613 237.124 123.898 228.78C121.805 225.026 119.158 221.599 116.765 217.995C116.537 217.649 116.335 217.277 116.113 216.918C116.113 216.833 116.054 216.742 116.028 216.657L116.27 216.768C117.632 217.479 118.949 218.263 120.253 219.072C121.12 219.614 121.981 220.169 122.861 220.724C124.165 221.553 125.469 222.389 126.773 223.185C131.141 225.849 134.596 229.583 138.339 232.978C141.161 235.396 143.661 238.167 145.778 241.223C144.963 238.506 143.481 236.037 141.468 234.042C138.938 231.372 136.428 228.669 133.807 226.084C130.906 223.218 127.477 221.024 124.061 218.831C120.012 216.219 115.846 213.804 111.934 210.997C109.574 209.312 107.592 207.08 105.414 205.121C102.966 202.83 100.687 200.364 98.5947 197.744C97.0751 195.902 95.3466 194.244 93.4441 192.802C89.2678 189.507 85.3449 185.902 81.7087 182.017C78.2011 178.361 74.3023 175.103 70.9903 171.252C69.4908 169.502 68.0891 167.674 66.7656 165.787C66.583 165.52 66.3157 165.285 66.3679 164.88C71.7466 164.847 77.021 165.755 82.3346 166.297C93.6919 167.452 103.726 171.963 113.336 177.787C117.867 180.529 122.685 182.787 127.112 185.725C127.305 185.798 127.506 185.844 127.712 185.862C127.294 184.589 126.238 184.047 125.404 183.466C117.241 177.813 108.987 172.29 99.8921 168.19C94.083 165.578 87.9089 164.345 81.637 163.502C76.1213 162.765 70.6252 161.929 65.0313 162.471C64.8476 162.502 64.6589 162.478 64.4886 162.403C64.3182 162.327 64.1737 162.203 64.0729 162.047C58.7333 154.957 53.3024 147.88 50.173 139.478C47.6955 132.819 45.7396 125.971 43.5359 119.24C43.2752 118.443 43.6142 118.189 44.2988 118.065C48.53 117.32 52.7743 116.583 57.0578 116.263C59.9851 116.041 62.8016 116.576 65.6507 117.027C70.3188 117.764 75.0195 118.332 79.5246 119.814C82.0542 120.65 84.5252 121.681 87.0222 122.615C87.4916 122.791 87.9741 122.902 88.8021 123.144C87.27 121.943 85.7313 121.518 84.3948 120.709C78.2663 117.001 71.2772 115.936 64.4706 114.272C59.3201 113.012 54.2021 113.26 49.0646 114.102C47.1087 114.422 45.1528 114.905 43.1969 115.408C42.545 115.59 42.3559 115.447 42.1407 114.846C40.9411 111.256 39.5981 107.711 38.3332 104.146C38.1259 103.394 37.9712 102.628 37.8703 101.855C37.7986 101.482 37.9681 101.3 38.3332 101.28H38.7114C41.9321 101.326 45.1398 101.163 48.354 100.973C52.7977 100.812 57.2378 101.381 61.4977 102.658C66.8112 104.113 72.3008 104.995 77.4122 107.162C81.6917 109.066 86.1015 110.661 90.608 111.934C92.4337 112.53 94.1841 113.336 95.8238 114.337C96.5967 114.708 97.2266 115.322 97.6167 116.087C100.068 121.113 101.15 126.284 99.0836 131.755C98.8826 132.305 98.6407 132.84 98.36 133.354C97.3103 135.228 96.6388 135.528 94.4873 135.313C89.9561 134.869 85.4314 134.542 81.0111 133.237C78.2859 132.434 75.4302 133.015 72.6594 133.393C70.7817 133.655 68.9366 134.262 68.4281 136.383C67.8739 138.688 68.1543 140.953 70.0776 142.605C72.709 144.916 76.0109 146.32 79.4985 146.613C82.9083 146.946 86.3507 146.875 89.7344 147.488C94.4189 148.403 98.9689 149.907 103.276 151.967C106.927 153.645 110.389 155.688 113.883 157.659C114.501 158.032 115.156 158.336 115.839 158.567C116.879 158.9 117.848 159.424 118.695 160.114C124.563 164.795 129.609 170.22 133.266 176.853C134.655 179.38 136.233 181.802 137.256 184.524C138.005 186.311 138.124 188.3 137.595 190.164C137.432 190.839 137.044 191.438 136.495 191.861C135.947 192.285 135.27 192.509 134.577 192.495C132.733 192.443 130.907 192.117 129.159 191.529C124.165 190.08 119.145 188.813 113.864 189.303C112.695 189.343 111.535 189.522 110.408 189.838C109.828 189.977 109.321 190.328 108.986 190.822C108.65 191.315 108.511 191.917 108.596 192.508C108.6 193.52 108.839 194.517 109.293 195.42C111.432 199.474 114.085 203.091 118.167 205.421C123.004 208.176 127.803 210.997 132.686 213.654C135.719 215.262 138.383 217.485 140.51 220.182C145.573 226.492 148.785 234.086 149.787 242.118C150.178 245.303 149.787 248.476 149.598 251.656C149.513 252.909 149.363 254.156 149.305 255.409C149.031 261.416 145.693 265.783 141.657 269.772C141.332 270.1 140.936 270.35 140.5 270.502C140.064 270.655 139.599 270.707 139.141 270.653C136.683 270.431 134.133 270.053 132.438 268.205C127.659 262.982 122.007 258.667 117.71 252.968C116.68 251.597 115.585 250.272 114.496 248.953C111.419 245.238 107.188 243.88 102.676 242.927C96.4562 241.621 90.3733 242.529 84.2774 243.665C81.4845 244.211 78.7752 245.122 76.2191 246.374C74.1785 247.347 72.1313 248.333 70.058 249.194C67.262 250.438 64.6686 252.095 62.3648 254.11C60.5132 255.677 58.6616 257.374 56.145 257.694C53.1197 258.201 50.0173 257.977 47.0957 257.042C45.5063 256.473 44.1249 255.438 43.1317 254.071C39.7871 249.612 37.6552 244.703 37.6813 239.004C37.6801 236.539 37.8195 234.075 38.0985 231.626C38.4108 229.38 39.2339 227.236 40.5043 225.359C44.1162 219.673 47.4347 213.797 51.6855 208.529C53.5478 206.141 54.8692 203.377 55.5582 200.427C57.3381 193.337 50.4664 187.977 44.9507 188.931C35.7388 190.53 26.8787 193.736 18.7742 198.403C16.2993 199.884 13.6491 201.048 10.8854 201.87Z" fill="#FDB90B" fill-opacity="0.25"/>
</g>
</svg>
