<svg width="382" height="293" viewBox="0 0 382 293" fill="none" xmlns="http://www.w3.org/2000/svg">
<rect width="382" height="293" rx="9" fill="white"/>
<mask id="mask0_134_1784" style="mask-type:alpha" maskUnits="userSpaceOnUse" x="-2" y="0" width="384" height="293">
<rect x="-2" width="384" height="293" fill="#D9D9D9"/>
</mask>
<g mask="url(#mask0_134_1784)">
<path d="M318.551 24.4121C315.79 28.6752 314.384 33.4711 313.195 38.267C311.831 43.7929 310.531 49.3349 308.591 54.669C306.41 60.8768 303.665 66.8718 300.39 72.5791C299.386 74.2559 298.581 76.0443 297.992 77.9078C297.369 79.9381 296.66 81.9364 296.015 83.956C294.273 89.5846 293.28 95.4184 293.063 101.307C292.85 105.964 293.735 110.536 294.129 115.161C294.523 119.504 294.902 123.858 295.727 128.158C295.797 128.526 296.037 128.91 295.727 129.379C295.525 128.995 295.333 128.654 295.157 128.313C294.391 126.683 293.738 125.002 293.202 123.282C291.603 118.7 288.816 114.724 286.322 110.616C284.809 108.122 283.391 105.543 281.468 103.326C276.586 97.715 271.876 91.9439 266.648 86.6524C264.874 84.8619 262.918 83.2846 260.973 81.67C260.762 81.4513 260.484 81.3089 260.183 81.265C259.882 81.2212 259.575 81.2783 259.31 81.4276C259.045 81.5768 258.837 81.8097 258.718 82.0898C258.6 82.3699 258.578 82.6814 258.655 82.9755C258.692 83.3728 258.75 83.7678 258.831 84.1585C259.652 87.6435 260.472 91.1232 262.14 94.3472C262.86 95.738 263.904 96.889 264.65 98.2532C269.163 106.529 273.709 114.772 278.222 123.069C280.844 127.903 283.802 132.517 288.406 135.651C291.603 137.846 294.8 140.047 297.827 142.509C298.205 142.818 298.728 143.042 298.797 143.543C299.079 145.674 299.133 147.854 299.474 150.017C298.784 149.424 298.136 148.785 297.534 148.104C295.253 145.695 293.298 142.994 290.83 140.75C287.937 138.118 285.001 135.555 281.633 133.492C278.707 131.702 276.043 129.48 273.107 127.727C267.154 124.235 261.567 120.152 256.433 115.54C253.711 113.135 250.674 111.113 247.406 109.529C245.898 108.772 244.896 109.422 244.742 111.085C244.659 112.062 244.843 113.044 245.274 113.925C246.775 117.077 248.709 120.004 251.019 122.622C256.183 128.403 262.161 133.338 267.714 138.704C270.005 140.79 272.129 143.053 274.066 145.472C275.99 148.019 277.967 150.582 280.354 152.665C285.214 156.787 290.394 160.517 295.845 163.819C296.757 164.373 297.757 164.769 298.802 164.991C300.866 165.515 302.853 166.301 304.717 167.33C305.069 167.517 305.527 167.645 305.655 168.028C306.417 170.24 308.096 172.068 308.319 174.492C308.676 178.014 309.918 181.281 311.346 184.478C311.804 185.485 312.22 186.509 312.678 187.516C312.849 187.899 313.014 188.342 312.646 188.581C312.279 188.821 312.044 188.384 311.794 188.166C309.069 185.85 306.346 183.54 303.625 181.238C299.287 177.572 294.289 174.892 289.541 171.838C287.985 170.831 286.477 169.739 284.873 168.822C279.128 165.556 274.215 161.255 269.67 156.566C265.705 152.484 262.375 147.886 259.049 143.297C252.767 134.611 246.42 125.979 239.466 117.815C238.395 116.512 237.106 115.405 235.656 114.543C234.697 114.01 234.057 114.245 233.738 115.305C233.437 116.287 233.395 117.329 233.615 118.332C234.249 121.364 234.91 124.423 236.152 127.252C238.209 131.942 240.356 136.615 242.813 141.107C247.27 149.436 252.666 157.228 258.895 164.33C265.194 171.316 272.148 177.508 280.716 181.771C287.058 184.921 293.596 187.633 299.937 190.777C305.685 193.636 311.197 196.949 316.419 200.683C318.271 201.91 319.811 203.552 320.917 205.479C321.648 206.792 322.492 208.04 323.437 209.209C323.981 209.874 324.312 210.687 324.386 211.543C322.345 209.62 320.251 208.266 318.258 206.779C315.456 204.61 312.49 202.663 309.385 200.955C307.435 199.921 305.468 198.914 303.523 197.907C298.019 195.088 292.642 192.045 286.578 190.447C281.745 189.189 276.901 188.363 271.908 188.683C267.538 188.96 263.19 189.53 258.81 189.647C253.463 189.871 248.172 188.494 243.612 185.693C238.39 182.469 234.819 177.7 231.926 172.403C229.688 168.284 227.887 163.962 225.99 159.683C224.348 155.953 222.313 152.431 221.082 148.53C220.391 146.242 219.331 144.082 217.943 142.136C216.829 140.606 215.508 140.361 213.909 141.342C213.296 141.669 212.784 142.158 212.428 142.755C212.072 143.353 211.886 144.036 211.89 144.731C212.007 149.074 212.289 153.465 213.723 157.563C215.705 163.222 217.837 168.865 220.655 174.183C223.474 179.501 226.517 184.681 230.391 189.333C233.23 192.855 236.78 195.738 240.809 197.795C250.001 202.362 259.881 204.573 269.872 206.422C276.054 207.563 282.299 208.319 288.523 209.055C296.516 209.987 304.339 211.527 311.906 214.336C317.091 216.254 321.94 218.945 327.162 220.757C327.419 220.837 327.657 220.971 327.858 221.15C328.059 221.329 328.22 221.549 328.329 221.796C329.475 224.467 330.307 227.262 330.807 230.125C327.769 228.872 324.849 227.716 321.972 226.464C317.911 224.595 313.619 223.277 309.209 222.542C303.721 221.743 298.168 222.195 292.637 222.259C287.915 222.318 283.199 222.579 278.462 221.977C272.932 221.23 267.47 220.041 262.129 218.423C253.753 215.945 245.77 212.561 238.997 206.971C233.967 202.831 229.267 198.285 224.172 194.182C220.655 191.368 217.064 188.635 213.637 185.715C212.013 184.293 210.17 183.142 208.181 182.304C206.859 181.771 205.73 182.251 205.65 183.647C205.527 185.699 205.394 187.803 207.003 189.541C208.45 190.976 209.748 192.554 210.877 194.251C213.067 197.78 215.639 201.058 218.545 204.024C223.595 209.236 229.228 213.851 235.331 217.778C241.816 221.998 248.573 225.771 255.191 229.784C263.973 235.112 273.506 237.159 283.652 236.828C290.175 236.615 296.505 234.91 302.98 234.308C306.417 233.983 309.854 233.445 313.307 233.807C317.57 234.249 321.833 234.622 326.038 235.533C327.983 235.954 330.008 236.066 331.899 236.599C334.18 237.255 336.498 238.038 337.974 240.132C339.45 242.226 341.107 243.974 342.647 245.909C343.163 246.573 343.593 247.3 343.926 248.072C344.718 249.941 345.694 251.726 346.841 253.401C348.552 255.783 349.324 258.586 350.124 261.543C348 260.893 345.91 260.135 343.862 259.273C339.855 257.739 335.869 256.188 331.606 255.41C326.896 254.547 322.132 254.381 317.384 254.03C314.661 253.827 311.943 253.55 309.183 253.928C304.632 254.557 300.124 255.458 295.493 255.57C294.741 255.577 293.993 255.689 293.271 255.9C291.003 256.525 288.631 256.681 286.301 256.358C272.702 254.882 260.19 250.161 248.466 243.292C242.893 240.031 237.462 236.535 231.212 234.596C229.528 234.063 227.721 234.089 226.112 233.306C224.704 232.622 223.087 232.502 221.593 232.97C219.568 233.535 219.27 234.286 220.378 236.077C220.517 236.301 220.634 236.541 220.751 236.78C222.535 240.435 225.37 243.473 228.894 245.504C235.448 249.324 242.264 252.676 249.026 256.119C255.911 259.625 263.179 262.188 270.304 265.108C274.748 267.028 279.474 268.217 284.297 268.631C287.121 268.828 289.946 269.094 292.765 269.393C298.546 269.991 304.383 269.776 310.105 268.753C313.787 268.114 317.384 266.899 321.114 266.387C325.009 265.854 328.841 264.661 332.811 264.906C336.871 265.156 340.937 265.087 344.987 265.439C348.451 265.716 351.941 266.163 354.536 268.817C357.44 271.791 360.248 274.86 363.025 277.956C366.302 281.622 368.583 286.013 371.657 289.866C376.235 295.605 380.397 301.68 384.729 307.616C385.539 308.724 386.328 309.849 387.122 310.962C387.409 311.367 387.745 311.842 388.299 311.495C388.853 311.149 388.832 310.616 388.502 310.094C388.138 309.436 387.742 308.798 387.313 308.181C384.564 304.552 381.985 300.795 379.139 297.23C376.411 293.814 374.162 290.031 371.247 286.748C369.675 284.974 368.801 282.752 367.41 280.887C364.272 276.656 360.435 273.032 356.961 269.089C354.365 266.142 351.323 264.005 347.299 263.637C344.976 263.43 342.647 263.211 340.324 263.201C335.795 263.174 331.265 262.364 326.73 263.35C322.196 264.336 317.357 264.741 312.817 266.094C308.277 267.448 303.619 267.821 298.962 267.927C294.619 268.028 290.297 267.48 285.97 267.133C283.152 266.904 280.317 266.712 277.567 265.945C270.895 264.08 264.575 261.266 258.144 258.772C251.216 256.076 244.688 252.378 237.953 249.18C235.539 248.035 233.253 246.617 230.887 245.365C226.979 243.404 223.786 240.265 221.759 236.391C220.693 234.35 220.975 233.898 223.389 233.945C223.7 233.94 224.01 233.977 224.311 234.057C226.72 234.766 229.139 235.459 231.537 236.189C237.255 238.001 242.194 241.257 247.305 244.321C258.533 251.088 270.533 255.804 283.541 257.733C287.105 258.266 290.66 258.586 294.198 257.536C295.019 257.345 295.86 257.261 296.703 257.286C298.696 257.227 300.662 256.934 302.639 256.694C306.454 256.23 310.232 255.314 314.112 255.559C316.632 255.719 319.137 256.033 321.657 256.092C328.308 256.269 334.88 257.57 341.097 259.939C341.369 260.041 341.848 260.009 341.774 260.541C341.369 260.765 340.98 260.589 340.596 260.541C335.07 259.678 329.475 259.763 323.879 259.742C317.277 259.715 310.765 260.962 304.19 261.426C298.277 261.927 292.329 261.836 286.434 261.154C278.777 260.147 271.46 257.739 264.133 255.399C258.623 253.635 253.278 251.413 247.918 249.244C247.283 248.989 246.644 248.743 245.834 248.424C246.268 249.056 246.891 249.536 247.614 249.793C255.506 253.369 263.483 256.721 271.791 259.241C278.292 261.224 284.83 262.907 291.651 263.344C297.646 263.728 303.609 263.307 309.55 262.705C316.558 261.996 323.549 261.282 330.604 261.501C334.335 261.618 338.107 261.064 341.837 261.927C344.676 262.537 347.556 262.938 350.454 263.126C351.813 263.238 352.325 262.636 351.786 261.399C351.488 260.701 351.323 259.971 351.062 259.268C350.401 257.493 349.996 255.623 349.021 253.939C347.699 251.749 346.175 249.676 345.349 247.203C345.047 246.225 344.532 245.326 343.841 244.571C342.104 242.727 340.644 240.665 339.093 238.677C338.321 237.572 337.192 236.767 335.896 236.397C330.471 235.128 325.084 233.679 319.51 233.173C317.789 233.016 316.077 232.765 314.384 232.421C311.643 231.869 308.822 231.84 306.071 232.336C297.337 233.85 288.587 235.128 279.714 235.485C271.62 235.811 264.325 233.322 257.515 229.309C253.182 226.757 248.914 224.077 244.566 221.54C235.954 216.52 227.567 211.165 220.544 203.891C218.146 201.408 215.598 199.095 213.712 196.154C212.071 193.623 210.435 191.081 208.181 189.045C206.646 187.665 206.806 185.874 206.769 184.121C206.769 183.466 207.099 183.162 207.834 183.514C209.071 184.121 210.398 184.58 211.383 185.571C213.685 187.851 216.414 189.605 218.844 191.72C223.448 195.717 228.254 199.479 232.725 203.641C236.146 206.838 239.573 210.009 243.665 212.433C251.562 217.122 260.089 220.117 268.924 222.339C273.685 223.595 278.575 224.3 283.498 224.439C289.605 224.535 295.711 224.22 301.818 224.13C305.717 224.01 309.613 224.428 313.398 225.371C318.194 226.64 322.611 228.793 327.253 230.375C327.423 230.434 327.652 230.492 327.604 230.743V230.711C327.633 230.669 327.674 230.637 327.722 230.62C327.801 230.62 327.865 230.7 327.929 230.844C327.939 230.821 327.951 230.8 327.967 230.78C328.084 230.631 328.228 230.78 328.366 230.823L328.67 230.961C328.827 230.972 328.984 230.992 329.139 231.02C329.273 231.04 329.399 231.095 329.505 231.179C329.61 231.263 329.692 231.374 329.741 231.5C330.583 231.356 331.239 231.814 331.921 232.187L332.667 232.288C333.093 232.054 333.386 231.787 333.2 231.222C332.944 230.519 332.763 229.789 332.539 229.091C331.867 226.927 330.338 225.142 329.784 222.936C329.091 220.181 327.183 218.742 324.625 217.916C323.027 217.384 321.428 216.851 319.883 216.19C314.991 214.058 310.147 211.783 305.01 210.254C303.833 209.902 302.554 209.87 301.376 209.518C293.276 207.115 284.995 205.788 276.608 204.962C266.153 203.896 255.74 202.538 245.946 198.418C241.736 196.649 237.553 194.624 234.489 191.145C231.153 187.345 227.999 183.423 225.43 178.947C222.958 174.62 220.927 170.096 218.673 165.673C217.767 163.893 217.527 161.762 216.611 159.982C214.25 155.404 214.154 150.39 213.462 145.472C213.385 144.534 213.645 143.601 214.197 142.839C214.767 141.912 215.375 141.901 216.041 142.738C217.282 144.299 218.487 145.898 219.094 147.832C219.819 150.161 220.917 152.346 221.759 154.626C224.522 162.376 228.038 169.837 232.256 176.901C235.368 182.059 239.53 186.12 244.992 188.512C248.752 190.104 252.769 191.007 256.849 191.177C262.039 191.448 267.197 190.814 272.366 190.58C281.132 190.18 289.322 192.349 296.996 196.441C300.976 198.573 305.016 200.566 309.028 202.618C312.41 204.42 315.689 206.411 318.849 208.58C320.618 209.747 322.286 211.032 323.981 212.311C324.327 212.566 324.785 212.843 325.201 212.508C325.617 212.172 325.361 211.676 325.174 211.309C324.556 210.094 323.863 208.921 323.256 207.707C322.228 205.498 321.03 203.373 319.675 201.349C318.076 199.069 315.668 197.667 313.249 196.33C310.051 194.571 307.27 192.168 303.859 190.772C297.024 187.954 290.355 184.751 283.882 181.18C281.67 179.96 279.256 179.128 277.167 177.721C272.071 174.343 267.278 170.527 262.844 166.318C255.073 158.848 248.632 150.108 243.798 140.473C241.55 136.033 239.367 131.542 237.249 127.002C235.789 123.895 235.118 120.554 234.532 117.186C234.441 116.627 234.446 115.934 235.091 115.694C235.357 115.626 235.637 115.647 235.889 115.753C236.142 115.86 236.352 116.047 236.487 116.286C237.26 117.256 237.99 118.263 238.816 119.185C241.379 122.062 243.521 125.281 245.973 128.244C250.518 133.743 254.77 139.434 258.831 145.296C262.332 150.347 266.078 155.223 270.517 159.529C276.002 164.737 282.084 169.278 288.635 173.059C290.004 173.869 291.299 174.807 292.711 175.542C296.719 177.625 300.441 180.217 303.785 183.253C307.605 186.748 311.852 189.743 315.508 193.436C315.828 193.761 316.286 194.022 316.686 193.644C317.085 193.265 316.84 192.829 316.483 192.498C315.146 191.257 314.709 189.578 314.293 187.899C313.704 185.126 312.782 182.433 311.549 179.88C309.598 176.117 308.607 171.924 306.465 168.225C306.156 167.561 305.672 166.993 305.064 166.584C302.623 165.129 299.905 164.277 297.427 162.881C293.697 160.749 290.569 157.877 287.175 155.34C285.331 153.966 283.21 153.012 281.505 151.434C276.549 146.841 271.982 141.843 267.4 136.908C265.625 134.985 263.488 133.524 261.767 131.553C260.046 129.581 257.994 128.094 256.31 126.144C253.603 123.069 250.342 120.437 248.371 116.76C247.539 115.209 246.431 113.787 246.143 111.964C246.084 111.612 246.047 111.191 246.324 110.968C246.601 110.744 246.985 111.053 247.262 111.223C247.944 111.632 248.61 112.067 249.26 112.529C254.099 115.955 258.948 119.371 263.771 122.819C268.034 125.878 272.76 128.249 276.959 131.483C282.635 135.853 288.496 139.946 293.159 145.466C296.617 149.559 300.534 153.257 303.508 157.722C305.298 160.429 307.051 163.163 308.884 165.982C309.234 165.138 309.303 164.204 309.081 163.318C308.918 161.953 308.978 160.571 309.257 159.225C310.062 154.509 312.103 150.235 314.266 146.058C316.984 140.814 320.48 136.034 323.8 131.169C326.658 126.984 329.01 122.474 330.807 117.735C332.406 113.472 333.557 108.991 334.75 104.568C335.885 100.358 338.022 96.6545 340.191 92.9563C340.523 92.2933 341.061 91.7564 341.726 91.427C342.051 91.7201 341.955 92.0504 341.955 92.3435C342.028 95.4433 341.762 98.5418 341.161 101.584C339.898 107.413 340.02 113.376 339.232 119.249C338.539 124.402 337.521 129.432 334.606 133.78C331.942 137.739 329.395 141.773 326.171 145.349C325.475 146.095 324.869 146.919 324.364 147.806C321.924 152.218 318.151 155.767 316.174 160.477C316.086 160.678 315.959 160.859 315.801 161.01C313.446 163.323 312.641 166.494 311.202 169.313C310.772 170.246 310.718 171.309 311.053 172.281C312.22 176.693 314.048 180.892 315.226 185.304C315.399 185.851 315.609 186.385 315.854 186.903C316.083 187.436 316.387 187.969 317.107 187.878C317.376 187.845 317.624 187.717 317.807 187.516C317.99 187.316 318.095 187.057 318.103 186.786C318.588 183.684 320.33 181.142 321.705 178.425C324.002 173.89 326.874 169.696 329.192 165.161C330.913 161.799 332.283 158.207 334.622 155.159C334.91 154.712 335.135 154.228 335.294 153.721C336.892 149.745 338.981 145.994 340.479 141.997C341.976 138.001 343.884 134.175 344.79 129.975C345.051 128.76 345.589 127.631 345.903 126.448C346.884 122.787 348.008 119.169 348.259 115.321C348.646 109.976 349.6 104.687 351.104 99.5427C352.17 95.8765 353.497 92.2849 354.733 88.672C355.692 85.8797 357.286 83.4338 358.996 81.0731C359.225 80.7641 359.529 80.3644 359.939 80.423C360.35 80.4816 360.366 81.0252 360.504 81.3716C360.769 82.1692 360.923 82.9993 360.963 83.8388C361.367 86.9242 360.339 89.8763 360.179 92.8977C359.891 98.2958 358.959 103.619 358.293 108.975C357.941 111.799 357.11 114.527 356.795 117.336C356.044 124.023 355.261 130.7 353.854 137.297C352.885 141.562 351.364 145.682 349.33 149.553C347.118 153.912 343.767 157.408 341.059 161.378C337.148 167.112 332.954 172.643 328.547 178.009C326.869 180.055 325.766 182.523 323.752 184.329C321.519 186.327 320.757 189.189 319.68 191.837C319.147 193.127 319.462 194.454 319.968 195.717C321.567 199.703 323.959 203.321 325.574 207.307C325.671 207.512 325.811 207.694 325.984 207.84C326.097 207.98 326.249 208.083 326.422 208.134C326.594 208.186 326.778 208.183 326.949 208.127C327.083 208.043 327.186 207.918 327.244 207.77C327.301 207.622 327.31 207.46 327.269 207.307C326.88 205.063 327.876 203.044 328.238 200.912C328.927 196.666 330.623 192.646 333.184 189.189C333.876 188.217 334.489 187.19 335.017 186.12C336.274 183.581 337.783 181.175 339.519 178.936C345.045 172.116 349.532 164.591 354.381 157.312C357.835 152.122 359.801 146.148 362.945 140.793C364.298 138.48 364.543 135.757 365.583 133.333C368.348 126.938 370.075 120.213 371.647 113.451C371.981 111.716 372.517 110.025 373.245 108.415C373.877 107.043 374.381 105.616 374.753 104.152C376.288 98.8873 379.613 94.8161 383.482 91.1126C383.828 90.7822 384.239 90.3932 384.766 90.5797C385.294 90.7662 385.299 91.3417 385.347 91.832C385.52 93.1987 385.442 94.5855 385.118 95.9245C384.228 99.0205 383.232 102.085 382.363 105.186C381.917 106.946 381.309 108.66 380.546 110.307C379.82 111.829 379.359 113.463 379.182 115.14C378.649 119.211 377.428 123.192 377.652 127.359C377.653 127.671 377.602 127.98 377.503 128.276C376.848 130.588 376.682 132.976 376.315 135.336C375.665 139.487 374.897 143.628 373.975 147.726C372.297 155.186 368.817 161.922 365.481 168.694C363.35 173.016 360.797 177.13 358.453 181.35C356.854 184.175 355.309 187.025 353.257 189.525C348.259 195.615 343.575 201.946 338.662 208.096C335.427 212.14 333.333 216.622 332.763 221.79C332.714 222.146 332.732 222.507 332.816 222.856C333.625 225.841 334.738 228.736 336.136 231.494C337.972 234.887 340.126 238.099 342.568 241.086C342.978 241.619 343.34 242.248 344.166 241.944C344.992 241.64 344.816 240.878 344.784 240.239C344.683 238.171 344.374 236.093 344.449 234.036C344.773 226.049 347.537 218.354 352.367 211.986C357.696 204.792 362.098 196.99 367.794 190.084C371.375 185.741 373.453 180.492 376.368 175.76C377.482 173.954 378.819 172.27 379.565 170.282C381.958 164.122 385.47 158.437 387.143 151.962C387.852 149.218 389.456 146.74 389.962 143.9C391.203 136.935 392.243 129.938 394.577 123.203C395.642 120.149 396.873 117.304 399.053 114.916C400.023 113.851 400.284 113.888 401.115 115.076C401.438 115.558 401.648 116.108 401.727 116.683C401.806 117.258 401.754 117.844 401.573 118.396C400.795 121.231 400.683 124.167 400.188 127.045C399.383 131.718 398.994 136.445 398.328 141.134C397.726 145.333 397.204 149.559 396.974 153.816C396.793 157.216 396.628 160.669 395.877 163.941C394.719 168.662 393.032 173.236 390.846 177.578C388.464 182.485 385.198 186.978 381.83 191.32C378.462 195.663 374.759 199.591 371.588 204.03C367.602 209.609 363.36 215.007 359.332 220.549C356.273 224.785 354.429 229.789 351.259 233.951C348.451 237.649 348.69 241.944 348.403 246.132C348.395 246.488 348.471 246.841 348.626 247.161C349.554 249.17 350.278 251.264 351.36 253.204C354.291 258.474 357.6 263.499 360.893 268.54C363.931 273.187 367.469 277.45 370.805 281.862C371.109 282.262 371.428 282.805 372.1 282.523C372.328 282.432 372.514 282.259 372.621 282.038C372.729 281.818 372.75 281.565 372.681 281.329C372.116 276.895 371.743 272.43 370.954 268.039C369.75 261.325 370.496 254.717 371.556 248.099C371.739 247.179 372.031 246.285 372.425 245.434C374.332 240.846 376.421 236.375 379.405 232.341C380.23 231.245 380.978 230.093 381.644 228.894C384.031 224.348 386.709 219.963 389.663 215.764C393.575 210.382 396.532 204.408 399.863 198.669C402.575 194.001 404.52 188.928 406.199 183.786C406.961 181.441 407.376 178.99 408.367 176.688C409.367 174.28 410.133 171.782 410.653 169.227C411.9 163.462 412.785 157.621 415.337 152.202C416.355 150.017 416.782 147.566 418.194 145.541C419.531 143.622 421.332 142.562 423.698 142.685C425.526 142.781 426.15 143.559 426.24 145.349C426.384 148.328 425.366 151.088 424.796 153.939C423.491 160.445 422.43 167.005 421.204 173.533C420.64 176.506 420.847 179.539 420.336 182.517C419.318 188.411 417.288 193.964 414.799 199.372C413.758 201.773 412.51 204.078 411.069 206.262C407.467 211.49 405.053 217.389 401.792 222.819C399.511 226.624 398.413 231.095 395.712 234.729C395.508 235.07 395.33 235.427 395.179 235.795C393.047 239.866 391.006 243.99 388.747 247.992C387.399 250.331 386.268 252.789 385.368 255.335C383.621 260.35 381.942 265.391 380.008 270.336C378.505 274.178 377.029 277.972 377.141 282.182C377.143 282.494 377.1 282.804 377.013 283.104C376.219 285.938 376.938 288.64 378.233 291.054C381.782 297.526 386.226 303.466 391.433 308.698C391.489 308.765 391.552 308.827 391.619 308.884C391.783 309.002 391.981 309.064 392.183 309.059C392.385 309.054 392.58 308.983 392.738 308.858C393.159 308.596 392.957 308.207 392.781 307.92C392.328 307.168 391.928 306.38 391.496 305.618C390.569 303.987 388.832 303.193 387.766 301.712C386.168 299.436 384.356 297.299 382.997 294.848C382.139 293.303 381.025 291.88 380.301 290.281C379.347 288.193 378.67 286.018 379.267 283.61C380.088 280.317 379.736 276.911 381.281 273.586C383.823 268.108 385.544 262.252 387.574 256.534C388.403 253.962 389.558 251.507 391.012 249.228C392.246 247.457 393.301 245.566 394.161 243.585C394.533 242.782 394.955 242.002 395.424 241.251C397.374 237.841 399.66 234.553 401.12 230.935C403.657 224.657 407.43 219.057 410.35 213.003C412.22 209.135 415.114 205.831 416.643 201.781C418.327 197.321 420.714 193.122 421.641 188.374C422.453 184.662 423.035 180.903 423.384 177.119C423.741 172.19 424.86 167.325 425.771 162.454C426.347 159.369 426.778 156.252 427.482 153.193C428.137 150.667 428.451 148.065 428.414 145.456C428.292 142.258 426.619 140.617 423.411 140.66C419.744 140.66 417.298 142.679 415.865 145.823C414.197 149.473 412.796 153.246 411.304 156.976C411.117 157.519 410.971 158.075 410.867 158.639C409.923 162.636 408.964 166.632 408.058 170.634C407.318 173.89 405.58 176.816 404.861 180.061C403.476 186.413 400.795 192.269 397.635 197.838C393.756 204.685 389.893 211.549 385.448 218.087C381.377 224.077 377.988 230.514 374.258 236.738C371.881 240.692 369.83 244.96 369.211 249.66C368.316 256.444 367.869 263.216 369.414 270.005C369.979 272.505 370.037 275.116 370.357 277.972C370 277.546 369.856 277.38 369.723 277.21C364.164 270.087 359.101 262.591 354.568 254.776C353.139 252.24 351.844 249.63 350.689 246.958C350.466 246.476 350.378 245.942 350.433 245.413C350.582 244.054 350.641 242.679 350.774 241.315C350.856 239.672 351.331 238.073 352.159 236.652C354.33 233.422 356.332 230.082 358.16 226.645C360.2 222.611 363.035 219.078 365.801 215.503C369.75 210.398 373.469 205.101 377.524 200.097C381.297 195.466 385.177 190.958 388.432 185.912C391.145 181.707 393.91 177.61 395.259 172.702C395.978 170.085 397.625 167.73 397.987 165.028C398.61 160.429 398.882 155.788 399.404 151.173C400.614 140.441 401.664 129.688 403.364 119.019C403.721 116.771 403.364 114.804 401.669 113.158C400.635 112.156 400.07 112.092 398.914 112.934C397.627 113.887 396.554 115.1 395.765 116.494C392.935 121.567 391.422 127.103 390.111 132.714C388.779 138.422 388.619 144.411 385.907 149.767C384.51 152.532 384.34 155.745 382.816 158.49C381.549 160.827 380.428 163.24 379.459 165.716C378.229 168.801 376.661 171.741 374.785 174.482C372.414 177.913 371.029 181.942 368.572 185.299C364.41 191.022 360.243 196.74 356.385 202.681C352.756 208.271 348.36 213.296 345.898 219.686C343.655 225.505 342.349 231.334 342.866 237.548C342.878 237.595 342.879 237.644 342.87 237.691C342.861 237.739 342.841 237.784 342.813 237.823C342.784 237.862 342.748 237.894 342.705 237.918C342.663 237.941 342.616 237.955 342.568 237.958C339.815 234.401 337.369 230.616 335.256 226.645C334.26 224.823 334.265 222.984 334.628 220.895C335.18 217.393 336.586 214.081 338.72 211.25C339.685 209.987 340.617 208.692 341.635 207.472C344.209 204.376 346.394 200.982 349.037 197.944C353.369 192.972 357.653 187.969 360.723 182.064C361.758 179.96 362.911 177.916 364.176 175.942C367.576 170.949 369.547 165.252 372.302 159.923C374.146 156.358 374.94 152.34 376.118 148.498C377.077 145.386 376.864 142.072 377.844 138.97C378.691 136.306 378.409 133.418 379.075 130.705C379.567 128.504 379.831 126.258 379.864 124.002C380.008 120.107 380.498 116.126 381.755 112.524C383.455 107.658 384.446 102.623 386.018 97.7469C386.632 95.6531 386.776 93.4496 386.439 91.2938C386.194 89.3008 384.814 88.7306 383.168 89.8124C379.97 91.8959 377.711 94.8641 375.707 97.9601C373.096 101.951 371.865 106.614 370.352 111.064C369.211 114.415 368.556 117.991 367.506 121.417C364.975 129.709 362.385 137.974 358.181 145.621C357.618 146.623 357.109 147.655 356.657 148.711C355.223 152.218 353.198 155.378 351.072 158.49C347.385 163.904 344.145 169.611 340.031 174.737C338.923 176.123 337.9 177.562 336.908 179.038C334.398 182.8 332.517 186.919 330.082 190.729C328.574 193.208 327.566 195.957 327.114 198.823C326.812 200.755 326.365 202.661 325.777 204.525C323.94 202.143 322.676 199.369 322.084 196.42C321.428 192.972 321.988 189.903 324.055 187.319C326.038 184.835 328.249 182.549 329.917 179.805C331.43 177.295 333.738 175.377 335.336 172.952C337.724 169.329 340.463 165.966 342.978 162.444C343.905 161.149 344.683 159.747 345.829 158.618C349.362 155.138 351.6 150.806 353.582 146.361C356.588 139.647 357.222 132.368 358.202 125.19C358.634 122.036 358.671 118.796 359.316 115.7C360.382 110.477 360.669 105.17 361.41 99.9157C361.986 95.8126 362.018 91.6295 362.167 87.4783C362.247 85.1657 362.337 82.821 361.426 80.5882C360.755 78.947 359.827 78.7231 358.559 80.0234C357.666 81.0612 356.854 82.1657 356.129 83.3272C354.227 85.9916 353.492 89.1889 352.266 92.1304C350.125 97.327 348.518 102.728 347.47 108.25C346.543 113.11 346.521 118.114 345.088 122.899C344.076 126.283 343.383 129.784 342.12 133.071C340.857 136.359 339.706 139.695 338.23 142.919C336.983 145.653 335.566 148.317 334.446 151.093C332.848 155.042 330.466 158.554 328.654 162.412C326.842 166.27 324.62 169.963 322.441 173.661C320.261 177.359 317.767 181.009 316.696 185.581C316.554 185.311 316.43 185.031 316.323 184.745C315.488 181.173 314.436 177.654 313.174 174.21C312.78 173.144 312.279 171.892 312.721 170.847C313.861 168.151 314.575 165.209 316.675 162.987C317.636 161.946 318.408 160.745 318.956 159.438C319.497 158.128 320.27 156.926 321.236 155.889C322.274 154.742 323.207 153.505 324.023 152.191C325.217 150.39 326.251 148.461 327.753 146.905C329.396 145.235 330.87 143.407 332.155 141.448C332.811 140.457 333.551 139.514 334.287 138.571C337.558 134.308 340.01 129.682 340.788 124.274C341.503 119.903 341.907 115.486 341.997 111.058C341.915 108.799 342.061 106.537 342.434 104.307C343.239 100.459 342.994 96.5959 343.106 92.7325C343.132 91.832 343.457 90.5051 342.29 90.1694C341.289 89.8816 340.559 90.8888 339.988 91.6561C336.312 96.6226 334.031 102.234 332.448 108.175C330.801 114.473 328.306 120.518 325.03 126.144C321.647 131.894 317.57 137.201 314.08 142.887C311.661 146.746 309.76 150.906 308.426 155.261C307.826 157.35 307.421 159.491 307.216 161.655C306.842 161.368 306.585 160.956 306.492 160.493C305.314 157.536 304.925 154.349 303.966 151.344C302.682 147.321 304.291 144.006 306.929 141.555C308.479 140.116 310.057 138.677 311.575 137.217C313.177 135.692 314.535 133.929 315.599 131.99C317.25 128.915 318.822 125.792 320.538 122.755C322.11 119.973 323.474 117.117 324.764 114.229C326.448 110.451 327.215 106.406 328.276 102.442C329.56 97.6457 329.906 92.6313 331.35 87.8087C332.613 83.6043 334.606 79.8155 336.578 75.9895C337.868 73.4796 339.392 71.0603 339.637 68.1508C339.704 67.5308 339.608 66.9039 339.356 66.3333C339.104 65.7626 338.707 65.2684 338.203 64.9003C337.196 64.1436 336.072 64.5699 335.091 65.1561C333.722 65.9112 332.662 67.1242 332.096 68.5825C331.809 69.3298 331.443 70.0444 331.004 70.714C328.712 74.3455 326.635 78.1088 324.785 81.9844C320.558 90.4612 316.833 99.1801 313.632 108.095C313.262 109.232 312.956 110.388 312.716 111.559C311.572 116.518 310.003 121.369 308.026 126.059C306.715 129.107 304.461 131.627 302.841 134.521L302.634 134.75L302.596 134.468C302.739 132.082 303.076 129.711 303.603 127.38C303.721 126.799 303.849 126.213 303.976 125.632C304.227 124.465 304.509 123.298 304.717 122.126C304.834 121.545 304.941 120.959 305.042 120.368C306.007 114.682 308.149 109.316 310.073 103.886C313.019 95.5621 316.062 87.2705 318.551 78.7871C320.229 73.0427 321.855 67.3036 322.888 61.4099C323.805 56.1664 324.62 50.8962 324.284 45.5621C323.954 40.3452 323.906 35.1283 324.023 29.9061C324.076 28.7117 323.976 27.5154 323.725 26.3465C323.245 24.2949 321.785 23.032 319.904 23L318.631 23.9592C318.627 24.1134 318.6 24.2661 318.551 24.4121ZM320.751 24.6253C321.428 24.6679 321.679 25.3447 321.924 25.9308C322.526 27.3696 322.457 28.8723 322.457 30.3804C322.387 35.6505 322.856 40.9047 322.766 46.1802C322.643 53.5126 321.167 60.5999 319.478 67.6712C317.709 74.993 315.066 82.059 313.046 89.3008C311.922 93.3347 310.11 97.1767 308.618 101.104C306.385 107.008 305.351 113.248 303.529 119.254C301.872 124.711 301.328 130.237 301.195 135.88C301.142 138.139 300.912 140.383 301.509 142.594C301.61 142.978 301.344 143.66 301.978 143.686C302.612 143.713 302.793 143.031 302.889 142.567C303.213 141.335 303.734 140.163 304.435 139.098C306.033 136.402 308.122 134.164 310.078 131.771C313.275 127.833 317.005 124.204 318.604 119.094C320.107 114.298 321.918 109.582 322.947 104.626C323.411 102.41 324.434 100.331 324.711 98.056C324.796 97.5748 324.911 97.0995 325.057 96.6332C324.599 96.3774 324.439 96.5106 324.386 96.6332C322.755 100.736 321.023 104.781 319.989 109.119C318.886 113.717 316.952 118.071 315.06 122.409C314.474 123.751 313.344 124.764 312.396 125.867C311.01 127.466 309.929 129.32 308.431 130.839C308.375 130.923 308.291 130.986 308.195 131.018C308.098 131.05 307.994 131.048 307.898 131.015C308.314 130.402 308.756 129.848 309.092 129.24C310.279 127.214 311.208 125.048 311.858 122.792C312.971 118.529 314.234 114.346 315.545 110.195C317.668 103.35 320.264 96.6601 323.315 90.1747C325.713 85.1443 328.111 80.1193 330.62 75.1529C331.798 72.8295 333.354 70.714 334.404 68.316C334.585 67.9593 334.855 67.6548 335.187 67.4314C335.773 67.0051 336.445 66.2271 337.127 66.6641C337.809 67.1011 338.075 68.1348 337.921 69.0621C337.66 70.5059 337.117 71.884 336.322 73.1173C334.277 76.5512 332.415 80.0909 330.743 83.7216C330.368 84.4249 330.085 85.1735 329.901 85.949C329.107 90.1214 328.334 94.2939 327.53 98.461C325.931 106.753 323.608 114.788 319.334 122.158C318.071 124.338 317.229 126.736 315.924 128.91C314.289 131.596 312.294 134.045 309.993 136.189C307.75 138.249 305.707 140.517 303.891 142.962C302.074 145.482 302.021 148.413 302.825 151.355C303.198 152.501 303.389 153.698 303.39 154.904C302.404 153.721 301.562 152.735 301.312 151.312C300.832 148.648 300.246 146.02 299.713 143.372C299.656 142.962 299.507 142.569 299.278 142.224C299.05 141.878 298.747 141.588 298.392 141.374C295.131 139.327 291.997 137.052 288.715 135.075C286.59 133.766 284.772 132.014 283.386 129.938C278.887 123.411 274.963 116.505 271.657 109.3C269.169 103.875 266.861 98.3438 263.222 93.5212C262.524 92.594 262.156 91.3897 261.735 90.276C260.888 88.1444 260.76 85.8158 260.057 83.2206C262.046 84.964 263.907 86.8482 265.625 88.8585C270.629 94.5976 275.441 100.502 280.508 106.193C285.576 111.884 289.349 118.359 292.306 125.43C293.905 129.16 295.541 132.992 298.253 136.157C298.482 136.423 298.658 136.834 299.079 136.642C299.586 136.407 299.362 135.976 299.239 135.603C298.871 134.484 298.36 133.391 298.578 132.16C298.44 131.984 298.317 131.803 298.456 131.574C298.456 131.446 298.456 131.318 298.456 131.19C298.419 130.999 298.387 130.807 298.349 130.615C297.955 128.904 297.609 127.188 297.363 125.457C297.283 124.881 297.214 124.3 297.161 123.719C296.9 120.959 295.898 118.3 296.143 115.47C296.362 112.961 296.372 110.451 295.573 108.01C295.435 107.54 295.379 107.05 295.408 106.561C295.69 99.9424 295.259 93.2707 297.006 86.7643C298.487 81.232 300.552 75.8731 303.166 70.7779C305.231 66.7614 306.989 62.5949 308.426 58.3139C309.689 54.5837 310.728 50.7363 311.879 46.9476C313.099 42.935 313.92 38.7999 315.215 34.7979C316.238 31.6007 317.378 28.526 319.169 25.6964C319.542 25.1049 320.048 24.572 320.735 24.6253H320.751Z" fill="#FDB90B" fill-opacity="0.25"/>
<path d="M380.077 250.902C381.004 247.758 382.741 244.944 384.036 241.939C385.832 237.772 387.558 233.567 390.095 229.736C393.553 224.514 397.091 219.329 399.9 213.702C402.708 208.075 406.625 203.044 408.959 197.156C410.92 192.243 412.982 187.362 413.909 182.107C414.234 180.274 414.117 178.377 414.629 176.581C415.545 173.384 416.28 170.123 416.994 166.862C417.138 166.196 417.186 165.503 417.325 164.831C417.403 164.425 417.536 164.03 417.719 163.659L417.41 163.334C416.722 164.838 416.187 166.407 415.812 168.018C415.673 168.551 415.54 169.084 415.401 169.617C414.511 173.07 412.854 176.315 412.593 179.938C412.498 181.266 412.253 182.578 411.863 183.85C409.635 191.049 407.067 198.088 402.958 204.488C401.935 206.087 400.992 207.744 400.044 209.396C397.683 213.499 395.711 217.826 392.956 221.695C386.897 230.221 382.874 239.728 378.888 249.287C377.748 252.021 377.572 254.984 376.56 257.718C375.02 261.885 374.593 266.244 374.124 270.592C374.078 270.987 374.16 271.387 374.359 271.732C375.158 270.421 375.275 268.977 375.505 267.469C376.405 261.799 378.451 256.401 380.077 250.902Z" fill="#FDB90B" fill-opacity="0.25"/>
<path d="M331.958 209.88C332.017 209.715 332.054 209.539 332.129 209.379C333.258 206.981 335.092 204.956 335.987 202.452C337.395 198.538 339.482 194.903 342.152 191.714C345.349 187.862 347.657 183.391 350.534 179.325C357.462 169.579 363.654 159.491 367.666 148.162C368.162 146.766 368.967 145.498 369.318 144.011C370.864 137.617 372.265 131.147 373.608 124.684C374.15 122.338 374.472 119.948 374.573 117.543L373.965 117.356C373.826 118.23 373.784 119.115 373.667 119.989C373.602 120.516 373.491 121.037 373.336 121.545C371.514 127.273 370.208 133.14 368.711 138.954C367.3 144.29 365.348 149.468 362.886 154.408C359.066 162.193 354.829 169.765 349.522 176.687C346.857 180.135 345.259 184.254 342.451 187.595C338.108 192.796 335.219 198.786 332.747 205.015C332.087 206.56 331.584 208.166 331.244 209.811C331.35 209.732 331.483 209.695 331.615 209.707C331.747 209.72 331.869 209.782 331.958 209.88Z" fill="#FDB90B" fill-opacity="0.25"/>
<path d="M350.071 228.387C350.204 228.073 350.332 227.764 350.46 227.449C352.916 221.358 356.193 215.875 360.947 211.234C364.492 207.852 367.777 204.208 370.773 200.331C376.795 192.338 382.779 184.345 386.695 175.035C387.655 172.744 388.635 170.511 388.923 168.023C389.064 167.106 389.253 166.197 389.488 165.3C390.5 160.818 391.619 156.358 392.493 151.85C393.596 146.185 394.502 140.483 395.488 134.798L394.838 134.521C394.305 136.775 393.847 139.05 393.287 141.293C393.101 142.039 392.904 142.785 392.696 143.526C391.689 147.027 391.289 150.645 390.34 154.184C389.147 158.623 388.033 163.088 387.095 167.591C386.654 170.027 385.866 172.386 384.756 174.598C383.456 177.06 382.241 179.565 381.052 182.085C379.129 186.167 376.15 189.546 373.592 193.19C369.461 199.162 364.825 204.769 359.737 209.95C352.858 216.877 348.904 225.312 347.044 234.814L347.646 235.096C348.152 232.719 349.149 230.572 350.071 228.387Z" fill="#FDB90B" fill-opacity="0.25"/>
<path d="M326.405 215.487C325.872 214.82 325.089 215.098 324.455 214.879C322.691 214.277 321.428 212.955 319.968 211.927C316.995 209.827 313.675 208.33 310.568 206.465C301.562 201.035 291.63 198.472 281.366 196.948C278.343 196.566 275.296 196.4 272.249 196.452C268.604 196.452 264.906 196.868 261.272 196.074C260.364 195.871 259.446 195.718 258.522 195.615C252.037 195.034 245.788 192.899 240.303 189.391C237.601 187.633 235.128 185.624 233.274 182.933C232.846 182.26 232.326 181.65 231.729 181.121C229.72 179.491 228.494 177.327 227.428 175.041L226.832 175.574C227.263 176.464 227.673 177.364 228.185 178.206C228.39 178.543 228.612 178.868 228.851 179.181C228.975 179.341 229.103 179.496 229.235 179.645C231.686 182.384 233.935 185.267 236.77 187.718C240.122 190.709 243.961 193.106 248.12 194.805C253.241 196.825 258.692 197.315 264.032 198.333C264.605 198.401 265.183 198.41 265.758 198.36C269.249 198.28 272.766 198.291 276.224 198.525C284.276 199.058 292.21 200.497 299.788 203.47C307.174 206.369 314.09 210.216 321.103 213.867C322.467 214.575 323.906 215.14 325.324 215.748C325.503 215.849 325.715 215.879 325.916 215.83C326.117 215.782 326.292 215.659 326.405 215.487Z" fill="#FDB90B" fill-opacity="0.25"/>
<path d="M320.256 187.537C321.855 185.304 322.888 182.784 324.194 180.396C324.626 179.596 325.099 178.819 325.611 178.068C329.73 172.121 333.104 165.71 337.169 159.715C340.255 155.154 343.202 150.486 345.941 145.69C347.756 142.581 349.25 139.296 350.401 135.885C351.798 131.373 352.734 126.731 353.193 122.03C353.646 118.055 354.584 114.128 354.483 110.094L353.95 109.779C353.651 112.278 353.156 114.746 352.666 117.24C352.5 118.066 352.341 118.886 352.186 119.712C350.96 126.309 349.783 132.874 346.857 139.029C344.37 144.044 341.552 148.888 338.422 153.529C336.381 156.673 334.75 160.083 332.358 163.003C332.059 163.444 331.824 163.925 331.659 164.431C331.067 165.815 330.354 167.143 329.528 168.401C325.703 174.43 322.357 180.75 319.521 187.303C319.68 187.67 319.963 187.633 320.256 187.537Z" fill="#FDB90B" fill-opacity="0.25"/>
<path d="M331.916 232.203C330.967 232.704 330.434 231.857 329.747 231.51C329.289 231.542 328.884 231.478 328.681 230.977C328.596 231.18 328.484 231.185 328.362 231.137C328.239 231.089 328.207 231.063 328.132 231.036L328.042 230.993L327.962 230.951C327.962 230.951 327.962 230.897 327.93 230.871C327.786 231.02 327.663 230.972 327.562 230.812C327.376 230.972 327.163 230.897 326.96 230.85C321.557 229.656 316.089 228.825 310.638 227.935C306.713 227.218 302.707 227.063 298.739 227.476C293.024 228.108 287.266 228.252 281.527 227.908C267.898 227.255 254.722 222.813 243.479 215.082C242.163 214.192 240.602 213.765 239.413 212.694L238.651 212.721C241.385 214.559 244.225 216.27 246.842 218.274C251.707 222.004 257.339 224.087 262.967 226.182C269.894 228.761 277.168 229.64 284.49 229.842C288.811 229.965 293.165 230.082 297.455 229.118C301.238 228.32 305.142 228.273 308.943 228.979C311.78 229.466 314.643 229.783 317.517 229.928C319.857 230.045 322.313 229.928 324.472 230.834C326.449 231.665 328.575 231.899 330.52 232.763C331.404 233.162 332.454 233.184 333.429 233.381L333.493 233.194L332.427 232.501C332.172 232.523 331.948 232.507 331.916 232.203Z" fill="#FDB90B" fill-opacity="0.25"/>
<path d="M315.353 194.193C314.101 193.367 312.876 192.498 311.671 191.603C307.733 188.699 303.897 185.624 299.9 182.837C292.477 177.668 284.42 173.522 276.72 168.796C270.323 164.948 264.57 160.122 259.668 154.493C256.87 151.237 254.339 147.758 251.717 144.369C251.184 143.676 250.491 143.084 250.268 142.509C250.345 142.869 250.442 143.225 250.561 143.575C250.685 143.859 250.842 144.127 251.03 144.374C254.112 149.122 257.578 153.61 261.394 157.792C264.058 160.643 266.67 163.579 269.846 165.785C275.867 169.968 281.878 174.194 288.262 177.833C291.411 179.634 294.518 181.505 297.561 183.487C301.978 186.37 306.007 189.78 310.387 192.706C312.385 194.044 314.469 195.264 316.744 196.681C316.478 195.456 316.153 194.72 315.353 194.193Z" fill="#FDB90B" fill-opacity="0.25"/>
<path d="M297.422 157.03C294.59 153.811 291.53 150.799 288.267 148.019C284.942 145.253 281.958 142.082 278.724 139.205C274.69 135.624 270.144 132.688 265.934 129.309C263.643 127.471 261.101 125.941 259.007 123.842L258.474 124.023C258.62 124.119 258.757 124.228 258.884 124.348C261.767 127.455 265.055 130.103 268.247 132.874C271.695 135.853 275.372 138.56 278.633 141.752C282.139 145.189 285.48 148.786 289.434 151.749C292.333 153.917 295.296 156.012 298.051 158.383C299.149 159.251 300.291 160.062 301.472 160.813C300.385 159.23 298.637 158.383 297.422 157.03Z" fill="#FDB90B" fill-opacity="0.25"/>
<path d="M312.817 158.789C313.004 158.352 313.206 157.926 313.43 157.499C315.162 154.238 316.681 150.876 318.94 147.908C319.888 146.661 320.235 144.993 321.381 143.847C323.283 141.819 324.951 139.583 326.352 137.181C327.823 134.836 329.923 132.827 330.775 130.173C331.708 127.285 333.344 124.695 333.903 121.647C334.463 118.599 335.981 115.738 336.152 112.556C336.013 112.386 335.869 112.215 335.731 112.023C335.447 113.617 335.043 115.186 334.521 116.718C334.441 116.931 334.351 117.15 334.25 117.368C332.651 120.853 331.585 124.551 329.923 128.026C329.214 129.497 328.494 130.935 327.647 132.337C324.45 137.628 320.283 142.227 317.213 147.63C314.453 152.49 311.885 157.345 310.819 162.881L311.592 162.801C311.867 161.427 312.278 160.083 312.817 158.789Z" fill="#FDB90B" fill-opacity="0.25"/>
<path d="M298.669 130.615C298.669 130.812 298.669 131.009 298.669 131.206C298.669 131.329 298.669 131.457 298.669 131.579C298.681 131.628 298.695 131.676 298.712 131.723C298.745 131.792 298.758 131.868 298.748 131.944C298.739 132.02 298.707 132.091 298.658 132.149L298.941 132.554C299.415 132.021 299.324 131.329 299.351 130.7C299.431 129.016 299.394 127.332 299.479 125.653C299.697 121.39 299.586 117.127 300.305 112.95C301.11 108.303 302.031 103.624 303.609 99.1481C304.754 95.9188 305.128 92.4391 306.705 89.3591C308.938 85.0055 310.105 80.2575 311.618 75.6694C313.046 71.3211 314.197 66.845 315.279 62.3475C315.908 59.7417 315.663 57.0773 315.95 54.4502C315.417 54.8179 315.524 55.3294 315.417 55.7877C314.885 58.5214 315.14 61.3723 314.202 64.0473C312.785 68.0972 311.767 72.275 310.153 76.2716C308.538 80.2682 307.456 84.334 305.58 88.1654C302.494 94.4461 300.437 101.183 299.49 108.116C299.282 109.624 298.424 110.893 298.275 112.443C297.987 115.976 298.557 119.509 298.141 123.053C298.031 124.309 298.071 125.574 298.259 126.82C298.419 128.073 298.626 129.325 298.674 130.588L298.669 130.615Z" fill="#FDB90B" fill-opacity="0.25"/>
<path d="M267.267 94.9385C267.874 96.1108 268.332 97.038 268.833 97.9439C272.825 105.122 276.475 112.507 281.089 119.307C284.058 123.65 287.047 128.004 290.905 131.638C292.109 132.773 293.09 134.222 294.998 134.979C292.749 132.267 290.639 129.821 288.64 127.295C283.994 121.433 280.168 114.991 276.352 108.575C273.842 104.36 271.514 100.049 268.625 96.0575C268.496 95.7823 268.306 95.5392 268.071 95.3457C267.836 95.1523 267.562 95.0132 267.267 94.9385Z" fill="#FDB90B" fill-opacity="0.25"/>
</g>
</svg>
