<svg width="384" height="293" viewBox="0 0 384 293" fill="none" xmlns="http://www.w3.org/2000/svg">
<rect x="2" width="382" height="293" rx="9" fill="white"/>
<mask id="mask0_134_1745" style="mask-type:alpha" maskUnits="userSpaceOnUse" x="0" y="0" width="384" height="293">
<rect width="384" height="293" fill="#D9D9D9"/>
</mask>
<g mask="url(#mask0_134_1745)">
<g opacity="0.25">
<mask id="path-3-inside-1_134_1745" fill="white">
<path d="M-18.71 203.783C-18.0703 203.315 -17.5296 202.724 -17.1195 202.045C-14.4415 197.707 -10.6703 194.401 -7.02484 190.984C-5.66394 189.707 -4.10082 188.643 -2.69073 187.415C-0.225812 185.271 2.31016 183.247 5.42547 182.101C6.7076 181.578 7.95773 180.979 9.1693 180.308C12.8688 178.398 16.898 177.214 21.0403 176.821C22.587 176.683 24.1501 176.629 25.7023 176.579C29.151 176.47 32.556 176.607 35.3925 179.036C36.3654 179.869 37.4312 180.599 38.4532 181.372C37.9962 181.565 37.4956 181.629 37.0049 181.558C29.4735 180.462 22.4066 182.655 15.3179 184.667C14.7926 184.842 14.2826 185.061 13.7931 185.32C12.3611 186.016 10.8855 186.614 9.42071 187.223C7.42036 188.051 5.38721 188.884 3.70931 190.376C0.0201328 193.622 -3.84941 196.66 -7.0467 200.449C-8.28736 201.918 -9.85047 203.114 -10.8725 204.775C-11.9656 206.574 -13.0587 208.4 -14.1135 210.259C-14.2469 210.417 -14.3371 210.607 -14.3754 210.811C-14.4137 211.015 -14.3988 211.225 -14.3321 211.421C-14.0643 211.021 -13.873 210.741 -13.6927 210.456C-11.4628 206.98 -9.08531 203.613 -6.11757 200.723C-2.87388 197.608 0.551727 194.689 4.14109 191.982C5.19785 191.141 6.35438 190.433 7.58432 189.877C9.65026 188.983 11.7271 188.122 13.7494 187.135C15.7155 186.11 17.8315 185.405 20.0182 185.046C22.3574 184.728 24.4452 183.587 26.8009 183.253C31.1603 182.558 35.5902 182.423 39.9835 182.852C40.6613 182.924 41.3071 183.178 41.8527 183.587C45.6785 186.428 49.6683 188.966 53.6198 191.588C57.1396 193.929 60.5282 196.446 63.8402 199.078C64.0425 199.237 64.3868 199.369 64.3048 199.687C64.2228 200.005 63.8457 199.917 63.5888 199.994C61.5393 200.624 59.3148 200.679 57.3473 201.381C53.5215 202.741 49.5317 203.514 45.8698 205.263C44.8909 205.705 43.8872 206.09 42.8638 206.415C36.3261 208.575 30.7291 212.928 27.014 218.742C22.6416 225.322 18.2693 231.902 14.0281 238.592C10.8964 243.527 8.93975 248.851 8.91243 254.817C8.91243 257.131 8.91242 259.385 9.79783 261.557C10.1312 262.379 10.3116 263.262 10.6723 264.074C11.1041 265.044 10.9456 266.152 11.4101 267.254C11.6635 266.193 11.6896 265.09 11.4867 264.019C10.9073 260.762 10.2077 257.581 10.5083 254.148C10.9058 248.834 12.5804 243.696 15.389 239.173C19.2804 232.991 23.3649 226.927 27.6425 220.979C30.5829 216.872 34.0043 213.302 38.3712 210.703C40.9837 209.146 43.9132 208.334 46.6022 206.991C50.1821 205.203 54.1609 204.523 57.7353 202.741C58.0831 202.595 58.4524 202.508 58.8284 202.483C60.9954 202.241 63.0869 201.542 64.9661 200.432C65.1683 200.312 65.3487 200.257 65.5127 200.432L70.7103 204.638L67.5622 205.79C63.0898 207.458 58.8617 209.723 54.9917 212.523C53.9423 213.28 53.0186 214.207 51.8436 214.805C51.5548 214.992 51.2967 215.223 51.0784 215.49C50.6258 216.049 50.1246 216.566 49.5809 217.036C47.7445 218.336 46.7279 220.436 44.8915 221.725C44.7603 221.823 44.651 222.01 44.8314 222.169C44.8998 222.223 44.9868 222.249 45.0737 222.239C45.1606 222.23 45.2404 222.187 45.2959 222.12C45.7666 221.765 46.2172 221.384 46.6459 220.979C48.8829 218.55 51.3688 216.365 54.0625 214.459C57.3418 212.216 60.9162 210.621 64.3212 208.641C65.6278 207.928 67.0226 207.392 68.4695 207.045C69.3433 206.831 70.1931 206.528 71.0054 206.141C71.2166 205.997 71.4742 205.938 71.7267 205.977C71.9791 206.015 72.2077 206.148 72.3663 206.349C73.3392 207.331 74.3646 208.259 75.4379 209.129C77.5509 210.701 79.5592 212.41 81.4499 214.245C79.4113 214.947 78.116 216.307 77.0393 217.963C75.7858 219.832 74.6327 221.767 73.5851 223.759C73.4868 223.956 73.2955 224.231 73.5851 224.384C73.8038 224.494 73.9404 224.247 74.0661 224.088C74.1918 223.929 74.323 223.759 74.4323 223.578C75.7952 221.473 77.2922 219.458 78.9139 217.546C79.7748 216.593 80.8223 215.827 81.991 215.298C82.3954 215.073 82.6305 215.265 82.8928 215.501C84.2756 216.757 85.6529 218.029 87.0465 219.274C87.5275 219.696 87.522 219.943 87.0028 220.37C82.3681 224.275 78.4822 228.908 74.8039 233.673C70.5081 239.255 66.8736 245.298 63.4413 251.456C61.3862 255.141 59.4187 258.864 58.2655 262.944C57.7954 264.616 56.8608 266.119 56.6258 267.879C56.2433 270.522 55.3141 273.034 54.8277 275.66C54.1281 279.416 53.3302 283.145 53.5706 286.983C53.6964 288.936 53.7947 290.921 54.7457 292.845C54.5435 288.656 54.1117 284.62 54.8605 280.54C55.2704 278.292 55.8443 276.082 56.3034 273.851C56.9134 271.086 57.7469 268.375 58.7956 265.746C59.1509 264.808 59.528 263.876 59.8504 262.922C60.6935 260.391 61.7923 257.953 63.1297 255.645C65.07 252.355 66.879 248.95 68.9176 245.687C70.9563 242.425 73.0058 239.332 75.0881 236.19C77.2415 232.955 79.9196 230.12 82.3025 227.049C83.9825 224.977 85.8526 223.068 87.8882 221.346C87.9824 221.228 88.1021 221.132 88.2384 221.066C88.3746 221 88.524 220.965 88.6752 220.965C88.8265 220.965 88.9759 221 89.1121 221.066C89.2484 221.132 89.3681 221.228 89.4623 221.346C91.5228 223.096 93.5614 224.861 95.5563 226.687C98.4092 229.303 101.328 231.847 104.104 234.556C104.651 235.071 104.651 235.395 104.224 235.916C102.862 237.715 101.777 239.71 101.005 241.833C100.754 242.474 100.459 243.116 100.24 243.763C100.197 243.84 100.186 243.931 100.209 244.017C100.231 244.103 100.285 244.177 100.36 244.223C100.606 244.349 100.748 244.18 100.852 243.993C100.956 243.807 101.022 243.615 101.104 243.445C102.065 241.084 103.272 238.833 104.705 236.727C105.252 235.993 105.503 235.74 106.269 236.481C107.542 237.709 108.799 238.943 110.029 240.215C110.619 240.818 110.466 241.081 109.991 241.602C106.76 245.036 103.719 248.644 100.88 252.41C99.1396 254.835 97.7828 257.515 96.857 260.356C96.2558 262.16 96.0536 264.095 95.4306 265.883C94.1298 269.595 94.403 273.489 93.9221 277.289C93.9139 277.358 93.9139 277.428 93.9221 277.497C94.3265 280.414 94.7146 283.337 95.1518 286.271C95.2945 287.303 95.5777 288.31 95.9935 289.265C96.0755 289.451 96.1903 289.78 96.4745 289.692C96.7587 289.605 96.6056 289.314 96.5455 289.095C95.1682 284.061 94.2719 279.016 95.283 273.741C95.8295 270.999 96.2121 268.296 97.0046 265.62C98.3054 261.233 99.5515 256.89 102.47 253.161C105.285 249.559 107.985 245.868 110.87 242.315C111.324 241.767 111.575 241.767 112.024 242.277C112.905 243.256 113.816 244.209 114.756 245.134C115.166 245.534 115.155 245.797 114.724 246.121C114.073 246.638 113.474 247.219 112.936 247.853C109.203 252.026 107.012 257.011 105.339 262.253C106.076 261.502 106.666 260.618 107.077 259.648C108.854 255.262 111.023 251.089 114.275 247.585C115.614 246.132 115.614 246.132 116.964 247.585C117.085 247.711 117.227 247.81 117.347 247.93C118.812 249.444 120.435 250.787 121.818 252.399C125.195 256.342 128.469 260.378 131.656 264.463C131.956 264.852 132.41 265.181 132.142 265.823C131.661 266.963 131.459 268.203 131.022 269.343C129.497 273.308 129.311 277.437 129.289 281.604C129.344 283.784 129.712 285.945 130.382 288.02C130.579 288.711 130.748 289.517 131.546 290.027C130.453 286.09 130.956 282.098 130.808 278.133C130.655 274.037 131.672 270.221 132.749 266.294C135.569 269.584 137.318 273.45 139.433 277.047C140.941 279.608 141.881 282.531 142.953 285.322C144.273 288.924 145.215 292.655 145.762 296.453C146.035 298.208 146.533 299.935 146.729 301.696C147.049 304.239 147.572 306.754 148.292 309.213C148.325 309.329 148.391 309.488 148.604 309.427C148.756 309.051 148.77 308.633 148.642 308.248C148.451 307.3 148.249 306.351 148.096 305.397C147.314 300.593 146.702 295.757 145.74 290.986C144.477 285.052 142.262 279.363 139.181 274.141C136.327 268.957 133.036 264.028 129.344 259.407C128.48 258.36 127.704 257.214 126.791 255.996C127.181 256.068 127.564 256.169 127.939 256.298C131.508 257.943 135.246 259.138 138.755 260.926C142.127 262.642 145.39 264.452 148.298 266.908C151.508 269.576 153.767 273.216 154.736 277.283C155.3 279.682 155.665 282.123 155.829 284.582C155.829 284.845 155.764 285.245 156.146 285.229C156.529 285.212 156.398 284.807 156.409 284.554C156.426 283 156.316 281.446 156.081 279.91C154.988 271.641 150.495 265.878 143.319 261.984C140.706 260.57 138.034 259.303 135.334 258.058C133.018 256.916 130.638 255.909 128.207 255.042C125.349 254.091 122.924 252.146 121.37 249.559C124.102 249.795 126.797 250.058 129.267 251.407C130.948 252.228 132.708 252.877 134.519 253.342C134.842 253.447 135.296 253.83 135.503 253.304C135.711 252.778 135.121 252.651 134.771 252.531C133.211 251.968 131.682 251.322 130.191 250.595C128.221 249.555 126.055 248.944 123.835 248.802C122.528 248.657 121.237 248.397 119.976 248.023C119.508 247.918 119.077 247.691 118.724 247.365C117.254 246.071 116.407 244.201 114.898 242.979C111.745 240.473 109.581 237.013 106.383 234.507C103.787 232.472 101.634 229.868 99.1471 227.652C98.3382 226.934 97.6113 226.117 96.6931 225.185C103.858 225.733 110.778 226.221 117.659 227.23C124.54 228.239 131.114 230.608 137.952 231.864C137.59 231.561 137.175 231.33 136.728 231.184C135.126 230.635 133.514 230.153 131.907 229.632C126.644 227.921 121.348 226.342 115.822 225.706C111.739 225.229 107.662 224.669 103.558 224.395C101.317 224.242 99.0651 224.176 96.8352 223.885C96.6317 223.841 96.4211 223.841 96.2176 223.885C95.9528 223.966 95.6695 223.964 95.4064 223.877C95.1432 223.791 94.9131 223.625 94.7474 223.403C92.9984 221.626 91.2112 219.888 89.3366 218.243C89.1999 218.117 88.9704 218.012 89.1343 217.645C90.8833 217.766 92.665 217.859 94.4468 218.018C96.9499 218.243 99.2673 219.213 101.656 219.882C101.995 219.975 102.486 220.272 102.661 219.8C102.836 219.328 102.306 219.252 101.962 219.12C100.776 218.753 99.5898 218.369 98.3874 218.062C95.5016 217.316 92.5721 216.62 89.5989 216.663C88.939 216.681 88.2825 216.562 87.6703 216.314C87.0582 216.066 86.5036 215.694 86.0409 215.221C84.2793 213.662 82.4406 212.192 80.5317 210.818C78.9905 209.688 77.5203 208.46 75.8861 207.172C76.3397 207.024 76.5857 206.919 76.848 206.854L83.9531 205.071C85.2593 204.742 86.5437 204.221 87.8664 204.112C91.6485 203.805 95.3595 202.862 99.1635 202.818C100.934 202.818 102.656 202.269 104.41 202.269C108.072 202.33 111.734 202.11 115.39 202.055C120.479 201.973 125.54 202.193 130.606 202.554C133.935 202.796 137.066 203.838 140.154 205.11C142.459 206.016 144.579 207.335 146.412 209.003C147.041 209.59 147.658 210.187 148.292 210.763C148.484 210.939 148.708 211.312 148.959 211.081C149.211 210.851 148.839 210.566 148.691 210.336C148.58 210.201 148.462 210.073 148.336 209.952C145.92 207.166 142.838 205.274 139.706 203.432C137.497 202.067 134.996 201.249 132.41 201.047C128.857 200.811 125.305 200.498 121.752 200.399C118.2 200.301 114.647 199.988 111.084 200.12C107.394 200.251 103.711 200.526 100.032 200.97C95.7421 201.518 91.5064 202.395 87.1886 202.692C86.573 202.786 85.9661 202.931 85.3741 203.125C82.2588 203.909 79.1982 204.923 76.0828 205.625C75.5735 205.772 75.0351 205.784 74.5199 205.66C74.0046 205.536 73.5301 205.28 73.1424 204.918C69.6719 201.896 66.0865 199.018 62.3482 196.336C61.7251 195.892 61.8016 195.563 62.3482 195.13C63.5287 194.115 64.7147 193.101 65.8624 192.048C70.0654 188.182 74.8313 185.117 79.8048 182.386C82.9037 180.686 86.3196 179.683 89.5224 178.208C90.377 177.733 91.2983 177.391 92.2551 177.193C95.3658 176.73 98.5251 176.697 101.645 177.095C101.885 177.128 102.142 177.418 102.541 177.095C101.287 176.612 99.9641 176.333 98.6224 176.267C97.2178 176.267 95.8131 176.354 94.3976 176.267C93.2846 176.164 92.1629 176.317 91.1183 176.716C88.5714 177.78 85.9972 178.762 83.4284 179.776C80.5099 180.933 77.5859 182.107 75.0936 184.114C73.7983 185.161 72.1751 185.643 70.7978 186.565C67.4207 188.931 64.217 191.537 61.2113 194.362C60.6648 194.85 60.3915 194.79 59.8559 194.433C55.2431 191.319 50.5974 188.248 46.0994 184.969C44.3122 183.669 42.6343 182.227 40.6339 181.257C40.0874 181.004 39.9671 180.67 40.4208 180.16C43.8913 176.069 47.3018 171.935 50.8051 167.877C51.9178 166.621 53.409 165.764 55.0518 165.437C56.8718 165.037 58.6699 164.56 60.479 164.11C60.6429 164.066 60.8124 164 60.8069 163.737C60.7358 163.704 60.6539 163.622 60.5719 163.627C58.0373 163.783 55.5397 164.316 53.1607 165.207C51.4665 165.832 49.983 166.925 48.8813 168.36C48.257 169.057 47.5791 169.704 46.8536 170.295C43.9677 172.942 41.4213 175.939 39.273 179.217C38.9178 179.765 38.6828 179.765 38.2455 179.431C37.3 178.745 36.3435 178.076 35.3324 177.363C35.7205 176.991 36.0484 176.689 36.3654 176.376C40.0273 172.73 43.9788 169.418 47.9248 166.095C48.4184 165.669 48.9706 165.316 49.5645 165.048C50.8382 164.5 52.0464 163.81 53.1662 162.991C53.7279 162.587 54.3636 162.297 55.0369 162.139C55.7103 161.981 56.408 161.957 57.0904 162.07C58.9814 162.322 60.878 162.476 62.769 162.723C67.8082 163.375 72.9129 163.583 77.7881 165.245C80.5208 166.177 83.2972 166.994 86.0518 167.861C85.497 167.973 84.9227 167.939 84.3849 167.762C82.5321 167.351 80.6684 166.967 78.7882 166.665C74.2519 165.952 69.6719 166.117 65.1246 165.832C61.6158 165.596 58.4841 166.38 55.8333 168.853C55.0135 169.615 54.3905 170.498 53.6472 171.337C51.4337 173.733 49.9088 176.634 47.974 179.244C47.0558 180.489 47.2854 181.18 48.6517 181.942C51.0347 183.275 53.281 184.815 55.5218 186.367C56.037 186.752 56.6289 187.021 57.2571 187.155C57.8853 187.29 58.535 187.286 59.1618 187.146C62.0781 186.557 64.9506 185.767 67.759 184.783C72.3137 183.131 76.7796 181.242 81.1384 179.124C86.5178 176.459 92.3889 174.941 98.3819 174.666C101.676 174.408 104.983 174.96 108.017 176.272C110.81 177.546 113.535 178.963 116.183 180.516C118.566 181.904 121.227 182.814 123.343 184.645C124.416 185.513 125.54 186.315 126.709 187.047C127.399 187.502 128.063 187.994 128.699 188.522V188.522H128.732L128.863 188.55C128.917 188.55 128.956 188.605 128.945 188.703L128.568 188.626C128.207 188.511 127.841 188.413 127.475 188.281C123.807 186.932 120.435 184.92 116.757 183.538C112.677 181.931 108.494 180.603 104.235 179.562C103.529 179.389 102.803 179.313 102.077 179.337C99.1088 179.469 96.1957 180.165 93.217 180.253C90.8669 180.319 88.8447 181.312 86.8716 182.562C84.5601 184.012 82.3354 185.598 80.2093 187.31C77.4765 189.548 74.7001 191.747 73.5961 195.349C73.4933 195.56 73.465 195.8 73.5156 196.029C73.5662 196.258 73.6929 196.463 73.8748 196.61C75.0585 197.723 76.1548 198.926 77.1541 200.208C77.3697 200.479 77.643 200.7 77.954 200.852C78.265 201.005 78.606 201.086 78.9522 201.09C80.264 201.201 81.5845 201.144 82.8819 200.92C86.4563 200.268 90.0799 199.939 93.6761 199.571C98.5349 199.078 103.323 198.179 108.165 197.652C114.254 196.989 120.331 196.402 126.463 196.556C129.273 196.632 132.06 196.89 134.858 197.005C136.827 197.035 138.758 197.549 140.482 198.502C143.445 200.197 145.948 202.489 148.735 204.419C150.807 205.856 152.271 207.479 152.61 210.187C153.157 214.64 155.469 218.648 156.239 223.074C156.289 223.202 156.357 223.322 156.441 223.43C157.534 225.497 157.633 227.817 158.207 230.186C157.787 229.875 157.457 229.459 157.25 228.979C156.578 227.684 155.752 226.474 154.791 225.377C151.936 222.331 149.264 219.118 146.789 215.753C144.86 213.236 142.417 211.843 139.351 211.076C130.568 208.882 121.599 207.786 112.685 206.355C109.203 205.806 105.662 205.631 102.175 205.077C101.148 204.887 100.09 204.949 99.0924 205.258C97.0538 205.883 95.0261 206.398 92.982 206.925C91.8861 207.147 90.901 207.744 90.1946 208.614C89.4186 209.628 89.3475 210.034 90.2384 210.966C92.6917 213.641 95.7926 215.634 99.24 216.751C102.372 217.722 105.613 218.347 108.815 219.076C115.238 220.462 121.567 222.255 127.764 224.445C131.852 225.941 135.656 228.102 139.499 230.164C146.822 234.106 153.998 238.246 160.109 244.015C161.748 245.556 162.492 247.464 162.978 249.498C163.154 250.349 163.233 251.218 163.213 252.087C161.978 251.028 161.262 249.652 160.442 248.347C158.999 246.055 157.584 243.719 155.294 242.162C152.644 240.387 149.788 238.943 146.789 237.863C142.341 236.218 137.689 235.198 133.082 234.134C126.802 232.675 120.304 232.642 113.953 231.754C113.78 231.735 113.606 231.735 113.434 231.754C113.155 231.747 112.88 231.815 112.636 231.951C112.392 232.087 112.189 232.285 112.047 232.526C111.905 232.767 111.829 233.041 111.828 233.321C111.827 233.6 111.9 233.875 112.04 234.117C112.769 235.762 113.538 237.382 114.346 238.976C115.363 240.922 116.735 242.414 118.883 243.121C119.976 243.472 120.982 244.02 122.053 244.415C130.196 247.409 138.449 250.135 145.953 254.658C150.047 257.12 154.337 259.281 158.005 262.368C160.469 264.446 162.65 266.843 163.208 270.253C163.258 270.489 163.322 270.722 163.399 270.95C164.263 273.76 164.194 276.775 163.202 279.542C161.975 283.052 160.268 286.374 158.13 289.413C157.248 290.529 156.531 291.769 156.004 293.092C153.763 299.393 151.632 305.704 150.342 312.317C150.041 313.885 149.637 315.437 149.276 317C148.03 314.302 146.172 312.136 144.576 309.789C139.657 302.551 141.75 304.602 134.476 299.623L133.787 299.151C129.163 296.092 124.195 293.915 118.664 293.18C118.282 293.125 118.118 293.01 118.118 292.631C118.358 289.966 117.965 287.291 118.238 284.62C118.706 280.235 119.473 275.888 120.533 271.608C121.337 268.318 122.435 265.061 124.643 262.363C124.981 262.034 125.18 261.587 125.198 261.116C125.216 260.644 125.053 260.183 124.742 259.829C124.556 259.497 124.421 259.138 124.343 258.766C123.957 257.398 123.482 256.057 122.922 254.752C121.506 251.933 119.796 251.632 118.003 254.203C116.401 256.473 114.806 258.738 113.314 261.074C111.521 263.876 109.608 266.64 108.171 269.623C105.802 274.491 104.045 279.635 102.94 284.938C102.53 286.907 101.705 288.842 101.738 290.838C101.792 294.244 101.858 297.682 102.831 301.12C101.945 300.933 101.082 300.747 100.213 300.572C97.7445 300.182 95.3614 299.37 93.1679 298.17C92.4714 297.809 91.8644 297.296 91.3915 296.669C90.9186 296.041 90.5918 295.316 90.4351 294.545C89.3748 288.875 88.6648 283.145 88.3091 277.387C87.854 269.336 88.7632 261.265 90.9981 253.518C92.8618 247.025 95.1627 240.725 99.5078 235.422C99.8704 234.997 100.119 234.485 100.229 233.936C100.355 233.196 99.8958 232.779 99.2454 232.938C97.0593 233.454 94.9769 234.287 92.8454 234.962C91.2148 235.443 89.7317 236.33 88.5332 237.539C86.4407 239.76 84.6289 242.232 83.1387 244.898C80.8542 248.824 78.8429 252.904 76.9573 257.033C75.6347 259.934 73.678 262.516 72.6396 265.549C70.1802 272.54 67.7207 279.537 65.5072 286.605C65.4307 286.846 65.5509 287.252 65.1519 287.252C64.507 287.252 64.4797 287.74 64.3485 288.151C63.0255 292.248 62.3559 296.529 62.3646 300.835C62.3344 302.05 62.6925 303.243 63.3866 304.24C64.0845 305.298 64.7196 306.397 65.2886 307.53C64.5076 307.383 63.7537 307.117 63.0532 306.74C62.0067 306.208 60.9077 305.787 59.7739 305.485C56.1303 304.659 52.4867 303.851 48.843 303.061C48.4492 303.015 48.0837 302.833 47.8094 302.545C47.5351 302.258 47.3691 301.884 47.34 301.487C46.7607 298.033 46.1595 294.584 45.5146 291.14C44.7221 286.923 43.7383 282.739 43.7492 278.413C43.8324 271.737 44.5018 265.082 45.7496 258.524C46.7509 253.127 48.3305 247.854 50.4608 242.798C52.882 236.963 56.6258 231.979 60.8452 227.334C62.3099 225.728 63.6599 223.973 65.622 222.915C66.6676 222.385 67.638 221.717 68.5077 220.93C69.896 219.619 71.3826 218.429 72.8801 217.223C73.8038 216.472 73.6944 215.665 72.585 215.188C71.942 214.919 71.2484 214.792 70.552 214.818C69.8556 214.844 69.173 215.02 68.5515 215.336C62.7963 218.078 56.992 220.666 51.6085 224.11C44.6018 228.628 37.9067 233.52 31.9329 239.327C28.6548 242.514 25.5807 245.906 22.7291 249.482C22.2755 250.03 21.5212 250.529 21.3737 251.16C20.7069 254.017 19.8871 256.846 19.8269 259.84C19.734 264.227 19.9308 268.652 19.6466 273.061C19.4562 276.315 19.4435 279.577 19.6083 282.832C19.7614 286.177 20.2095 289.511 20.5265 292.845C20.5265 292.933 20.5265 293.021 20.5265 293.109L20.3134 293.004C19.5004 292.392 18.7693 291.677 18.1381 290.877C15.3562 287.74 12.9787 284.242 9.90167 281.374C6.6224 278.309 4.80241 274.382 3.46883 270.242C2.28435 266.69 1.42276 263.038 0.894607 259.33C0.293407 254.785 -0.296863 250.244 -0.0946413 245.649C-0.0521902 243.907 0.393112 242.199 1.20614 240.659C2.70914 237.917 4.17934 235.176 5.67141 232.434C7.99423 228.173 10.2569 223.88 12.5087 219.586C15.1103 214.651 18.5207 210.193 21.6743 205.592C22.2451 204.76 22.9915 204.063 23.8604 203.552C25.5259 202.493 27.1366 201.349 28.6864 200.125C30.5338 198.738 32.3865 197.449 34.8351 197.477C35.3816 197.477 36.0101 197.307 36.0757 196.616C36.1413 195.925 35.6276 195.58 35.0154 195.415C34.048 195.152 33.0533 194.965 32.1078 194.636C26.0958 192.553 20.3298 193.803 14.7659 196.254C11.0002 197.899 7.71549 200.504 3.99898 202.286C3.44681 202.577 2.92814 202.928 2.45226 203.333C1.25385 204.283 -0.0947667 205.024 -1.53752 205.527C-2.73992 205.965 -3.94779 206.47 -4.77307 207.512C-6.68051 209.919 -8.42946 212.463 -9.29846 215.419C-11.2332 221.999 -13.2664 228.513 -13.8129 235.384C-13.7841 235.816 -13.9015 236.245 -14.1463 236.601C-14.2228 236.102 -14.2775 235.735 -14.3376 235.362C-14.589 233.684 -14.7093 231.968 -15.3597 230.378C-16.8572 226.72 -17.0813 222.569 -19.2237 219.104C-19.2619 219.044 -19.2862 218.977 -19.2948 218.906C-19.7156 215.676 -20.9672 212.595 -21 209.299C-21 207.15 -20.6283 205.159 -18.71 203.783Z"/>
</mask>
<path d="M-18.71 203.783C-18.0703 203.315 -17.5296 202.724 -17.1195 202.045C-14.4415 197.707 -10.6703 194.401 -7.02484 190.984C-5.66394 189.707 -4.10082 188.643 -2.69073 187.415C-0.225812 185.271 2.31016 183.247 5.42547 182.101C6.7076 181.578 7.95773 180.979 9.1693 180.308C12.8688 178.398 16.898 177.214 21.0403 176.821C22.587 176.683 24.1501 176.629 25.7023 176.579C29.151 176.47 32.556 176.607 35.3925 179.036C36.3654 179.869 37.4312 180.599 38.4532 181.372C37.9962 181.565 37.4956 181.629 37.0049 181.558C29.4735 180.462 22.4066 182.655 15.3179 184.667C14.7926 184.842 14.2826 185.061 13.7931 185.32C12.3611 186.016 10.8855 186.614 9.42071 187.223C7.42036 188.051 5.38721 188.884 3.70931 190.376C0.0201328 193.622 -3.84941 196.66 -7.0467 200.449C-8.28736 201.918 -9.85047 203.114 -10.8725 204.775C-11.9656 206.574 -13.0587 208.4 -14.1135 210.259C-14.2469 210.417 -14.3371 210.607 -14.3754 210.811C-14.4137 211.015 -14.3988 211.225 -14.3321 211.421C-14.0643 211.021 -13.873 210.741 -13.6927 210.456C-11.4628 206.98 -9.08531 203.613 -6.11757 200.723C-2.87388 197.608 0.551727 194.689 4.14109 191.982C5.19785 191.141 6.35438 190.433 7.58432 189.877C9.65026 188.983 11.7271 188.122 13.7494 187.135C15.7155 186.11 17.8315 185.405 20.0182 185.046C22.3574 184.728 24.4452 183.587 26.8009 183.253C31.1603 182.558 35.5902 182.423 39.9835 182.852C40.6613 182.924 41.3071 183.178 41.8527 183.587C45.6785 186.428 49.6683 188.966 53.6198 191.588C57.1396 193.929 60.5282 196.446 63.8402 199.078C64.0425 199.237 64.3868 199.369 64.3048 199.687C64.2228 200.005 63.8457 199.917 63.5888 199.994C61.5393 200.624 59.3148 200.679 57.3473 201.381C53.5215 202.741 49.5317 203.514 45.8698 205.263C44.8909 205.705 43.8872 206.09 42.8638 206.415C36.3261 208.575 30.7291 212.928 27.014 218.742C22.6416 225.322 18.2693 231.902 14.0281 238.592C10.8964 243.527 8.93975 248.851 8.91243 254.817C8.91243 257.131 8.91242 259.385 9.79783 261.557C10.1312 262.379 10.3116 263.262 10.6723 264.074C11.1041 265.044 10.9456 266.152 11.4101 267.254C11.6635 266.193 11.6896 265.09 11.4867 264.019C10.9073 260.762 10.2077 257.581 10.5083 254.148C10.9058 248.834 12.5804 243.696 15.389 239.173C19.2804 232.991 23.3649 226.927 27.6425 220.979C30.5829 216.872 34.0043 213.302 38.3712 210.703C40.9837 209.146 43.9132 208.334 46.6022 206.991C50.1821 205.203 54.1609 204.523 57.7353 202.741C58.0831 202.595 58.4524 202.508 58.8284 202.483C60.9954 202.241 63.0869 201.542 64.9661 200.432C65.1683 200.312 65.3487 200.257 65.5127 200.432L70.7103 204.638L67.5622 205.79C63.0898 207.458 58.8617 209.723 54.9917 212.523C53.9423 213.28 53.0186 214.207 51.8436 214.805C51.5548 214.992 51.2967 215.223 51.0784 215.49C50.6258 216.049 50.1246 216.566 49.5809 217.036C47.7445 218.336 46.7279 220.436 44.8915 221.725C44.7603 221.823 44.651 222.01 44.8314 222.169C44.8998 222.223 44.9868 222.249 45.0737 222.239C45.1606 222.23 45.2404 222.187 45.2959 222.12C45.7666 221.765 46.2172 221.384 46.6459 220.979C48.8829 218.55 51.3688 216.365 54.0625 214.459C57.3418 212.216 60.9162 210.621 64.3212 208.641C65.6278 207.928 67.0226 207.392 68.4695 207.045C69.3433 206.831 70.1931 206.528 71.0054 206.141C71.2166 205.997 71.4742 205.938 71.7267 205.977C71.9791 206.015 72.2077 206.148 72.3663 206.349C73.3392 207.331 74.3646 208.259 75.4379 209.129C77.5509 210.701 79.5592 212.41 81.4499 214.245C79.4113 214.947 78.116 216.307 77.0393 217.963C75.7858 219.832 74.6327 221.767 73.5851 223.759C73.4868 223.956 73.2955 224.231 73.5851 224.384C73.8038 224.494 73.9404 224.247 74.0661 224.088C74.1918 223.929 74.323 223.759 74.4323 223.578C75.7952 221.473 77.2922 219.458 78.9139 217.546C79.7748 216.593 80.8223 215.827 81.991 215.298C82.3954 215.073 82.6305 215.265 82.8928 215.501C84.2756 216.757 85.6529 218.029 87.0465 219.274C87.5275 219.696 87.522 219.943 87.0028 220.37C82.3681 224.275 78.4822 228.908 74.8039 233.673C70.5081 239.255 66.8736 245.298 63.4413 251.456C61.3862 255.141 59.4187 258.864 58.2655 262.944C57.7954 264.616 56.8608 266.119 56.6258 267.879C56.2433 270.522 55.3141 273.034 54.8277 275.66C54.1281 279.416 53.3302 283.145 53.5706 286.983C53.6964 288.936 53.7947 290.921 54.7457 292.845C54.5435 288.656 54.1117 284.62 54.8605 280.54C55.2704 278.292 55.8443 276.082 56.3034 273.851C56.9134 271.086 57.7469 268.375 58.7956 265.746C59.1509 264.808 59.528 263.876 59.8504 262.922C60.6935 260.391 61.7923 257.953 63.1297 255.645C65.07 252.355 66.879 248.95 68.9176 245.687C70.9563 242.425 73.0058 239.332 75.0881 236.19C77.2415 232.955 79.9196 230.12 82.3025 227.049C83.9825 224.977 85.8526 223.068 87.8882 221.346C87.9824 221.228 88.1021 221.132 88.2384 221.066C88.3746 221 88.524 220.965 88.6752 220.965C88.8265 220.965 88.9759 221 89.1121 221.066C89.2484 221.132 89.3681 221.228 89.4623 221.346C91.5228 223.096 93.5614 224.861 95.5563 226.687C98.4092 229.303 101.328 231.847 104.104 234.556C104.651 235.071 104.651 235.395 104.224 235.916C102.862 237.715 101.777 239.71 101.005 241.833C100.754 242.474 100.459 243.116 100.24 243.763C100.197 243.84 100.186 243.931 100.209 244.017C100.231 244.103 100.285 244.177 100.36 244.223C100.606 244.349 100.748 244.18 100.852 243.993C100.956 243.807 101.022 243.615 101.104 243.445C102.065 241.084 103.272 238.833 104.705 236.727C105.252 235.993 105.503 235.74 106.269 236.481C107.542 237.709 108.799 238.943 110.029 240.215C110.619 240.818 110.466 241.081 109.991 241.602C106.76 245.036 103.719 248.644 100.88 252.41C99.1396 254.835 97.7828 257.515 96.857 260.356C96.2558 262.16 96.0536 264.095 95.4306 265.883C94.1298 269.595 94.403 273.489 93.9221 277.289C93.9139 277.358 93.9139 277.428 93.9221 277.497C94.3265 280.414 94.7146 283.337 95.1518 286.271C95.2945 287.303 95.5777 288.31 95.9935 289.265C96.0755 289.451 96.1903 289.78 96.4745 289.692C96.7587 289.605 96.6056 289.314 96.5455 289.095C95.1682 284.061 94.2719 279.016 95.283 273.741C95.8295 270.999 96.2121 268.296 97.0046 265.62C98.3054 261.233 99.5515 256.89 102.47 253.161C105.285 249.559 107.985 245.868 110.87 242.315C111.324 241.767 111.575 241.767 112.024 242.277C112.905 243.256 113.816 244.209 114.756 245.134C115.166 245.534 115.155 245.797 114.724 246.121C114.073 246.638 113.474 247.219 112.936 247.853C109.203 252.026 107.012 257.011 105.339 262.253C106.076 261.502 106.666 260.618 107.077 259.648C108.854 255.262 111.023 251.089 114.275 247.585C115.614 246.132 115.614 246.132 116.964 247.585C117.085 247.711 117.227 247.81 117.347 247.93C118.812 249.444 120.435 250.787 121.818 252.399C125.195 256.342 128.469 260.378 131.656 264.463C131.956 264.852 132.41 265.181 132.142 265.823C131.661 266.963 131.459 268.203 131.022 269.343C129.497 273.308 129.311 277.437 129.289 281.604C129.344 283.784 129.712 285.945 130.382 288.02C130.579 288.711 130.748 289.517 131.546 290.027C130.453 286.09 130.956 282.098 130.808 278.133C130.655 274.037 131.672 270.221 132.749 266.294C135.569 269.584 137.318 273.45 139.433 277.047C140.941 279.608 141.881 282.531 142.953 285.322C144.273 288.924 145.215 292.655 145.762 296.453C146.035 298.208 146.533 299.935 146.729 301.696C147.049 304.239 147.572 306.754 148.292 309.213C148.325 309.329 148.391 309.488 148.604 309.427C148.756 309.051 148.77 308.633 148.642 308.248C148.451 307.3 148.249 306.351 148.096 305.397C147.314 300.593 146.702 295.757 145.74 290.986C144.477 285.052 142.262 279.363 139.181 274.141C136.327 268.957 133.036 264.028 129.344 259.407C128.48 258.36 127.704 257.214 126.791 255.996C127.181 256.068 127.564 256.169 127.939 256.298C131.508 257.943 135.246 259.138 138.755 260.926C142.127 262.642 145.39 264.452 148.298 266.908C151.508 269.576 153.767 273.216 154.736 277.283C155.3 279.682 155.665 282.123 155.829 284.582C155.829 284.845 155.764 285.245 156.146 285.229C156.529 285.212 156.398 284.807 156.409 284.554C156.426 283 156.316 281.446 156.081 279.91C154.988 271.641 150.495 265.878 143.319 261.984C140.706 260.57 138.034 259.303 135.334 258.058C133.018 256.916 130.638 255.909 128.207 255.042C125.349 254.091 122.924 252.146 121.37 249.559C124.102 249.795 126.797 250.058 129.267 251.407C130.948 252.228 132.708 252.877 134.519 253.342C134.842 253.447 135.296 253.83 135.503 253.304C135.711 252.778 135.121 252.651 134.771 252.531C133.211 251.968 131.682 251.322 130.191 250.595C128.221 249.555 126.055 248.944 123.835 248.802C122.528 248.657 121.237 248.397 119.976 248.023C119.508 247.918 119.077 247.691 118.724 247.365C117.254 246.071 116.407 244.201 114.898 242.979C111.745 240.473 109.581 237.013 106.383 234.507C103.787 232.472 101.634 229.868 99.1471 227.652C98.3382 226.934 97.6113 226.117 96.6931 225.185C103.858 225.733 110.778 226.221 117.659 227.23C124.54 228.239 131.114 230.608 137.952 231.864C137.59 231.561 137.175 231.33 136.728 231.184C135.126 230.635 133.514 230.153 131.907 229.632C126.644 227.921 121.348 226.342 115.822 225.706C111.739 225.229 107.662 224.669 103.558 224.395C101.317 224.242 99.0651 224.176 96.8352 223.885C96.6317 223.841 96.4211 223.841 96.2176 223.885C95.9528 223.966 95.6695 223.964 95.4064 223.877C95.1432 223.791 94.9131 223.625 94.7474 223.403C92.9984 221.626 91.2112 219.888 89.3366 218.243C89.1999 218.117 88.9704 218.012 89.1343 217.645C90.8833 217.766 92.665 217.859 94.4468 218.018C96.9499 218.243 99.2673 219.213 101.656 219.882C101.995 219.975 102.486 220.272 102.661 219.8C102.836 219.328 102.306 219.252 101.962 219.12C100.776 218.753 99.5898 218.369 98.3874 218.062C95.5016 217.316 92.5721 216.62 89.5989 216.663C88.939 216.681 88.2825 216.562 87.6703 216.314C87.0582 216.066 86.5036 215.694 86.0409 215.221C84.2793 213.662 82.4406 212.192 80.5317 210.818C78.9905 209.688 77.5203 208.46 75.8861 207.172C76.3397 207.024 76.5857 206.919 76.848 206.854L83.9531 205.071C85.2593 204.742 86.5437 204.221 87.8664 204.112C91.6485 203.805 95.3595 202.862 99.1635 202.818C100.934 202.818 102.656 202.269 104.41 202.269C108.072 202.33 111.734 202.11 115.39 202.055C120.479 201.973 125.54 202.193 130.606 202.554C133.935 202.796 137.066 203.838 140.154 205.11C142.459 206.016 144.579 207.335 146.412 209.003C147.041 209.59 147.658 210.187 148.292 210.763C148.484 210.939 148.708 211.312 148.959 211.081C149.211 210.851 148.839 210.566 148.691 210.336C148.58 210.201 148.462 210.073 148.336 209.952C145.92 207.166 142.838 205.274 139.706 203.432C137.497 202.067 134.996 201.249 132.41 201.047C128.857 200.811 125.305 200.498 121.752 200.399C118.2 200.301 114.647 199.988 111.084 200.12C107.394 200.251 103.711 200.526 100.032 200.97C95.7421 201.518 91.5064 202.395 87.1886 202.692C86.573 202.786 85.9661 202.931 85.3741 203.125C82.2588 203.909 79.1982 204.923 76.0828 205.625C75.5735 205.772 75.0351 205.784 74.5199 205.66C74.0046 205.536 73.5301 205.28 73.1424 204.918C69.6719 201.896 66.0865 199.018 62.3482 196.336C61.7251 195.892 61.8016 195.563 62.3482 195.13C63.5287 194.115 64.7147 193.101 65.8624 192.048C70.0654 188.182 74.8313 185.117 79.8048 182.386C82.9037 180.686 86.3196 179.683 89.5224 178.208C90.377 177.733 91.2983 177.391 92.2551 177.193C95.3658 176.73 98.5251 176.697 101.645 177.095C101.885 177.128 102.142 177.418 102.541 177.095C101.287 176.612 99.9641 176.333 98.6224 176.267C97.2178 176.267 95.8131 176.354 94.3976 176.267C93.2846 176.164 92.1629 176.317 91.1183 176.716C88.5714 177.78 85.9972 178.762 83.4284 179.776C80.5099 180.933 77.5859 182.107 75.0936 184.114C73.7983 185.161 72.1751 185.643 70.7978 186.565C67.4207 188.931 64.217 191.537 61.2113 194.362C60.6648 194.85 60.3915 194.79 59.8559 194.433C55.2431 191.319 50.5974 188.248 46.0994 184.969C44.3122 183.669 42.6343 182.227 40.6339 181.257C40.0874 181.004 39.9671 180.67 40.4208 180.16C43.8913 176.069 47.3018 171.935 50.8051 167.877C51.9178 166.621 53.409 165.764 55.0518 165.437C56.8718 165.037 58.6699 164.56 60.479 164.11C60.6429 164.066 60.8124 164 60.8069 163.737C60.7358 163.704 60.6539 163.622 60.5719 163.627C58.0373 163.783 55.5397 164.316 53.1607 165.207C51.4665 165.832 49.983 166.925 48.8813 168.36C48.257 169.057 47.5791 169.704 46.8536 170.295C43.9677 172.942 41.4213 175.939 39.273 179.217C38.9178 179.765 38.6828 179.765 38.2455 179.431C37.3 178.745 36.3435 178.076 35.3324 177.363C35.7205 176.991 36.0484 176.689 36.3654 176.376C40.0273 172.73 43.9788 169.418 47.9248 166.095C48.4184 165.669 48.9706 165.316 49.5645 165.048C50.8382 164.5 52.0464 163.81 53.1662 162.991C53.7279 162.587 54.3636 162.297 55.0369 162.139C55.7103 161.981 56.408 161.957 57.0904 162.07C58.9814 162.322 60.878 162.476 62.769 162.723C67.8082 163.375 72.9129 163.583 77.7881 165.245C80.5208 166.177 83.2972 166.994 86.0518 167.861C85.497 167.973 84.9227 167.939 84.3849 167.762C82.5321 167.351 80.6684 166.967 78.7882 166.665C74.2519 165.952 69.6719 166.117 65.1246 165.832C61.6158 165.596 58.4841 166.38 55.8333 168.853C55.0135 169.615 54.3905 170.498 53.6472 171.337C51.4337 173.733 49.9088 176.634 47.974 179.244C47.0558 180.489 47.2854 181.18 48.6517 181.942C51.0347 183.275 53.281 184.815 55.5218 186.367C56.037 186.752 56.6289 187.021 57.2571 187.155C57.8853 187.29 58.535 187.286 59.1618 187.146C62.0781 186.557 64.9506 185.767 67.759 184.783C72.3137 183.131 76.7796 181.242 81.1384 179.124C86.5178 176.459 92.3889 174.941 98.3819 174.666C101.676 174.408 104.983 174.96 108.017 176.272C110.81 177.546 113.535 178.963 116.183 180.516C118.566 181.904 121.227 182.814 123.343 184.645C124.416 185.513 125.54 186.315 126.709 187.047C127.399 187.502 128.063 187.994 128.699 188.522V188.522H128.732L128.863 188.55C128.917 188.55 128.956 188.605 128.945 188.703L128.568 188.626C128.207 188.511 127.841 188.413 127.475 188.281C123.807 186.932 120.435 184.92 116.757 183.538C112.677 181.931 108.494 180.603 104.235 179.562C103.529 179.389 102.803 179.313 102.077 179.337C99.1088 179.469 96.1957 180.165 93.217 180.253C90.8669 180.319 88.8447 181.312 86.8716 182.562C84.5601 184.012 82.3354 185.598 80.2093 187.31C77.4765 189.548 74.7001 191.747 73.5961 195.349C73.4933 195.56 73.465 195.8 73.5156 196.029C73.5662 196.258 73.6929 196.463 73.8748 196.61C75.0585 197.723 76.1548 198.926 77.1541 200.208C77.3697 200.479 77.643 200.7 77.954 200.852C78.265 201.005 78.606 201.086 78.9522 201.09C80.264 201.201 81.5845 201.144 82.8819 200.92C86.4563 200.268 90.0799 199.939 93.6761 199.571C98.5349 199.078 103.323 198.179 108.165 197.652C114.254 196.989 120.331 196.402 126.463 196.556C129.273 196.632 132.06 196.89 134.858 197.005C136.827 197.035 138.758 197.549 140.482 198.502C143.445 200.197 145.948 202.489 148.735 204.419C150.807 205.856 152.271 207.479 152.61 210.187C153.157 214.64 155.469 218.648 156.239 223.074C156.289 223.202 156.357 223.322 156.441 223.43C157.534 225.497 157.633 227.817 158.207 230.186C157.787 229.875 157.457 229.459 157.25 228.979C156.578 227.684 155.752 226.474 154.791 225.377C151.936 222.331 149.264 219.118 146.789 215.753C144.86 213.236 142.417 211.843 139.351 211.076C130.568 208.882 121.599 207.786 112.685 206.355C109.203 205.806 105.662 205.631 102.175 205.077C101.148 204.887 100.09 204.949 99.0924 205.258C97.0538 205.883 95.0261 206.398 92.982 206.925C91.8861 207.147 90.901 207.744 90.1946 208.614C89.4186 209.628 89.3475 210.034 90.2384 210.966C92.6917 213.641 95.7926 215.634 99.24 216.751C102.372 217.722 105.613 218.347 108.815 219.076C115.238 220.462 121.567 222.255 127.764 224.445C131.852 225.941 135.656 228.102 139.499 230.164C146.822 234.106 153.998 238.246 160.109 244.015C161.748 245.556 162.492 247.464 162.978 249.498C163.154 250.349 163.233 251.218 163.213 252.087C161.978 251.028 161.262 249.652 160.442 248.347C158.999 246.055 157.584 243.719 155.294 242.162C152.644 240.387 149.788 238.943 146.789 237.863C142.341 236.218 137.689 235.198 133.082 234.134C126.802 232.675 120.304 232.642 113.953 231.754C113.78 231.735 113.606 231.735 113.434 231.754C113.155 231.747 112.88 231.815 112.636 231.951C112.392 232.087 112.189 232.285 112.047 232.526C111.905 232.767 111.829 233.041 111.828 233.321C111.827 233.6 111.9 233.875 112.04 234.117C112.769 235.762 113.538 237.382 114.346 238.976C115.363 240.922 116.735 242.414 118.883 243.121C119.976 243.472 120.982 244.02 122.053 244.415C130.196 247.409 138.449 250.135 145.953 254.658C150.047 257.12 154.337 259.281 158.005 262.368C160.469 264.446 162.65 266.843 163.208 270.253C163.258 270.489 163.322 270.722 163.399 270.95C164.263 273.76 164.194 276.775 163.202 279.542C161.975 283.052 160.268 286.374 158.13 289.413C157.248 290.529 156.531 291.769 156.004 293.092C153.763 299.393 151.632 305.704 150.342 312.317C150.041 313.885 149.637 315.437 149.276 317C148.03 314.302 146.172 312.136 144.576 309.789C139.657 302.551 141.75 304.602 134.476 299.623L133.787 299.151C129.163 296.092 124.195 293.915 118.664 293.18C118.282 293.125 118.118 293.01 118.118 292.631C118.358 289.966 117.965 287.291 118.238 284.62C118.706 280.235 119.473 275.888 120.533 271.608C121.337 268.318 122.435 265.061 124.643 262.363C124.981 262.034 125.18 261.587 125.198 261.116C125.216 260.644 125.053 260.183 124.742 259.829C124.556 259.497 124.421 259.138 124.343 258.766C123.957 257.398 123.482 256.057 122.922 254.752C121.506 251.933 119.796 251.632 118.003 254.203C116.401 256.473 114.806 258.738 113.314 261.074C111.521 263.876 109.608 266.64 108.171 269.623C105.802 274.491 104.045 279.635 102.94 284.938C102.53 286.907 101.705 288.842 101.738 290.838C101.792 294.244 101.858 297.682 102.831 301.12C101.945 300.933 101.082 300.747 100.213 300.572C97.7445 300.182 95.3614 299.37 93.1679 298.17C92.4714 297.809 91.8644 297.296 91.3915 296.669C90.9186 296.041 90.5918 295.316 90.4351 294.545C89.3748 288.875 88.6648 283.145 88.3091 277.387C87.854 269.336 88.7632 261.265 90.9981 253.518C92.8618 247.025 95.1627 240.725 99.5078 235.422C99.8704 234.997 100.119 234.485 100.229 233.936C100.355 233.196 99.8958 232.779 99.2454 232.938C97.0593 233.454 94.9769 234.287 92.8454 234.962C91.2148 235.443 89.7317 236.33 88.5332 237.539C86.4407 239.76 84.6289 242.232 83.1387 244.898C80.8542 248.824 78.8429 252.904 76.9573 257.033C75.6347 259.934 73.678 262.516 72.6396 265.549C70.1802 272.54 67.7207 279.537 65.5072 286.605C65.4307 286.846 65.5509 287.252 65.1519 287.252C64.507 287.252 64.4797 287.74 64.3485 288.151C63.0255 292.248 62.3559 296.529 62.3646 300.835C62.3344 302.05 62.6925 303.243 63.3866 304.24C64.0845 305.298 64.7196 306.397 65.2886 307.53C64.5076 307.383 63.7537 307.117 63.0532 306.74C62.0067 306.208 60.9077 305.787 59.7739 305.485C56.1303 304.659 52.4867 303.851 48.843 303.061C48.4492 303.015 48.0837 302.833 47.8094 302.545C47.5351 302.258 47.3691 301.884 47.34 301.487C46.7607 298.033 46.1595 294.584 45.5146 291.14C44.7221 286.923 43.7383 282.739 43.7492 278.413C43.8324 271.737 44.5018 265.082 45.7496 258.524C46.7509 253.127 48.3305 247.854 50.4608 242.798C52.882 236.963 56.6258 231.979 60.8452 227.334C62.3099 225.728 63.6599 223.973 65.622 222.915C66.6676 222.385 67.638 221.717 68.5077 220.93C69.896 219.619 71.3826 218.429 72.8801 217.223C73.8038 216.472 73.6944 215.665 72.585 215.188C71.942 214.919 71.2484 214.792 70.552 214.818C69.8556 214.844 69.173 215.02 68.5515 215.336C62.7963 218.078 56.992 220.666 51.6085 224.11C44.6018 228.628 37.9067 233.52 31.9329 239.327C28.6548 242.514 25.5807 245.906 22.7291 249.482C22.2755 250.03 21.5212 250.529 21.3737 251.16C20.7069 254.017 19.8871 256.846 19.8269 259.84C19.734 264.227 19.9308 268.652 19.6466 273.061C19.4562 276.315 19.4435 279.577 19.6083 282.832C19.7614 286.177 20.2095 289.511 20.5265 292.845C20.5265 292.933 20.5265 293.021 20.5265 293.109L20.3134 293.004C19.5004 292.392 18.7693 291.677 18.1381 290.877C15.3562 287.74 12.9787 284.242 9.90167 281.374C6.6224 278.309 4.80241 274.382 3.46883 270.242C2.28435 266.69 1.42276 263.038 0.894607 259.33C0.293407 254.785 -0.296863 250.244 -0.0946413 245.649C-0.0521902 243.907 0.393112 242.199 1.20614 240.659C2.70914 237.917 4.17934 235.176 5.67141 232.434C7.99423 228.173 10.2569 223.88 12.5087 219.586C15.1103 214.651 18.5207 210.193 21.6743 205.592C22.2451 204.76 22.9915 204.063 23.8604 203.552C25.5259 202.493 27.1366 201.349 28.6864 200.125C30.5338 198.738 32.3865 197.449 34.8351 197.477C35.3816 197.477 36.0101 197.307 36.0757 196.616C36.1413 195.925 35.6276 195.58 35.0154 195.415C34.048 195.152 33.0533 194.965 32.1078 194.636C26.0958 192.553 20.3298 193.803 14.7659 196.254C11.0002 197.899 7.71549 200.504 3.99898 202.286C3.44681 202.577 2.92814 202.928 2.45226 203.333C1.25385 204.283 -0.0947667 205.024 -1.53752 205.527C-2.73992 205.965 -3.94779 206.47 -4.77307 207.512C-6.68051 209.919 -8.42946 212.463 -9.29846 215.419C-11.2332 221.999 -13.2664 228.513 -13.8129 235.384C-13.7841 235.816 -13.9015 236.245 -14.1463 236.601C-14.2228 236.102 -14.2775 235.735 -14.3376 235.362C-14.589 233.684 -14.7093 231.968 -15.3597 230.378C-16.8572 226.72 -17.0813 222.569 -19.2237 219.104C-19.2619 219.044 -19.2862 218.977 -19.2948 218.906C-19.7156 215.676 -20.9672 212.595 -21 209.299C-21 207.15 -20.6283 205.159 -18.71 203.783Z" stroke="#FDB90B" stroke-width="2" mask="url(#path-3-inside-1_134_1745)"/>
</g>
</g>
</svg>
