<svg width="382" height="293" viewBox="0 0 382 293" fill="none" xmlns="http://www.w3.org/2000/svg">
<rect width="382" height="293" rx="9" fill="white"/>
<mask id="mask0_134_1749" style="mask-type:alpha" maskUnits="userSpaceOnUse" x="-2" y="0" width="384" height="293">
<rect x="-2" width="384" height="293" fill="#D9D9D9"/>
</mask>
<g mask="url(#mask0_134_1749)">
<g opacity="0.25">
<path d="M87.5008 148.508C87.7736 148.303 88.0877 148.16 88.4212 148.089C90.8429 147.478 93.3138 147.083 95.8051 146.907C99.7899 146.588 103.267 148.319 106.886 149.48C107.061 149.544 107.225 149.634 107.373 149.747C108.784 150.746 110.223 151.718 111.603 152.754C114.427 154.877 116.901 157.398 119.479 159.793C120.617 160.845 121.596 162.057 122.386 163.39C124.283 166.722 125.836 170.239 127.019 173.886C128.29 177.546 129.425 181.296 130.764 184.946C133.692 192.921 138.99 199.421 144.109 206.015C146.013 208.473 148.455 210.413 150.646 212.594C153.769 215.686 157.234 218.412 160.974 220.72C162.074 221.349 163.14 222.035 164.169 222.776C165.109 223.481 166.136 224.065 167.223 224.512C168.185 224.935 169.147 225.354 170.078 225.835C173.075 227.404 176.312 227.926 179.627 228.12C181.51 228.225 183.387 227.937 185.264 227.822C191.158 227.456 195.692 224.888 198.714 219.758C199.498 218.282 200.124 216.727 200.581 215.12C201.355 216.688 201.591 218.299 202.072 219.826C203.118 223.152 204.258 226.447 205.335 229.762C206.506 233.36 206.904 237.13 207.427 240.864C207.871 244.043 208.514 247.218 208.671 250.413C209.062 256.745 208.746 263.102 207.73 269.364C206.684 275.514 206.015 281.711 205.215 287.897C204.336 294.669 203.646 301.462 203.238 308.292C202.657 318.264 202.004 328.226 201.564 338.209C201.449 340.735 201.261 343.266 201.042 345.787C200.838 348.187 200.414 350.577 200.472 352.993C200.681 361.522 199.426 369.957 198.945 378.444C198.918 378.936 198.683 379.401 198.788 379.908C198.871 380.285 198.965 380.667 199.436 380.688C199.907 380.709 200.09 380.426 200.184 380.013C200.471 378.844 200.646 377.649 200.707 376.447C200.785 374.721 200.89 372.99 201.052 371.27C201.413 367.583 202.025 363.917 202.035 360.194C202.035 358.771 202.035 357.349 202.072 355.926C202.108 351.508 202.762 347.136 203.081 342.738C203.327 339.417 203.499 336.091 203.604 332.765C203.871 325.784 204.268 318.813 204.734 311.848C205.162 305.473 205.298 299.078 206.302 292.74C206.956 288.53 207.259 284.273 207.918 280.064C208.441 276.523 209.09 272.983 209.377 269.422C209.796 264.156 209.816 258.858 210.146 253.582C210.402 249.482 209.712 245.44 209.184 241.392C208.819 237.979 208.224 234.595 207.4 231.263C206.517 228.042 205.256 224.946 204.263 221.761C203.41 218.995 202.872 216.108 201.293 213.603C201.147 213.362 201.066 213.087 201.06 212.805C201.053 212.524 201.121 212.245 201.256 211.998C201.638 211.081 201.816 210.093 201.779 209.101C201.779 208.369 202.061 207.532 201.46 206.805C201.371 206.941 201.319 206.988 201.313 207.04C200.791 211.464 198.934 215.376 196.638 219.115C195.111 221.537 192.877 223.432 190.238 224.543C188.23 225.442 186.091 225.657 183.962 225.96C180.119 226.539 176.192 226.15 172.536 224.831C167.987 223.168 163.913 220.532 159.928 217.818C155.363 214.68 151.367 210.905 147.508 206.972C143.722 203.118 140.752 198.605 137.64 194.223C134.996 190.507 132.935 186.408 131.527 182.07C130.005 177.395 128.484 172.725 126.648 168.16C124.964 163.976 122.653 160.19 119.186 157.136C116.54 154.83 114.024 152.33 111.101 150.322C108.9 148.8 106.782 147.137 104.13 146.348C101.979 145.715 99.7469 145.402 97.5047 145.417H94.4193C94.5894 145.239 94.8044 145.111 95.0416 145.046C97.573 144.244 100.194 143.758 102.844 143.597C107.676 143.287 112.526 143.746 117.214 144.957C120.451 145.767 123.542 147.049 126.91 147.477C129.896 147.859 132.855 148.45 135.878 148.56C139.089 148.68 142.31 148.8 145.516 149.051C150.411 149.433 155.117 150.793 159.818 152.132C161.596 152.654 163.432 153.057 165.084 153.915C168.057 155.363 171.133 156.586 174.288 157.575C180.179 159.647 185.687 162.679 190.588 166.549C192.68 168.154 194.191 170.267 196.074 172.045C197.026 173.013 197.919 174.038 198.746 175.115C200.173 176.835 201.183 178.828 202.406 180.674C203.278 181.986 203.899 183.449 204.237 184.988C204.948 188.037 204.838 191.132 204.76 194.223C204.73 196.548 204.247 198.845 203.337 200.985C202.743 202.515 202.573 204.177 202.846 205.796C203.055 207.668 204.122 209.258 204.55 211.067C205.528 215.188 206.642 219.272 207.688 223.382C208.828 227.937 210.067 232.492 210.753 237.13C211.406 241.56 212.06 245.984 212.782 250.397C212.819 250.574 212.866 250.748 212.923 250.92C212.942 251.012 212.994 251.094 213.069 251.15C213.144 251.205 213.237 251.232 213.331 251.223C213.385 251.225 213.439 251.216 213.49 251.196C213.54 251.177 213.587 251.147 213.626 251.11C213.665 251.072 213.697 251.028 213.719 250.978C213.741 250.928 213.753 250.875 213.754 250.821C213.754 250.606 213.718 250.392 213.728 250.183C213.78 249.006 213.383 247.782 213.728 246.669C214.463 244.636 215.42 242.691 216.583 240.869C218.152 238.213 219.648 235.525 221.713 233.192C222.503 232.298 222.372 232.12 221.426 231.394C220.26 230.494 218.984 229.752 218.016 228.58C215.924 226.06 215.02 223.042 214.293 219.983C213.187 214.986 213.207 209.806 214.35 204.818C215.274 200.756 216.728 196.834 218.675 193.151C221.394 187.796 225.008 183.424 230.368 180.559C232.747 179.283 234.881 177.614 237.48 176.647C240.503 175.523 243.321 173.891 246.569 173.347C249.492 172.861 252.274 171.637 255.234 171.397C257.974 171.172 260.709 170.9 263.449 170.706C264.771 170.545 266.105 170.507 267.434 170.591C271.204 171.025 274.99 171.412 278.75 171.925C282.123 172.385 285.496 172.694 288.885 172.971C291.96 173.216 295.061 173.358 298.089 174.017C304.997 175.455 311.936 176.511 319.006 176.396C320.907 176.363 322.808 176.455 324.696 176.673C325.329 176.746 325.956 176.835 326.584 176.94C326.831 176.741 327.127 176.615 327.441 176.574C327.65 176.55 327.86 176.55 328.069 176.574C328.404 176.574 328.754 176.657 329.141 176.715L327.096 177.238C326.222 177.549 325.407 178.005 324.685 178.587C324.544 178.707 324.288 178.985 324.163 178.676C323.906 178.001 323.425 178.252 323.007 178.32C321.265 178.582 319.503 178.775 317.777 179.162C315.131 179.764 312.412 180.015 309.839 180.919C309.023 181.207 308.239 181.578 307.434 181.882C303.282 183.45 299.067 184.899 295.04 186.745C294.425 187.117 293.719 187.313 293.001 187.31C296.821 183.709 300.863 180.351 305.101 177.254C304.823 177.198 304.536 177.199 304.258 177.257C303.981 177.316 303.718 177.43 303.485 177.594C301.849 178.577 300.097 179.429 298.659 180.653C295.579 183.267 292.174 185.527 289.539 188.654C289.229 188.999 288.854 189.28 288.435 189.48C285.625 190.883 282.743 192.138 279.802 193.24C276.978 194.359 274.049 195.258 271.367 196.686C270.742 197.084 270.016 197.295 269.275 197.293C275.095 189.234 281.381 181.845 288.78 175.638C287.601 175.918 286.517 176.508 285.643 177.348C282.709 179.894 279.723 182.384 277.035 185.192C275.707 186.583 274.541 188.099 273.28 189.543C270.755 192.424 268.224 195.295 266.482 198.762C266.371 198.989 266.187 199.173 265.959 199.285L253.613 206.005C253.153 206.256 252.677 206.475 252.201 206.7C251.95 206.821 251.631 206.977 251.406 206.836C251.181 206.695 251.406 206.313 251.406 206.073C251.456 205.799 251.53 205.529 251.626 205.267C252.555 201.613 253.962 198.096 255.809 194.809C256.065 194.38 256.614 193.711 256.123 193.381C255.778 193.151 255.38 193.962 255.077 194.369C252.232 198.213 250.616 202.59 249.523 207.197C249.468 207.448 249.36 207.685 249.207 207.891C249.054 208.098 248.859 208.269 248.634 208.395C244.116 211.292 239.378 213.875 235.399 217.551C234.977 218.005 234.473 218.374 233.914 218.639L233.814 218.749C233.814 218.749 233.772 218.691 233.783 218.681C233.814 218.649 233.847 218.619 233.882 218.592C233.757 216.652 234.332 214.816 234.803 212.976C235.624 209.744 237.239 206.857 238.855 203.976C239.017 203.688 239.415 203.286 238.934 203.019C238.578 202.82 238.353 203.275 238.144 203.516C236.818 205.054 235.75 206.797 234.98 208.677C233.793 211.47 232.491 214.293 232.366 217.311C232.256 219.805 231.001 221.264 229.385 222.796C227.016 225.035 224.522 227.205 223.701 230.641C223.45 231.686 223.413 232.251 224.223 232.983C224.495 233.234 224.746 233.506 225.034 233.736C226.906 235.279 228.533 237.172 231.011 237.831C231.384 237.964 231.736 238.149 232.057 238.38C234.274 239.776 236.371 241.429 238.725 242.522C241.805 243.955 244.665 245.801 247.86 247.014C249.717 247.72 251.626 248.206 253.487 248.875C256.088 249.783 258.813 250.284 261.567 250.361C265.157 250.419 268.745 250.167 272.292 249.608C274.478 249.34 276.588 248.64 278.499 247.547C278.944 247.286 279.451 247.024 279.603 246.412C279.487 246.395 279.369 246.395 279.252 246.412C276.249 247.268 273.179 247.87 270.075 248.211C264.323 249.022 258.711 248.98 253.043 247.239C248.127 245.733 243.729 243.207 239.07 241.204C238.932 241.133 238.801 241.051 238.678 240.958C234.871 238.343 231.053 235.729 227.257 233.077C225.196 231.645 225.207 231.577 226.362 229.302C226.551 228.931 226.755 228.512 227.246 228.68C228.229 229.019 229.427 228.277 230.258 229.297C230.318 229.405 230.369 229.519 230.41 229.636C230.795 230.512 231.326 231.317 231.979 232.016C234.526 234.408 237.48 236.326 240.701 237.679C242.547 238.49 244.576 238.673 246.579 238.924C251.308 239.6 256.13 239.165 260.662 237.653C263.8 236.607 266.733 235.038 269.96 234.217C271.422 233.803 272.764 233.046 273.877 232.011C275.022 231.033 275.477 230.013 274.823 228.612C274.541 228.01 274.776 227.775 275.346 227.717C278.484 227.419 281.48 226.583 284.545 225.986C286.071 225.741 287.558 225.296 288.969 224.663C289.23 224.538 289.654 224.438 289.492 224.041C289.329 223.644 288.969 223.816 288.676 223.91C288.352 224.014 288.022 224.094 287.687 224.151C283.112 224.872 278.552 225.657 274.018 226.583C273.846 226.639 273.659 226.628 273.495 226.551C271.581 225.568 269.468 225.354 267.397 225.097C262.738 224.522 258.047 224.214 253.466 223.058C250.58 222.326 247.834 221.201 245.005 220.312C243.677 219.899 242.328 219.403 240.926 219.601C240.356 219.685 239.781 219.779 239.216 219.884C237.503 220.186 235.822 220.65 234.196 221.269L233.846 221.473L233.615 221.604L233.422 221.787L233.239 221.97L233.056 222.158C232.988 222.211 232.894 222.315 232.857 222.3C232.821 222.284 232.758 222.211 232.774 222.164C232.78 222.137 232.793 222.112 232.81 222.09L232.862 222.017L233.066 221.819L233.27 221.635L233.49 221.473L233.699 221.317L233.976 221.055C235.108 219.793 236.368 218.652 237.736 217.651C238.186 217.311 238.641 216.987 239.096 216.668C243.207 213.764 247.55 211.204 252.08 209.012C252.25 208.908 252.439 208.839 252.636 208.809C252.832 208.78 253.033 208.79 253.226 208.839C254.711 209.278 256.212 209.644 257.692 210.089C265.297 212.432 273.129 213.965 281.057 214.665C285.408 214.968 289.774 215.005 294.13 214.775C295.861 214.712 297.592 214.654 299.318 214.581C299.678 214.581 300.154 214.581 300.118 214.058C300.081 213.535 299.595 213.587 299.26 213.572C298.737 213.572 298.267 213.572 297.775 213.572C292.64 213.65 287.51 213.718 282.406 213.049C278.421 212.526 274.431 212.003 270.483 211.26C265.808 210.361 261.148 209.42 256.562 208.123C255.961 207.955 255.302 207.976 254.706 207.6C255.091 207.215 255.553 206.914 256.06 206.716C257.477 205.958 258.968 205.315 260.312 204.436C261.185 203.811 262.2 203.412 263.265 203.277C264.33 203.142 265.413 203.274 266.414 203.662C268.505 204.334 270.653 204.815 272.831 205.1C273.275 205.168 273.788 205.179 273.877 204.624C273.966 204.07 273.484 204.007 273.077 203.924L269.646 203.17C268.135 202.825 266.623 202.465 264.992 202.088C265.766 201.314 266.644 201.079 267.444 200.697L275.879 196.665C278.583 195.384 281.276 194.092 284.063 193.005C286.966 191.87 289.905 190.813 292.734 189.506C294.069 188.865 295.554 188.605 297.027 188.753C299.092 188.941 301.17 188.941 303.234 188.753C305.535 188.554 307.836 188.403 310.148 188.356C311.539 188.356 312.977 188.57 314.284 187.885C309.17 186.839 303.993 187.665 298.842 187.252C307.046 183.732 315.519 180.873 324.178 178.702C324.016 179.183 323.655 179.351 323.383 179.581C322.39 180.318 321.469 181.148 320.633 182.059C315.616 187.955 311.491 194.555 308.391 201.649C305.692 207.893 302.712 214.006 299.814 220.156C297.618 224.831 294.899 229.234 292.436 233.752C287.552 242.768 280.931 250.078 271.905 255.114C271.184 255.537 270.428 255.897 269.646 256.191C268.185 256.7 266.77 257.331 265.415 258.079C264.19 258.745 262.866 259.209 261.493 259.455C260.071 259.726 258.654 260.072 257.242 260.411C254.836 260.987 252.467 261.729 249.963 261.74C248.535 261.74 247.128 261.965 245.711 262.074C240.91 262.456 236.22 262.074 232.047 259.366C229.219 257.611 227.069 254.949 225.949 251.814C225.452 250.382 224.94 248.954 224.422 247.531C224.165 246.806 223.989 246.053 223.899 245.288C223.538 242.255 223.779 239.232 223.972 236.21C223.972 235.875 224.255 235.394 223.81 235.206C223.366 235.018 223.11 235.425 222.89 235.697C221.415 237.522 219.862 239.279 218.78 241.403C216.813 245.397 215.115 249.518 213.697 253.739C212.791 256.174 212.091 258.68 211.605 261.233C211.401 262.404 211.652 263.56 211.642 264.715C211.642 266.838 211.181 268.962 211.228 271.074C211.375 277.465 210.444 283.782 210.151 290.141C209.864 296.416 208.901 302.618 208.331 308.862C207.536 317.616 207.123 326.38 206.914 335.166C206.789 340.615 207.291 346.043 207.437 351.481C207.636 358.803 208.572 366.092 208.718 373.445C208.716 373.538 208.726 373.632 208.75 373.722C208.839 374.062 208.964 374.386 209.382 374.418C209.801 374.449 209.963 374.156 210.041 373.79C210.217 373.106 210.32 372.404 210.35 371.698C210.386 368.168 209.905 364.67 209.722 361.151C209.294 352.909 208.676 344.673 208.64 336.416C208.603 328.404 208.896 320.403 209.382 312.402C209.633 308.328 210.271 304.302 210.679 300.244C211.129 295.788 211.725 291.354 212.018 286.877C212.253 283.452 212.818 280.048 212.928 276.623C213.085 271.77 213.451 266.933 213.66 262.085C213.652 260.878 213.785 259.674 214.058 258.498C215.768 252.397 218.015 246.459 220.772 240.754C221.253 239.78 221.852 238.868 222.555 238.04C222.655 238.317 222.655 238.621 222.555 238.898C222.323 240.427 222.191 241.969 222.158 243.515C221.985 246.522 223.355 249.158 224.056 251.961C224.658 254.361 226.033 256.259 227.607 258.037C230.912 261.771 235.163 263.565 240.074 264.03C242.934 264.302 245.748 263.899 248.587 263.779C251.669 263.573 254.726 263.083 257.718 262.315C261.52 261.447 265.238 260.469 268.773 258.712C270.985 257.614 273.28 256.709 275.289 255.234C275.664 254.962 276.061 254.721 276.476 254.513C279.284 253.116 281.564 251.014 283.797 248.875C287.13 245.624 290.037 241.962 292.446 237.977C298.721 227.749 303.883 216.981 308.731 206.036C310.969 200.979 313.04 195.839 316.23 191.263C318.185 188.439 319.754 185.338 322.16 182.854C324.131 180.81 325.998 178.54 329.047 177.97C330.406 177.714 331.75 177.342 333.157 177.667C333.305 177.722 333.469 177.72 333.616 177.66C333.762 177.599 333.88 177.486 333.947 177.342C334.013 177.183 334.018 177.004 333.959 176.841C333.899 176.678 333.781 176.544 333.628 176.464C333.465 176.36 333.289 176.277 333.105 176.218C330.82 175.371 328.503 174.649 326.029 174.613C325.255 174.613 324.461 174.613 323.708 174.613C321.135 174.613 318.635 173.97 316.073 173.818C311.021 173.515 305.949 173.295 300.949 172.364C297.644 171.731 294.371 170.91 291.013 170.539C285.507 169.927 279.969 169.807 274.457 169.221C270.797 168.829 267.105 168.144 263.371 168.536C261.802 168.698 260.27 169.059 258.717 169.284C255.725 169.728 252.687 169.891 249.743 170.612C247.583 171.135 245.559 172.087 243.311 172.354C242.022 172.538 240.772 172.936 239.614 173.53C238.803 173.981 237.96 174.372 237.093 174.702C233.255 175.92 229.934 178.158 226.838 180.553C222.351 184.043 218.792 188.583 216.474 193.773C215.7 195.489 214.868 197.188 214.157 198.929C213.247 201.162 212.164 203.369 211.72 205.728C210.638 211.428 211.113 217.117 212.243 222.77C212.395 223.468 212.675 224.131 213.069 224.726C213.765 225.824 214.397 226.964 215.161 228.01C216.568 229.924 217.948 231.906 220.39 232.643C220.913 232.8 220.746 233.025 220.49 233.281C217.19 236.592 215.056 240.603 213.623 244.99C213.576 245.131 213.623 245.361 213.367 245.387C212.489 241.507 212.321 237.543 211.689 233.632C210.732 227.66 209.074 221.876 207.505 216.066C206.59 212.672 205.314 209.383 204.509 205.953C204.187 204.624 204.335 203.226 204.927 201.994C205.958 199.744 206.598 197.336 206.82 194.871C206.961 193.25 206.71 191.671 206.684 190.071C206.681 187.095 205.93 184.167 204.498 181.557C202.11 177.253 199.263 173.22 196.006 169.53C194.405 167.726 192.837 165.838 190.891 164.452C188.224 162.564 185.5 160.739 182.645 159.108C178.383 156.665 174.011 154.459 169.571 152.362C164.624 150.024 159.389 148.753 154.066 147.802C151.577 147.357 149.03 147.221 146.515 146.923C141.045 146.275 135.533 146.677 130.032 146.039C126.65 145.609 123.297 144.977 119.991 144.146C115.034 142.954 110.155 141.563 104.946 141.756C100.519 141.906 96.1466 142.789 92.0086 144.371C89.7499 145.21 87.7 146.528 86 148.236V148.607C86.2228 148.767 86.4944 148.845 86.7683 148.827C87.0421 148.809 87.3011 148.696 87.5008 148.508Z" fill="#FDB90B"/>
<path d="M197.386 198.689C194.996 196.163 192.8 193.412 189.584 191.807C188.12 191.075 186.708 190.238 185.259 189.475C184.808 189.203 184.412 188.848 184.093 188.429C182.289 186.426 181.698 183.874 180.882 181.437C179.67 177.552 178.195 173.754 176.469 170.068C174.649 166.335 171.856 163.417 169.147 160.41C169.106 160.363 169.059 160.326 169.017 160.279C168.849 160.112 168.656 159.997 168.452 160.185C168.248 160.373 168.384 160.603 168.53 160.75C169.461 161.665 170.057 162.841 170.952 163.788C173.702 166.654 175.282 170.22 176.971 173.724C177.125 174.057 177.236 174.408 177.3 174.77C177.537 175.954 177.936 177.099 178.487 178.174C178.796 178.849 179.047 179.549 179.24 180.266C179.924 182.926 180.921 185.496 182.21 187.922C182.242 187.963 182.32 188.026 182.31 188.042C182.252 188.146 182.169 188.115 182.09 188.042C179.627 187.242 177.143 186.473 174.701 185.621C172.937 185.05 171.223 184.334 169.576 183.482C169.121 183.231 168.483 183.074 168.305 182.608C167.759 181.201 167.359 179.742 167.113 178.252C167.934 178.53 168.279 179.241 168.917 179.56C170.246 180.234 171.699 180.548 173.101 181.019C173.313 181.066 173.532 181.066 173.744 181.019C174.508 180.935 175.03 180.627 174.957 179.727C174.884 178.744 174.868 177.756 174.779 176.772C174.68 175.653 174.22 175.151 173.085 174.911C171.82 174.649 170.544 174.435 169.273 174.194C168.426 174.037 167.558 173.671 166.721 174.006C166.025 174.268 165.827 174.037 165.774 173.431C165.591 172.116 165.303 170.819 164.912 169.551C163.698 164.606 161.21 160.066 157.695 156.383L157.387 156.054C156.704 155.253 155.868 154.597 154.929 154.124C155.002 154.547 155.357 154.767 155.609 155.065C156.575 156.104 157.488 157.191 158.343 158.323C161.11 162.365 162.354 167.025 163.573 171.689C163.981 173.258 164.315 174.858 164.671 176.443C164.776 176.919 164.885 177.395 165.001 177.865C165.152 178.498 165.314 179.12 165.487 179.743C165.544 179.947 165.607 180.151 165.67 180.355C165.733 180.559 165.827 180.878 165.916 181.165C165.916 181.238 165.952 181.312 165.973 181.385L165.764 181.322C161.947 179.23 158.187 177.06 154.557 174.67C153.794 174.173 153.763 173.232 153.559 172.401C154.453 172.824 155.242 173.352 156.131 173.692C157.742 174.304 158.887 173.556 158.976 171.841C159.002 171.318 159.065 170.853 159.065 170.361C159.116 168.513 158.917 166.666 158.474 164.87C157.643 161.853 155.284 160.049 152.863 158.365C149.542 156.054 145.589 155.227 141.881 153.774C141.092 153.49 140.257 153.357 139.418 153.381C139.224 153.361 139.027 153.385 138.843 153.451C138.659 153.517 138.492 153.623 138.355 153.762C138.217 153.901 138.113 154.069 138.049 154.254C137.985 154.439 137.963 154.636 137.985 154.83C137.949 155.36 138.096 155.887 138.404 156.32C139.878 158.339 141.27 160.425 142.922 162.303C145.291 164.996 148.036 167.312 150.625 169.786C150.793 169.92 150.915 170.103 150.975 170.309C151.204 171.05 151.589 171.733 152.105 172.312C152.397 172.595 152.597 172.959 152.68 173.358C152.264 173.317 151.87 173.151 151.55 172.882C148.549 170.973 145.882 168.615 143.032 166.491C140.582 164.599 138.639 162.128 137.379 159.301C136.249 156.901 134.696 154.736 133.546 152.346C133.157 151.657 132.698 151.01 132.176 150.416C132.003 150.197 131.846 149.893 131.339 149.977C131.463 150.48 131.638 150.969 131.862 151.436C133.169 153.601 133.802 156.142 135.355 158.161C135.667 158.548 135.886 159 135.998 159.484C136.082 159.573 136.16 159.678 136.045 159.777C136.014 159.777 135.904 159.735 135.826 159.709C134.691 158.719 133.667 157.609 132.772 156.399L132.364 155.876C130.66 153.747 128.568 151.96 126.198 150.61C122.606 148.555 118.637 147.415 114.725 146.175C113.44 145.728 112.106 145.438 110.751 145.312C109.862 145.25 108.973 145.088 108.084 145.04C107.195 144.993 106.29 145.04 105.396 145.04L105.317 145.522C112.116 146.369 118.647 147.885 124.53 151.457C124.463 151.511 124.384 151.55 124.3 151.571C124.216 151.592 124.129 151.594 124.044 151.577C121.037 150.85 117.899 150.646 114.877 149.804C114.6 149.726 114.139 149.449 113.988 149.899C113.878 150.244 114.328 150.38 114.594 150.489C116.482 151.239 118.446 151.777 120.451 152.095C122.411 152.397 124.337 152.886 126.204 153.554C127.521 154.077 128.933 154.521 129.864 155.646C131.658 157.811 133.41 160.002 135.371 162.026C135.444 162.109 135.601 162.256 135.585 162.271C135.433 162.475 135.282 162.329 135.135 162.24C133.483 161.717 131.904 160.954 130.199 160.556C129.958 160.504 129.713 160.451 129.462 160.415C127.9 160.194 126.385 159.721 124.975 159.013C124.943 159.202 124.907 159.39 124.87 159.578C125.694 160.133 126.57 160.608 127.485 160.995C127.792 161.116 128.106 161.217 128.426 161.299C132.369 162.271 135.873 164.269 139.471 166.031C139.815 166.234 140.138 166.472 140.433 166.742C144.093 169.671 147.623 172.782 151.707 175.151C151.953 175.293 152.23 175.392 152.387 175.721C151.028 175.894 149.689 175.957 148.397 176.244C144.392 177.196 140.249 177.416 136.166 176.893L134.482 176.652C135.943 177.463 137.556 177.963 139.22 178.122C142.176 178.416 145.161 178.24 148.062 177.599C149.759 177.238 151.49 177.063 153.224 177.076C153.71 177.076 154.139 176.725 154.704 177.076C156.309 178.122 157.998 178.995 159.635 179.983C161.539 181.134 163.421 182.326 165.503 183.414C162.647 183.905 159.886 184.062 157.277 184.983C156.982 185.076 156.667 185.087 156.367 185.014C156.066 184.941 155.791 184.787 155.572 184.569C153.964 183.281 152.278 182.092 150.526 181.008C149.31 180.258 147.895 179.893 146.468 179.962C146.014 179.948 145.573 180.11 145.236 180.414C144.9 180.718 144.694 181.141 144.663 181.594C144.57 182.239 144.616 182.898 144.799 183.524C145.171 184.7 145.474 185.903 145.887 187.064C146.149 187.796 145.924 187.995 145.218 187.995C143.607 187.995 142.002 187.995 140.391 188.026C139.826 188.026 139.261 188.026 138.613 188.026C138.669 188.153 138.759 188.263 138.874 188.341C138.988 188.42 139.123 188.465 139.261 188.471C141.322 188.914 143.436 189.054 145.537 188.884C146.248 188.805 146.583 188.962 146.745 189.71C147.393 192.382 148.151 195.023 148.836 197.685C149.402 200.018 150.736 202.094 152.623 203.578C155.154 205.586 157.941 206.449 161.068 205.147C162.574 204.504 164.122 203.991 165.665 203.453C167.584 202.794 169.534 202.187 171.255 201.042C172.824 199.996 173.755 198.469 172.986 197.13C171.906 195.249 170.349 193.685 168.473 192.597L159.28 187.163C159.097 187.053 158.783 187.022 158.814 186.64C161.508 186.129 164.169 185.46 166.784 184.637C167.037 184.57 167.3 184.555 167.559 184.593C167.818 184.631 168.067 184.721 168.29 184.857C169.767 185.627 171.298 186.287 172.871 186.834C174.502 187.456 176.155 188.026 178.032 188.57C174.853 189.37 171.867 189.982 168.87 190.562C168.614 190.85 168.593 191.085 168.964 191.305L170.01 191.185C170.491 191.132 170.967 191.075 171.443 191.012C172.557 190.871 173.671 190.714 174.779 190.531C175.888 190.348 177.08 190.113 178.22 189.835C180.092 189.35 182.078 189.579 183.79 190.479C186.138 191.708 188.496 192.9 190.849 194.139C191.348 194.392 191.787 194.749 192.136 195.185C191.257 195.243 190.462 195.185 189.662 195.3C186.849 195.635 184.187 196.529 181.536 197.439C178.873 198.261 176.39 199.578 174.215 201.319C172.29 202.965 170.062 204.219 167.657 205.011C167.034 205.14 166.429 205.342 165.853 205.613C166.025 205.613 166.135 205.613 166.245 205.613L166.799 205.581C170.141 205.367 172.73 203.421 175.417 201.748C176.113 201.239 176.842 200.776 177.598 200.362C181.672 198.487 185.991 197.198 190.426 196.534C192.251 196.257 194.024 196.294 195.211 198.103C195.434 198.36 195.685 198.591 195.959 198.793C197.054 199.885 198.002 201.116 198.777 202.454C198.298 202.45 197.825 202.566 197.4 202.789C196.976 203.013 196.614 203.338 196.346 203.735C195.779 204.385 195.273 205.085 194.834 205.827C193.376 208.536 191.207 210.796 188.559 212.364C186.84 213.519 185.003 214.489 183.079 215.256C179.566 216.478 175.824 216.896 172.128 216.479C170.298 216.312 168.468 216.024 166.653 215.883C170.521 217.449 174.707 218.073 178.864 217.703C181.861 217.426 184.757 216.481 187.34 214.937C190.405 213.117 193.255 211.098 195.096 207.95C196.232 205.946 197.986 204.363 200.095 203.437C200.743 203.155 200.618 202.888 200.356 202.391C199.52 201.042 198.522 199.798 197.386 198.689Z" fill="#FDB90B"/>
<path d="M235.121 193.004C235.926 191.373 236.842 189.799 237.678 188.183C238.41 186.771 239.211 185.422 240.591 184.522C241.768 183.78 242.683 182.713 243.839 181.939C245.069 181.164 246.485 180.734 247.938 180.694C250.553 180.506 253.126 180.757 255.725 180.516C258.523 180.26 261.336 180.171 264.139 179.994C266.085 179.89 268.036 180.013 269.954 180.36C270.477 180.438 270.958 180.564 271.073 181.165C271.128 181.44 271.088 181.726 270.961 181.976C270.834 182.226 270.627 182.427 270.373 182.545C267.498 184.313 264.377 185.644 261.111 186.494C257.853 187.362 254.899 188.904 251.808 190.154C251.06 190.452 250.354 190.845 249.612 191.148C248.121 191.759 246.77 192.664 245.637 193.81C242.918 196.529 239.775 198.516 235.9 199.17C234.345 199.432 232.759 199.466 231.194 199.269C232.475 197.068 234.044 195.201 235.121 193.004Z" fill="#FDB90B"/>
<path d="M294.611 206.366C294.458 206.369 294.305 206.388 294.156 206.423C292.028 207.098 289.973 206.727 287.881 206.141C284.181 205.041 280.556 203.701 277.03 202.13C276.868 202.062 276.643 202.067 276.627 201.821C276.612 201.576 276.826 201.461 277.014 201.361C279.729 199.839 282.599 198.611 285.575 197.701C289.803 196.551 294.091 195.63 298.418 194.94C300.275 194.62 302.156 194.473 304.04 194.5H305.086C305.912 194.5 306.283 194.903 306.132 195.708C306.068 196.298 305.833 196.856 305.457 197.314C304.339 198.6 303.363 200.002 302.544 201.497C300.709 204.447 298.136 206.151 294.611 206.366Z" fill="#FDB90B"/>
<path d="M201.502 196.042C201.34 196.565 201.141 196.753 200.592 196.408C199.252 195.583 197.971 194.666 196.759 193.663C195.237 192.397 194.066 190.792 192.518 189.568C190.97 188.345 190.39 186.703 189.793 185.019C188.3 180.803 186.405 176.74 184.135 172.887C183.576 171.935 183.199 170.873 182.53 169.974C182.216 169.555 182.383 169.247 182.833 169.027C183.432 168.756 184.105 168.697 184.742 168.86C186.274 169.2 187.681 169.806 188.575 171.213C189.142 172.141 189.818 172.998 190.588 173.765C190.66 173.824 190.724 173.893 190.777 173.969C192.921 177.87 196.43 180.725 198.809 184.428C200.615 187.172 201.635 190.359 201.758 193.642C201.773 194.45 201.687 195.256 201.502 196.042Z" fill="#FDB90B"/>
<path d="M226.388 189.056L225.959 188.899C225.86 189.051 225.766 189.213 225.667 189.365C224.145 191.608 222.44 193.758 221.483 196.315C219.166 202.454 217.854 208.761 218.57 215.371C218.957 218.921 219.093 222.535 220.735 225.829C221.012 226.352 221.133 227.053 221.928 227.398C221.865 227.142 221.833 227.001 221.802 226.875C221.154 224.261 220.113 221.735 220.045 218.953C219.982 216.364 219.454 213.791 219.522 211.198C219.644 208.273 220.062 205.368 220.772 202.527C221.767 197.72 223.674 193.147 226.388 189.056Z" fill="#FDB90B"/>
<path d="M225.044 220.678C225.973 219.969 227.024 219.437 228.145 219.11C228.773 218.943 229.358 218.643 229.861 218.231C230.255 217.927 230.517 217.483 230.593 216.992C231.006 214.184 230.018 212.458 227.377 211.391C225.515 210.633 224.276 211.088 223.329 212.871C222.556 214.321 222.136 215.934 222.105 217.577C222.12 218.349 222.27 219.112 222.55 219.831C223.01 221.364 223.716 221.641 225.044 220.678Z" fill="#FDB90B"/>
<path d="M177.514 205.973C177.355 205.62 177.298 205.229 177.347 204.845C177.397 204.461 177.553 204.098 177.797 203.798C178.077 203.458 178.478 203.242 178.916 203.196C180.417 203.055 181.917 202.929 183.424 202.804C183.596 202.804 183.821 202.715 183.915 202.924C184.009 203.133 183.8 203.285 183.628 203.411C182.493 204.242 181.227 204.88 180.302 206.025C179.878 206.548 179.115 206.454 178.482 206.548C178.037 206.532 177.692 206.444 177.514 205.973Z" fill="#FDB90B"/>
<path d="M133.87 171.804C133.436 170.954 133.046 170.081 132.704 169.19C132.333 168.269 132.625 167.929 133.593 168.102C133.715 168.114 133.833 168.153 133.938 168.217C135.355 169.326 136.981 170.23 137.661 172.045C138.095 173.195 137.787 173.614 136.323 173.614C135.277 173.587 134.429 172.861 133.87 171.804Z" fill="#FDB90B"/>
</g>
</g>
</svg>
