<svg width="382" height="293" viewBox="0 0 382 293" fill="none" xmlns="http://www.w3.org/2000/svg">
<rect width="382" height="293" rx="9" fill="white"/>
<mask id="mask0_134_1773" style="mask-type:alpha" maskUnits="userSpaceOnUse" x="-2" y="0" width="384" height="293">
<rect x="-2" width="384" height="293" fill="#D9D9D9"/>
</mask>
<g mask="url(#mask0_134_1773)">
<g opacity="0.25">
<path d="M7.46523 138.988C7.60738 139.136 7.77599 139.255 7.96227 139.34C9.85664 139.968 11.2165 141.333 12.5716 142.74C14.7895 145.084 17.4248 146.96 19.6661 149.304C20.3507 150.011 21.0103 150.741 21.6449 151.494C25.4477 156 30.0477 159.672 34.385 163.615C35.7214 164.834 37.3391 165.655 38.9334 166.494C41.1795 167.681 43.4584 168.839 45.681 170.058C51.1015 173.083 56.8362 174.747 63.1055 174.278C67.7476 173.964 72.3851 174.18 77.0319 174.339C81.3271 174.489 85.6316 174.888 89.9268 174.292C93.4054 173.788 96.8434 173.036 100.215 172.042C99.1127 182.085 99.4174 192.162 98.3765 202.15C98.2686 202.15 98.1702 202.15 98.1561 202.126C96.2101 198.46 93.256 195.735 90.1847 192.992C84.6282 188.008 78.4246 184.125 71.3441 182.025C65.3656 180.247 59.4433 177.978 53.085 177.697C51.0566 177.544 49.0206 177.521 46.9892 177.626C44.8135 177.809 42.6565 177.345 40.4902 177.401C35.4073 177.537 30.329 177.776 25.2508 177.978C23.0141 178.072 20.7727 178.119 18.5454 178.283C16.7261 178.409 16.2009 179.342 17.0168 180.984C20.4445 187.872 23.483 194.948 26.9248 201.826C29.5904 207.278 32.8757 212.404 36.7155 217.103C37.6516 218.27 38.7581 219.29 39.9978 220.128C41.3112 221.034 42.5344 222.064 43.6506 223.204C45.4023 224.92 47.4376 226.321 49.6667 227.344C51.9033 228.343 53.8868 229.787 56.0766 230.884C58.0054 231.892 60.0534 232.653 62.1723 233.149C63.762 233.505 65.2977 234.07 66.7395 234.828C70.275 236.675 73.8903 238.19 77.9463 238.579C81.1911 238.907 84.2859 240.084 87.3244 241.158C90.1799 242.124 93.1279 242.792 96.121 243.151C97.795 243.376 99.1595 244.239 100.623 244.923C100.951 245.078 100.974 245.392 101.021 245.697C101.188 246.625 101.235 247.571 101.162 248.511C100.693 253.847 100.857 259.22 100.407 264.561C100.243 266.493 99.8629 268.383 99.5253 270.286C98.7314 274.901 98.2614 279.566 98.1186 284.246C98.0014 287.491 97.2699 290.632 96.9885 293.844C96.6931 297.253 95.7787 300.596 95.8116 304.043C95.8444 307.489 95.2583 310.865 95.2067 314.288C95.1517 315.95 94.8934 317.599 94.4377 319.198C94.0827 320.653 93.9968 322.161 94.1845 323.648C94.4752 326.26 94.3486 328.853 94.3861 331.455C94.394 331.897 94.4395 332.338 94.5221 332.773C94.5477 332.995 94.655 333.199 94.8231 333.347C94.9913 333.494 95.2082 333.574 95.4318 333.57C96.0366 333.607 96.1398 333.138 96.2617 332.721C96.3018 332.522 96.3113 332.318 96.2898 332.116C96.2371 331.712 96.2167 331.304 96.2289 330.897C96.6556 327.348 95.8397 323.756 96.4212 320.248C96.8525 317.636 97.2511 315.029 97.4527 312.394C97.7106 308.98 97.9967 305.572 98.0764 302.144C98.1467 298.988 98.8829 295.889 99.3284 292.766C100.168 286.839 100.266 280.86 100.89 274.947C101.09 272.887 101.403 270.84 101.828 268.814C102.011 267.951 102.119 267.074 102.151 266.193C102.353 261.921 102.662 257.664 102.479 253.378C102.381 251.033 102.798 248.689 102.409 246.372C102.39 246.276 102.399 246.176 102.434 246.084C102.468 245.992 102.528 245.912 102.606 245.852C103.577 244.942 103.408 243.976 102.236 243.32C100.093 242.143 97.9357 241.022 95.4318 240.82C92.6652 240.595 90.1144 239.559 87.4885 238.762C83.7373 237.618 80.0142 236.347 76.0613 235.906C73.5198 235.62 71.2128 234.406 68.9527 233.224C66.8971 232.102 64.698 231.266 62.4162 230.739C59.795 230.176 57.4458 228.957 55.1482 227.63C53.4413 226.65 51.7533 225.647 49.9621 224.817C49.549 224.657 49.1569 224.448 48.7945 224.193C44.3915 220.568 39.6227 217.389 36.181 212.653C31.3184 205.962 27.7641 198.586 24.3177 191.135C22.7187 187.755 21.0213 184.472 19.3942 181.091C19.2347 180.768 18.6814 180.266 19.638 180.243C26.7513 180.05 33.8646 179.342 40.9732 179.553C44.9026 179.675 48.8367 179.403 52.7614 179.769C56.2595 180.093 59.6918 180.613 63.0023 181.832C65.2015 182.639 67.5647 182.883 69.7827 183.605C76.2535 185.71 82.293 188.636 87.3713 193.297C88.0058 193.91 88.6793 194.482 89.3876 195.008C93.6546 197.995 96.1914 202.262 98.3858 206.848C100.88 212.063 101.823 217.633 102.517 223.26C102.812 225.661 103.056 228.071 103.342 230.472C103.408 230.802 103.5 231.127 103.619 231.442C103.661 231.627 103.775 231.787 103.934 231.889C104.094 231.991 104.287 232.026 104.472 231.986C104.575 231.987 104.677 231.967 104.772 231.927C104.867 231.888 104.952 231.829 105.024 231.756C105.096 231.682 105.152 231.595 105.19 231.499C105.227 231.404 105.244 231.301 105.241 231.199C105.332 230.253 105.361 229.302 105.33 228.352C104.894 223.396 104.725 218.393 103.248 213.582C102.24 210.299 101.251 207.041 100.233 203.777C100.081 203.292 100.03 202.782 100.083 202.277C100.89 194.164 100.918 186.024 101.091 177.893C101.134 175.929 101.377 173.969 101.495 172.004C101.571 171.571 101.793 171.178 102.123 170.888C102.517 170.382 102.7 169.786 102.217 169.331C101.734 168.876 101.19 169.153 100.777 169.566C100.343 169.949 99.8131 170.208 99.2439 170.316C94.583 171.559 89.8659 172.548 85.0221 172.374C82.007 172.267 78.9779 172.253 75.9769 171.967C71.0628 171.498 66.1299 171.793 61.2392 171.854C56.7237 171.91 52.5317 170.644 48.5366 168.675C45.4934 167.179 42.5487 165.486 39.5196 163.986C36.1247 162.279 33.5363 159.564 30.6807 157.173C27.5832 154.527 24.6955 151.646 22.0435 148.554C20.4726 146.758 18.6111 145.272 16.8058 143.729C15.2115 142.365 13.7673 140.85 12.1543 139.204C14.058 139.129 15.7742 139.073 17.4857 138.988C22.7656 138.731 28.0408 138.407 33.3066 137.891C40.4621 137.193 47.6551 137.239 54.8434 137.235C60.414 137.235 65.8814 138.032 71.2832 139.11C75.7987 140.02 80.1924 141.61 83.8217 144.648C83.9996 144.808 84.1965 144.945 84.4078 145.056C89.4204 147.476 92.8762 151.761 96.8385 155.438C98.9861 157.421 100.032 160.127 101.218 162.706C101.605 163.491 101.905 164.317 102.114 165.167C102.203 165.608 102.409 166.105 103.051 166.03C103.694 165.955 103.816 165.496 103.877 164.947C104.529 159.015 104.997 153.056 105.321 147.1C105.476 144.151 105.293 141.202 105.377 138.252C105.471 134.839 105.335 131.43 105.274 128.016C105.18 123.008 104.116 118.169 103.398 113.222C102.462 106.098 102.122 98.9082 102.381 91.7275C102.484 87.4558 102.264 83.17 102.615 78.9077C103.009 74.092 104.2 69.4311 105.537 64.789C107.093 59.3966 109.475 54.4027 112.242 49.5542C113.799 46.8252 114.901 43.8524 116.786 41.2781C119.937 36.9829 122.816 32.4955 125.957 28.191C128.719 24.4022 131.392 20.5478 134.07 16.7028C134.899 15.5071 136.137 14.7709 137.225 13.5986C137.253 15.7415 137.225 17.7156 137.3 19.6944C137.566 26.0686 137.41 32.4535 136.831 38.807C135.983 47.2801 135.045 55.7672 132.747 63.9825C131.003 70.2048 129.465 76.535 126.731 82.4245C125.324 85.4302 123.758 88.3514 122.511 91.4275C121.817 93.1249 121.104 94.8129 120.532 96.5479C120.21 97.5859 119.786 98.5896 119.266 99.5442C116.339 104.548 113.895 109.819 111.965 115.285C111.028 117.972 109.246 120.199 107.956 122.699C107.376 123.727 107.014 124.863 106.892 126.037C106.731 129.014 106.762 131.998 106.986 134.97C107.065 136.269 107.061 137.516 106.451 138.721C106.239 139.186 106.081 139.674 105.982 140.175C105.87 140.644 105.795 141.178 106.409 141.352C107.023 141.525 107.192 141.033 107.347 140.62C107.696 139.559 108.168 138.543 108.753 137.591C108.954 137.237 109.198 136.909 109.48 136.616C113.621 132.865 117.142 128.522 121.179 124.673C123.491 122.469 125.746 120.195 128.236 118.211C130.983 116.071 133.925 114.195 137.024 112.608C140.484 110.789 143.917 108.857 147.597 107.553C151.52 106.082 155.559 104.943 159.672 104.149C164.923 103.211 170.133 103.76 175.366 104.318C178.93 104.693 182.292 105.813 185.729 106.662C188.754 107.479 191.707 108.544 194.558 109.846C191.276 112.659 189.049 116.214 186.863 119.749C185.344 122.206 183.703 124.56 182.057 126.928C180.149 129.657 177.795 131.903 175.366 134.14C172.265 137.006 168.588 139.178 164.581 140.512C159.508 142.224 154.359 143.724 149.229 145.272C147.849 145.62 146.433 145.806 145.009 145.825C141.755 146.017 138.599 146.946 135.336 147.11C130.876 147.34 126.459 146.871 122.047 146.374C119.791 146.12 117.569 145.638 115.295 145.483C113.283 145.342 111.445 144.498 109.588 143.795C108.842 143.509 108.331 143.72 108.181 144.522C108.13 144.824 108.101 145.129 108.092 145.436L107.623 157.627C107.621 157.66 107.621 157.693 107.623 157.726C108.228 159.906 107.487 161.712 106.127 163.39C105.58 164.177 105.256 165.097 105.19 166.054C104.557 169.808 104.557 173.642 105.19 177.396C105.705 180.102 105.659 182.864 105.799 185.607C105.968 189.504 104.993 193.184 103.609 196.786C103.402 197.4 103.232 198.026 103.103 198.661C103.014 199.046 103.033 199.487 103.45 199.599C103.867 199.712 104.172 199.346 104.318 198.957C105.49 195.829 107.07 192.861 107.684 189.513C108.069 187.436 108.35 185.443 107.59 183.417C107.497 183.162 107.459 182.891 107.478 182.62C107.698 179.338 107.009 176.055 107.136 172.773C107.276 168.844 107.422 164.802 110.62 161.862C111.83 160.678 113.163 159.626 114.596 158.725C117.264 157.159 119.623 155.161 122.192 153.468C123.446 152.693 124.755 152.01 126.108 151.424C126.412 153.173 126.107 154.856 126.065 156.521C125.943 160.417 125.906 164.314 125.821 168.211C125.709 173.401 124.349 178.165 122.159 182.77C121.265 184.643 119.987 186.308 118.408 187.656C116.889 188.964 115.642 190.521 114.235 191.932C112.359 193.808 110.39 195.627 108.556 197.559C107.206 198.966 105.499 199.904 104.003 201.109C103.462 201.572 103.012 202.131 102.676 202.759C102.479 203.092 102.428 203.397 102.747 203.669C102.809 203.729 102.885 203.773 102.968 203.799C103.05 203.825 103.138 203.831 103.223 203.818C103.309 203.805 103.39 203.773 103.461 203.723C103.532 203.674 103.591 203.609 103.633 203.533C105.129 201.432 107.665 200.621 109.424 198.797C112.139 195.984 115.004 193.297 117.728 190.484C119.211 189.041 120.823 187.738 122.544 186.592C125.742 184.322 129.338 182.794 132.832 181.063C138.679 178.17 144.803 175.948 150.861 173.561C153.792 172.403 156.713 171.216 159.639 170.035C159.804 169.987 159.961 169.918 160.108 169.828C160.338 169.664 160.745 169.552 160.577 169.162C160.408 168.773 160.108 169.064 159.859 169.102C156.075 169.664 152.558 171.118 148.981 172.356C143.087 174.395 137.155 176.365 131.631 179.277C129.237 180.478 126.932 181.85 124.734 183.38C124.466 183.572 124.166 183.717 123.636 184.022C124.077 183.126 124.373 182.447 124.734 181.809C126.478 178.766 127.397 175.441 128.128 172.046C128.27 171.521 128.304 170.972 128.227 170.433C127.993 169.364 128.565 169.064 129.413 168.736C133.019 167.329 136.78 167.226 140.578 167.02C145.412 166.757 150.242 166.391 155.086 166.251C157.473 166.185 159.822 166.499 162.19 166.649C163.399 166.729 164.614 166.757 165.842 166.809C165.594 167.818 165.143 168.766 164.517 169.596C163.892 170.426 163.105 171.121 162.204 171.638C158.11 174.18 154.359 177.218 150.256 179.741C148.678 180.792 147.159 181.93 145.708 183.15C140.493 187.201 135.392 191.403 129.137 193.893C126.018 195.13 122.783 195.81 119.548 196.556C116.678 197.222 113.733 197.723 111.107 199.088C109.293 200.026 107.384 200.828 105.729 202.066C105.312 202.384 105.124 202.694 105.433 203.172C105.579 203.443 105.621 203.759 105.551 204.058C105.147 207.838 105.827 211.561 106.226 215.312C106.573 218.571 107.229 221.853 107.061 225.107C106.742 231.091 107.112 237.079 106.648 243.062C106.428 245.927 106.156 248.801 106.09 251.685C106.062 252.9 105.476 254.03 105.026 255.169C104.116 257.462 103.938 259.919 103.389 262.287C102.576 266.092 102.016 269.947 101.715 273.827C101.682 274.198 101.682 274.571 101.715 274.943C101.757 275.487 101.907 275.979 102.573 275.988C103.239 275.998 103.511 275.571 103.549 274.943C103.72 272.471 104.024 270.011 104.458 267.572C104.983 264.463 105.307 261.279 106.24 258.287C107.942 252.82 110.141 247.502 113.405 242.748C114.125 241.756 114.993 240.882 115.979 240.155C118.172 238.389 120.247 236.483 122.192 234.448C124.48 232.104 127.406 230.57 130.131 228.798C139.434 222.744 149.792 219.054 160.248 215.706C167.441 213.399 174.892 212.621 182.442 214.243C184.213 214.553 186.004 214.737 187.801 214.792C188.697 214.848 188.992 215.068 188.833 216.053C188.101 220.55 186.488 224.746 184.613 228.863C184.097 230.008 183.553 231.133 183.112 232.31C181.148 237.515 178.766 242.541 176.407 247.573C176.034 248.372 175.576 249.13 175.042 249.833C171.291 254.789 167.54 259.713 162.715 263.717C160.089 265.893 157.557 268.087 154.411 269.508C153.591 269.923 152.807 270.404 152.066 270.948C144.882 275.768 136.827 277.634 128.316 277.981C121.906 278.258 115.506 278.009 109.091 277.817C107.803 277.74 106.511 277.829 105.246 278.084C104.412 278.264 103.635 278.644 102.981 279.191C102.791 279.335 102.655 279.539 102.597 279.77C102.538 280.001 102.559 280.245 102.658 280.462C102.685 280.57 102.736 280.671 102.806 280.758C102.877 280.845 102.965 280.916 103.065 280.967C103.165 281.017 103.274 281.045 103.386 281.049C103.498 281.054 103.609 281.034 103.713 280.992C104.533 280.729 104.421 281.16 104.388 281.686C104.13 285.474 103.633 289.244 103.633 293.052C103.607 294.377 103.45 295.696 103.164 296.991C102.667 299.41 103.009 301.867 102.873 304.301C102.653 308.291 102.873 312.31 102.156 316.277C101.89 317.853 101.854 319.459 102.048 321.045C102.4 324.089 101.654 327.061 101.579 330.072C101.528 332.008 101.579 333.945 101.373 335.872C101.344 336.14 101.36 336.411 101.42 336.674C101.542 337.195 101.748 337.645 102.423 337.612C102.68 337.615 102.929 337.519 103.118 337.345C103.307 337.171 103.423 336.931 103.441 336.674C103.663 335.3 103.786 333.911 103.806 332.52C103.778 332.012 103.788 331.502 103.835 330.996C104.772 325.181 104.219 319.273 104.772 313.44C105.155 309.283 105.257 305.105 105.077 300.934C105.002 298.819 105.513 296.751 105.607 294.651C105.795 290.431 105.982 286.257 106.076 282.056C106.104 280.945 106.484 280.649 107.562 280.687C110.882 280.827 114.207 280.898 117.527 280.949C124.607 281.057 131.706 281.118 138.66 279.543C143.818 278.37 148.802 276.546 153.196 273.447C154.634 272.421 156.161 271.527 157.759 270.774C160.947 269.302 163.142 266.554 165.8 264.439C170.344 260.791 173.486 255.966 176.984 251.437C178.47 249.519 179.384 247.259 180.332 245.05C182.854 239.161 185.354 233.257 187.768 227.325C189.363 223.609 190.44 219.691 190.971 215.683C191.177 213.873 190.69 212.958 188.884 212.832C185.293 212.578 181.743 212.011 178.189 211.486C174.095 210.876 170.086 211.369 166.053 212.039C161.605 212.799 157.246 214.015 153.046 215.668C148.24 217.544 143.359 219.209 138.679 221.389C132.728 224.16 127.238 227.724 121.915 231.55C121.242 232.064 120.625 232.649 120.077 233.295C118.67 234.953 117.09 236.458 115.365 237.782C112.322 240 110.446 243.067 108.875 246.372C108.772 246.588 108.683 246.808 108.58 247.019C108.48 247.174 108.372 247.323 108.256 247.465C108.256 245.2 108.28 243.207 108.317 241.219C108.369 238.471 108.317 235.719 108.547 232.985C108.732 230.392 108.774 227.79 108.674 225.192C108.556 221.051 107.914 216.963 107.464 212.855C107.072 209.865 106.955 206.845 107.117 203.833C107.1 203.536 107.184 203.241 107.354 202.997C107.523 202.752 107.77 202.571 108.055 202.483C112.11 200.875 116.326 199.706 120.631 198.994C126.54 198.026 132.187 195.852 137.221 192.608C140.737 190.359 144.058 187.818 147.147 185.011C149.239 183.089 151.658 181.663 153.932 180.018C156.985 177.818 160.028 175.582 163.118 173.453C165.52 171.923 167.253 169.541 167.971 166.785C168.257 165.636 168.173 165.439 167.085 164.999C166.558 164.763 165.983 164.655 165.406 164.684C161.979 164.999 158.56 164.337 155.147 164.567C151.954 164.783 148.774 164.3 145.595 164.469C141.066 164.713 136.55 165.158 132.147 166.344C130.853 166.687 129.62 167.282 128.344 167.751C128.494 164.131 128.344 160.553 128.274 156.966C128.227 154.973 127.978 152.981 127.805 150.992C127.725 150.158 127.195 149.755 126.609 150.13C124.687 151.353 122.441 151.846 120.476 153.018C116.898 155.156 112.777 156.3 109.565 159.114L109.311 159.001C109.438 154.65 109.569 150.294 109.696 146.069C115.712 147.945 121.887 148.526 128.086 149.253C133.46 149.886 138.674 148.906 143.959 148.338C148.34 147.875 152.648 146.872 156.783 145.351C161.046 143.795 165.552 142.965 169.622 140.831C174.831 138.098 178.977 134.173 182.615 129.629C185.898 125.536 188.242 120.828 191.206 116.542C192.772 114.291 194.319 112.036 196.635 110.446C197.245 110.029 197.015 109.401 196.495 108.983C195.345 108.025 194.049 107.258 192.654 106.714C187.3 104.716 181.724 103.558 176.13 102.47C171.113 101.434 165.955 101.687 160.797 101.804C157.154 101.889 153.867 102.841 150.589 104.149C144.32 106.657 138.004 109.072 132.269 112.702C127.359 115.81 122.675 119.266 118.671 123.486C115.543 126.769 112.65 130.295 109.658 133.709C109.372 134.037 109.096 134.37 108.683 134.857C108.5 131.659 108.153 128.64 108.838 125.704C109.264 123.866 110.319 122.183 111.454 120.678C113.095 118.488 114.01 115.989 115.065 113.532C116.721 109.486 118.617 105.544 120.743 101.725C121.366 100.752 121.883 99.7164 122.286 98.6345C123.374 95.235 124.907 92.0136 126.206 88.6937C126.47 87.9235 126.817 87.1844 127.242 86.4899C129.216 83.5733 130.328 80.3191 131.233 76.9617C132.03 74.0076 133.479 71.2974 134.515 68.4277C135.54 65.4868 136.404 62.4923 137.103 59.4575C138.205 55.0311 138.041 50.4967 138.468 46.014C138.937 40.7482 139.279 35.4496 139.232 30.1557C139.176 24.0271 139.232 17.8844 138.412 11.784C138.337 11.2166 138.435 10.6258 138.144 10.0303C136.253 11.4031 134.582 13.0553 133.188 14.9303C130.553 18.369 127.974 21.8545 125.451 25.3869C122.755 29.1663 119.89 32.8284 117.644 36.9173C117.063 37.8349 116.394 38.6939 115.646 39.4822C114.718 40.522 113.929 41.6791 113.302 42.9239C111.093 47.7724 108.05 52.1942 105.884 57.0708C103.966 61.3894 102.662 65.905 101.471 70.4721C99.5956 77.5713 99.9379 84.8018 99.9707 92.0417C99.9707 95.4319 100.004 98.8221 100.177 102.212C100.167 102.38 100.14 102.547 100.097 102.709C98.9439 100.271 98.3108 97.7952 97.2839 95.4882C95.5865 91.6197 93.9406 87.6293 90.8552 84.6283C86.335 80.2394 81.6225 76.0427 76.2582 72.6666C75.2548 72.0382 74.3217 71.3021 73.3745 70.5846C71.6886 69.2742 69.8417 68.1853 67.8789 67.3445C65.7044 66.3882 63.6569 65.166 61.7831 63.7058C61.4347 63.427 61.0156 63.2505 60.5727 63.1958C60.1297 63.1412 59.6803 63.2106 59.2745 63.3963C59.0098 63.4781 58.7858 63.6569 58.6475 63.897C58.5093 64.137 58.4669 64.4205 58.529 64.6905C58.6407 65.2898 58.7831 65.8829 58.9557 66.4676C61.1173 74.2374 63.0961 82.0634 65.5203 89.7535C67.2753 95.458 69.7892 100.901 72.9947 105.935C74.7906 108.721 76.8491 111.093 79.6437 112.931C82.0492 114.502 84.239 116.392 86.6773 117.967C89.4204 119.754 92.4167 120.842 95.4552 121.93C98.1983 122.914 100.683 124.466 103.136 126.033C103.35 126.162 103.525 126.347 103.643 126.567C103.762 126.787 103.82 127.035 103.811 127.285C104.168 131.872 104.279 136.476 104.144 141.075C103.9 147.251 103.356 153.398 102.737 159.541C102.695 160.009 102.597 160.455 102.479 161.163C101.921 160.099 101.443 159.287 101.073 158.448C99.9989 156.103 98.3202 154.19 96.4399 152.446C94.8972 151.016 93.3498 149.59 91.9243 148.043C90.7894 146.823 89.4639 145.795 87.9996 145C86.6308 144.249 85.3176 143.402 84.0702 142.463C79.9673 139.354 75.161 137.854 70.2656 136.756C67.757 136.198 65.1733 135.987 62.6272 135.589C58.4821 134.932 54.3041 135.12 50.1356 135.04C44.1339 134.948 38.1318 135.193 32.1578 135.776C24.388 136.555 16.5948 136.738 8.80161 137.019C8.42945 136.998 8.05745 137.062 7.71375 137.207C6.86503 137.615 6.76187 138.351 7.46523 138.988ZM103.239 123.697C102.803 123.426 102.498 123.229 102.175 123.041C99.6707 121.709 97.3355 120.059 94.5408 119.29C92.8756 118.813 91.2755 118.133 89.7768 117.264C85.7207 114.966 82.1899 111.914 78.3824 109.26C77.7443 108.806 77.1905 108.244 76.7459 107.6C74.9843 105.236 73.4012 102.744 72.01 100.144C68.7698 93.7157 66.5472 86.94 64.6153 80.019C63.3493 75.4472 62.2708 70.8191 60.6531 66.3457C60.564 66.0972 60.3202 65.8159 60.6109 65.4736C62.4362 66.8278 64.4632 67.8865 66.6176 68.6105C68.7435 69.3198 70.7219 70.4116 72.4554 71.8319C73.2959 72.5154 74.1708 73.1555 75.0766 73.7497C80.5697 77.1941 85.3956 81.6022 89.3219 86.7618C90.7286 88.6375 91.9056 90.7241 93.4764 92.4966C94.6881 93.9131 95.6062 95.5564 96.1773 97.331C97.3027 100.613 98.3483 103.896 99.8113 107.056C100.505 108.561 101.288 110.071 101.256 111.815C101.256 112.148 101.345 112.486 101.359 112.819C101.438 114.451 101.945 116.021 102.086 117.653C100.21 114.305 97.8654 111.253 95.7365 108.102C93.0872 104.21 90.166 100.505 87.3713 96.7167C86.5648 95.6288 85.8942 94.4472 84.9893 93.4344C83.4262 91.6557 81.8976 89.8441 80.4034 87.9997C77.9604 84.9659 75.5596 81.904 73.1447 78.842C72.5211 77.8292 71.5035 77.2384 70.5892 76.521C71.133 77.5338 71.8288 78.4573 72.6524 79.2594C73.5902 81.4492 75.236 83.1513 76.5161 85.1019C79.4984 89.6315 83.123 93.6876 86.1427 98.2031C89.7533 103.605 93.8656 108.65 97.3965 114.104C99.0704 116.673 100.754 119.229 102.404 121.812C102.828 122.361 103.11 123.005 103.225 123.688L103.239 123.697Z" fill="#FDB90B"/>
<path d="M107.44 106.394C108.073 103.309 108.786 100.238 109.358 97.1383C110.376 91.6005 111.67 86.1237 112.983 80.6516C115.44 70.4013 119.224 60.5918 122.647 50.6417C123.688 47.6219 125.545 44.9585 126.619 41.9529C128.663 36.2088 130.647 30.4459 132.635 24.6831C133.24 22.9247 133.774 21.1429 134.332 19.3657C134.426 19.0609 134.473 18.7093 134.876 18.7796C135.279 18.8499 135.153 19.2485 135.125 19.5345C135.082 19.9706 134.979 20.402 134.899 20.8334C134.084 25.213 132.499 29.3768 131.228 33.6251C130.065 37.5217 129.226 41.5449 127.519 45.2446C125.643 49.324 124.279 53.577 122.792 57.7972C118.324 70.4904 114.896 83.4697 111.923 96.5662C110.887 101.133 109.607 105.63 108.617 110.202C108.073 112.711 106.967 115.074 106.474 117.606C106.428 117.854 106.376 118.075 106.057 118.075C105.738 118.075 105.63 117.765 105.659 117.489C105.72 116.884 105.79 116.274 105.902 115.679C106.343 113.423 107 111.205 107.187 108.898C107.227 108.06 107.312 107.224 107.44 106.394Z" fill="#FDB90B"/>
<path d="M110.258 270.788C117.808 266.911 124.963 262.348 131.992 257.659C140.432 251.995 148.404 245.669 156.764 239.841C162.391 235.902 167.634 231.4 173.007 227.096C176.149 224.573 179.445 222.238 182.385 219.476C182.854 218.674 183.665 218.201 184.261 217.507C184.359 217.39 184.505 217.225 184.669 217.427C184.833 217.629 184.706 217.741 184.608 217.896C184.082 218.722 183.451 219.477 182.732 220.142C182.521 220.4 182.315 220.667 182.095 220.92C180.435 222.862 178.442 224.447 176.543 226.139C171.83 230.331 167.08 234.486 162.147 238.415C156.258 243.104 150.05 247.376 144.034 251.906C138.646 255.966 133.249 260.022 127.453 263.488C122.295 266.564 117.283 269.869 111.782 272.312C110.235 273.002 108.688 273.719 107 273.991C106.606 274.052 106.118 274.094 105.954 273.607C105.79 273.119 106.221 272.88 106.573 272.692C107.811 272.031 109.035 271.417 110.258 270.788Z" fill="#FDB90B"/>
<path d="M98.2642 237.459C97.1482 236.385 96.14 235.189 94.9818 234.144C92.009 231.433 88.9424 228.826 85.9507 226.139C80.9569 221.657 75.4895 217.727 70.1674 213.643C64.5499 209.324 58.5761 205.573 52.4803 201.888C46.966 198.54 41.6955 194.756 36.0358 191.6C32.188 189.53 28.4648 187.236 24.8853 184.73C24.309 184.392 23.8668 183.865 23.6333 183.239C23.8267 183.269 24.0167 183.318 24.2007 183.385C29.2273 186.198 34.4884 188.585 39.4541 191.473C49.2355 197.161 59.1903 202.596 68.3856 209.235C76.1084 214.811 83.8078 220.419 90.3631 227.424C93.275 230.514 96.5574 233.239 99.0519 236.68C99.3286 237.06 100.093 237.463 99.4786 238.017C98.9394 238.5 98.583 237.778 98.2642 237.459Z" fill="#FDB90B"/>
<path d="M120.556 136.644C123.369 135.955 126.295 135.636 129.066 134.698C130.261 134.32 131.491 134.067 132.738 133.943C138.303 133.338 143.739 131.867 148.849 129.582C155.813 126.351 162.729 122.994 169.289 118.915C173.765 116.102 178.558 113.828 183.567 112.139C184.303 111.882 185.013 111.556 185.687 111.164C186.911 110.491 188.247 110.046 189.63 109.851C189.836 109.888 190.127 109.851 190.207 110.127C190.287 110.404 189.968 110.465 189.794 110.596C188.889 111.318 187.708 111.314 186.695 111.759C178.878 115.205 171.596 119.618 164.333 124.082C159.409 127.111 154.486 130.178 148.995 132.142C143.679 134.128 138.182 135.593 132.583 136.517C125.414 137.61 118.221 138.726 111.454 141.549C111.196 141.63 110.933 141.694 110.667 141.741C110.338 141.825 109.996 141.788 109.893 141.464C109.79 141.141 110.146 140.995 110.362 140.906C113.696 139.345 116.94 137.539 120.556 136.644Z" fill="#FDB90B"/>
<path d="M99.0613 166.719C99.3754 166.25 99.1316 165.894 98.7565 165.589C97.6724 164.721 96.5054 163.963 95.2725 163.324C88.239 159.643 80.924 156.652 73.6513 153.533C70.8989 152.352 67.9401 151.916 65.0798 151.109C62.8384 150.476 60.5267 150.101 58.2666 149.543C56.8599 149.191 55.3734 149.215 53.9386 148.938C50.4499 148.272 46.9331 147.757 43.5101 146.748C41.9768 146.303 40.345 146.425 38.7836 146.068C35.7169 145.365 32.6269 144.774 29.6118 143.836C29.2273 143.719 28.8194 143.663 28.4255 143.579C28.3195 143.542 28.2115 143.513 28.1019 143.49L21.3638 141.581C23.4316 142.631 25.3166 144.094 27.708 144.362C31.4593 145.768 35.1214 147.475 39.004 148.544C40.6123 148.99 42.2863 148.962 43.9181 149.304C48.293 150.214 52.7523 150.598 57.16 151.273C59.814 151.681 62.3742 152.68 64.9907 153.351C68.6153 154.288 72.2212 155.278 75.6676 156.788C78.7014 158.115 81.7165 159.479 84.7362 160.844C88.7501 162.654 92.6138 164.825 96.8199 166.217C97.2279 166.353 97.5655 166.686 97.9687 166.85C98.372 167.014 98.7565 167.183 99.0613 166.719Z" fill="#FDB90B"/>
<path d="M107.581 195.491C107.722 195.306 107.851 195.112 107.966 194.91C109.152 192.636 110.268 190.324 111.525 188.092C112.778 185.845 113.886 183.521 114.845 181.134C116.566 176.885 117.766 172.473 119.018 168.07C119.811 165.311 120.788 162.609 121.944 159.981C122.215 159.104 122.662 158.29 123.257 157.59C123.224 158.634 122.99 159.663 122.568 160.619C122.545 160.705 122.514 160.788 122.474 160.867C121.902 163.17 121.264 165.453 120.762 167.77C119.407 174.006 117.817 180.158 114.985 185.93C114.151 187.628 112.885 189.021 112.031 190.657C110.99 192.65 109.466 194.202 108.064 195.881L106.747 197.892C106.625 198.07 106.456 198.216 106.245 198.099C106.034 197.981 106.09 197.733 106.212 197.573C106.704 196.907 106.953 196.082 107.563 195.491H107.581Z" fill="#FDB90B"/>
</g>
</g>
</svg>
