<svg width="382" height="293" viewBox="0 0 382 293" fill="none" xmlns="http://www.w3.org/2000/svg">
<rect width="382" height="293" rx="9" fill="white"/>
<mask id="mask0_134_1762" style="mask-type:alpha" maskUnits="userSpaceOnUse" x="-2" y="0" width="384" height="293">
<rect x="-2" width="384" height="293" fill="#D9D9D9"/>
</mask>
<g mask="url(#mask0_134_1762)">
<g opacity="0.25">
<mask id="path-3-inside-1_134_1762" fill="white">
<path d="M402.876 227.795C402.523 230.796 401.073 233.491 400.372 236.394C400.359 236.457 400.331 236.517 400.291 236.568C397.988 239.518 397.376 243.258 395.641 246.476C394.893 247.865 394.617 249.417 394.217 250.926C394.132 251.257 394.043 251.589 393.924 252.035C393.736 251.687 393.67 251.286 393.737 250.896C393.911 244.567 392.692 238.4 391.561 232.228C391.051 229.44 389.704 226.949 388.195 224.577C387.536 223.54 386.495 222.962 385.423 222.452C384.152 221.856 382.989 221.05 381.985 220.068C381.589 219.651 381.147 219.28 380.667 218.963C377.458 216.961 374.691 214.253 371.401 212.37C366.547 209.586 361.409 207.878 355.675 209.187C354.778 209.391 353.851 209.463 352.938 209.612C352.359 209.701 351.854 209.952 351.845 210.602C351.837 211.252 352.377 211.452 352.899 211.507C355.144 211.729 356.725 213.084 358.272 214.534C359.568 215.804 360.93 217.006 362.352 218.134C363.098 218.687 363.715 219.397 364.159 220.212C366.594 224.718 369.259 229.113 371.172 233.886C372.825 238.026 374.483 242.166 376.183 246.289C377.284 248.937 378.355 251.597 379.469 254.237C380.062 255.72 380.301 257.321 380.166 258.912C379.902 263.124 378.92 267.209 377.921 271.298C377.069 274.633 375.918 277.885 374.483 281.014C372.855 284.661 370.815 288.066 367.499 290.54C364.401 292.856 361.88 295.814 359.024 298.403C358.34 299.023 357.728 299.729 356.899 300.167L356.691 300.239C356.691 300.162 356.691 300.082 356.691 300.001C357.307 296.987 358.042 293.991 358.514 290.952C358.986 287.996 359.292 285.016 359.432 282.026C359.611 277.98 360.219 273.976 360.567 269.946C360.801 267.205 360.329 264.548 360.002 261.871C359.925 261.28 359.283 260.77 358.922 260.209C356.676 256.664 354.208 253.265 351.531 250.033C346.587 244.163 340.934 239.02 334.954 234.209C330.364 230.507 325.301 227.561 320.299 224.509C319.761 224.159 319.154 223.929 318.519 223.838C317.884 223.746 317.237 223.794 316.622 223.978C315.555 224.301 315.377 225.028 316.146 225.806C317.383 227.047 318.628 228.28 319.772 229.631C320.491 230.434 321.313 231.138 322.216 231.727C323.916 232.883 324.974 234.617 326.156 236.232C329.556 240.882 332.502 245.8 334.147 251.368C335.602 256.191 336.531 261.157 336.918 266.18C337.417 272.274 337.379 278.4 336.803 284.487C336.378 288.44 335.077 292.163 333.938 295.933C333.012 299.011 332.118 302.098 331.256 305.195C331.188 305.553 330.998 305.875 330.718 306.108C330.438 306.341 330.086 306.469 329.722 306.47C326.322 306.823 322.896 307.21 319.487 307.609C318.414 307.771 317.361 308.044 316.346 308.425C315.668 308.704 314.951 308.874 314.221 308.931C314.981 307.911 315.496 306.959 316.286 306.126C317.019 305.283 317.465 304.229 317.561 303.116C317.992 299.186 317.798 295.213 316.988 291.343C316.911 290.952 316.932 290.493 316.342 290.438C315.976 290.404 316.125 290.042 316.078 289.813C314.726 283.144 313.179 276.517 311.615 269.9C310.939 267.039 309.422 264.48 308.491 261.696C307.169 257.743 305.728 253.825 304.024 250.016C302.923 247.435 301.505 245.001 299.803 242.769C298.824 241.548 297.554 240.592 296.11 239.989C294.222 239.169 292.395 238.204 290.448 237.516C289.87 237.307 289.407 237.639 289.449 238.328C289.494 238.84 289.672 239.332 289.964 239.756C293.419 245.047 294.911 251.019 295.978 257.131C297.266 264.42 297.308 271.875 296.101 279.178C295.221 284.385 294.019 289.532 292.501 294.59C292.076 296.052 291.018 297.009 289.649 297.629C287.524 298.59 285.263 298.934 282.963 299.125C282.151 299.193 281.344 299.283 280.515 299.363C281.739 296.324 282.139 293.192 282.521 290.089C282.746 288.27 282.181 286.425 282.003 284.585C281.51 279.636 280.405 274.767 278.713 270.091C277.684 267.226 276.205 264.514 274.841 261.781C273.706 259.503 272.46 257.276 271.219 255.049C269.821 252.545 268.244 252.647 266.654 255.087C265.953 256.171 265.519 257.429 264.954 258.61C264.842 258.942 264.683 259.255 264.482 259.541C263.794 260.289 263.768 261.012 264.325 261.862C266.081 264.54 266.765 267.621 267.177 270.703C267.739 274.714 268.023 278.758 268.027 282.808C268.027 285.269 267.394 287.671 267.351 290.131C267.351 290.497 267.169 290.586 266.812 290.599C261.673 290.727 256.908 292.223 252.36 294.56L251.684 294.922C244.535 298.747 246.665 297.089 241.441 303.21C239.741 305.191 237.832 306.989 236.425 309.326C236.251 307.864 236.034 306.411 235.911 304.948C235.393 298.807 234.045 292.818 232.609 286.846C232.259 285.583 231.728 284.377 231.032 283.267C229.37 280.293 228.133 277.101 227.355 273.784C226.714 271.161 226.945 268.401 228.014 265.921C228.111 265.721 228.197 265.515 228.269 265.305C229.119 262.249 231.346 260.277 233.794 258.623C237.458 256.162 241.598 254.615 245.585 252.766C252.904 249.366 260.725 247.704 268.478 245.77C269.498 245.515 270.48 245.12 271.508 244.899C273.544 244.474 274.943 243.237 276.065 241.562C276.979 240.193 277.837 238.791 278.657 237.358C279.257 236.304 278.793 235.297 277.608 235.063C277.451 235.028 277.292 235.013 277.132 235.016C271.211 235.199 265.26 234.591 259.365 235.306C255.046 235.824 250.681 236.3 246.444 237.363C243.595 238.061 240.842 239.103 238.245 240.466C235.992 241.664 234.47 243.658 232.923 245.608C232.048 246.714 231.253 247.904 230.024 248.75C230.09 247.955 230.245 247.171 230.488 246.412C231.134 244.584 232.009 242.914 233.658 241.673C239.821 236.997 246.792 233.933 253.886 231.047C257.605 229.542 261.299 227.944 265.196 226.983C271.085 225.594 277.056 224.579 283.074 223.944C286.079 223.596 289.105 223.341 292.067 222.767C295.324 222.079 298.348 220.564 300.849 218.368C301.758 217.607 301.737 217.229 301.125 216.242C300.562 215.376 299.719 214.73 298.736 214.411C296.917 213.73 295.09 213.084 293.321 212.285C292.438 211.905 291.475 211.745 290.516 211.818C287.269 211.979 284.009 211.788 280.766 211.95C272.465 212.375 264.147 212.498 255.888 213.65C252.998 214.049 250.63 215.078 248.616 217.186C245.955 219.974 243.294 222.767 240.306 225.224C239.269 226.074 238.504 227.196 237.701 228.267C237.466 228.687 237.122 229.037 236.706 229.278C237.467 227.153 237.781 225.062 238.988 223.285C239.056 223.179 239.171 223.09 239.205 222.979C240.344 219.014 242.848 215.584 243.791 211.575C244.369 209.136 245.87 207.801 247.906 206.692C250.639 205.204 253.164 203.359 256.041 202.101C257.714 201.399 259.535 201.121 261.341 201.294C263.892 201.46 266.493 201.502 269.069 201.719C274.705 202.144 280.209 203.296 285.722 204.499C290.104 205.455 294.405 206.747 298.8 207.674C302.056 208.366 305.346 209.017 308.551 209.969C309.717 210.301 310.921 210.482 312.134 210.509C312.451 210.541 312.772 210.501 313.073 210.392C313.373 210.283 313.645 210.108 313.868 209.88C314.921 208.8 316.058 207.805 317.268 206.904C317.448 206.786 317.583 206.611 317.651 206.406C317.719 206.202 317.716 205.98 317.642 205.778C316.988 202.378 314.667 200.104 312.376 197.791C310.591 196.009 308.702 194.334 306.719 192.776C305.048 191.437 303.28 190.336 301.134 190.043C298.413 189.673 295.821 188.747 293.109 188.343C292.447 188.251 291.777 188.251 291.115 188.343C287.108 188.88 283.142 189.686 279.244 190.757C275.742 191.641 272.473 193.158 268.967 194.009C268.626 194.089 268.282 194.145 267.942 194.213L267.589 194.251C267.589 194.157 267.628 194.128 267.679 194.119C267.72 194.117 267.761 194.117 267.802 194.119H267.836C268.469 193.697 269.126 193.312 269.804 192.967C270.944 192.414 272.05 191.793 273.115 191.106C275.24 189.643 277.761 189.074 280.077 188.041C282.655 186.875 285.291 185.842 287.974 184.947C290.916 183.986 293.925 183.973 296.951 184.462C302.411 185.306 307.638 187.268 312.304 190.226C316.085 192.593 319.989 194.757 324.001 196.708C326.478 197.884 329.035 198.887 331.652 199.708C332.21 199.898 332.803 199.964 333.39 199.904C333.976 199.844 334.543 199.658 335.052 199.36C337.249 198.148 339.46 196.984 341.755 195.985C343.081 195.42 343.361 194.816 342.639 193.588C341.126 191.038 340.012 188.22 338.223 185.81C337.619 184.998 337.135 184.109 336.463 183.332C334.287 180.828 331.498 179.791 328.26 179.663C324.06 179.498 319.886 178.869 315.666 179.073C313.91 179.158 312.168 179.323 310.429 179.498C309.92 179.607 309.391 179.582 308.895 179.425C311.517 178.924 314.127 178.452 316.737 177.857C321.353 176.833 326.058 177.143 330.738 177.041C332.489 177.007 334.244 177.049 335.995 177.007C336.633 176.973 337.271 177.065 337.873 177.279C338.475 177.493 339.029 177.823 339.502 178.252C340.449 179.11 341.49 179.859 342.605 180.484C343.131 180.785 343.611 181.162 344.029 181.602C347.314 185.002 350.613 188.441 353.609 192.126C353.864 192.444 354.136 192.75 354.459 193.129C353.465 193.681 352.521 194.196 351.586 194.727C351.161 194.973 350.94 194.978 350.668 194.434C349.02 191.231 346.983 188.244 344.603 185.542C343.997 184.93 343.439 184.274 342.932 183.578C342.065 182.161 340.816 181.018 339.328 180.28C337.236 179.233 335.002 178.502 332.697 178.108C332.621 178.108 332.536 178.163 332.468 178.189C332.438 178.427 332.587 178.503 332.731 178.554C334.342 179.145 335.944 179.757 337.572 180.301C339.042 180.769 340.32 181.701 341.215 182.958C344.033 187 346.74 191.118 349.524 195.19C349.89 195.721 349.733 196.015 349.223 196.193C347.285 196.878 345.606 198.034 343.846 199.045C339.404 201.596 334.852 203.942 330.321 206.326C329.794 206.603 329.535 206.628 329.084 206.131C326.534 203.313 323.984 200.507 321.072 198.055C319.899 197.082 318.463 196.478 317.374 195.394C315.296 193.316 312.729 191.96 310.17 190.617C307.922 189.439 305.656 188.288 303.429 187.068C302.511 186.614 301.503 186.371 300.479 186.358C299.178 186.303 297.899 186.086 296.611 185.933C295.323 185.78 294.231 186.039 292.939 186.303C293.275 186.626 293.542 186.388 293.768 186.379C296.662 186.325 299.551 186.667 302.353 187.395C303.238 187.603 303.969 188.135 304.734 188.589C307.526 190.247 310.552 191.501 313.235 193.354C317.523 196.329 321.587 199.602 325.055 203.555C326.003 204.635 326.989 205.68 327.975 206.717C328.4 207.142 328.447 207.474 327.835 207.814C324.15 209.897 320.583 212.171 317.107 214.589C316.716 214.881 316.258 215.067 315.774 215.13C315.291 215.192 314.8 215.129 314.348 214.946C311.539 213.994 308.823 212.766 306.064 211.746C305.542 211.507 305 211.315 304.445 211.172C300.526 210.458 296.7 209.221 292.841 208.32C289.517 207.55 286.168 206.938 282.806 206.454C279.567 205.986 276.273 205.927 273.03 205.663C269.787 205.4 266.48 205.34 263.203 205.204C260.814 205.135 258.444 205.637 256.288 206.666C253.24 208.035 250.235 209.459 247.749 211.767C247.621 211.865 247.501 211.972 247.387 212.086C247.226 212.281 246.809 212.443 247.064 212.74C247.319 213.038 247.519 212.655 247.71 212.515C248.348 212.052 248.985 211.567 249.602 211.095C251.444 209.753 253.515 208.758 255.714 208.158C258.689 207.308 261.639 206.658 264.712 206.764C269.387 206.93 274.063 207.227 278.691 207.801C282.037 208.226 285.365 208.774 288.722 209.076C290.333 209.221 291.859 209.884 293.474 210.079C296.955 210.504 300.275 211.72 303.675 212.375C304.878 212.604 306.005 213.225 307.169 213.65L313.519 215.979C313.749 216.064 313.97 216.183 314.369 216.361C312.746 217.382 311.279 218.355 309.758 219.235C307.877 220.307 306.051 221.473 304.287 222.729C303.817 223.115 303.273 223.4 302.688 223.566C302.103 223.732 301.49 223.775 300.887 223.693C298.167 223.362 295.417 223.693 292.701 224.118C291.57 224.284 290.448 224.518 289.3 224.739C288.977 224.799 288.45 224.803 288.595 225.287C288.739 225.772 289.19 225.517 289.504 225.462C291.761 225.083 293.98 224.429 296.305 224.467C297.95 224.497 299.595 224.59 301.206 224.65C301.316 225.003 301.1 225.075 300.964 225.177C299.085 226.494 297.278 227.906 295.502 229.355C295.328 229.542 295.101 229.671 294.852 229.724C294.602 229.777 294.342 229.752 294.108 229.652C293.929 229.583 293.738 229.554 293.547 229.567C291.472 229.614 289.407 229.457 287.341 229.372C283.554 229.223 279.767 229.329 275.98 229.372C270.854 229.41 265.851 230.328 260.865 231.37C259.344 231.688 257.818 231.986 256.3 232.317C255.876 232.409 255.473 232.577 255.11 232.815C261.486 232.339 267.738 230.83 274.148 230.583C280.557 230.337 286.929 230.583 293.547 230.775C292.616 231.535 291.872 232.211 291.056 232.789C288.565 234.566 286.338 236.734 283.762 238.336C280.587 240.304 278.266 243.25 275.13 245.23C273.629 246.178 272.673 247.78 271.198 248.839C270.842 249.103 270.423 249.269 269.982 249.319C268.784 249.451 267.589 249.744 266.378 249.646C264.336 249.563 262.298 249.91 260.398 250.662C258.962 251.18 257.499 251.619 256.016 251.976C255.684 252.056 255.119 252.052 255.272 252.609C255.425 253.166 255.858 252.804 256.169 252.745C257.869 252.422 259.569 252.154 261.167 251.495C263.56 250.505 266.051 250.53 268.575 250.586C266.778 252.787 264.665 254.301 261.775 254.913C259.453 255.457 257.164 256.132 254.919 256.936C252.33 257.807 249.755 258.704 247.226 259.737C240.272 262.58 235.58 267.388 233.777 274.843C233.417 276.219 233.17 277.622 233.038 279.038C233.038 279.267 232.859 279.629 233.212 279.68C233.565 279.731 233.518 279.357 233.565 279.119C233.95 276.891 234.519 274.699 235.265 272.565C236.55 268.949 238.975 265.849 242.176 263.732C245.079 261.773 248.246 260.442 251.502 259.21C254.902 257.935 258.43 257.178 261.86 256.052C262.215 255.969 262.576 255.914 262.939 255.886C261.979 256.919 261.163 257.875 260.266 258.751C256.36 262.576 252.998 266.805 249.793 271.221C246.465 275.689 243.881 280.665 242.142 285.958C240.795 290.208 239.758 294.569 238.572 298.879C238.334 299.729 238.058 300.579 237.79 301.429C237.633 301.769 237.603 302.153 237.705 302.513C237.896 302.585 237.973 302.449 238.011 302.347C238.923 300.159 239.655 297.9 240.2 295.593C240.557 294.004 241.177 292.478 241.602 290.918C242.475 287.497 243.704 284.178 245.271 281.014C246.524 278.562 247.672 275.999 249.304 273.81C251.595 270.733 253.576 267.388 256.479 264.65C257.078 268.34 257.635 271.927 257.095 275.646C256.572 279.25 256.67 282.944 255.255 286.429C256.037 286.043 256.266 285.32 256.53 284.729C257.352 282.903 257.906 280.967 258.175 278.983C258.562 275.157 258.795 271.391 257.792 267.621C257.503 266.537 257.435 265.386 257.108 264.302C256.925 263.685 257.371 263.43 257.69 263.107C261.018 259.686 264.406 256.307 267.891 253.059C269.315 251.721 270.93 250.658 272.422 249.421C272.541 249.319 272.686 249.243 272.805 249.141C274.182 247.967 274.178 247.972 275.266 249.425C277.901 252.953 279.478 256.966 280.672 261.156C280.954 262.082 281.407 262.947 282.007 263.707C280.991 258.759 279.457 253.99 276.481 249.816C276.051 249.184 275.56 248.596 275.015 248.061C274.649 247.721 274.666 247.479 275.079 247.156C276.031 246.408 276.957 245.628 277.858 244.818C278.317 244.393 278.551 244.393 278.912 244.962C281.203 248.49 283.316 252.129 285.543 255.69C287.847 259.38 288.561 263.46 289.326 267.592C289.789 270.112 289.891 272.637 290.104 275.174C290.529 280.084 289.198 284.597 287.443 289.056C287.367 289.252 287.137 289.481 287.443 289.609C287.69 289.715 287.83 289.43 287.923 289.269C288.398 288.438 288.756 287.545 288.986 286.616C289.67 283.998 290.312 281.371 290.971 278.745C290.989 278.684 290.999 278.621 291.001 278.558C290.933 275.038 291.562 271.515 290.737 268C290.342 266.299 290.35 264.514 289.976 262.814C289.408 260.129 288.427 257.548 287.069 255.163C284.842 251.447 282.414 247.854 279.797 244.401C279.414 243.879 279.299 243.628 279.899 243.126C281.148 242.085 282.419 241.082 283.724 240.087C284.498 239.488 284.727 239.743 285.131 240.47C286.231 242.519 287.114 244.677 287.766 246.909C287.821 247.092 287.868 247.279 287.94 247.453C288.013 247.627 288.132 247.806 288.365 247.712C288.442 247.676 288.502 247.612 288.531 247.532C288.56 247.453 288.557 247.365 288.523 247.287C288.361 246.671 288.174 246.068 288.004 245.455C287.509 243.442 286.712 241.514 285.641 239.739C285.309 239.22 285.348 238.927 285.883 238.506C288.688 236.309 291.613 234.256 294.482 232.164C296.488 230.694 298.528 229.287 300.585 227.893C301.214 227.468 301.567 227.57 302.022 228.067C303.721 229.837 305.248 231.764 306.583 233.822C308.461 236.853 310.633 239.709 312.291 242.871C313.902 245.944 315.5 249.026 317.017 252.146C318.535 255.265 319.891 258.593 321.344 261.807C322.344 264.045 323.113 266.379 323.64 268.773C323.839 269.674 324.094 270.558 324.328 271.451C324.993 273.932 325.459 276.462 325.722 279.017C325.926 281.099 326.232 283.174 326.39 285.269C326.674 289.094 325.884 292.707 325.289 296.511C326.347 294.845 326.632 293.039 326.938 291.271C327.533 287.794 327.167 284.313 326.9 280.815C326.708 278.366 326.105 275.986 326.011 273.538C325.947 271.931 325.242 270.465 324.97 268.892C324.315 265.067 322.883 261.463 321.361 257.901C318.811 251.95 316.087 246.068 312.695 240.551C309.796 235.837 306.693 231.229 302.834 227.208C302.409 226.762 302.409 226.537 302.898 226.193C304.3 225.198 305.682 224.174 307.071 223.162C307.335 222.971 307.573 222.818 307.921 223.06C308.891 223.736 309.855 224.378 310.518 225.415C311.813 227.338 312.986 229.342 314.029 231.412C314.115 231.583 314.21 231.749 314.314 231.909C314.412 232.071 314.514 232.309 314.739 232.232C315.041 232.122 314.892 231.85 314.82 231.663C314.058 229.74 313.193 227.86 312.227 226.031C311.403 224.412 310.348 223.056 308.551 222.206C310.46 220.717 312.465 219.354 314.552 218.125C315.619 217.434 316.649 216.688 317.638 215.89C317.804 215.721 318.028 215.621 318.265 215.611C318.501 215.6 318.733 215.68 318.913 215.834C319.617 216.268 320.363 216.628 321.14 216.91C322.433 217.365 323.66 217.991 324.787 218.771C327.711 220.897 330.823 222.72 333.611 225.092C335.89 227.097 337.951 229.337 339.761 231.773C340.119 232.185 340.501 232.575 340.905 232.942C341.024 233.07 341.168 233.142 341.33 233.036C341.491 232.93 341.432 232.726 341.33 232.611C339.778 231.255 339.051 229.236 337.504 227.867C337.053 227.384 336.645 226.862 336.284 226.307C336.111 226.043 335.897 225.808 335.651 225.61C334.635 224.947 333.879 224.012 332.99 223.217C329.722 220.28 326.072 217.796 322.139 215.834L319.372 214.474C321.191 213.301 322.866 212.222 324.541 211.15C324.723 211.031 324.885 211.099 325.059 211.227C326.669 212.427 328.514 213.271 330.474 213.705C330.821 213.761 331.156 213.876 331.464 214.045C334.563 216.021 338.142 217.02 341.24 219.022C343.57 220.514 346.175 221.538 348.411 223.217C352.155 226.027 354.939 229.618 357.23 233.652C360.549 239.501 363.687 245.441 366.645 251.474C368.772 255.878 369.802 260.731 369.646 265.619C369.586 268.773 368.63 271.608 367.784 274.524C367.488 275.486 367.404 276.501 367.538 277.499C368.069 276.539 368.031 275.514 368.524 274.669C368.949 273.967 369.187 273.177 369.574 272.458C370.594 270.558 370.828 268.51 371.044 266.393C371.605 260.944 370.334 255.882 367.946 251.092C364.707 244.588 361.307 238.141 357.974 231.684C355.142 226.013 350.442 221.492 344.666 218.882C343.762 218.483 342.882 218.032 342.031 217.53C338.835 215.575 335.23 214.474 331.89 212.855C330.155 212.005 328.124 211.754 326.309 210.972C326.083 210.874 325.739 210.883 325.684 210.623C325.629 210.364 325.973 210.237 326.168 210.113C329.458 208.035 332.829 206.075 336.263 204.29C340.14 202.284 344.058 200.359 347.82 198.144C348.365 197.816 348.99 197.645 349.626 197.651C353.72 197.621 357.702 198.323 361.655 199.317C363.78 199.849 365.587 201.094 367.691 201.617C369.656 202.17 371.521 203.031 373.216 204.167C374.972 205.259 376.791 206.25 378.593 207.266C379.664 207.895 380.654 208.655 381.539 209.527C384.567 212.352 387.425 215.354 390.099 218.516C392.53 221.445 394.379 224.739 396.088 228.122C396.228 228.399 396.377 228.675 396.581 229.066C396.66 228.893 396.694 228.703 396.679 228.513C396.664 228.323 396.601 228.141 396.496 227.982C395.701 226.21 394.902 224.437 394.06 222.686C393.282 221.067 391.969 219.821 390.974 218.359C388.424 214.589 385.173 211.431 382.112 208.111C380.722 206.598 378.967 205.625 377.203 204.669C375.928 203.972 374.619 203.283 373.378 202.505C372.955 202.218 372.508 201.968 372.043 201.757C365.748 199.207 359.492 196.546 352.491 196.784C352.036 196.799 351.586 196.692 351.186 196.474C352.198 195.866 353.244 195.305 354.221 194.642C357.052 192.704 360.172 192.916 363.334 193.367C364.749 193.562 366.173 193.766 367.584 194.047C371.339 194.812 374.913 196.288 378.113 198.395C379.15 199.12 380.229 199.784 381.343 200.384C384.085 201.736 386.205 203.831 388.254 206.033C389.427 207.308 390.753 208.413 391.876 209.714C394.885 213.178 398.017 216.565 400.036 220.786C400.342 221.451 400.775 222.049 401.311 222.546C402.961 223.978 403.105 225.831 402.876 227.795Z"/>
</mask>
<path d="M402.876 227.795C402.523 230.796 401.073 233.491 400.372 236.394C400.359 236.457 400.331 236.517 400.291 236.568C397.988 239.518 397.376 243.258 395.641 246.476C394.893 247.865 394.617 249.417 394.217 250.926C394.132 251.257 394.043 251.589 393.924 252.035C393.736 251.687 393.67 251.286 393.737 250.896C393.911 244.567 392.692 238.4 391.561 232.228C391.051 229.44 389.704 226.949 388.195 224.577C387.536 223.54 386.495 222.962 385.423 222.452C384.152 221.856 382.989 221.05 381.985 220.068C381.589 219.651 381.147 219.28 380.667 218.963C377.458 216.961 374.691 214.253 371.401 212.37C366.547 209.586 361.409 207.878 355.675 209.187C354.778 209.391 353.851 209.463 352.938 209.612C352.359 209.701 351.854 209.952 351.845 210.602C351.837 211.252 352.377 211.452 352.899 211.507C355.144 211.729 356.725 213.084 358.272 214.534C359.568 215.804 360.93 217.006 362.352 218.134C363.098 218.687 363.715 219.397 364.159 220.212C366.594 224.718 369.259 229.113 371.172 233.886C372.825 238.026 374.483 242.166 376.183 246.289C377.284 248.937 378.355 251.597 379.469 254.237C380.062 255.72 380.301 257.321 380.166 258.912C379.902 263.124 378.92 267.209 377.921 271.298C377.069 274.633 375.918 277.885 374.483 281.014C372.855 284.661 370.815 288.066 367.499 290.54C364.401 292.856 361.88 295.814 359.024 298.403C358.34 299.023 357.728 299.729 356.899 300.167L356.691 300.239C356.691 300.162 356.691 300.082 356.691 300.001C357.307 296.987 358.042 293.991 358.514 290.952C358.986 287.996 359.292 285.016 359.432 282.026C359.611 277.98 360.219 273.976 360.567 269.946C360.801 267.205 360.329 264.548 360.002 261.871C359.925 261.28 359.283 260.77 358.922 260.209C356.676 256.664 354.208 253.265 351.531 250.033C346.587 244.163 340.934 239.02 334.954 234.209C330.364 230.507 325.301 227.561 320.299 224.509C319.761 224.159 319.154 223.929 318.519 223.838C317.884 223.746 317.237 223.794 316.622 223.978C315.555 224.301 315.377 225.028 316.146 225.806C317.383 227.047 318.628 228.28 319.772 229.631C320.491 230.434 321.313 231.138 322.216 231.727C323.916 232.883 324.974 234.617 326.156 236.232C329.556 240.882 332.502 245.8 334.147 251.368C335.602 256.191 336.531 261.157 336.918 266.18C337.417 272.274 337.379 278.4 336.803 284.487C336.378 288.44 335.077 292.163 333.938 295.933C333.012 299.011 332.118 302.098 331.256 305.195C331.188 305.553 330.998 305.875 330.718 306.108C330.438 306.341 330.086 306.469 329.722 306.47C326.322 306.823 322.896 307.21 319.487 307.609C318.414 307.771 317.361 308.044 316.346 308.425C315.668 308.704 314.951 308.874 314.221 308.931C314.981 307.911 315.496 306.959 316.286 306.126C317.019 305.283 317.465 304.229 317.561 303.116C317.992 299.186 317.798 295.213 316.988 291.343C316.911 290.952 316.932 290.493 316.342 290.438C315.976 290.404 316.125 290.042 316.078 289.813C314.726 283.144 313.179 276.517 311.615 269.9C310.939 267.039 309.422 264.48 308.491 261.696C307.169 257.743 305.728 253.825 304.024 250.016C302.923 247.435 301.505 245.001 299.803 242.769C298.824 241.548 297.554 240.592 296.11 239.989C294.222 239.169 292.395 238.204 290.448 237.516C289.87 237.307 289.407 237.639 289.449 238.328C289.494 238.84 289.672 239.332 289.964 239.756C293.419 245.047 294.911 251.019 295.978 257.131C297.266 264.42 297.308 271.875 296.101 279.178C295.221 284.385 294.019 289.532 292.501 294.59C292.076 296.052 291.018 297.009 289.649 297.629C287.524 298.59 285.263 298.934 282.963 299.125C282.151 299.193 281.344 299.283 280.515 299.363C281.739 296.324 282.139 293.192 282.521 290.089C282.746 288.27 282.181 286.425 282.003 284.585C281.51 279.636 280.405 274.767 278.713 270.091C277.684 267.226 276.205 264.514 274.841 261.781C273.706 259.503 272.46 257.276 271.219 255.049C269.821 252.545 268.244 252.647 266.654 255.087C265.953 256.171 265.519 257.429 264.954 258.61C264.842 258.942 264.683 259.255 264.482 259.541C263.794 260.289 263.768 261.012 264.325 261.862C266.081 264.54 266.765 267.621 267.177 270.703C267.739 274.714 268.023 278.758 268.027 282.808C268.027 285.269 267.394 287.671 267.351 290.131C267.351 290.497 267.169 290.586 266.812 290.599C261.673 290.727 256.908 292.223 252.36 294.56L251.684 294.922C244.535 298.747 246.665 297.089 241.441 303.21C239.741 305.191 237.832 306.989 236.425 309.326C236.251 307.864 236.034 306.411 235.911 304.948C235.393 298.807 234.045 292.818 232.609 286.846C232.259 285.583 231.728 284.377 231.032 283.267C229.37 280.293 228.133 277.101 227.355 273.784C226.714 271.161 226.945 268.401 228.014 265.921C228.111 265.721 228.197 265.515 228.269 265.305C229.119 262.249 231.346 260.277 233.794 258.623C237.458 256.162 241.598 254.615 245.585 252.766C252.904 249.366 260.725 247.704 268.478 245.77C269.498 245.515 270.48 245.12 271.508 244.899C273.544 244.474 274.943 243.237 276.065 241.562C276.979 240.193 277.837 238.791 278.657 237.358C279.257 236.304 278.793 235.297 277.608 235.063C277.451 235.028 277.292 235.013 277.132 235.016C271.211 235.199 265.26 234.591 259.365 235.306C255.046 235.824 250.681 236.3 246.444 237.363C243.595 238.061 240.842 239.103 238.245 240.466C235.992 241.664 234.47 243.658 232.923 245.608C232.048 246.714 231.253 247.904 230.024 248.75C230.09 247.955 230.245 247.171 230.488 246.412C231.134 244.584 232.009 242.914 233.658 241.673C239.821 236.997 246.792 233.933 253.886 231.047C257.605 229.542 261.299 227.944 265.196 226.983C271.085 225.594 277.056 224.579 283.074 223.944C286.079 223.596 289.105 223.341 292.067 222.767C295.324 222.079 298.348 220.564 300.849 218.368C301.758 217.607 301.737 217.229 301.125 216.242C300.562 215.376 299.719 214.73 298.736 214.411C296.917 213.73 295.09 213.084 293.321 212.285C292.438 211.905 291.475 211.745 290.516 211.818C287.269 211.979 284.009 211.788 280.766 211.95C272.465 212.375 264.147 212.498 255.888 213.65C252.998 214.049 250.63 215.078 248.616 217.186C245.955 219.974 243.294 222.767 240.306 225.224C239.269 226.074 238.504 227.196 237.701 228.267C237.466 228.687 237.122 229.037 236.706 229.278C237.467 227.153 237.781 225.062 238.988 223.285C239.056 223.179 239.171 223.09 239.205 222.979C240.344 219.014 242.848 215.584 243.791 211.575C244.369 209.136 245.87 207.801 247.906 206.692C250.639 205.204 253.164 203.359 256.041 202.101C257.714 201.399 259.535 201.121 261.341 201.294C263.892 201.46 266.493 201.502 269.069 201.719C274.705 202.144 280.209 203.296 285.722 204.499C290.104 205.455 294.405 206.747 298.8 207.674C302.056 208.366 305.346 209.017 308.551 209.969C309.717 210.301 310.921 210.482 312.134 210.509C312.451 210.541 312.772 210.501 313.073 210.392C313.373 210.283 313.645 210.108 313.868 209.88C314.921 208.8 316.058 207.805 317.268 206.904C317.448 206.786 317.583 206.611 317.651 206.406C317.719 206.202 317.716 205.98 317.642 205.778C316.988 202.378 314.667 200.104 312.376 197.791C310.591 196.009 308.702 194.334 306.719 192.776C305.048 191.437 303.28 190.336 301.134 190.043C298.413 189.673 295.821 188.747 293.109 188.343C292.447 188.251 291.777 188.251 291.115 188.343C287.108 188.88 283.142 189.686 279.244 190.757C275.742 191.641 272.473 193.158 268.967 194.009C268.626 194.089 268.282 194.145 267.942 194.213L267.589 194.251C267.589 194.157 267.628 194.128 267.679 194.119C267.72 194.117 267.761 194.117 267.802 194.119H267.836C268.469 193.697 269.126 193.312 269.804 192.967C270.944 192.414 272.05 191.793 273.115 191.106C275.24 189.643 277.761 189.074 280.077 188.041C282.655 186.875 285.291 185.842 287.974 184.947C290.916 183.986 293.925 183.973 296.951 184.462C302.411 185.306 307.638 187.268 312.304 190.226C316.085 192.593 319.989 194.757 324.001 196.708C326.478 197.884 329.035 198.887 331.652 199.708C332.21 199.898 332.803 199.964 333.39 199.904C333.976 199.844 334.543 199.658 335.052 199.36C337.249 198.148 339.46 196.984 341.755 195.985C343.081 195.42 343.361 194.816 342.639 193.588C341.126 191.038 340.012 188.22 338.223 185.81C337.619 184.998 337.135 184.109 336.463 183.332C334.287 180.828 331.498 179.791 328.26 179.663C324.06 179.498 319.886 178.869 315.666 179.073C313.91 179.158 312.168 179.323 310.429 179.498C309.92 179.607 309.391 179.582 308.895 179.425C311.517 178.924 314.127 178.452 316.737 177.857C321.353 176.833 326.058 177.143 330.738 177.041C332.489 177.007 334.244 177.049 335.995 177.007C336.633 176.973 337.271 177.065 337.873 177.279C338.475 177.493 339.029 177.823 339.502 178.252C340.449 179.11 341.49 179.859 342.605 180.484C343.131 180.785 343.611 181.162 344.029 181.602C347.314 185.002 350.613 188.441 353.609 192.126C353.864 192.444 354.136 192.75 354.459 193.129C353.465 193.681 352.521 194.196 351.586 194.727C351.161 194.973 350.94 194.978 350.668 194.434C349.02 191.231 346.983 188.244 344.603 185.542C343.997 184.93 343.439 184.274 342.932 183.578C342.065 182.161 340.816 181.018 339.328 180.28C337.236 179.233 335.002 178.502 332.697 178.108C332.621 178.108 332.536 178.163 332.468 178.189C332.438 178.427 332.587 178.503 332.731 178.554C334.342 179.145 335.944 179.757 337.572 180.301C339.042 180.769 340.32 181.701 341.215 182.958C344.033 187 346.74 191.118 349.524 195.19C349.89 195.721 349.733 196.015 349.223 196.193C347.285 196.878 345.606 198.034 343.846 199.045C339.404 201.596 334.852 203.942 330.321 206.326C329.794 206.603 329.535 206.628 329.084 206.131C326.534 203.313 323.984 200.507 321.072 198.055C319.899 197.082 318.463 196.478 317.374 195.394C315.296 193.316 312.729 191.96 310.17 190.617C307.922 189.439 305.656 188.288 303.429 187.068C302.511 186.614 301.503 186.371 300.479 186.358C299.178 186.303 297.899 186.086 296.611 185.933C295.323 185.78 294.231 186.039 292.939 186.303C293.275 186.626 293.542 186.388 293.768 186.379C296.662 186.325 299.551 186.667 302.353 187.395C303.238 187.603 303.969 188.135 304.734 188.589C307.526 190.247 310.552 191.501 313.235 193.354C317.523 196.329 321.587 199.602 325.055 203.555C326.003 204.635 326.989 205.68 327.975 206.717C328.4 207.142 328.447 207.474 327.835 207.814C324.15 209.897 320.583 212.171 317.107 214.589C316.716 214.881 316.258 215.067 315.774 215.13C315.291 215.192 314.8 215.129 314.348 214.946C311.539 213.994 308.823 212.766 306.064 211.746C305.542 211.507 305 211.315 304.445 211.172C300.526 210.458 296.7 209.221 292.841 208.32C289.517 207.55 286.168 206.938 282.806 206.454C279.567 205.986 276.273 205.927 273.03 205.663C269.787 205.4 266.48 205.34 263.203 205.204C260.814 205.135 258.444 205.637 256.288 206.666C253.24 208.035 250.235 209.459 247.749 211.767C247.621 211.865 247.501 211.972 247.387 212.086C247.226 212.281 246.809 212.443 247.064 212.74C247.319 213.038 247.519 212.655 247.71 212.515C248.348 212.052 248.985 211.567 249.602 211.095C251.444 209.753 253.515 208.758 255.714 208.158C258.689 207.308 261.639 206.658 264.712 206.764C269.387 206.93 274.063 207.227 278.691 207.801C282.037 208.226 285.365 208.774 288.722 209.076C290.333 209.221 291.859 209.884 293.474 210.079C296.955 210.504 300.275 211.72 303.675 212.375C304.878 212.604 306.005 213.225 307.169 213.65L313.519 215.979C313.749 216.064 313.97 216.183 314.369 216.361C312.746 217.382 311.279 218.355 309.758 219.235C307.877 220.307 306.051 221.473 304.287 222.729C303.817 223.115 303.273 223.4 302.688 223.566C302.103 223.732 301.49 223.775 300.887 223.693C298.167 223.362 295.417 223.693 292.701 224.118C291.57 224.284 290.448 224.518 289.3 224.739C288.977 224.799 288.45 224.803 288.595 225.287C288.739 225.772 289.19 225.517 289.504 225.462C291.761 225.083 293.98 224.429 296.305 224.467C297.95 224.497 299.595 224.59 301.206 224.65C301.316 225.003 301.1 225.075 300.964 225.177C299.085 226.494 297.278 227.906 295.502 229.355C295.328 229.542 295.101 229.671 294.852 229.724C294.602 229.777 294.342 229.752 294.108 229.652C293.929 229.583 293.738 229.554 293.547 229.567C291.472 229.614 289.407 229.457 287.341 229.372C283.554 229.223 279.767 229.329 275.98 229.372C270.854 229.41 265.851 230.328 260.865 231.37C259.344 231.688 257.818 231.986 256.3 232.317C255.876 232.409 255.473 232.577 255.11 232.815C261.486 232.339 267.738 230.83 274.148 230.583C280.557 230.337 286.929 230.583 293.547 230.775C292.616 231.535 291.872 232.211 291.056 232.789C288.565 234.566 286.338 236.734 283.762 238.336C280.587 240.304 278.266 243.25 275.13 245.23C273.629 246.178 272.673 247.78 271.198 248.839C270.842 249.103 270.423 249.269 269.982 249.319C268.784 249.451 267.589 249.744 266.378 249.646C264.336 249.563 262.298 249.91 260.398 250.662C258.962 251.18 257.499 251.619 256.016 251.976C255.684 252.056 255.119 252.052 255.272 252.609C255.425 253.166 255.858 252.804 256.169 252.745C257.869 252.422 259.569 252.154 261.167 251.495C263.56 250.505 266.051 250.53 268.575 250.586C266.778 252.787 264.665 254.301 261.775 254.913C259.453 255.457 257.164 256.132 254.919 256.936C252.33 257.807 249.755 258.704 247.226 259.737C240.272 262.58 235.58 267.388 233.777 274.843C233.417 276.219 233.17 277.622 233.038 279.038C233.038 279.267 232.859 279.629 233.212 279.68C233.565 279.731 233.518 279.357 233.565 279.119C233.95 276.891 234.519 274.699 235.265 272.565C236.55 268.949 238.975 265.849 242.176 263.732C245.079 261.773 248.246 260.442 251.502 259.21C254.902 257.935 258.43 257.178 261.86 256.052C262.215 255.969 262.576 255.914 262.939 255.886C261.979 256.919 261.163 257.875 260.266 258.751C256.36 262.576 252.998 266.805 249.793 271.221C246.465 275.689 243.881 280.665 242.142 285.958C240.795 290.208 239.758 294.569 238.572 298.879C238.334 299.729 238.058 300.579 237.79 301.429C237.633 301.769 237.603 302.153 237.705 302.513C237.896 302.585 237.973 302.449 238.011 302.347C238.923 300.159 239.655 297.9 240.2 295.593C240.557 294.004 241.177 292.478 241.602 290.918C242.475 287.497 243.704 284.178 245.271 281.014C246.524 278.562 247.672 275.999 249.304 273.81C251.595 270.733 253.576 267.388 256.479 264.65C257.078 268.34 257.635 271.927 257.095 275.646C256.572 279.25 256.67 282.944 255.255 286.429C256.037 286.043 256.266 285.32 256.53 284.729C257.352 282.903 257.906 280.967 258.175 278.983C258.562 275.157 258.795 271.391 257.792 267.621C257.503 266.537 257.435 265.386 257.108 264.302C256.925 263.685 257.371 263.43 257.69 263.107C261.018 259.686 264.406 256.307 267.891 253.059C269.315 251.721 270.93 250.658 272.422 249.421C272.541 249.319 272.686 249.243 272.805 249.141C274.182 247.967 274.178 247.972 275.266 249.425C277.901 252.953 279.478 256.966 280.672 261.156C280.954 262.082 281.407 262.947 282.007 263.707C280.991 258.759 279.457 253.99 276.481 249.816C276.051 249.184 275.56 248.596 275.015 248.061C274.649 247.721 274.666 247.479 275.079 247.156C276.031 246.408 276.957 245.628 277.858 244.818C278.317 244.393 278.551 244.393 278.912 244.962C281.203 248.49 283.316 252.129 285.543 255.69C287.847 259.38 288.561 263.46 289.326 267.592C289.789 270.112 289.891 272.637 290.104 275.174C290.529 280.084 289.198 284.597 287.443 289.056C287.367 289.252 287.137 289.481 287.443 289.609C287.69 289.715 287.83 289.43 287.923 289.269C288.398 288.438 288.756 287.545 288.986 286.616C289.67 283.998 290.312 281.371 290.971 278.745C290.989 278.684 290.999 278.621 291.001 278.558C290.933 275.038 291.562 271.515 290.737 268C290.342 266.299 290.35 264.514 289.976 262.814C289.408 260.129 288.427 257.548 287.069 255.163C284.842 251.447 282.414 247.854 279.797 244.401C279.414 243.879 279.299 243.628 279.899 243.126C281.148 242.085 282.419 241.082 283.724 240.087C284.498 239.488 284.727 239.743 285.131 240.47C286.231 242.519 287.114 244.677 287.766 246.909C287.821 247.092 287.868 247.279 287.94 247.453C288.013 247.627 288.132 247.806 288.365 247.712C288.442 247.676 288.502 247.612 288.531 247.532C288.56 247.453 288.557 247.365 288.523 247.287C288.361 246.671 288.174 246.068 288.004 245.455C287.509 243.442 286.712 241.514 285.641 239.739C285.309 239.22 285.348 238.927 285.883 238.506C288.688 236.309 291.613 234.256 294.482 232.164C296.488 230.694 298.528 229.287 300.585 227.893C301.214 227.468 301.567 227.57 302.022 228.067C303.721 229.837 305.248 231.764 306.583 233.822C308.461 236.853 310.633 239.709 312.291 242.871C313.902 245.944 315.5 249.026 317.017 252.146C318.535 255.265 319.891 258.593 321.344 261.807C322.344 264.045 323.113 266.379 323.64 268.773C323.839 269.674 324.094 270.558 324.328 271.451C324.993 273.932 325.459 276.462 325.722 279.017C325.926 281.099 326.232 283.174 326.39 285.269C326.674 289.094 325.884 292.707 325.289 296.511C326.347 294.845 326.632 293.039 326.938 291.271C327.533 287.794 327.167 284.313 326.9 280.815C326.708 278.366 326.105 275.986 326.011 273.538C325.947 271.931 325.242 270.465 324.97 268.892C324.315 265.067 322.883 261.463 321.361 257.901C318.811 251.95 316.087 246.068 312.695 240.551C309.796 235.837 306.693 231.229 302.834 227.208C302.409 226.762 302.409 226.537 302.898 226.193C304.3 225.198 305.682 224.174 307.071 223.162C307.335 222.971 307.573 222.818 307.921 223.06C308.891 223.736 309.855 224.378 310.518 225.415C311.813 227.338 312.986 229.342 314.029 231.412C314.115 231.583 314.21 231.749 314.314 231.909C314.412 232.071 314.514 232.309 314.739 232.232C315.041 232.122 314.892 231.85 314.82 231.663C314.058 229.74 313.193 227.86 312.227 226.031C311.403 224.412 310.348 223.056 308.551 222.206C310.46 220.717 312.465 219.354 314.552 218.125C315.619 217.434 316.649 216.688 317.638 215.89C317.804 215.721 318.028 215.621 318.265 215.611C318.501 215.6 318.733 215.68 318.913 215.834C319.617 216.268 320.363 216.628 321.14 216.91C322.433 217.365 323.66 217.991 324.787 218.771C327.711 220.897 330.823 222.72 333.611 225.092C335.89 227.097 337.951 229.337 339.761 231.773C340.119 232.185 340.501 232.575 340.905 232.942C341.024 233.07 341.168 233.142 341.33 233.036C341.491 232.93 341.432 232.726 341.33 232.611C339.778 231.255 339.051 229.236 337.504 227.867C337.053 227.384 336.645 226.862 336.284 226.307C336.111 226.043 335.897 225.808 335.651 225.61C334.635 224.947 333.879 224.012 332.99 223.217C329.722 220.28 326.072 217.796 322.139 215.834L319.372 214.474C321.191 213.301 322.866 212.222 324.541 211.15C324.723 211.031 324.885 211.099 325.059 211.227C326.669 212.427 328.514 213.271 330.474 213.705C330.821 213.761 331.156 213.876 331.464 214.045C334.563 216.021 338.142 217.02 341.24 219.022C343.57 220.514 346.175 221.538 348.411 223.217C352.155 226.027 354.939 229.618 357.23 233.652C360.549 239.501 363.687 245.441 366.645 251.474C368.772 255.878 369.802 260.731 369.646 265.619C369.586 268.773 368.63 271.608 367.784 274.524C367.488 275.486 367.404 276.501 367.538 277.499C368.069 276.539 368.031 275.514 368.524 274.669C368.949 273.967 369.187 273.177 369.574 272.458C370.594 270.558 370.828 268.51 371.044 266.393C371.605 260.944 370.334 255.882 367.946 251.092C364.707 244.588 361.307 238.141 357.974 231.684C355.142 226.013 350.442 221.492 344.666 218.882C343.762 218.483 342.882 218.032 342.031 217.53C338.835 215.575 335.23 214.474 331.89 212.855C330.155 212.005 328.124 211.754 326.309 210.972C326.083 210.874 325.739 210.883 325.684 210.623C325.629 210.364 325.973 210.237 326.168 210.113C329.458 208.035 332.829 206.075 336.263 204.29C340.14 202.284 344.058 200.359 347.82 198.144C348.365 197.816 348.99 197.645 349.626 197.651C353.72 197.621 357.702 198.323 361.655 199.317C363.78 199.849 365.587 201.094 367.691 201.617C369.656 202.17 371.521 203.031 373.216 204.167C374.972 205.259 376.791 206.25 378.593 207.266C379.664 207.895 380.654 208.655 381.539 209.527C384.567 212.352 387.425 215.354 390.099 218.516C392.53 221.445 394.379 224.739 396.088 228.122C396.228 228.399 396.377 228.675 396.581 229.066C396.66 228.893 396.694 228.703 396.679 228.513C396.664 228.323 396.601 228.141 396.496 227.982C395.701 226.21 394.902 224.437 394.06 222.686C393.282 221.067 391.969 219.821 390.974 218.359C388.424 214.589 385.173 211.431 382.112 208.111C380.722 206.598 378.967 205.625 377.203 204.669C375.928 203.972 374.619 203.283 373.378 202.505C372.955 202.218 372.508 201.968 372.043 201.757C365.748 199.207 359.492 196.546 352.491 196.784C352.036 196.799 351.586 196.692 351.186 196.474C352.198 195.866 353.244 195.305 354.221 194.642C357.052 192.704 360.172 192.916 363.334 193.367C364.749 193.562 366.173 193.766 367.584 194.047C371.339 194.812 374.913 196.288 378.113 198.395C379.15 199.12 380.229 199.784 381.343 200.384C384.085 201.736 386.205 203.831 388.254 206.033C389.427 207.308 390.753 208.413 391.876 209.714C394.885 213.178 398.017 216.565 400.036 220.786C400.342 221.451 400.775 222.049 401.311 222.546C402.961 223.978 403.105 225.831 402.876 227.795Z" stroke="#FDB90B" stroke-width="2" mask="url(#path-3-inside-1_134_1762)"/>
</g>
</g>
</svg>
