<svg aria-hidden="true" xmlns="http://www.w3.org/2000/svg" xmlns:xlink="http://www.w3.org/1999/xlink"><symbol viewBox="0 0 76 75" fill="none" id="box" xmlns="http://www.w3.org/2000/svg">
<path d="M57.719 12.5C57.6204 12.4721 57.5172 12.4646 57.4157 12.4781C57.3141 12.4916 57.2164 12.5257 57.1286 12.5784C57.0407 12.6311 56.9646 12.7013 56.9049 12.7845C56.8452 12.8678 56.8032 12.9624 56.7815 13.0625L55.219 19.3125C55.1873 19.4276 55.1835 19.5486 55.2079 19.6655C55.2324 19.7823 55.2844 19.8917 55.3596 19.9844C55.4316 20.0773 55.524 20.1524 55.6297 20.2039C55.7353 20.2554 55.8514 20.2819 55.969 20.2812H61.4377V25.75C61.4377 25.9572 61.52 26.1559 61.6666 26.3024C61.8131 26.4489 62.0118 26.5312 62.219 26.5312C62.4262 26.5312 62.6249 26.4489 62.7714 26.3024C62.9179 26.1559 63.0002 25.9572 63.0002 25.75V13.25C63.0002 13.0428 62.9179 12.8441 62.7714 12.6976C62.6249 12.5511 62.4262 12.4688 62.219 12.4688C62.0118 12.4688 61.8131 12.5511 61.6666 12.6976C61.52 12.8441 61.4377 13.0428 61.4377 13.25V18.75H56.969L58.3127 13.4687C58.3456 13.366 58.3559 13.2574 58.343 13.1504C58.3301 13.0433 58.2942 12.9403 58.2378 12.8483C58.1815 12.7564 58.106 12.6777 58.0164 12.6175C57.9269 12.5574 57.8254 12.5173 57.719 12.5V12.5ZM45.9377 25.3437C45.8579 25.4619 45.8119 25.5996 45.8047 25.7421C45.7975 25.8845 45.8295 26.0261 45.8971 26.1517C45.9647 26.2772 46.0654 26.3819 46.1882 26.4543C46.3111 26.5267 46.4514 26.5641 46.594 26.5625H52.844C53.0512 26.5625 53.2499 26.4802 53.3964 26.3337C53.5429 26.1872 53.6252 25.9885 53.6252 25.7813C53.6252 25.5741 53.5429 25.3753 53.3964 25.2288C53.2499 25.0823 53.0512 25 52.844 25H48.0471L52.594 18.2031C52.9635 17.6396 53.1757 16.9876 53.2087 16.3146C53.2417 15.6415 53.0942 14.9719 52.7815 14.375C52.4887 13.801 52.0405 13.3208 51.4879 12.9893C50.9354 12.6578 50.3008 12.4882 49.6565 12.5C48.6314 12.5164 47.6538 12.9352 46.9347 13.666C46.2156 14.3968 45.8126 15.381 45.8127 16.4062C45.8127 16.6135 45.895 16.8122 46.0416 16.9587C46.1881 17.1052 46.3868 17.1875 46.594 17.1875C46.8012 17.1875 46.9999 17.1052 47.1464 16.9587C47.2929 16.8122 47.3752 16.6135 47.3752 16.4062C47.3752 16.0958 47.4369 15.7885 47.5566 15.5021C47.6763 15.2156 47.8518 14.9559 48.0727 14.7378C48.2937 14.5198 48.5557 14.3478 48.8437 14.2319C49.1317 14.1159 49.4398 14.0584 49.7502 14.0625C50.0802 14.0823 50.399 14.1898 50.6736 14.3738C50.9483 14.5578 51.1689 14.8117 51.3127 15.1094C51.4992 15.4538 51.5877 15.8428 51.5684 16.234C51.5491 16.6253 51.4228 17.0037 51.2034 17.3281L45.9377 25.3437Z" fill="#FFB600"/>
<path d="M15.3438 42.1875H30.9688C31.176 42.1875 31.3747 42.1052 31.5212 41.9587C31.6677 41.8122 31.75 41.6135 31.75 41.4062C31.75 41.199 31.6677 41.0003 31.5212 40.8538C31.3747 40.7073 31.176 40.625 30.9688 40.625H15.3438C15.1365 40.625 14.9378 40.7073 14.7913 40.8538C14.6448 41.0003 14.5625 41.199 14.5625 41.4062C14.5625 41.6135 14.6448 41.8122 14.7913 41.9587C14.9378 42.1052 15.1365 42.1875 15.3438 42.1875ZM15.3438 46.875H27.8438C28.051 46.875 28.2497 46.7927 28.3962 46.6462C28.5427 46.4997 28.625 46.301 28.625 46.0938C28.625 45.8865 28.5427 45.6878 28.3962 45.5413C28.2497 45.3948 28.051 45.3125 27.8438 45.3125H15.3438C15.1365 45.3125 14.9378 45.3948 14.7913 45.5413C14.6448 45.6878 14.5625 45.8865 14.5625 46.0938C14.5625 46.301 14.6448 46.4997 14.7913 46.6462C14.9378 46.7927 15.1365 46.875 15.3438 46.875Z" fill="#2D3142"/>
<path d="M55.1875 3.90624C53.1356 3.80364 51.0836 4.10621 49.1486 4.79665C47.2136 5.48709 45.4336 6.5519 43.9101 7.93027C40.8334 10.714 38.9885 14.606 38.7812 18.75C38.574 22.894 40.0215 26.9506 42.8053 30.0274C45.589 33.1041 49.481 34.949 53.625 35.1562V35.9375C53.6252 36.0776 53.6632 36.2151 53.7348 36.3355C53.8064 36.456 53.9091 36.5549 54.0321 36.622C54.1552 36.6891 54.294 36.7219 54.434 36.7169C54.5741 36.712 54.7102 36.6694 54.8281 36.5937L57.2813 35.0312C57.3909 34.9604 57.4811 34.8632 57.5435 34.7486C57.6059 34.634 57.6386 34.5055 57.6386 34.375C57.6386 34.2445 57.6059 34.116 57.5435 34.0014C57.4811 33.8867 57.3909 33.7896 57.2813 33.7187L54.8281 32.1562C54.7102 32.0806 54.5741 32.038 54.434 32.033C54.294 32.0281 54.1552 32.0608 54.0321 32.1279C53.9091 32.195 53.8064 32.294 53.7348 32.4144C53.6632 32.5349 53.6252 32.6724 53.625 32.8125V33.5625C50.2721 33.1831 47.1675 31.6107 44.8776 29.1323C42.5878 26.654 41.2654 23.4349 41.1518 20.0626C41.0382 16.6902 42.141 13.3894 44.2589 10.7626C46.3768 8.13583 49.3686 6.35812 52.6884 5.75394C56.0081 5.14977 59.4344 5.7594 62.342 7.47158C65.2496 9.18377 67.4446 11.8843 68.5264 15.0805C69.6083 18.2766 69.5049 21.7552 68.235 24.8814C66.9652 28.0076 64.6136 30.573 61.6094 32.1094C61.4404 32.2111 61.3161 32.3729 61.2615 32.5625C61.2068 32.7521 61.226 32.9552 61.315 33.1313C61.404 33.3073 61.5563 33.4432 61.7413 33.5116C61.9263 33.58 62.1304 33.5758 62.3125 33.5C63.1076 33.0712 63.8609 32.569 64.5625 32V61.6875C64.5666 61.9979 64.5091 62.306 64.3931 62.594C64.2772 62.882 64.1052 63.144 63.8872 63.365C63.6691 63.586 63.4094 63.7614 63.1229 63.8811C62.8365 64.0009 62.5292 64.0625 62.2188 64.0625H13.7812C13.1596 64.0625 12.5635 63.8156 12.124 63.376C11.6844 62.9365 11.4375 62.3403 11.4375 61.7187V22.6562C11.4375 22.449 11.3552 22.2503 11.2087 22.1038C11.0622 21.9573 10.8635 21.875 10.6562 21.875C10.449 21.875 10.2503 21.9573 10.1038 22.1038C9.95731 22.2503 9.875 22.449 9.875 22.6562V61.7187C9.875 62.7547 10.2866 63.7483 11.0191 64.4809C11.7517 65.2134 12.7452 65.625 13.7812 65.625H62.2188C63.2548 65.625 64.2483 65.2134 64.9809 64.4809C65.7135 63.7483 66.125 62.7547 66.125 61.7187V30.6719C68.3352 28.4983 69.849 25.7164 70.4737 22.6801C71.0985 19.6438 70.8059 16.4903 69.6333 13.6207C68.4607 10.7511 66.461 8.29517 63.8886 6.56531C61.3162 4.83545 58.2874 3.90984 55.1875 3.90624V3.90624Z" fill="#2D3142"/>
<path d="M46.5938 52.3438H51.2812M46.5938 47.6562H55.9688H46.5938Z" stroke-linecap="round" stroke-linejoin="round"/>
<path d="M59.0938 42.1875H43.4688C42.1743 42.1875 41.125 43.2368 41.125 44.5312V55.4688C41.125 56.7632 42.1743 57.8125 43.4688 57.8125H59.0938C60.3882 57.8125 61.4375 56.7632 61.4375 55.4688V44.5312C61.4375 43.2368 60.3882 42.1875 59.0938 42.1875Z" fill="#FFB600"/>
<path d="M21.5938 50H16.9062C15.6118 50 14.5625 51.0493 14.5625 52.3438V55.4688C14.5625 56.7632 15.6118 57.8125 16.9062 57.8125H21.5938C22.8882 57.8125 23.9375 56.7632 23.9375 55.4688V52.3438C23.9375 51.0493 22.8882 50 21.5938 50Z" fill="#FFB600"/>
<path d="M32.5312 50H29.4062C28.1118 50 27.0625 51.0493 27.0625 52.3438V55.4688C27.0625 56.7632 28.1118 57.8125 29.4062 57.8125H32.5312C33.8257 57.8125 34.875 56.7632 34.875 55.4688V52.3438C34.875 51.0493 33.8257 50 32.5312 50Z" fill="#FFB600"/>
<path d="M40.6719 23.4375H10.6562C9.62025 23.4375 8.62668 23.0259 7.89411 22.2934C7.16155 21.5608 6.75 20.5673 6.75 19.5312V13.2812C6.75 12.2452 7.16155 11.2517 7.89411 10.5191C8.62668 9.78655 9.62025 9.375 10.6562 9.375H43.6875C43.8947 9.375 44.0934 9.45731 44.2399 9.60382C44.3864 9.75034 44.4687 9.94905 44.4687 10.1562C44.4687 10.3635 44.3864 10.5622 44.2399 10.7087C44.0934 10.8552 43.8947 10.9375 43.6875 10.9375H10.6562C10.0346 10.9375 9.43851 11.1844 8.99897 11.624C8.55943 12.0635 8.3125 12.6596 8.3125 13.2812V19.5312C8.3125 20.1529 8.55943 20.749 8.99897 21.1885C9.43851 21.6281 10.0346 21.875 10.6562 21.875H40.6719C40.8791 21.875 41.0778 21.9573 41.2243 22.1038C41.3708 22.2503 41.4531 22.449 41.4531 22.6562C41.4531 22.8635 41.3708 23.0622 41.2243 23.2087C41.0778 23.3552 40.8791 23.4375 40.6719 23.4375Z" fill="#231F20"/>
<path d="M39.5625 19.5312C39.5584 15.8009 40.9011 12.1944 43.3438 9.375H26.2812C26.074 9.375 25.8753 9.45731 25.7288 9.60382C25.5823 9.75034 25.5 9.94905 25.5 10.1562V25.4063C25.5079 25.9516 25.7033 26.4775 26.0533 26.8958C26.4033 27.3141 26.8865 27.5991 27.4219 27.7031C28.0058 27.8745 28.6303 27.8461 29.1963 27.6225C29.7624 27.399 30.2376 26.9929 30.5469 26.4688C31.1094 25.4375 31.5937 25 32.1094 25C32.58 25.0192 33.0397 25.1478 33.4519 25.3757C33.8642 25.6035 34.2177 25.9242 34.4844 26.3125C34.892 26.8642 35.4211 27.3146 36.0307 27.6289C36.6404 27.9432 37.3142 28.113 38 28.125C38.6233 28.1198 39.2378 27.9771 39.7996 27.707C40.3614 27.4369 40.8567 27.0461 41.25 26.5625C40.1421 24.3842 39.564 21.9751 39.5625 19.5312V19.5312Z" fill="#FFB600"/>
</symbol><symbol viewBox="0 0 76 75" fill="none" id="everything" xmlns="http://www.w3.org/2000/svg">
<path d="M18.4688 64.0625H15.3438C15.1365 64.0625 14.9378 64.1448 14.7913 64.2913C14.6448 64.4378 14.5625 64.6366 14.5625 64.8438C14.5625 65.0509 14.6448 65.2497 14.7913 65.3962C14.9378 65.5427 15.1365 65.625 15.3438 65.625H18.4688C18.676 65.625 18.8747 65.5427 19.0212 65.3962C19.1677 65.2497 19.25 65.0509 19.25 64.8438C19.25 64.6366 19.1677 64.4378 19.0212 64.2913C18.8747 64.1448 18.676 64.0625 18.4688 64.0625ZM20.0312 60.9375H15.3438C15.1365 60.9375 14.9378 61.0198 14.7913 61.1663C14.6448 61.3128 14.5625 61.5116 14.5625 61.7188C14.5625 61.9259 14.6448 62.1247 14.7913 62.2712C14.9378 62.4177 15.1365 62.5 15.3438 62.5H20.0312C20.2385 62.5 20.4372 62.4177 20.5837 62.2712C20.7302 62.1247 20.8125 61.9259 20.8125 61.7188C20.8125 61.5116 20.7302 61.3128 20.5837 61.1663C20.4372 61.0198 20.2385 60.9375 20.0312 60.9375ZM16.9062 20.3125H24.7188C24.926 20.3125 25.1247 20.2302 25.2712 20.0837C25.4177 19.9372 25.5 19.7385 25.5 19.5312C25.5 19.324 25.4177 19.1253 25.2712 18.9788C25.1247 18.8323 24.926 18.75 24.7188 18.75H16.9062C16.699 18.75 16.5003 18.8323 16.3538 18.9788C16.2073 19.1253 16.125 19.324 16.125 19.5312C16.125 19.7385 16.2073 19.9372 16.3538 20.0837C16.5003 20.2302 16.699 20.3125 16.9062 20.3125ZM16.9062 17.1875H26.2812C26.4885 17.1875 26.6872 17.1052 26.8337 16.9587C26.9802 16.8122 27.0625 16.6135 27.0625 16.4062C27.0625 16.199 26.9802 16.0003 26.8337 15.8538C26.6872 15.7073 26.4885 15.625 26.2812 15.625H16.9062C16.699 15.625 16.5003 15.7073 16.3538 15.8538C16.2073 16.0003 16.125 16.199 16.125 16.4062C16.125 16.6135 16.2073 16.8122 16.3538 16.9587C16.5003 17.1052 16.699 17.1875 16.9062 17.1875ZM38.7812 64.0625H34.0938C33.8865 64.0625 33.6878 64.1448 33.5413 64.2913C33.3948 64.4378 33.3125 64.6366 33.3125 64.8438C33.3125 65.0509 33.3948 65.2497 33.5413 65.3962C33.6878 65.5427 33.8865 65.625 34.0938 65.625H38.7812C38.9885 65.625 39.1872 65.5427 39.3337 65.3962C39.4802 65.2497 39.5625 65.0509 39.5625 64.8438C39.5625 64.6366 39.4802 64.4378 39.3337 64.2913C39.1872 64.1448 38.9885 64.0625 38.7812 64.0625ZM40.3438 60.9375H34.0938C33.8865 60.9375 33.6878 61.0198 33.5413 61.1663C33.3948 61.3128 33.3125 61.5116 33.3125 61.7188C33.3125 61.9259 33.3948 62.1247 33.5413 62.2712C33.6878 62.4177 33.8865 62.5 34.0938 62.5H40.3438C40.551 62.5 40.7497 62.4177 40.8962 62.2712C41.0427 62.1247 41.125 61.9259 41.125 61.7188C41.125 61.5116 41.0427 61.3128 40.8962 61.1663C40.7497 61.0198 40.551 60.9375 40.3438 60.9375ZM49.7188 15.625H55.9688C56.1759 15.625 56.3747 15.5427 56.5212 15.3962C56.6677 15.2497 56.75 15.051 56.75 14.8438C56.75 14.6365 56.6677 14.4378 56.5212 14.2913C56.3747 14.1448 56.1759 14.0625 55.9688 14.0625H49.7188C49.5116 14.0625 49.3128 14.1448 49.1663 14.2913C49.0198 14.4378 48.9375 14.6365 48.9375 14.8438C48.9375 15.051 49.0198 15.2497 49.1663 15.3962C49.3128 15.5427 49.5116 15.625 49.7188 15.625ZM57.5312 25C57.3241 25 57.1253 25.0823 56.9788 25.2288C56.8323 25.3753 56.75 25.574 56.75 25.7812V33.5938C56.75 33.801 56.8323 33.9997 56.9788 34.1462C57.1253 34.2927 57.3241 34.375 57.5312 34.375C57.7384 34.375 57.9372 34.2927 58.0837 34.1462C58.2302 33.9997 58.3125 33.801 58.3125 33.5938V25.7812C58.3125 25.574 58.2302 25.3753 58.0837 25.2288C57.9372 25.0823 57.7384 25 57.5312 25ZM60.6562 25C60.4491 25 60.2503 25.0823 60.1038 25.2288C59.9573 25.3753 59.875 25.574 59.875 25.7812V35.1562C59.875 35.3635 59.9573 35.5622 60.1038 35.7087C60.2503 35.8552 60.4491 35.9375 60.6562 35.9375C60.8634 35.9375 61.0622 35.8552 61.2087 35.7087C61.3552 35.5622 61.4375 35.3635 61.4375 35.1562V25.7812C61.4375 25.574 61.3552 25.3753 61.2087 25.2288C61.0622 25.0823 60.8634 25 60.6562 25Z" fill="#2D3142"/>
<path d="M64.0938 20.3125H61.2969C61.384 20.061 61.4315 19.7974 61.4375 19.5312V13.2812C61.4375 12.6596 61.1906 12.0635 60.751 11.624C60.3115 11.1844 59.7154 10.9375 59.0938 10.9375H46.5938C46.0153 10.9395 45.4583 11.1567 45.0312 11.5469C44.6042 11.1567 44.0472 10.9395 43.4688 10.9375H40.9844C41.0715 10.686 41.119 10.4224 41.125 10.1562V7.03125C41.125 6.40965 40.8781 5.81351 40.4385 5.37397C39.999 4.93443 39.4029 4.6875 38.7812 4.6875H15.3438C14.7221 4.6875 14.126 4.93443 13.6865 5.37397C13.2469 5.81351 13 6.40965 13 7.03125V10.1562C12.9996 10.4563 13.058 10.7536 13.1719 11.0312C12.675 11.1623 12.2354 11.4541 11.9217 11.8611C11.608 12.268 11.4378 12.7674 11.4375 13.2812V50.0938C10.9964 50.1926 10.6019 50.438 10.3181 50.7898C10.0344 51.1417 9.87818 51.5793 9.875 52.0312V69.5312C9.875 69.7384 9.95731 69.9372 10.1038 70.0837C10.2503 70.2302 10.449 70.3125 10.6562 70.3125H65.3438C65.5509 70.3125 65.7497 70.2302 65.8962 70.0837C66.0427 69.9372 66.125 69.7384 66.125 69.5312V22.3438C66.125 21.805 65.911 21.2884 65.5301 20.9074C65.1491 20.5265 64.6325 20.3125 64.0938 20.3125ZM46.5938 12.5H59.0938C59.3009 12.5 59.4997 12.5823 59.6462 12.7288C59.7927 12.8753 59.875 13.074 59.875 13.2812V19.5312C59.875 19.7385 59.7927 19.9372 59.6462 20.0837C59.4997 20.2302 59.3009 20.3125 59.0938 20.3125H46.5938C46.3866 20.3125 46.1878 20.2302 46.0413 20.0837C45.8948 19.9372 45.8125 19.7385 45.8125 19.5312V13.2812C45.8125 13.074 45.8948 12.8753 46.0413 12.7288C46.1878 12.5823 46.3866 12.5 46.5938 12.5ZM48.9375 45.3125H45.8125V21.7344C46.064 21.8215 46.3276 21.869 46.5938 21.875H49.0781C48.991 22.1265 48.9435 22.3901 48.9375 22.6562V45.3125ZM39.5625 7.03125V10.1562C39.5625 10.3635 39.4802 10.5622 39.3337 10.7087C39.1872 10.8552 38.9885 10.9375 38.7812 10.9375H36.4375V6.25H38.7812C38.9885 6.25 39.1872 6.33231 39.3337 6.47882C39.4802 6.62534 39.5625 6.82405 39.5625 7.03125ZM14.5625 7.03125C14.5625 6.82405 14.6448 6.62534 14.7913 6.47882C14.9378 6.33231 15.1365 6.25 15.3438 6.25H34.875V10.9375H15.3438C15.1365 10.9375 14.9378 10.8552 14.7913 10.7087C14.6448 10.5622 14.5625 10.3635 14.5625 10.1562V7.03125ZM13.7812 12.5H43.4688C43.6759 12.5 43.8747 12.5823 44.0212 12.7288C44.1677 12.8753 44.25 13.074 44.25 13.2812V45.3125H39.5625V33.5938C39.5625 32.9721 39.3156 32.376 38.876 31.9365C38.4365 31.4969 37.8404 31.25 37.2188 31.25H18.4688C17.8471 31.25 17.251 31.4969 16.8115 31.9365C16.3719 32.376 16.125 32.9721 16.125 33.5938V50H13V13.2812C13 13.074 13.0823 12.8753 13.2288 12.7288C13.3753 12.5823 13.574 12.5 13.7812 12.5ZM30.9688 45.3125C30.3471 45.3125 29.751 45.5594 29.3115 45.999C28.8719 46.4385 28.625 47.0346 28.625 47.6562V50H17.6875V33.5938C17.6875 33.3865 17.7698 33.1878 17.9163 33.0413C18.0628 32.8948 18.2615 32.8125 18.4688 32.8125H37.2188C37.426 32.8125 37.6247 32.8948 37.7712 33.0413C37.9177 33.1878 38 33.3865 38 33.5938V45.3125H30.9688ZM11.4375 52.0312C11.4414 51.9082 11.4921 51.7912 11.5791 51.7041C11.6662 51.6171 11.7832 51.5664 11.9063 51.5625H28.625V68.75H11.4375V52.0312ZM30.1875 47.6562C30.1875 47.4491 30.2698 47.2503 30.4163 47.1038C30.5628 46.9573 30.7615 46.875 30.9688 46.875H51.5938C51.7168 46.8789 51.8338 46.9296 51.9209 47.0166C52.0079 47.1037 52.0586 47.2207 52.0625 47.3438V68.75H30.1875V47.6562ZM64.5625 68.75H53.625V47.3438C53.625 46.805 53.411 46.2884 53.0301 45.9074C52.6491 45.5265 52.1325 45.3125 51.5938 45.3125H50.5V22.6562C50.5 22.449 50.5823 22.2503 50.7288 22.1038C50.8753 21.9573 51.0741 21.875 51.2812 21.875H64.0938C64.2168 21.8789 64.3338 21.9296 64.4209 22.0166C64.5079 22.1037 64.5586 22.2207 64.5625 22.3438V68.75Z" fill="#2D3142"/>
<path d="M23.1562 50H16.9062C16.4748 50 16.125 50.3498 16.125 50.7812V55.4688C16.125 55.9002 16.4748 56.25 16.9062 56.25H23.1562C23.5877 56.25 23.9375 55.9002 23.9375 55.4688V50.7812C23.9375 50.3498 23.5877 50 23.1562 50Z" fill="#FFB600"/>
<path d="M32.5312 31.25H23.1562C22.7248 31.25 22.375 31.5998 22.375 32.0312V36.7188C22.375 37.1502 22.7248 37.5 23.1562 37.5H32.5312C32.9627 37.5 33.3125 37.1502 33.3125 36.7188V32.0312C33.3125 31.5998 32.9627 31.25 32.5312 31.25Z" fill="#FFB600"/>
<path d="M38.7812 14.0625H34.0938C32.7993 14.0625 31.75 15.1118 31.75 16.4062V21.0938C31.75 22.3882 32.7993 23.4375 34.0938 23.4375H38.7812C40.0757 23.4375 41.125 22.3882 41.125 21.0938V16.4062C41.125 15.1118 40.0757 14.0625 38.7812 14.0625Z" fill="#FFB600"/>
<path d="M45.0312 45.3125H37.2188C36.7873 45.3125 36.4375 45.6623 36.4375 46.0938V50.7812C36.4375 51.2127 36.7873 51.5625 37.2188 51.5625H45.0312C45.4627 51.5625 45.8125 51.2127 45.8125 50.7812V46.0938C45.8125 45.6623 45.4627 45.3125 45.0312 45.3125Z" fill="#FFB600"/>
</symbol><symbol viewBox="0 0 76 75" fill="none" id="everywhere" xmlns="http://www.w3.org/2000/svg">
<path d="M18.4688 17.1875H10.6562C10.449 17.1875 10.2503 17.2698 10.1038 17.4163C9.95731 17.5628 9.875 17.7615 9.875 17.9688C9.875 18.176 9.95731 18.3747 10.1038 18.5212C10.2503 18.6677 10.449 18.75 10.6562 18.75H18.4688C18.676 18.75 18.8747 18.6677 19.0212 18.5212C19.1677 18.3747 19.25 18.176 19.25 17.9688C19.25 17.7615 19.1677 17.5628 19.0212 17.4163C18.8747 17.2698 18.676 17.1875 18.4688 17.1875ZM15.3438 21.875H10.6562C10.449 21.875 10.2503 21.9573 10.1038 22.1038C9.95731 22.2503 9.875 22.449 9.875 22.6562C9.875 22.8635 9.95731 23.0622 10.1038 23.2087C10.2503 23.3552 10.449 23.4375 10.6562 23.4375H15.3438C15.551 23.4375 15.7497 23.3552 15.8962 23.2087C16.0427 23.0622 16.125 22.8635 16.125 22.6562C16.125 22.449 16.0427 22.2503 15.8962 22.1038C15.7497 21.9573 15.551 21.875 15.3438 21.875Z" fill="#2D3142"/>
<path d="M60.6562 43.75C54.8125 43.75 50.8281 48.1094 50.5312 54.6875H23.9375C21.8655 54.6875 19.8784 53.8644 18.4132 52.3993C16.9481 50.9341 16.125 48.947 16.125 46.875C16.125 44.803 16.9481 42.8159 18.4132 41.3507C19.8784 39.8856 21.8655 39.0625 23.9375 39.0625H53.625C56.9402 39.0625 60.1196 37.7455 62.4638 35.4013C64.808 33.0571 66.125 29.8777 66.125 26.5625C66.125 23.2473 64.808 20.0679 62.4638 17.7237C60.1196 15.3795 56.9402 14.0625 53.625 14.0625H31.75V7.03125C31.75 6.40965 31.5031 5.81351 31.0635 5.37397C30.624 4.93443 30.0279 4.6875 29.4062 4.6875H7.53125C6.90965 4.6875 6.31351 4.93443 5.87397 5.37397C5.43443 5.81351 5.1875 6.40965 5.1875 7.03125V25.7812C5.1875 26.4029 5.43443 26.999 5.87397 27.4385C6.31351 27.8781 6.90965 28.125 7.53125 28.125H29.4062C30.0279 28.125 30.624 27.8781 31.0635 27.4385C31.5031 26.999 31.75 26.4029 31.75 25.7812V20.3125H53.625C55.2826 20.3125 56.8723 20.971 58.0444 22.1431C59.2165 23.3152 59.875 24.9049 59.875 26.5625C59.875 28.2201 59.2165 29.8098 58.0444 30.9819C56.8723 32.154 55.2826 32.8125 53.625 32.8125H23.9375C20.2079 32.8125 16.631 34.2941 13.9938 36.9313C11.3566 39.5685 9.875 43.1454 9.875 46.875C9.875 50.6046 11.3566 54.1815 13.9938 56.8187C16.631 59.4559 20.2079 60.9375 23.9375 60.9375H51.7969C53.8594 65.7969 58.0469 70.3125 60.6562 70.3125C64.8281 70.3125 70.8125 61.5781 70.8125 55.4688C70.8125 48.4375 66.7344 43.75 60.6562 43.75ZM30.1875 25.7812C30.1875 25.9885 30.1052 26.1872 29.9587 26.3337C29.8122 26.4802 29.6135 26.5625 29.4062 26.5625H7.53125C7.32405 26.5625 7.12534 26.4802 6.97882 26.3337C6.83231 26.1872 6.75 25.9885 6.75 25.7812V7.03125C6.75 6.82405 6.83231 6.62534 6.97882 6.47882C7.12534 6.33231 7.32405 6.25 7.53125 6.25H29.4062C29.6135 6.25 29.8122 6.33231 29.9587 6.47882C30.1052 6.62534 30.1875 6.82405 30.1875 7.03125V25.7812ZM23.9375 59.375C20.6223 59.375 17.4429 58.058 15.0987 55.7138C12.7545 53.3696 11.4375 50.1902 11.4375 46.875C11.4375 43.5598 12.7545 40.3804 15.0987 38.0362C17.4429 35.692 20.6223 34.375 23.9375 34.375H53.625C55.697 34.375 57.6841 33.5519 59.1493 32.0868C60.6144 30.6216 61.4375 28.6345 61.4375 26.5625C61.4375 24.4905 60.6144 22.5034 59.1493 21.0382C57.6841 19.5731 55.697 18.75 53.625 18.75H31.75V15.625H53.625C56.5258 15.625 59.3078 16.7773 61.359 18.8285C63.4102 20.8797 64.5625 23.6617 64.5625 26.5625C64.5625 29.4633 63.4102 32.2453 61.359 34.2965C59.3078 36.3477 56.5258 37.5 53.625 37.5H23.9375C21.4511 37.5 19.0665 38.4877 17.3084 40.2459C15.5502 42.004 14.5625 44.3886 14.5625 46.875C14.5625 49.3614 15.5502 51.746 17.3084 53.5041C19.0665 55.2623 21.4511 56.25 23.9375 56.25H50.5C50.5879 57.3149 50.8084 58.3647 51.1562 59.375H23.9375ZM60.6562 68.75C58.3125 68.75 52.0625 61.375 52.0625 55.4688C52.0625 50.4062 54.7188 45.3125 60.6562 45.3125C66.5938 45.3125 69.25 50.4062 69.25 55.4688C69.25 61.4531 63.5 68.75 60.6562 68.75Z" fill="#2D3142"/>
<path d="M23.1562 4.6875H13.7812C13.3498 4.6875 13 5.03728 13 5.46875V11.7188C13 12.1502 13.3498 12.5 13.7812 12.5H23.1562C23.5877 12.5 23.9375 12.1502 23.9375 11.7188V5.46875C23.9375 5.03728 23.5877 4.6875 23.1562 4.6875Z" fill="#FFB600"/>
<path d="M60.6562 59.375C63.6766 59.375 66.125 56.9266 66.125 53.9062C66.125 50.8859 63.6766 48.4375 60.6562 48.4375C57.6359 48.4375 55.1875 50.8859 55.1875 53.9062C55.1875 56.9266 57.6359 59.375 60.6562 59.375Z" fill="#FFB600"/>
</symbol><symbol viewBox="0 0 75 75" fill="none" id="hand" xmlns="http://www.w3.org/2000/svg">
<path d="M52.0425 35H44.9575C43.3241 35 42 36.4667 42 38.276V40.724C42 42.5333 43.3241 44 44.9575 44H52.0425C53.6759 44 55 42.5333 55 40.724V38.276C55 36.4667 53.6759 35 52.0425 35Z" fill="#FFB600"/>
<path d="M10.8627 70H5.83753C5.61541 70 5.40238 69.9131 5.24531 69.7584C5.08824 69.6036 5 69.3938 5 69.175V59.275C5.00127 59.1471 5.0321 59.0213 5.09015 58.9069C5.1482 58.7925 5.23194 58.6927 5.33501 58.615L12.6048 53.302C13.9062 52.3597 15.4789 51.851 17.094 51.85H27.6134C28.7227 51.8543 29.7853 52.2903 30.5697 53.063C31.3541 53.8356 31.7967 54.8823 31.8011 55.975C31.8267 56.2494 31.8267 56.5256 31.8011 56.8H39.0039C39.606 56.8026 40.2049 56.7135 40.7795 56.536L58.2839 51.0745C59.1642 50.8161 60.1108 50.8924 60.9368 51.2883C61.7627 51.6842 62.4078 52.3709 62.7445 53.2126C63.0813 54.0544 63.0852 54.99 62.7556 55.8345C62.4259 56.6789 61.7866 57.3709 60.964 57.7735L43.4428 66.0235C42.4196 66.4882 41.303 66.7195 40.1764 66.7H15.5362L11.3653 69.835C11.2197 69.9411 11.0438 69.9988 10.8627 70ZM6.67507 68.35H10.578L14.7321 65.215C14.8853 65.1114 15.0657 65.0541 15.2514 65.05H40.1764C41.0454 65.045 41.9028 64.8536 42.689 64.489L60.2103 56.239C60.6525 56.0366 61.0031 55.6804 61.1948 55.2387C61.3866 54.7971 61.4058 54.3012 61.2488 53.8465C61.0803 53.3586 60.7253 52.9547 60.2592 52.7206C59.7932 52.4864 59.2528 52.4405 58.7529 52.5925L41.1982 58.1035C40.4615 58.3336 39.6931 58.4505 38.9201 58.45H30.9636L30.5783 58.8955C29.7904 59.6671 28.7245 60.1001 27.6134 60.1H20.9132C20.691 60.1 20.478 60.0131 20.3209 59.8584C20.1639 59.7036 20.0756 59.4938 20.0756 59.275C20.0756 59.0562 20.1639 58.8464 20.3209 58.6916C20.478 58.5369 20.691 58.45 20.9132 58.45H27.6134C28.2789 58.4459 28.9162 58.1853 29.389 57.724C29.7399 57.3779 29.9789 56.9371 30.0757 56.4572C30.1724 55.9774 30.1227 55.4801 29.9327 55.0281C29.7427 54.5762 29.421 54.1898 29.0082 53.9178C28.5954 53.6458 28.11 53.5004 27.6134 53.5H17.094C15.8386 53.5012 14.617 53.9004 13.6099 54.6385L6.67507 59.6875V68.35ZM37.6638 37H25.9384C25.7162 37 25.5032 37.0869 25.3461 37.2416C25.1891 37.3964 25.1008 37.6062 25.1008 37.825C25.1008 38.0438 25.1891 38.2536 25.3461 38.4084C25.5032 38.5631 25.7162 38.65 25.9384 38.65H37.6638C37.886 38.65 38.099 38.5631 38.2561 38.4084C38.4131 38.2536 38.5014 38.0438 38.5014 37.825C38.5014 37.6062 38.4131 37.3964 38.2561 37.2416C38.099 37.0869 37.886 37 37.6638 37ZM34.3137 41.95H25.9384C25.7162 41.95 25.5032 42.0369 25.3461 42.1916C25.1891 42.3464 25.1008 42.5562 25.1008 42.775C25.1008 42.9938 25.1891 43.2036 25.3461 43.3584C25.5032 43.5131 25.7162 43.6 25.9384 43.6H34.3137C34.5358 43.6 34.7489 43.5131 34.9059 43.3584C35.063 43.2036 35.1512 42.9938 35.1512 42.775C35.1512 42.5562 35.063 42.3464 34.9059 42.1916C34.7489 42.0369 34.5358 41.95 34.3137 41.95Z" fill="#2D3142"/>
<path d="M46.9637 14.4375C46.9655 13.6198 47.045 12.8039 47.2012 12H30.8495C30.6246 12 30.4089 12.0856 30.2498 12.238C30.0908 12.3903 30.0014 12.597 30.0014 12.8125V21.4087C29.9821 21.9717 30.1629 22.5243 30.5142 22.976C30.8655 23.4277 31.3665 23.7517 31.9351 23.895C32.4927 24.0127 33.0755 23.9449 33.5873 23.7026C34.0992 23.4604 34.5096 23.0582 34.7509 22.5625C34.9035 22.27 35.2258 21.75 35.5142 21.75C36.2096 21.75 36.5658 22.205 37.2104 23.0175C37.4796 23.5688 37.8957 24.0424 38.4169 24.3904C38.938 24.7385 39.5458 24.9487 40.1788 25C40.8237 24.9599 41.4456 24.7548 41.9796 24.4061C42.5137 24.0574 42.9403 23.5779 43.2151 23.0175C43.7918 22.205 44.165 21.75 44.9113 21.75C45.1997 21.75 45.5219 22.27 45.6746 22.5625C45.9133 23.0602 46.3234 23.4642 46.836 23.7068C47.3486 23.9494 47.9327 24.0158 48.4904 23.895C48.8048 23.8187 49.1003 23.6831 49.3595 23.4961C49.6187 23.3092 49.8365 23.0747 50 22.8062C48.0528 20.4135 46.9854 17.4714 46.9637 14.4375Z" fill="#FFB600"/>
<path d="M60.8333 0C57.5125 0.0059204 54.2989 1.193 51.7528 3.35437C49.2066 5.51573 47.4892 8.51433 46.9 11.8276H24.1833C23.0738 11.8276 22.0098 12.2744 21.2253 13.0698C20.4407 13.8651 20 14.9438 20 16.0686V44.911C20 45.9955 20.4249 47.0355 21.1813 47.8024C21.9377 48.5692 22.9636 49 24.0333 49H55.9667C57.0364 49 58.0623 48.5692 58.8187 47.8024C59.5751 47.0355 60 45.9955 60 44.911V28.7241H60.8333C64.5906 28.7241 68.1939 27.211 70.8507 24.5176C73.5074 21.8242 75 18.1711 75 14.3621C75 10.553 73.5074 6.89996 70.8507 4.20655C68.1939 1.51314 64.5906 0 60.8333 0ZM58.3333 44.911C58.329 45.546 58.0782 46.1537 57.6353 46.6027C57.1924 47.0517 56.593 47.3059 55.9667 47.3103H24.0333C23.407 47.3059 22.8076 47.0517 22.3647 46.6027C21.9218 46.1537 21.671 45.546 21.6667 44.911V16.0686C21.671 15.3933 21.9376 14.7469 22.4086 14.2694C22.8796 13.7919 23.5172 13.5217 24.1833 13.5172H46.6667V14.3621C46.6725 17.7287 47.8434 20.9866 49.9754 23.5679C52.1074 26.1492 55.0652 27.8902 58.3333 28.4876V44.911ZM60.8333 27.0345C58.3611 27.0345 55.9443 26.2913 53.8887 24.8988C51.8331 23.5063 50.2309 21.5272 49.2848 19.2116C48.3387 16.896 48.0912 14.348 48.5735 11.8898C49.0558 9.4316 50.2463 7.17359 51.9945 5.40132C53.7427 3.62905 55.9699 2.42212 58.3947 1.93315C60.8195 1.44418 63.3328 1.69514 65.6169 2.65428C67.901 3.61343 69.8532 5.23769 71.2267 7.32165C72.6002 9.40562 73.3333 11.8557 73.3333 14.3621C73.3333 17.723 72.0164 20.9463 69.6722 23.3228C67.328 25.6994 64.1485 27.0345 60.8333 27.0345Z" fill="#2D3142"/>
<path d="M64.2 20.3411H61.8V7.89899C61.8125 7.72412 61.7712 7.54965 61.6821 7.40062C61.593 7.25159 61.4606 7.13567 61.304 7.06952C61.1598 7.00176 60.9986 6.98292 60.8435 7.01569C60.6884 7.04846 60.5472 7.13116 60.44 7.252L57.24 10.5699C57.0915 10.7239 57.008 10.9327 57.008 11.1505C57.008 11.3683 57.0915 11.5772 57.24 11.7311C57.3885 11.8851 57.59 11.9717 57.8 11.9717C58.01 11.9717 58.2115 11.8851 58.36 11.7311L60.2 9.90631V20.3411H57.8C57.5878 20.3411 57.3843 20.4284 57.2343 20.584C57.0843 20.7396 57 20.9505 57 21.1705C57 21.3905 57.0843 21.6015 57.2343 21.7571C57.3843 21.9126 57.5878 22 57.8 22H64.2C64.4122 22 64.6157 21.9126 64.7657 21.7571C64.9157 21.6015 65 21.3905 65 21.1705C65 20.9505 64.9157 20.7396 64.7657 20.584C64.6157 20.4284 64.4122 20.3411 64.2 20.3411Z" fill="#2D3142"/>
</symbol><symbol viewBox="0 0 40 40" fill="none" id="logo" xmlns="http://www.w3.org/2000/svg">
<path fill-rule="evenodd" clip-rule="evenodd" d="M9 0C4.02944 0 0 4.02944 0 9V31C0 35.9706 4.02944 40 9 40H31C35.9706 40 40 35.9706 40 31V9C40 4.02944 35.9706 0 31 0H9ZM28.0153 9.52327C24.9267 6.80631 21.9343 6.4379 17.8033 6.68756C14.2865 6.90011 11.8656 7.55709 9.47504 10.1098C5.58714 14.2613 5.7564 20.281 9.47504 24.5808C11.8127 27.2837 15.2255 28.0563 17.8033 28.492C21.5619 29.1272 26.3298 24.8743 26.3298 24.8743C26.3298 24.8743 21.0406 25.8525 17.8033 24.5808C16.0375 23.887 14.9101 23.4168 13.7383 21.9409C11.4708 19.0846 10.8987 14.9578 13.7383 12.652C15.0333 11.6005 17.8033 11.2832 17.8033 11.2832C17.8033 11.2832 22.2649 10.6001 24.4461 12.652C25.5129 13.6556 26.1595 14.5365 26.7264 15.8787C28.4387 19.9322 28.3678 23.0411 26.7264 27.123C25.279 30.7228 20.1828 34.6519 20.1828 34.6519C20.1828 34.6519 23.949 34.549 26.0324 33.4786C28.9105 32 30.9625 29.0191 31.882 25.9498C33.1709 21.6476 32.8735 19.7899 31.882 15.5854C31.882 15.5854 31.1039 12.2402 28.0153 9.52327ZM18.4973 18.0299C19.4829 18.0299 20.2819 17.2419 20.2819 16.2699C20.2819 15.2979 19.4829 14.5099 18.4973 14.5099C17.5117 14.5099 16.7127 15.2979 16.7127 16.2699C16.7127 17.2419 17.5117 18.0299 18.4973 18.0299Z" fill="#FDB90B"/>
</symbol><symbol viewBox="0 0 75 75" fill="none" id="savings" xmlns="http://www.w3.org/2000/svg">
<path d="M23.4548 42.6923H53.8529C54.8711 42.6923 55.8477 42.2778 56.5677 41.5399C57.2878 40.802 57.6923 39.8012 57.6923 38.7577V11.004C57.6923 9.92171 57.2727 8.8837 56.5259 8.11838C55.7791 7.35305 54.7662 6.9231 53.7101 6.9231H23.5658C22.5152 6.93168 21.5104 7.36541 20.7705 8.12981C20.0305 8.89421 19.6153 9.92732 19.6154 11.004V38.7577C19.6154 39.8012 20.0199 40.802 20.7399 41.5399C21.4599 42.2778 22.4365 42.6923 23.4548 42.6923ZM21.2019 11.004C21.2061 10.3542 21.4598 9.73225 21.9082 9.27275C22.3565 8.81326 22.9635 8.55323 23.5976 8.54897H53.7418C54.3704 8.56167 54.9692 8.82542 55.4108 9.28401C55.8524 9.74261 56.1017 10.3598 56.1057 11.004V38.7577C56.1016 39.3687 55.8629 39.9535 55.4413 40.3855C55.0197 40.8176 54.4491 41.0622 53.8529 41.0665H23.4548C22.8586 41.0622 22.2879 40.8176 21.8663 40.3855C21.4447 39.9535 21.206 39.3687 21.2019 38.7577V11.004Z" fill="#2D3142"/>
<path d="M24.9747 32.8647H36.2399C36.4533 32.8647 36.6579 32.7788 36.8088 32.6258C36.9597 32.4728 37.0445 32.2654 37.0445 32.0491C37.0445 31.8327 36.9597 31.6253 36.8088 31.4723C36.6579 31.3193 36.4533 31.2334 36.2399 31.2334H24.9747C24.7613 31.2334 24.5566 31.3193 24.4057 31.4723C24.2548 31.6253 24.17 31.8327 24.17 32.0491C24.17 32.2654 24.2548 32.4728 24.4057 32.6258C24.5566 32.7788 24.7613 32.8647 24.9747 32.8647ZM24.9747 37.7586H33.0212C33.2346 37.7586 33.4393 37.6727 33.5902 37.5197C33.7411 37.3667 33.8259 37.1593 33.8259 36.943C33.8259 36.7266 33.7411 36.5192 33.5902 36.3662C33.4393 36.2132 33.2346 36.1273 33.0212 36.1273H24.9747C24.7613 36.1273 24.5566 36.2132 24.4057 36.3662C24.2548 36.5192 24.17 36.7266 24.17 36.943C24.17 37.1593 24.2548 37.3667 24.4057 37.5197C24.5566 37.6727 24.7613 37.7586 24.9747 37.7586ZM20.0663 44.6753C19.5922 44.1081 18.9748 43.6823 18.2802 43.4438C17.5856 43.2053 16.84 43.1629 16.1235 43.3213V28.7865C16.1235 27.2722 15.53 25.8199 14.4737 24.7492C13.4174 23.6784 11.9847 23.0769 10.4909 23.0769C9.85065 23.0769 9.23665 23.3347 8.78394 23.7936C8.33123 24.2525 8.0769 24.8749 8.0769 25.5239V48.9983C8.07785 49.8049 8.31291 50.5935 8.75282 51.2658L17.3304 64.3162C17.591 64.7246 17.7306 65.2001 17.7328 65.6865V69.5689C17.7328 69.7853 17.8175 69.9927 17.9685 70.1457C18.1194 70.2987 18.324 70.3846 18.5374 70.3846H29.8026C30.016 70.3846 30.2207 70.2987 30.3716 70.1457C30.5225 69.9927 30.6073 69.7853 30.6073 69.5689V59.0797C30.6132 57.2225 29.9229 55.4324 28.6761 54.0716L20.0663 44.6753ZM28.998 68.7533H19.3421V65.6701C19.3411 64.8635 19.1061 64.0749 18.6662 63.4026L10.0885 50.3522C9.83094 49.9485 9.69145 49.479 9.68622 48.9983V25.5239C9.68622 25.3075 9.77099 25.1001 9.92189 24.9471C10.0728 24.7941 10.2775 24.7082 10.4909 24.7082C11.5579 24.7082 12.5812 25.1379 13.3358 25.9027C14.0903 26.6675 14.5142 27.7048 14.5142 28.7865V44.088L14.4015 44.1859C13.5847 44.8807 13.0733 45.8757 12.9797 46.9524C12.8862 48.029 13.2181 49.0993 13.9026 49.9281L20.018 57.3342C20.0807 57.4299 20.1627 57.5111 20.2585 57.5724C20.3544 57.6338 20.4619 57.6739 20.5741 57.6902C20.6863 57.7065 20.8007 57.6985 20.9097 57.6669C21.0186 57.6353 21.1198 57.5807 21.2065 57.5067C21.2932 57.4327 21.3635 57.3409 21.4128 57.2374C21.4621 57.134 21.4892 57.0211 21.4925 56.9063C21.4958 56.7914 21.4751 56.6772 21.4317 56.571C21.3884 56.4648 21.3234 56.3691 21.2411 56.2902L15.1418 48.8841C14.924 48.6388 14.7574 48.3514 14.6521 48.0392C14.5467 47.727 14.5047 47.3964 14.5286 47.0674C14.5526 46.7383 14.6419 46.4175 14.7913 46.1243C14.9406 45.8311 15.147 45.5716 15.3978 45.3614C15.6487 45.1511 15.9389 44.9944 16.2511 44.9008C16.5632 44.8072 16.8908 44.7785 17.2142 44.8165C17.5375 44.8545 17.85 44.9584 18.1327 45.122C18.4154 45.2856 18.6626 45.5054 18.8593 45.7683L27.5013 55.1972C28.4664 56.253 29.0012 57.6403 28.998 59.0797V68.7533ZM66.8168 23.0769C65.3229 23.0769 63.8903 23.6784 62.8339 24.7492C61.7776 25.8199 61.1842 27.2722 61.1842 28.7865V43.3213C60.474 43.1582 59.7332 43.1967 59.0433 43.4327C58.3534 43.6687 57.741 44.093 57.2736 44.659L48.6316 54.0716C47.3848 55.4324 46.6945 57.2225 46.7004 59.0797V69.5689C46.7004 69.7853 46.7852 69.9927 46.9361 70.1457C47.087 70.2987 47.2916 70.3846 47.505 70.3846H58.7702C58.9836 70.3846 59.1883 70.2987 59.3392 70.1457C59.4901 69.9927 59.5749 69.7853 59.5749 69.5689V65.6701C59.5771 65.1838 59.7167 64.7083 59.9772 64.2999L68.5548 51.2495C68.9917 50.5818 69.2267 49.7994 69.2307 48.9983V25.5239C69.2307 24.8749 68.9764 24.2525 68.5237 23.7936C68.071 23.3347 67.457 23.0769 66.8168 23.0769ZM67.6214 48.9983C67.6193 49.4846 67.4796 49.9601 67.2191 50.3685L58.6415 63.4189C58.2046 64.0866 57.9697 64.869 57.9656 65.6701V68.7533H48.3097V59.0797C48.3065 57.6403 48.8412 56.253 49.8064 55.1972L58.4645 45.7357C58.8282 45.2932 59.3343 44.995 59.8936 44.8936C60.4529 44.7921 61.0296 44.8939 61.5221 45.181H61.6348L61.8762 45.3605C62.365 45.7815 62.6697 46.3813 62.724 47.0291C62.7782 47.677 62.5776 48.3203 62.1659 48.8188L56.0666 56.2249C55.9842 56.3039 55.9193 56.3996 55.8759 56.5057C55.8326 56.6119 55.8119 56.7262 55.8152 56.841C55.8184 56.9559 55.8456 57.0687 55.8949 57.1722C55.9442 57.2757 56.0145 57.3674 56.1012 57.4414C56.1879 57.5154 56.289 57.57 56.398 57.6017C56.507 57.6333 56.6213 57.6412 56.7335 57.6249C56.8457 57.6087 56.9533 57.5685 57.0491 57.5072C57.1449 57.4458 57.2269 57.3646 57.2897 57.2689L63.405 49.8628C64.0895 49.0341 64.4215 47.9638 64.3279 46.8871C64.2344 45.8104 63.723 44.8154 62.9062 44.1207L62.7935 44.088V28.7865C62.7935 27.7048 63.2174 26.6675 63.9719 25.9027C64.7264 25.1379 65.7497 24.7082 66.8168 24.7082C67.0302 24.7082 67.2349 24.7941 67.3858 24.9471C67.5367 25.1001 67.6214 25.3075 67.6214 25.5239V48.9983Z" fill="#2D3142"/>
<path d="M41.579 18.6577C42.1347 17.7923 42.4942 17.3077 43.2134 17.3077C43.5075 17.3077 43.8017 17.8442 43.9488 18.1731C44.1812 18.7011 44.5767 19.1294 45.0699 19.3875C45.5631 19.6455 46.1246 19.7177 46.6618 19.5923C47.1975 19.4267 47.6655 19.076 47.9913 18.5962C48.3171 18.1163 48.4819 17.5348 48.4596 16.9443V7.78848C48.4596 7.55897 48.3735 7.33885 48.2202 7.17656C48.067 7.01427 47.8591 6.9231 47.6424 6.9231H29.6647C29.448 6.9231 29.2401 7.01427 29.0869 7.17656C28.9336 7.33885 28.8475 7.55897 28.8475 7.78848V16.9443C28.8289 17.5439 29.0031 18.1324 29.3416 18.6135C29.6801 19.0946 30.1628 19.4397 30.7107 19.5923C31.248 19.721 31.8108 19.6502 32.3047 19.3919C32.7986 19.1335 33.1937 18.7032 33.4237 18.1731C33.5708 17.8442 33.8813 17.3077 34.1591 17.3077C34.8292 17.3077 35.1724 17.7923 35.7935 18.6577C36.0528 19.2449 36.4538 19.7493 36.9559 20.12C37.458 20.4907 38.0436 20.7147 38.6536 20.7692C39.2749 20.7265 39.8741 20.5081 40.3887 20.1367C40.9032 19.7653 41.3143 19.2546 41.579 18.6577Z" fill="#FFB600"/>
<path d="M48.7188 31.25H41.9062C40.3357 31.25 39.0625 32.5232 39.0625 34.0937V36.2188C39.0625 37.7893 40.3357 39.0625 41.9062 39.0625H48.7188C50.2893 39.0625 51.5625 37.7893 51.5625 36.2188V34.0937C51.5625 32.5232 50.2893 31.25 48.7188 31.25Z" fill="#FFB600"/>
<circle cx="55" cy="11" r="9.5" fill="#F6F4F4"/>
<path d="M52.0246 9.3134C51.3862 9.3134 50.8824 9.08134 50.513 8.61722C50.171 8.18182 50 7.62679 50 6.95215C50 6.48325 50.2326 6.03589 50.6977 5.61005C51.1446 5.20335 51.5937 5 52.0451 5C52.7063 5 53.233 5.22967 53.6252 5.689C53.9991 6.13397 54.186 6.70574 54.186 7.40431C54.186 7.98804 53.9535 8.45933 53.4884 8.81818C53.0734 9.14833 52.5855 9.3134 52.0246 9.3134ZM57.435 6.2488C57.2663 6.53589 57.0862 6.91627 56.8947 7.38995L56.409 8.55263L55.0547 11.6029L53.5226 14.9904C53.3812 15.3589 53.1509 15.9019 52.8317 16.6196C52.7041 16.8732 52.5331 17 52.3187 17C52.1683 17 52.0315 16.9426 51.9083 16.8278C51.7898 16.7177 51.7305 16.5789 51.7305 16.4115C51.7305 16.3397 51.7442 16.2608 51.7715 16.1746C51.995 15.5287 52.3552 14.6842 52.8523 13.6411C53.4405 12.4115 53.8235 11.5766 54.0014 11.1364L55.8482 6.83014C56.0944 6.19378 56.3201 5.75837 56.5253 5.52392C56.6667 5.36124 56.8126 5.2799 56.9631 5.2799C57.1181 5.2799 57.2549 5.34211 57.3735 5.46651C57.4966 5.58612 57.5581 5.72727 57.5581 5.88995C57.5581 5.99522 57.5171 6.11483 57.435 6.2488ZM57.6129 16.9211C56.9927 16.9211 56.4774 16.7273 56.067 16.3397C55.6384 15.933 55.4241 15.4043 55.4241 14.7536C55.4241 14.0455 55.6156 13.4593 55.9986 12.9952C56.3999 12.4976 56.9334 12.2488 57.5992 12.2488C58.2193 12.2488 58.762 12.4306 59.2271 12.7943C59.7424 13.201 60 13.7225 60 14.3589C60 15.0909 59.7766 15.701 59.3297 16.189C58.8828 16.677 58.3105 16.9211 57.6129 16.9211ZM52.0246 6.20574C51.8149 6.20574 51.6188 6.27751 51.4364 6.42105C51.2403 6.57895 51.1423 6.75598 51.1423 6.95215C51.1423 7.33493 51.2152 7.6244 51.3611 7.82057C51.5116 8.01196 51.7328 8.10766 52.0246 8.10766C52.2709 8.10766 52.4943 8.05024 52.6949 7.93541C52.9229 7.80144 53.0369 7.6244 53.0369 7.40431C53.0369 7.00239 52.9526 6.70335 52.7839 6.50718C52.6151 6.30622 52.3621 6.20574 52.0246 6.20574ZM57.5992 13.4545C57.2709 13.4545 57.0132 13.5837 56.8263 13.8421C56.6575 14.0813 56.5732 14.3852 56.5732 14.7536C56.5732 15.0742 56.6712 15.3158 56.8673 15.4785C57.0679 15.6411 57.3666 15.7225 57.7633 15.7225C58.1281 15.7225 58.3995 15.61 58.5773 15.3852C58.7597 15.1555 58.8509 14.8134 58.8509 14.3589C58.8509 14.0813 58.7095 13.8541 58.4268 13.677C58.1806 13.5287 57.9047 13.4545 57.5992 13.4545Z" fill="#FFB600"/>
</symbol><symbol viewBox="0 0 75 75" fill="none" id="time" xmlns="http://www.w3.org/2000/svg">
<path d="M58.1875 44.4062C57.9742 44.1896 57.7183 44.0194 57.4359 43.9064C57.1536 43.7935 56.8509 43.7402 56.5469 43.75H40.9219C40.3005 43.7554 39.7033 43.992 39.2469 44.4138C38.7905 44.8355 38.5075 45.4122 38.4532 46.0312L37.5 56.9688C37.4681 57.2763 37.5018 57.587 37.5987 57.8806C37.6957 58.1742 37.8538 58.4439 38.0625 58.6719C38.2718 58.897 38.5259 59.0759 38.8085 59.197C39.091 59.3181 39.3958 59.3787 39.7032 59.375H55.3282C55.9598 59.3725 56.5671 59.1311 57.0279 58.6992C57.4888 58.2673 57.7691 57.677 57.8125 57.0469L58.7657 46.1094C58.7945 45.8008 58.7579 45.4896 58.6583 45.1961C58.5587 44.9027 58.3983 44.6335 58.1875 44.4062ZM26.0313 51.5625H20.0782C19.4162 51.5673 18.7796 51.8177 18.2917 52.2652C17.8039 52.7127 17.4995 53.3253 17.4375 53.9844L17.1875 56.7656C17.157 57.0935 17.1954 57.4242 17.3004 57.7364C17.4053 58.0485 17.5745 58.3353 17.7969 58.5781C18.0126 58.8267 18.279 59.0264 18.5781 59.1638C18.8772 59.3013 19.2021 59.3733 19.5313 59.375H25.4844C26.1538 59.3691 26.7966 59.1122 27.2856 58.655C27.7746 58.1978 28.0742 57.5737 28.125 56.9062L28.375 54.0781C28.4036 53.7552 28.3639 53.4298 28.2585 53.1232C28.1531 52.8166 27.9845 52.5355 27.7635 52.2983C27.5425 52.0611 27.274 51.873 26.9756 51.7462C26.6772 51.6195 26.3555 51.5569 26.0313 51.5625ZM59.9063 22.5312L56.625 23.1875C56.5142 23.0718 56.388 22.972 56.25 22.8906V16.4062C56.25 16.199 56.1677 16.0003 56.0212 15.8538C55.8747 15.7073 55.676 15.625 55.4688 15.625C55.2616 15.625 55.0629 15.7073 54.9164 15.8538C54.7699 16.0003 54.6875 16.199 54.6875 16.4062V22.8906C54.4015 23.0676 54.1802 23.3322 54.0566 23.645C53.933 23.9579 53.9136 24.3022 54.0014 24.627C54.0892 24.9517 54.2794 25.2394 54.5437 25.4474C54.8081 25.6553 55.1325 25.7724 55.4688 25.7812C55.791 25.7756 56.1036 25.6705 56.3637 25.4803C56.6239 25.2901 56.8188 25.0241 56.9219 24.7188L60.2188 24.0625C60.3203 24.044 60.4171 24.0051 60.5032 23.9482C60.5894 23.8913 60.6631 23.8176 60.7201 23.7315C60.777 23.6454 60.8159 23.5487 60.8345 23.4471C60.8531 23.3456 60.8509 23.2413 60.8282 23.1406C60.7831 22.9396 60.6619 22.7638 60.49 22.6502C60.3181 22.5366 60.1089 22.4939 59.9063 22.5312Z" fill="#FFB600"/>
<path d="M70.3125 24.2188C70.3055 20.9652 69.232 17.8038 67.2565 15.2187C65.281 12.6336 62.5125 10.7675 59.375 9.90625V8.59375C59.375 7.55775 58.9635 6.56418 58.2309 5.83161C57.4983 5.09905 56.5048 4.6875 55.4688 4.6875C54.4328 4.6875 53.4392 5.09905 52.7066 5.83161C51.974 6.56418 51.5625 7.55775 51.5625 8.59375V9.375H17.1875C16.7463 9.37782 16.3084 9.45168 15.8906 9.59375C15.6834 9.6269 15.4979 9.74101 15.3748 9.91096C15.2517 10.0809 15.2012 10.2928 15.2344 10.5C15.2675 10.7072 15.3816 10.8927 15.5516 11.0158C15.7215 11.1389 15.9334 11.1894 16.1406 11.1562C16.2232 11.1727 16.3081 11.1727 16.3906 11.1562C16.6441 11.0447 16.9126 10.971 17.1875 10.9375H48.875C46.7619 11.9911 44.93 13.5326 43.5307 15.4345C42.1315 17.3364 41.2051 19.5441 40.8281 21.875H16.1406C15.8043 21.8816 15.4715 21.8052 15.1717 21.6526C14.872 21.5 14.6144 21.2759 14.4219 21C14.3025 20.8338 14.1227 20.721 13.9211 20.686C13.7195 20.6509 13.5122 20.6963 13.3438 20.8125C13.2585 20.869 13.1855 20.9421 13.129 21.0273C13.0725 21.1125 13.0336 21.2082 13.0147 21.3087C12.9957 21.4092 12.9971 21.5125 13.0188 21.6124C13.0404 21.7124 13.0818 21.807 13.1406 21.8906C13.472 22.3793 13.9197 22.7779 14.4434 23.0506C14.967 23.3234 15.5503 23.4617 16.1406 23.4531H40.625V24.2344C40.6333 28.1672 42.2003 31.9364 44.9827 34.7158C47.7651 37.4953 51.5359 39.0584 55.4688 39.0625C57.9245 39.0653 60.3418 38.4529 62.5 37.2812L60.375 61.6562C60.308 62.2982 60.0122 62.8946 59.5417 63.3364C59.0712 63.7782 58.4574 64.036 57.8125 64.0625H15.625C15.3331 64.069 15.043 64.014 14.7738 63.9009C14.5046 63.7878 14.2622 63.6193 14.0625 63.4063C13.8742 63.1944 13.7302 62.947 13.639 62.6787C13.5478 62.4103 13.5111 62.1265 13.5313 61.8438L15.3125 41.5312C15.3302 41.4225 15.3248 41.3113 15.2965 41.2048C15.2683 41.0984 15.2178 40.9991 15.1484 40.9135C15.0791 40.8279 14.9924 40.758 14.8941 40.7083C14.7958 40.6586 14.6882 40.6302 14.5781 40.625C14.4751 40.6143 14.3709 40.6246 14.2719 40.6553C14.1729 40.686 14.0812 40.7365 14.0023 40.8037C13.9234 40.8709 13.859 40.9534 13.813 41.0462C13.7669 41.1391 13.7402 41.2403 13.7344 41.3438L11.9531 61.6562C11.9025 62.161 11.9585 62.6707 12.1173 63.1525C12.2761 63.6343 12.5342 64.0774 12.875 64.4531C13.2211 64.836 13.6463 65.1391 14.1211 65.3415C14.596 65.5438 15.1091 65.6405 15.625 65.625H57.8125C58.8572 65.6038 59.858 65.2012 60.6264 64.4932C61.3948 63.7852 61.8778 62.8207 61.9844 61.7812L64.2188 36.2188C66.109 34.8409 67.6464 33.0355 68.7055 30.9499C69.7646 28.8644 70.3152 26.5578 70.3125 24.2188ZM53.125 8.59375C53.125 7.97215 53.3719 7.37601 53.8115 6.93647C54.251 6.49693 54.8472 6.25 55.4688 6.25C56.0904 6.25 56.6865 6.49693 57.126 6.93647C57.5656 7.37601 57.8125 7.97215 57.8125 8.59375V9.57812C57.038 9.44712 56.2542 9.37918 55.4688 9.375H53.125V8.59375ZM55.4688 37.5C52.842 37.5 50.2742 36.7211 48.0901 35.2617C45.906 33.8023 44.2037 31.7281 43.1985 29.3013C42.1933 26.8744 41.9302 24.204 42.4427 21.6277C42.9552 19.0514 44.2201 16.6849 46.0775 14.8275C47.9349 12.9701 50.3014 11.7052 52.8777 11.1927C55.454 10.6802 58.1244 10.9432 60.5513 11.9485C62.9781 12.9537 65.0523 14.656 66.5117 16.8401C67.9711 19.0242 68.75 21.592 68.75 24.2188C68.7459 27.7399 67.3453 31.1156 64.8554 33.6054C62.3656 36.0953 58.9899 37.4959 55.4688 37.5Z" fill="#2D3142"/>
<path d="M53.0156 50C53.2228 50 53.4215 49.9177 53.5681 49.7712C53.7146 49.6247 53.7969 49.4259 53.7969 49.2188C53.7969 49.0116 53.7146 48.8128 53.5681 48.6663C53.4215 48.5198 53.2228 48.4375 53.0156 48.4375H43.6406C43.4334 48.4375 43.2347 48.5198 43.0882 48.6663C42.9417 48.8128 42.8594 49.0116 42.8594 49.2188C42.8594 49.4259 42.9417 49.6247 43.0882 49.7712C43.2347 49.9177 43.4334 50 43.6406 50H53.0156ZM42.4531 53.9062C42.4531 54.1134 42.5354 54.3122 42.6819 54.4587C42.8285 54.6052 43.0272 54.6875 43.2344 54.6875H47.9219C48.1291 54.6875 48.3278 54.6052 48.4743 54.4587C48.6208 54.3122 48.7031 54.1134 48.7031 53.9062C48.7031 53.6991 48.6208 53.5003 48.4743 53.3538C48.3278 53.2073 48.1291 53.125 47.9219 53.125H43.2344C43.0272 53.125 42.8285 53.2073 42.6819 53.3538C42.5354 53.5003 42.4531 53.6991 42.4531 53.9062ZM35.5938 42.9688C35.5938 42.7615 35.5114 42.5628 35.3649 42.4163C35.2184 42.2698 35.0197 42.1875 34.8125 42.1875H19.1875C18.9803 42.1875 18.7816 42.2698 18.6351 42.4163C18.4886 42.5628 18.4062 42.7615 18.4062 42.9688C18.4062 43.176 18.4886 43.3747 18.6351 43.5212C18.7816 43.6677 18.9803 43.75 19.1875 43.75H34.8125C35.0197 43.75 35.2184 43.6677 35.3649 43.5212C35.5114 43.3747 35.5938 43.176 35.5938 42.9688ZM18.75 46.875C18.5428 46.875 18.3441 46.9573 18.1976 47.1038C18.0511 47.2503 17.9688 47.4491 17.9688 47.6562C17.9688 47.8634 18.0511 48.0622 18.1976 48.2087C18.3441 48.3552 18.5428 48.4375 18.75 48.4375H31.25C31.4572 48.4375 31.6559 48.3552 31.8024 48.2087C31.9489 48.0622 32.0312 47.8634 32.0312 47.6562C32.0312 47.4491 31.9489 47.2503 31.8024 47.1038C31.6559 46.9573 31.4572 46.875 31.25 46.875H18.75ZM5.46875 18.75H19.5312C19.7385 18.75 19.9372 18.6677 20.0837 18.5212C20.2302 18.3747 20.3125 18.176 20.3125 17.9688C20.3125 17.7615 20.2302 17.5628 20.0837 17.4163C19.9372 17.2698 19.7385 17.1875 19.5312 17.1875H5.46875C5.26155 17.1875 5.06284 17.2698 4.91632 17.4163C4.76981 17.5628 4.6875 17.7615 4.6875 17.9688C4.6875 18.176 4.76981 18.3747 4.91632 18.5212C5.06284 18.6677 5.26155 18.75 5.46875 18.75ZM22.6562 25H10.1562C9.94905 25 9.75034 25.0823 9.60382 25.2288C9.45731 25.3753 9.375 25.574 9.375 25.7812C9.375 25.9885 9.45731 26.1872 9.60382 26.3337C9.75034 26.4802 9.94905 26.5625 10.1562 26.5625H22.6562C22.8635 26.5625 23.0622 26.4802 23.2087 26.3337C23.3552 26.1872 23.4375 25.9885 23.4375 25.7812C23.4375 25.574 23.3552 25.3753 23.2087 25.2288C23.0622 25.0823 22.8635 25 22.6562 25ZM18.75 38.2812C18.75 38.074 18.6677 37.8753 18.5212 37.7288C18.3747 37.5823 18.176 37.5 17.9688 37.5H5.46875C5.26155 37.5 5.06284 37.5823 4.91632 37.7288C4.76981 37.8753 4.6875 38.074 4.6875 38.2812C4.6875 38.4885 4.76981 38.6872 4.91632 38.8337C5.06284 38.9802 5.26155 39.0625 5.46875 39.0625H17.9688C18.176 39.0625 18.3747 38.9802 18.5212 38.8337C18.6677 38.6872 18.75 38.4885 18.75 38.2812ZM7.03125 29.6875C6.82405 29.6875 6.62534 29.7698 6.47882 29.9163C6.33231 30.0628 6.25 30.2615 6.25 30.4688C6.25 30.676 6.33231 30.8747 6.47882 31.0212C6.62534 31.1677 6.82405 31.25 7.03125 31.25H11.7188C11.926 31.25 12.1247 31.1677 12.2712 31.0212C12.4177 30.8747 12.5 30.676 12.5 30.4688C12.5 30.2615 12.4177 30.0628 12.2712 29.9163C12.1247 29.7698 11.926 29.6875 11.7188 29.6875H7.03125ZM8.59375 14.0625H16.4062C16.6135 14.0625 16.8122 13.9802 16.9587 13.8337C17.1052 13.6872 17.1875 13.4885 17.1875 13.2812C17.1875 13.074 17.1052 12.8753 16.9587 12.7288C16.8122 12.5823 16.6135 12.5 16.4062 12.5H8.59375C8.38655 12.5 8.18784 12.5823 8.04132 12.7288C7.89481 12.8753 7.8125 13.074 7.8125 13.2812C7.8125 13.4885 7.89481 13.6872 8.04132 13.8337C8.18784 13.9802 8.38655 14.0625 8.59375 14.0625ZM14.875 28.125L14.2344 35.5781C14.217 35.783 14.281 35.9865 14.4126 36.1444C14.5443 36.3024 14.7329 36.4021 14.9375 36.4219C15.1343 36.4225 15.3241 36.3488 15.469 36.2156C15.6138 36.0823 15.703 35.8993 15.7188 35.7031L16.375 28.2656C16.3835 28.163 16.3717 28.0596 16.3401 27.9616C16.3086 27.8635 16.258 27.7726 16.1912 27.6942C16.1244 27.6158 16.0427 27.5514 15.9509 27.5046C15.8591 27.4579 15.759 27.4298 15.6563 27.4219C15.4599 27.4133 15.268 27.4822 15.1219 27.6137C14.9757 27.7452 14.8871 27.9288 14.875 28.125Z" fill="#2D3142"/>
<path d="M51.5625 9.875V9.375H29.6875C29.4918 9.3779 29.3039 9.45277 29.1598 9.58534C29.0157 9.71791 28.9255 9.89889 28.9063 10.0938L27.5782 25.3281C27.5308 25.8367 27.6604 26.3461 27.9451 26.7703C28.2297 27.1944 28.652 27.5074 29.1407 27.6563C29.7459 27.8599 30.4014 27.8585 31.0058 27.6524C31.6101 27.4462 32.1298 27.0467 32.4844 26.5156C33.1563 25.4531 33.7032 24.9531 34.3125 24.9531C34.7592 24.9665 35.1953 25.0924 35.5804 25.3191C35.9655 25.5458 36.2872 25.866 36.5157 26.25C36.8899 26.8251 37.4017 27.2977 38.0046 27.6251C38.6076 27.9525 39.2827 28.1243 39.9688 28.125C40.3594 28.1244 40.7483 28.0719 41.125 27.9688C40.6174 26.0953 40.4849 24.14 40.7352 22.2152C40.9855 20.2904 41.6136 18.434 42.5835 16.7527C43.5534 15.0714 44.8459 13.5983 46.3868 12.418C47.9277 11.2377 49.6866 10.3735 51.5625 9.875Z" fill="#FFB600"/>
</symbol></svg>