<svg width="964" height="900" viewBox="0 0 964 900" fill="none" xmlns="http://www.w3.org/2000/svg">
<path d="M815.839 734.068C815.171 734.903 812.936 736.571 809.332 736.571C804.827 736.571 796.317 737.572 791.312 736.571C786.306 735.57 772.291 733.568 771.29 732.066C770.289 730.564 737.252 730.064 717.23 705.036C672.18 677.005 622.626 575.393 623.627 529.342" stroke="#FDB90B" stroke-opacity="0.25" stroke-width="4"/>
<path d="M623.627 529.342V525.838C636.808 534.848 664.372 553.969 667.175 556.372" stroke="#FDB90B" stroke-opacity="0.25" stroke-width="4"/>
<path d="M815.839 734.57C815.839 732.234 815.238 727.462 812.836 727.061C809.832 726.561 812.335 726.561 792.313 718.552C772.291 710.543 769.287 706.539 767.285 705.537C765.283 704.536 760.278 697.529 756.774 696.027C753.27 694.525 743.259 689.52 740.756 685.515C738.253 681.511 696.207 649.476 675.684 572.39C673.348 566.718 668.176 555.472 666.174 555.872" stroke="#FDB90B" stroke-opacity="0.25" stroke-width="4"/>
<path d="M602.925 1053.21C620.139 1052.77 635.768 1049.2 652.409 1046.43C668.257 1043.79 681.15 1038.95 696.122 1033.23C708.777 1028.39 714.256 1018.01 724.398 1009.71C730.659 1004.59 734.011 997.923 738.248 991.176C740.338 987.847 743.683 983.865 746.471 981.077C750.086 977.462 751.904 973.625 755.56 969.968C758.706 966.823 760.37 963.41 762.918 960.014C765.615 956.418 769.21 952.674 771.574 948.833C774.07 944.776 778.21 939.177 778.21 934.406C778.21 921.339 792.493 912.613 792.493 899.349C792.493 891.26 799.639 883.785 802.303 876.195C805.135 868.124 804.778 859.702 808.65 851.958C810.066 849.128 811.775 847.108 812.978 844.167C815.944 836.917 820.604 827.706 822.284 820.147C823.831 813.185 823.626 806.715 826.972 800.022C830.069 793.828 831.445 785.272 831.445 778.237C831.445 768.178 834.851 758.343 835.34 748.085C835.55 743.683 837.453 738.756 838.586 734.452C839.843 729.675 839.33 724.616 840.822 719.809C842.495 714.418 841.222 707.452 844.429 702.641" stroke="#FDB90B" stroke-opacity="0.25" stroke-width="4" stroke-linecap="round"/>
<path d="M601.14 1053.24C598.194 1051.1 594.358 1047.76 593.364 1043.98C592.46 1040.55 591.409 1037.07 589.866 1033.98C588.124 1030.5 588.84 1027.22 592.582 1026.54C596.022 1025.91 597.311 1022.05 600.729 1021.43C607.25 1020.25 613.3 1015.92 616.117 1010.28C617.949 1006.62 620.681 1003.49 622.289 999.585C622.762 998.436 623.335 998.918 623.935 998.268C625.221 996.874 625.771 994.733 627.062 993.249C627.935 992.244 629.508 990.337 630.024 989.175C631.787 985.208 639.359 983.597 642.779 981.399C647.897 978.109 653.245 973.344 655.781 967.491C656.479 965.882 656.687 964.817 656.687 963.048C656.687 960.548 657.334 960.686 658.168 958.81C659.812 955.109 662.433 952.175 664.093 948.441C666.182 943.741 669.154 939.16 671.91 934.74C673.33 932.463 676.147 929.725 676.642 927.004C676.848 925.873 676.699 924.807 677.054 923.671C678.43 919.268 679.926 914.206 680.551 909.641C681.801 900.513 686.107 893.106 689.15 884.583C690.854 879.812 691.062 874.141 691.866 869.154C692.584 864.7 694.458 860.753 694.458 856.234C694.458 852.778 694.458 849.321 694.458 845.865C694.458 839.102 695.939 833.528 695.939 826.609C695.939 820.875 693.973 810.971 697.009 806.201C698.866 803.284 697.367 799.195 698.326 796.079C699.191 793.268 698.902 790.293 698.902 787.356C698.902 783.545 697.421 780.242 697.421 776.247C697.421 771.913 697.421 767.579 697.421 763.245C697.421 760.156 698.161 757.539 698.161 754.604C698.161 750.043 700.383 746.555 700.383 742.178C700.383 741.3 700.749 739.369 700.219 738.64C699.596 737.783 697.667 735.326 697.462 734.402C696.804 731.443 700.035 730.425 700.383 728.107C700.79 725.395 699.921 722.582 700.754 719.919C702.538 714.209 699.185 709.773 697.585 704.654C695.96 699.452 700.383 695.606 700.383 691.076" stroke="#FDB90B" stroke-opacity="0.25" stroke-width="4" stroke-linecap="round"/>
<path d="M838.266 692.937C839.479 691.336 841.091 689.963 842.131 688.244C842.977 686.844 844.477 685.491 844.477 683.827C844.477 682.108 842.821 681.561 842.821 679.687C842.821 674.549 842.821 669.412 842.821 664.274C842.821 662.56 842.602 660.676 842.844 658.983C843.127 657.004 846.114 656.789 844.799 654.014C844.056 652.445 842.821 650.635 842.821 648.815C842.821 647.158 843.235 645.657 843.235 644.077" stroke="#FDB90B" stroke-opacity="0.25" stroke-width="4" stroke-linecap="round"/>
<path d="M843.9 642.737C843.627 641.493 841.586 637.289 842.706 636.169C844.021 634.854 846.314 634.384 847.781 633.184C848.907 632.262 850.357 632.216 851.303 630.796C852.301 629.299 852.498 626.423 852.498 624.586C852.498 620.566 852.498 616.546 852.498 612.525C852.498 608.666 852.64 606.036 850.348 602.853C849.36 601.48 847.124 600.973 847.124 599.21C847.124 592.526 854.731 593.719 857.215 589C859.038 585.536 857.61 581.233 855.304 578.671C852.67 575.744 852.048 568.508 852.916 564.819C853.578 562.002 853.572 558.583 853.572 555.684C853.572 553.057 852.167 552.004 851.423 549.772" stroke="#FDB90B" stroke-opacity="0.25" stroke-width="4" stroke-linecap="round"/>
<path d="M851.635 547.126C859.035 546.945 858.173 536.557 858.173 531.04C858.173 525.815 854.904 521.918 854.904 516.771C854.904 512.625 856.026 506.68 854.645 502.735C852.994 498.017 850.701 493.765 850.701 488.751C850.701 486.77 851.362 486.786 853.4 486.416C856.758 485.805 855.838 480.278 855.838 477.984C855.838 476.121 855.795 474.499 855.112 472.743C853.921 469.68 854.606 466.563 853.27 463.481C852.066 460.701 852.435 458.378 851.999 455.542C851.75 453.926 850.701 452.402 850.701 450.82C850.701 449.36 851.448 445.086 850.598 444.022C849.983 443.254 850.42 442.297 850.001 441.376C849.36 439.967 848.759 438.707 847.666 437.614C846.397 436.345 846.382 434.67 845.331 433.385C844.447 432.305 843.808 430.866 844.215 429.441C844.894 427.065 847.637 425.335 848.263 422.903C848.983 420.101 849.3 417.839 849.3 414.964" stroke="#FDB90B" stroke-opacity="0.25" stroke-width="4" stroke-linecap="round"/>
<path d="M849.766 414.963C849.766 410.916 849.766 406.869 849.766 402.821C849.766 401.501 849.796 399.285 849.196 398.151C848.842 397.484 847.95 397.678 847.898 396.75C847.864 396.132 847.898 395.502 847.898 394.882C847.898 393.372 848.22 391.581 847.535 390.212C846.855 388.851 845.683 387.456 845.563 385.905C845.411 383.931 843.812 382.183 843.332 380.457C842.784 378.485 843.125 375.839 842.035 374.127C840.437 371.615 840.893 367.502 840.893 364.527C840.893 363.029 841.313 360.749 840.634 359.39C839.8 357.723 838.922 356.319 838.584 354.461C838.347 353.156 838.558 351.614 838.558 350.284C838.558 348.016 837.892 345.651 837.65 343.356C837.454 341.494 837.624 339.522 837.624 337.649C837.624 333.007 836.784 328.525 836.223 323.898" stroke="#FDB90B" stroke-opacity="0.25" stroke-width="4" stroke-linecap="round"/>
<path d="M836.986 323.247C834.35 316.491 834.415 309.221 832.4 302.419C831.876 300.652 831.944 298.681 831.422 296.855C831.029 295.48 829.623 294.255 829.542 292.795C829.387 289.995 826.835 287.794 826.835 285.012C826.835 278.148 823.132 272.197 826.159 265.387C826.983 263.534 828.189 262.873 828.189 260.65C828.189 258.273 829.319 255.738 830.182 253.582C831.702 249.78 830.896 244.877 830.896 240.837C830.896 234.973 830.896 229.108 830.896 223.243C830.896 218.082 832.661 212.255 831.535 207.189C831.05 205.006 829.542 203.401 829.542 201.099C829.542 198.517 829.518 196.305 828.49 193.956C827.129 190.844 823.422 189.275 822.211 186.248C821.711 184.999 822.098 182.85 822.098 181.511C822.098 178.563 819.659 176.907 817.85 174.819C817.023 173.865 817.361 172.174 817.361 170.985" stroke="#FDB90B" stroke-opacity="0.25" stroke-width="4" stroke-linecap="round"/>
<path d="M817.31 169.268C817.31 165.217 818.234 161.382 818.234 157.247C818.234 153.824 817.04 147.66 813.611 145.946C809.458 143.869 810.645 139.611 808.756 136.211C807.914 134.695 808.846 133.301 807.575 131.818C804.328 128.031 802.349 123.757 801.128 118.873" stroke="#FDB90B" stroke-opacity="0.25" stroke-width="4" stroke-linecap="round"/>
<path d="M801.027 118.391C799.757 116.715 799.407 115.226 797.939 113.759C796.831 112.65 795.591 111.816 795.044 110.285C794.61 109.069 794.849 107.769 794.422 106.596C793.919 105.213 792.33 104.04 791.849 102.65C790.47 98.6669 786.663 95.5203 784.836 91.5635C783.183 87.9806 783.699 83.5526 782.113 79.9833C780.561 76.4905 776.923 75.0293 775.251 71.6841C774.721 70.6251 774.113 69.579 773.535 68.596C773.122 67.8945 772.498 67.6586 772.463 66.7518C772.434 65.9996 772.588 65.2213 772.27 64.5215C771.174 62.1117 771.305 59.6446 771.305 57.0158C771.305 53.8975 769.587 51.6369 767.831 49.2957" stroke="#FDB90B" stroke-opacity="0.25" stroke-width="4" stroke-linecap="round"/>
<path d="M767.016 48.6199C765.895 46.4233 764.188 44.6709 763.586 42.3207C763.288 41.1551 762.046 40.1382 761.984 38.8915C761.917 37.5659 761.561 37.8975 761.052 36.8788C760.898 36.5709 761.014 36.1988 760.977 35.8724C760.92 35.3561 760.274 35.2779 760.045 34.866C759.85 34.5142 759.331 33.4879 759.3 33.1141C759.15 31.3153 757.288 30.088 756.952 28.4922C756.631 26.9698 754.005 25.0965 752.926 24.1312C751.873 23.1887 750.506 21.4863 749.236 20.8512C745.368 18.917 742.084 14.3604 737.663 13.3779C736.34 13.0838 735.191 12.0718 734.029 11.421C733.279 11.0011 732.023 10.1865 731.289 10.0232C730.347 9.81392 729.344 6.60372 728.289 5.88589C726.894 4.93742 726 3.73992 724.729 2.68037C723.047 1.27918 720.992 0.155144 718.952 -0.525143C717.234 -1.0977 715.817 -2.52561 714.013 -3.0411C713.337 -3.2343 712.875 -3.80413 712.205 -4.01021C711.663 -4.17712 711.083 -4.0017 710.528 -4.21521C709.441 -4.63307 708.347 -5.21866 707.304 -5.72479C703.838 -7.40525 700.673 -10.9716 696.569 -11.4276C695.16 -11.5842 693.925 -13.1049 692.543 -13.1049C691.144 -13.1049 689.436 -13.7409 688.164 -14.2977C686.585 -14.9882 684.341 -16.4186 683.318 -17.7827C682.792 -18.4842 681.231 -18.8046 680.467 -19.4601C679.761 -20.0651 679.228 -20.5682 678.64 -21.3237C678.088 -22.0335 678.59 -23.3255 678.118 -24.1751C677.632 -25.0509 677.63 -26.3405 676.944 -27.0266C675.39 -28.5808 673.959 -30.3585 672.583 -32.0398C671.51 -33.352 669.869 -34.3198 669.098 -35.8604C668.701 -36.6553 667.525 -37.3956 666.731 -37.7427C665.426 -38.3136 664.541 -39.3168 663.228 -39.9232C662.118 -40.4354 661.664 -41.6685 660.451 -41.9919C658.598 -42.486 656.741 -43.7408 654.972 -44.4892C652.158 -45.6796 649.688 -46.2825 646.604 -46.9679C644.686 -47.394 642.399 -47.6594 640.565 -48.347C639.3 -48.8216 637.988 -49.5403 636.596 -48.6638C633.195 -46.5227 632.247 -43.3831 629.477 -40.6127C628.144 -39.2803 626.995 -37.7142 626.122 -36.0654C625.53 -34.9463 622.895 -32.2262 621.593 -32.2262C619.982 -32.2262 618.232 -31.9244 616.729 -31.3876C614.845 -30.7145 612.346 -30.8844 610.355 -30.8844C606.218 -30.8844 602.081 -30.8844 597.943 -30.8844" stroke="#FDB90B" stroke-opacity="0.25" stroke-width="4" stroke-linecap="round"/>
<path d="M288.997 -42.5459C286.508 -42.7315 283.999 -43.0349 281.499 -43.0349C281.054 -43.0349 280.708 -43.0255 280.286 -42.8719C279.813 -42.6999 278.92 -41.8151 278.692 -41.405C277.95 -40.0687 274.727 -39.7751 273.431 -39.7751C272.434 -39.7751 271.619 -39.874 270.751 -39.3857C270.399 -39.1875 269.842 -39.1851 269.592 -38.8605C269.133 -38.2635 268.641 -37.9504 268.007 -37.5656C267.314 -37.1447 266.219 -37.3302 265.436 -37.3302C264.063 -37.3302 263.163 -37.3615 261.94 -36.7145C260.997 -36.215 260.046 -35.9401 258.97 -35.8633C258.64 -35.8397 258.165 -35.6043 257.829 -35.5011C257.269 -35.3285 256.714 -35.3743 256.127 -35.3743C254.762 -35.3743 253.302 -35.0122 252.288 -34.0341C251.083 -32.8724 248.703 -32.8935 247.108 -32.6034C246.508 -32.4943 245.818 -32.2235 245.243 -32.0058C244.321 -31.6568 243.723 -30.679 242.807 -30.4755C242.615 -30.4327 242.332 -30.0926 242.146 -29.9956C241.647 -29.735 241.134 -29.4904 240.616 -29.2712C239.636 -28.8566 239.075 -28.7687 237.999 -28.6554C236.484 -28.496 235.191 -27.4071 234.232 -26.3283C232.949 -24.8848 232.423 -23.6389 230.284 -23.6389C229.192 -23.6389 228.884 -22.8551 228.201 -22.172C227.433 -21.4034 226.098 -21.2103 225.43 -20.3428C224.06 -18.5614 221.223 -18.7554 219.825 -17.0468C219.543 -16.7018 219.815 -16.0732 219.635 -15.6614C219.438 -15.2106 218.985 -14.8701 218.748 -14.4208C218.299 -13.5727 217.039 -13.7224 216.629 -12.7999C216.227 -11.8963 215.381 -11.0715 214.51 -10.6358C214.344 -10.5528 214.118 -10.5747 213.939 -10.509C213.62 -10.3912 213.441 -10.0776 213.133 -9.96569C212.518 -9.74173 212.33 -9.59519 211.739 -9.20507C210.867 -8.6296 210.079 -7.94625 209.376 -7.08617C209.102 -6.75201 208.87 -6.31036 208.633 -5.95428C208.129 -5.19771 206.655 -5.25196 205.98 -4.69562C205.384 -4.20458 204.777 -3.67864 204.133 -3.2287C202.838 -2.3244 201.321 -2.04756 199.868 -1.49918C198.17 -0.858388 196.872 0.153048 195.014 0.329954C194.245 0.403176 193.358 0.791006 192.587 0.619718C191.568 0.393136 190.807 -0.634356 189.862 -1.01926C187.971 -1.78952 186.08 -2.47748 184.085 -2.92083C182.537 -3.2648 180.272 -3.27914 179.304 -4.73185" stroke="#FDB90B" stroke-opacity="0.25" stroke-width="4" stroke-linecap="round"/>
<path d="M145.105 -16.1933C138.866 -17.0323 132.984 -18.058 126.753 -17.2272C124.495 -16.9263 122.308 -16.2907 120.032 -16.1358C117.859 -15.9881 115.714 -15.5307 113.57 -15.4178C112.761 -15.3753 112.107 -14.9008 111.243 -14.9008C110.417 -14.9008 109.606 -14.7687 108.802 -14.5849C107.003 -14.1736 105.152 -14.5125 103.374 -14.0679C101.394 -13.5731 99.5553 -12.8153 97.5578 -12.3159C95.5581 -11.816 93.3039 -11.3967 91.469 -10.3773C89.9693 -9.54412 88.1782 -8.18012 86.2705 -8.18012C85.2132 -8.18012 84.0238 -7.6494 83.0394 -7.24669C81.6309 -6.67049 80.1781 -6.09757 78.7886 -5.46599C76.0975 -4.24273 72.7859 -4.53046 70.0575 -3.28319C69.5231 -3.03891 68.6088 -2.87759 68.1619 -2.52208C67.3127 -1.84664 66.5778 -0.880602 65.8067 -0.109519C64.3755 1.32169 63.0297 3.12046 61.3263 4.25608C60.2015 5.0059 59.1036 5.69484 58.0521 6.6112C54.7994 9.44567 50.4053 11.2092 47.6551 14.5095C46.8447 15.4819 45.6334 15.7324 44.6106 16.3763C43.237 17.2413 42.5317 19.1224 41.7673 20.5122C40.7398 22.3803 39.2406 23.7568 37.7032 25.2942C36.0338 26.9636 34.6305 28.6802 32.3898 29.6885C31.3695 30.1477 30.2141 30.2382 29.1587 30.622C28.5272 30.8516 26.7671 31.3249 26.4302 31.9144C26.0197 32.6328 24.2686 33.4544 23.4863 33.6951C22.297 34.0611 21.5256 35.2286 20.2839 35.5045C19.6305 35.6498 19.3111 36.3111 18.6468 36.4811C18.0767 36.6269 17.4534 36.7025 16.9092 36.9406C15.7913 37.4297 14.8434 37.7177 13.793 38.3479" stroke="#FDB90B" stroke-opacity="0.25" stroke-width="4" stroke-linecap="round"/>
<path d="M13.8594 39.3008C11.9261 39.4145 10.0413 39.1905 8.58929 40.2941C8.0195 40.7271 7.6785 41.2971 7.03034 41.6461C6.50397 41.9295 5.82192 41.7224 5.25065 41.8393C4.56875 41.9787 3.99149 42.2807 3.29161 42.2807C2.13127 42.2807 1.65892 43.2342 0.504808 43.274C-0.681177 43.3149 -1.83023 43.7724 -3.02698 43.9638C-3.65936 44.065 -4.31998 44.019 -4.95842 44.019C-5.98327 44.019 -6.72713 44.6676 -7.73143 44.8744C-8.73308 45.0806 -9.41783 45.2122 -10.2837 45.7573C-10.5544 45.9278 -11.3331 45.9037 -11.4702 46.1436C-12.0163 47.0994 -14.9284 46.7435 -15.9401 47.1369C-16.4691 47.3427 -16.976 47.3745 -17.4852 47.5508C-18.2183 47.8046 -18.3372 48.4104 -19.1683 48.5027C-20.572 48.6587 -21.6283 50.4812 -22.9485 51.0274C-24.0572 51.4862 -25.2031 52.195 -26.1767 52.8209C-27.2109 53.4857 -28.2868 53.9445 -29.3498 54.504C-30.2758 54.9914 -31.0462 55.7819 -32.0263 56.132C-33.2784 56.5791 -33.9482 57.5823 -35.0614 58.2979C-36.2796 59.0811 -37.7005 59.612 -38.8001 60.5467C-40.122 61.6703 -41.8377 62.1964 -43.0079 63.5128C-44.0393 64.6732 -45.5044 65.3885 -46.6087 66.4928C-47.9263 67.8104 -48.9259 69.2697 -50.3198 70.5902C-50.8765 71.1176 -52.2174 72.8845 -52.8307 73.0597C-54.4032 73.509 -55.7701 74.8752 -57.0247 75.9017C-58.9864 77.5067 -61.2189 78.9314 -63.3709 80.3302C-65.0442 81.4179 -65.713 83.7021 -67.151 84.9933C-69.7496 87.3267 -71.3946 90.2838 -74.2973 92.3328C-75.6875 93.314 -76.2068 94.4305 -77.1393 95.9473C-78.15 97.5913 -79.3936 99.3475 -80.5745 100.886C-82.6327 103.568 -84.9525 106.354 -87.3208 108.722C-88.6114 110.013 -89.9908 112.335 -91.8183 112.944C-93.0966 113.37 -93.5643 114.138 -94.5499 114.944C-95.3795 115.623 -96.0546 116.944 -96.8952 117.469C-97.3179 117.733 -97.3554 118.345 -97.5298 118.794C-97.7862 119.453 -98.3755 119.988 -98.5784 120.615C-98.9847 121.871 -100.103 123.389 -101.034 124.284C-101.876 125.094 -102.11 126.05 -103.103 126.712" stroke="#FDB90B" stroke-opacity="0.25" stroke-width="4" stroke-linecap="round"/>
<path d="M-4.21381 886.538C-4.21381 889.601 -4.666 892.554 -3.35817 895.17C-2.24154 897.403 -2.99559 900.376 -2.23634 902.776C-1.82438 904.077 -1.57302 905.695 -0.658163 906.712C0.81297 908.346 0.941775 911.203 2.13692 913.081C2.94421 914.35 3.1561 916.496 4.17144 917.512C4.66246 918.003 4.4696 918.713 4.89398 919.09C5.91252 919.995 6.13417 921.562 6.89046 922.665C7.62708 923.738 8.73381 925.154 9.66653 926.087C11.7623 928.183 12.5146 931.662 14.268 934.073C16.6516 937.351 18.4489 940.899 20.4856 944.379C22.6938 948.151 22.9319 952.843 25.3722 956.396C26.5586 958.123 27.5904 959.955 28.8328 961.644C30.2766 963.606 32.1714 965.199 33.0349 967.538C33.7784 969.551 35.1455 972.648 35.1455 974.839" stroke="#FDB90B" stroke-opacity="0.25" stroke-width="4" stroke-linecap="round"/>
<path d="M122.777 905.188C122.659 904.546 122.465 903.179 121.724 902.85C121.086 902.566 121.14 902.052 121.14 901.447C121.14 900.356 121.14 899.264 121.14 898.173C121.14 895.718 121.085 893.283 120.906 890.872C120.819 889.692 120.205 888.79 120.205 887.599C120.205 886.248 120.205 884.897 120.205 883.546C120.205 880.904 120.205 878.263 120.205 875.621C120.205 872.772 120.205 869.923 120.205 867.074C120.205 864.856 120.205 862.639 120.205 860.422C120.205 856.676 120.672 852.981 120.672 849.25C120.672 845.785 119.737 842.662 119.737 839.196C119.737 837.688 120.191 836.057 121.465 835.078C122.017 834.653 122.516 833.591 122.543 832.882C122.584 831.812 122.543 830.732 122.543 829.66C122.543 828.254 122.129 826.844 122.075 825.503C122.051 824.908 122.075 824.307 122.075 823.711C122.075 822.49 121.269 821.358 121.179 820.112C121.053 818.375 120.942 816.352 121.348 814.643C121.959 812.067 123.554 809.731 124.44 807.239C124.994 805.678 126.739 801.64 125.284 800.185C123.443 798.344 121.567 797.643 120.672 795.183C120.276 794.093 120.438 792.834 120.438 791.676C120.438 790.42 120.037 788.679 119.633 787.467C119.488 787.032 119.302 786.294 119.269 785.882C119.215 785.201 118.664 784.739 118.581 784.076C118.427 782.85 117.632 781.822 117.632 780.556C117.632 779.827 116.96 779.264 116.931 778.503C116.912 778.006 117.062 777.379 116.814 776.931C116.597 776.541 116.325 776.018 116.177 775.593C116.048 775.219 115.988 774.725 115.762 774.398C115.542 774.081 115.072 774.058 114.826 773.723C113.854 772.392 114.034 770.6 113.605 769.046C113.152 767.404 113.17 765.359 115.138 764.811C117.348 764.196 119.856 768.368 120.841 769.579C123.228 772.51 125.687 775.326 127.025 778.893C127.737 780.791 128.096 782.296 129.194 783.881C130.575 785.876 132.455 786.755 134.832 786.856C136.901 786.944 139.243 787.176 141.146 786.415C143.268 785.566 143.12 784.003 143.12 781.959C143.12 781.156 143.537 780.427 143.77 779.672C143.951 779.083 143.868 778.45 144.055 777.841C144.472 776.486 144.289 774.992 144.289 773.593C144.289 771.253 144.609 769.016 145.225 766.76" stroke="#FDB90B" stroke-opacity="0.25" stroke-width="4" stroke-linecap="round"/>
<path d="M145.473 766.537C146.028 765.582 146.379 764.677 146.449 763.565C146.469 763.246 146.547 762.604 146.752 762.34C147.124 761.862 147.62 760.184 147.62 759.607C147.62 759.074 147.943 758.495 148.021 757.947C148.106 757.358 148.829 756.643 149.475 756.787C150.406 756.994 150.351 757.925 150.592 758.576C150.909 759.433 151.922 759.912 152.349 760.68C152.709 761.329 152.81 761.993 153.13 762.633C153.404 763.18 153.775 763.704 153.954 764.292C154.13 764.871 154.55 765.222 154.691 765.756C154.983 766.859 155.545 767.808 156.004 768.88C156.358 769.706 156.137 770.664 156.6 771.461C157.004 772.155 157.785 772.646 158.065 773.392C158.47 774.472 158.943 775.41 158.943 776.58C158.943 777.347 159.038 777.685 159.344 778.348C159.899 779.55 161.083 780 161.958 780.875C162.86 781.777 163.725 782.57 164.279 783.782C164.654 784.601 164.983 785.453 165.429 786.255C165.825 786.967 166.272 787.542 166.513 788.359C166.666 788.873 166.459 789.249 167.034 789.563C167.436 789.782 167.741 790.294 168.075 790.615C168.629 791.147 169.326 791.383 169.474 792.198C169.621 793.005 170.537 793.709 170.949 794.443C171.175 794.845 171.988 795.949 172.316 796.211C172.544 796.394 172.565 796.888 172.847 797.144C173.195 797.46 173.451 797.834 173.791 798.174C174.207 798.591 175.254 799.751 175.342 800.311C175.41 800.74 175.852 801.029 175.917 801.482C175.968 801.842 175.843 802.264 175.971 802.61C176.156 803.109 176.609 803.484 176.817 804.02C176.951 804.364 177.179 804.68 177.338 804.996C178 806.321 179.307 807.537 179.68 808.988C179.8 809.455 179.754 810.031 180.006 810.441C180.561 811.343 181.163 812.206 181.698 813.12C182.21 813.995 182.738 814.933 183.411 815.69C183.807 816.135 183.87 816.97 184.235 817.502C186.612 820.959 187.738 825.031 190.092 828.456C190.817 829.51 191.263 830.703 192.12 831.677C193.114 832.806 194.241 833.674 195.168 834.887C195.841 835.768 196.961 836.464 197.793 837.208C198.376 837.73 199.199 838.363 199.637 839.009C200.199 839.837 200.624 841.484 201.697 841.699" stroke="#FDB90B" stroke-opacity="0.25" stroke-width="4" stroke-linecap="round"/>
<path d="M347.771 889.878C347.771 885.372 346.598 882.968 345.163 878.984C344.195 876.295 343.465 873.582 342.555 870.852C341.54 867.806 339.486 865.958 339.486 862.606C339.486 859.716 339.914 857.174 337.952 854.819C336.649 853.255 336.725 848.418 336.725 846.381C336.725 843.977 336.725 841.573 336.725 839.169C336.725 836.74 336.725 834.311 336.725 831.882C336.725 830.731 336.725 829.58 336.725 828.429C336.725 826.688 335.708 826.099 335.382 824.632C334.434 820.365 335.344 814.869 335.344 810.478C335.344 807.534 335.264 804.741 335.881 801.886C336.397 799.499 337.227 798.153 337.952 795.979C339.154 792.373 340.177 788.814 340.177 784.894C340.177 772.69 346.259 760.374 342.248 748.34" stroke="#FDB90B" stroke-opacity="0.25" stroke-width="4" stroke-linecap="round"/>
<path d="M147.337 46.1997C145.363 47.6953 143.943 49.4677 141.84 50.7295C141.07 51.1918 139.187 51.1852 138.707 52.0007C138.419 52.4909 137.7 53.3284 137.203 53.612C136.762 53.8638 136.104 55.4055 136.057 55.868C135.925 57.1862 135.072 57.4616 134.267 58.2671C133.597 58.9374 132.301 59.649 131.474 60.2008C129.855 61.28 130.976 62.2571 129.916 63.4056C128.456 64.9874 127.941 67.3506 126.317 68.9738C125.171 70.12 123.911 70.5174 122.558 71.1939C122.079 71.4332 121.791 72.045 121.322 72.3577C120.377 72.9877 118.777 73.6139 118.01 74.3809C117.365 75.0261 117.127 76.2241 116.542 76.977C115.938 77.7535 115.575 78.2361 114.859 79.0001C113.202 80.7674 111.883 82.6904 110.49 84.64C109.859 85.524 109.445 85.6714 108.503 86.2513C107.007 87.172 106.581 89.2013 105.763 90.6737" stroke="#FDB90B" stroke-opacity="0.25" stroke-width="4" stroke-linecap="round"/>
<path d="M99.5 103.514C97.5485 106.591 95.6568 108.841 94.062 112.124C93.6106 113.053 93.8133 114.437 93.055 115.196C92.3335 115.917 92.0172 117.719 91.343 118.116C89.4267 119.243 87.3516 121.742 87.2645 124.007C87.1421 127.19 85.202 128.231 84.1931 131.056C83.4941 133.013 83.2914 135.098 82.6322 137.149C82.2061 138.474 82.2844 139.87 81.7258 141.127C79.4712 146.2 76.6891 150.825 73.4178 155.527C71.7565 157.915 71.3036 161.83 70.296 164.641C69.0631 168.08 67.382 171.39 65.9657 174.762C64.5825 178.055 63.3269 182.698 61.4341 185.537" stroke="#FDB90B" stroke-opacity="0.25" stroke-width="4" stroke-linecap="round"/>
<path d="M61.597 186.44C61.597 187.841 61.6056 189.1 61.8135 190.451C61.9337 191.233 63.4116 191.702 64.0035 192.412C64.3299 192.804 64.4762 193.35 64.8184 193.749C65.2059 194.201 65.9221 194.345 66.3591 194.742C67.2513 195.553 66.9656 196.622 67.7852 197.442" stroke="#FDB90B" stroke-opacity="0.25" stroke-width="4" stroke-linecap="round"/>
<path d="M68.2311 197.593C68.7215 199.228 68.9613 200.75 68.9613 202.447C68.9613 202.945 68.9617 203.191 69.3264 203.556C69.7456 203.975 70.8027 205.026 70.9085 205.625C70.9693 205.97 72.1389 206.92 72.4905 207.194C73.1407 207.699 73.8292 208.396 73.8292 209.276C73.8292 209.981 74.316 210.394 74.316 211.223C74.316 211.872 74.316 212.521 74.316 213.17C74.316 214.823 76.251 215.105 77.2368 216.091C77.7549 216.609 78.1723 217.001 78.5755 217.673C79.0057 218.39 79.7695 218.532 80.2117 219.255C80.6073 219.903 81.5026 220.036 81.8749 220.594C82.4102 221.397 83.5842 220.658 84.2954 221.013C85.0336 221.382 85.7379 221.885 86.4725 222.298C87.2266 222.722 86.8797 223.652 87.2162 224.367C87.4396 224.841 87.4392 225.323 87.73 225.759C88.6703 227.17 89.4696 227.929 90.759 229.018C93.3595 231.214 95.8386 233.499 98.8182 235.184C101.419 236.655 104.453 238.304 106.58 240.431C107.337 241.188 108.138 242.633 109.244 242.879C109.872 243.018 111.093 243.911 111.556 244.325C112.235 244.933 112.76 245.282 113.138 246.164C113.619 247.286 114.444 247.524 115.018 248.463C115.938 249.969 117.424 251.082 118.317 252.601C119.442 254.513 120.907 255.529 122.563 256.739C123.241 257.234 123.823 257.466 124.335 258.091C124.993 258.896 125.058 259.882 125.863 260.687C126.759 261.584 127.322 262.556 128.472 263.175C129.711 263.842 131.066 263.543 132.326 264.041C133.451 264.485 134.283 266.294 135.031 267.191C136.017 268.375 135.875 269.755 137.356 270.126" stroke="#FDB90B" stroke-opacity="0.25" stroke-width="4" stroke-linecap="round"/>
<path d="M138.329 271.099C138.701 273.498 139.385 277.023 141.25 278.888C142.076 279.714 143.371 280.181 144.265 280.97C144.929 281.556 145.562 282.551 146.361 282.971C147.368 283.501 148.893 284.145 149.769 284.973C150.425 285.593 151.222 286.499 151.446 287.393C151.669 288.288 152.424 288.629 153.055 289.259C154.326 290.53 155.86 291.665 157.044 293.018C158.416 294.587 159.081 296.519 161.154 297.44C161.684 297.675 162.537 298.572 163.021 298.968C163.673 299.502 164.589 300.798 165.373 301.037C166.68 301.435 168.342 301.682 169.484 302.497C170.461 303.195 172.044 302.975 173.135 303.471C174.18 303.946 175.158 304.201 176.299 304.201C177.431 304.201 178.019 304.756 179.071 304.918C179.949 305.053 181.02 305.129 181.897 305.175C183.165 305.241 184.166 305.905 185.413 305.905C189.682 305.905 192.17 310.53 196.353 310.53C198.75 310.53 200.78 310.739 202.938 309.691C205.373 308.508 205.863 310.889 206.968 312.423C207.816 313.601 209.031 314.497 209.875 315.763C210.242 316.313 210.108 316.905 210.132 317.534C210.154 318.103 210.984 318.657 211.362 319.035C211.745 319.418 212.711 319.805 213.242 319.968C214.018 320.207 214.525 320.756 215.243 320.996" stroke="#FDB90B" stroke-opacity="0.25" stroke-width="4" stroke-linecap="round"/>
<path d="M217.277 322.115C218.667 323.201 219.783 324.407 221.477 325.023C223.764 325.855 223.457 326.881 224.547 328.577C226.466 331.563 229.998 330.08 232.907 330.495C234.97 330.79 233.251 334.892 235.734 335.846C236.719 336.226 237.172 336.851 238.197 337.038C238.97 337.178 239.228 338.108 239.994 338.108C240.854 338.108 241.272 338.436 241.832 338.997C242.591 339.756 243.438 340.236 244.174 341.299C244.944 342.411 245.119 343.479 246.355 344.206C247.586 344.93 248.881 345.569 250.172 346.286C251.436 346.989 252.208 346.278 252.736 348.164C253.459 350.745 254.57 351.092 256.411 352.889C257.384 353.839 258.494 354.173 259.521 354.989C260.662 355.897 261.39 357.25 262.631 358.018C264.058 358.902 266.091 359.688 266.73 361.391C267.696 363.968 269.772 363.915 272.081 363.915C273.938 363.915 278.674 361.017 280.34 362.683C282.333 364.676 282.702 366.667 282.702 369.448C282.702 371.941 283.185 374.632 284.156 376.818C285.213 379.197 286.456 382.548 288.882 383.825C290.999 384.939 292.135 386.028 293.809 387.702C295.291 389.184 298.246 394.027 300.149 394.083C301.079 394.11 304.985 393.582 305.218 394.628C305.834 397.4 306.203 400.478 309.095 401.877C310.234 402.429 311.288 402.627 312.265 403.412C313.544 404.441 315.377 406.052 316.99 406.441C318.759 406.867 321.206 407.919 322.685 406.441" stroke="#FDB90B" stroke-opacity="0.25" stroke-width="4" stroke-linecap="round"/>
<path d="M323.604 407.134C324.31 410.351 324.492 413.116 324.492 416.486C324.492 418.609 325.743 418.929 327.404 420.163C328.1 420.68 328.963 420.981 329.575 421.594C329.949 421.968 329.786 422.557 329.822 423.025C329.876 423.733 330.766 424.241 331.155 424.802C332.565 426.839 333.795 429.413 335.596 431.119C337.057 432.503 339.124 432.374 340.581 433.685C341.143 434.191 342.715 435.391 343.369 435.536C344.418 435.769 344.506 436.741 345.368 436.893C346.64 437.118 348.947 439.213 349.908 440.101C353.47 443.389 355.054 449.33 360.618 449.33C361.877 449.33 366.72 450.137 367.774 449.083C368.506 448.351 369.105 447.395 370.019 446.887C374.389 444.46 375.67 449.145 376.509 452.291C377.108 454.538 379.141 456.845 380.482 458.633C383.364 462.475 387.367 463.099 391.784 463.099C396.813 463.099 396.46 468.322 398.891 471.563C399.648 472.573 401.177 472.54 401.679 473.315C402.098 473.962 403.597 475.645 404.27 475.955C406.568 477.016 408.068 478.748 410.217 479.879C411.19 480.391 412.427 481.31 413.548 481.31C414.962 481.31 416.012 481.208 417.225 482.001C418.893 483.092 421.262 482.643 423.197 482.643C425.806 482.643 427.135 480.866 429.76 480.866C432.048 480.866 432.791 483.247 432.87 485.209C433.012 488.773 438.47 488.181 440.865 487.183C442.68 486.427 443.676 485.076 445.134 483.753C448.227 480.948 451.771 478.999 453.301 474.845C455.752 468.193 461.741 462.772 461.741 455.351C461.741 452.267 465.089 449.918 465.763 446.887C465.991 445.862 466.627 445.547 466.627 444.345C466.627 443.416 466.627 442.486 466.627 441.557C466.627 438.583 465.38 431.483 467.293 429.145C468.766 427.345 468.225 424.59 469.538 422.902C470.267 421.965 470.624 422.21 470.624 420.903C470.624 419.795 470.371 418.407 470.673 417.35C471.046 416.044 471.957 415.854 471.957 414.24C471.957 413.359 472.401 412.698 472.401 411.798C472.401 409.147 473.289 407.119 473.289 404.469" stroke="#FDB90B" stroke-opacity="0.25" stroke-width="4" stroke-linecap="round"/>
<path d="M459.993 1023.87C460.718 1008.74 462.049 993.441 463.244 978.509C463.462 975.78 463.258 971.391 464.038 968.757C464.966 965.628 467.66 963.514 467.795 960.017C467.937 956.316 468.445 952.608 468.445 948.784C468.445 946.619 470.395 946.301 470.395 944.233C470.395 942.483 471.045 940.821 471.045 939.032C471.045 934.33 476.051 931.57 476.246 926.499C476.386 922.878 476.831 919.473 478.197 916.098C479.796 912.146 484.513 910.448 485.384 906.526C485.746 904.898 486.401 903.253 486.973 901.65C487.541 900.062 488.74 897.527 489.61 896.16C492.184 892.115 493.149 885.803 493.149 880.883C493.149 879.717 493.007 878.429 493.186 877.271C493.469 875.431 495.435 874.327 495.967 872.539C497.162 868.518 496.4 863.119 496.4 858.923C496.4 853.111 495.1 847.873 495.1 842.128C495.1 837.484 494.987 832.828 495.1 828.186C495.146 826.276 496.979 824.987 497.05 823.13C497.168 820.059 497.05 816.958 497.05 813.884C497.05 810.95 496.285 806.578 497.411 803.843C498.822 800.417 500.301 796.325 500.301 792.43" stroke="#FDB90B" stroke-opacity="0.25" stroke-width="4" stroke-linecap="round"/>
<path d="M500.724 792.245C499.944 788.15 501.793 784.937 501.793 780.865C501.793 777.396 502.128 774.786 503.139 771.503C504.481 767.139 504.559 762.052 506.583 758.005C507.198 756.774 506.78 754.625 506.78 753.274C506.78 751.353 509.399 749.766 510.264 748.069C511.221 746.19 510.851 744.504 511.135 742.488C511.382 740.733 511.768 739.319 511.768 737.52C511.768 735.544 512.113 733.792 512.461 731.879C512.553 731.37 512.84 731.148 513.035 730.692C515.078 725.9 516.039 720.535 517.607 715.57C517.984 714.377 518.64 713.504 519.17 712.443C519.724 711.336 519.361 709.698 519.883 708.524C520.487 707.165 520.746 705.551 521.011 704.091C521.149 703.33 520.941 702.522 521.051 701.755C521.166 700.95 521.743 700.286 521.743 699.44C521.743 697.802 522.279 696.797 522.733 695.264C522.938 694.57 522.444 693.13 522.891 692.572C523.428 691.901 523.881 691.436 523.881 690.533C523.881 688.99 523.525 687.554 523.525 686.08" stroke="#FDB90B" stroke-opacity="0.25" stroke-width="4" stroke-linecap="round"/>
<path d="M524.578 686.728C526.545 678.999 529.4 672.404 529.4 664.54C529.4 662.43 530.203 660.474 530.203 658.423C530.203 656.133 530.104 654.268 531.096 652.173C531.575 651.164 531.749 649.265 531.811 648.155C531.86 647.262 532.614 647.096 532.614 645.923C532.614 644.822 532.614 643.72 532.614 642.619C532.614 639.379 532.212 636.185 532.212 632.887" stroke="#FDB90B" stroke-opacity="0.25" stroke-width="4" stroke-linecap="round"/>
<path d="M532.89 633.725C532.675 627.478 532.541 621.269 532.541 615.024C532.541 614.073 532.191 612.466 532.89 611.726C533.52 611.059 534.985 610.417 534.985 609.456C534.985 605.528 537.08 602.126 537.08 598.108" stroke="#FDB90B" stroke-opacity="0.25" stroke-width="4" stroke-linecap="round"/>
<path d="M536.186 597.818C536.452 597.177 536.858 595.737 537.471 595.247C537.841 594.951 537.635 593.567 537.757 593.104C537.985 592.236 537.874 591.406 538.186 590.548C538.443 589.84 539.329 589.324 539.329 588.516C539.329 585.835 540.472 583.368 540.472 580.721C540.472 578.489 540.114 577.188 539.361 575.117C538.861 573.743 539.329 571.403 539.329 569.942C539.329 569.237 539.29 568.519 539.329 567.815C539.367 567.135 540.274 566.757 540.535 566.164C540.682 565.83 541.661 564.652 541.964 564.386C542.657 563.78 542.993 561.319 543.044 560.386C543.128 558.819 543.615 557.367 543.615 555.782C543.615 554.626 543.467 553.629 544.187 552.67" stroke="#FDB90B" stroke-opacity="0.25" stroke-width="4" stroke-linecap="round"/>
<path d="M544.376 551.869C546.104 550.799 546.795 549.923 547.364 548.075C547.638 547.185 547.836 545.799 547.883 544.854C547.95 543.527 547.416 542.638 547.416 541.346C547.416 539.961 547.416 538.575 547.416 537.189C547.416 535.689 547.226 534.086 547.883 532.694C548.805 530.742 548.585 528.538 548.585 526.433C548.585 525.674 548.455 524.799 548.689 524.069C548.986 523.139 549.257 521.61 549.754 520.821C550.292 519.967 550.943 519.63 551.391 518.613C551.984 517.264 552.125 516.2 552.339 514.806C552.702 512.45 552.591 510.215 553.859 508.025C554.568 506.801 554.898 506.444 554.898 504.985C554.898 503.86 554.677 503.079 554.885 501.933C555.123 500.625 555.6 499.336 555.6 497.97C555.6 495.355 555.765 492.436 557.107 490.137C557.858 488.849 556.54 487.071 556.795 485.668C557.055 484.236 558.559 483.384 558.977 481.94C559.458 480.279 559.979 478.573 560.744 477.042" stroke="#FDB90B" stroke-opacity="0.25" stroke-width="4" stroke-linecap="round"/>
<path d="M561.347 477.539C562.638 478.074 563.637 478.918 564.871 479.512C565.979 480.045 567.153 480.349 568.225 480.945C569.931 481.892 571.42 481.981 573.182 482.462C574.025 482.692 574.611 483.773 575.357 484.232C576.161 484.727 577.063 484.839 577.801 485.26C578.728 485.79 579.546 485.931 580.583 486.053C581.41 486.15 581.968 486.791 582.741 486.963C584.022 487.248 584.41 487.4 584.41 488.767C584.41 489.612 584.584 489.442 585.017 490.048C585.774 491.108 586.224 492.263 586.669 493.471C587.652 496.137 589.249 499.35 591.154 501.445C592.054 502.435 593.235 503.297 593.986 504.412C594.742 505.534 595.394 507.059 596.481 507.885C597.754 508.852 598.589 510.296 599.954 511.291C600.65 511.798 601.373 512.693 602.163 513.044C603.82 513.781 604.513 516.271 606.394 516.955C608.308 517.651 610.232 518.602 612.16 519.4C613.601 519.996 615.232 520.506 616.746 520.867C617.458 521.036 618.216 520.802 618.92 520.968C619.703 521.152 621.924 521.293 622.444 521.979C622.743 522.374 622.838 523.617 622.933 524.137C623.126 525.197 623.557 526.557 623.557 527.61" stroke="#FDB90B" stroke-opacity="0.25" stroke-width="4" stroke-linecap="round"/>
<path d="M646.081 275.941C646.081 273.411 645.543 270.984 645.543 268.407C645.543 266.885 644.869 266.742 644.198 265.567C643.566 264.462 643.659 263.527 643.659 262.278C643.659 259.518 643.659 256.757 643.659 253.997C643.659 252.263 643.652 251.085 642.06 249.991C641.544 249.636 641.315 249.082 640.864 248.63C640.465 248.232 640.175 248.402 639.758 248.077C638.525 247.118 636.395 245.725 636.395 243.787C636.395 241.076 632.894 240.348 631.013 239.408C629.93 238.866 629.369 238.323 628.457 237.614C627.69 237.017 626.038 236.301 625.572 235.581C624.488 233.905 622.121 233.697 620.266 233.697C618.438 233.697 615.488 234.273 613.913 233.413C612.947 232.887 611.872 231.776 611.103 231.007C610.015 229.919 609.252 229.93 607.754 229.93C607.446 229.93 607.026 230.199 606.857 230.469C606.464 231.097 605.516 230.834 604.914 231.126C603.462 231.831 602.559 231.591 601.013 231.829C599.858 232.006 598.689 232.244 597.56 232.561C596.566 232.84 596.076 233.428 595.168 233.817C593.216 234.653 592.598 236.25 590.175 236.388C589.051 236.452 587.961 236.202 586.961 236.821C585.844 237.513 584.815 238.421 583.553 238.81C582.71 239.069 582.064 239.939 581.147 240.245C580.318 240.521 579.354 240.204 578.605 240.693C577.035 241.72 575.277 243.653 573.299 243.653C570.665 243.653 568.248 244.262 567.095 246.896C566.103 249.165 563.839 250.615 562.402 252.532" stroke="#FDB90B" stroke-opacity="0.25" stroke-width="3" stroke-linecap="round"/>
<path d="M639.892 263.834C639.544 261.942 638.922 261.728 637.41 260.814C636.943 260.532 635.762 259.67 635.602 259.11C635.194 257.683 635.442 255.807 634.72 254.506C633.77 252.796 632.752 250.877 631.296 249.603C630.005 248.473 629.056 247.337 628.172 245.821C626.995 243.802 625.161 243.385 622.94 243.385C622.293 243.385 621.645 243.385 620.997 243.385C619.798 243.385 620.153 243.169 619.547 242.428C618.06 240.611 616.979 240.156 614.599 240.156C613.516 240.156 612.313 240.005 611.236 240.171C610.523 240.281 610.213 240.694 609.487 240.694C607.854 240.694 607.632 239.08 605.84 239.08C603.865 239.08 600.275 237.799 598.725 239.349C597.32 240.753 596.076 242.309 593.881 242.309C592.445 242.309 590.977 242.229 589.547 242.368C587.68 242.551 588.124 242.947 587.274 244.282C586.974 244.754 585.964 245.029 585.555 245.642C585.246 246.107 583.664 246.325 583.119 246.614C582.288 247.054 581.481 247.014 580.667 247.421C580.32 247.595 580.233 247.894 579.83 248.019C579.091 248.248 578.18 248.037 577.498 248.378C576.194 249.03 574.532 249.923 573.059 250.097C571.468 250.284 570.906 251.7 569.785 252.623C568.732 253.49 567.151 254.69 566.437 255.762" stroke="#FDB90B" stroke-opacity="0.25" stroke-width="3" stroke-linecap="round"/>
<path d="M640.36 282.498C638.755 283.081 637.112 283.533 635.554 284.234C634.806 284.571 633.844 285.65 633.091 285.769C632.251 285.901 631.795 285.719 631.072 286.132C628.119 287.819 624.634 288.004 621.379 288.596C617.58 289.286 613.461 289.04 609.465 289.04" stroke="#FDB90B" stroke-opacity="0.25" stroke-width="3" stroke-linecap="round"/>
<path d="M606.921 286.495C604.674 286.495 601.767 285.904 601.469 283.224C601.198 280.788 598.212 279.968 596.562 278.317C595.07 276.826 593.165 276.759 592.725 274.339C592.35 272.273 590.339 270.837 588.747 269.776" stroke="#FDB90B" stroke-opacity="0.25" stroke-width="3" stroke-linecap="round"/>
<path d="M636.3 288.986C634.158 289.843 631.864 290.569 629.835 291.676C628.393 292.462 628.388 293.904 627.318 294.76C626.21 295.646 624.433 296.344 623.641 297.4C623.016 298.234 621.673 297.741 620.853 298.412C618.834 300.064 611.376 299.76 609.205 298.313" stroke="#FDB90B" stroke-opacity="0.25" stroke-width="3" stroke-linecap="round"/>
<path d="M603.431 296.536C598.403 297.517 598.082 294.493 594.794 291.675C593.618 290.667 592.717 289.421 591.438 288.442C590.825 287.974 589.649 287.301 589.217 286.666C588.738 285.962 588.791 284.815 588.23 284.198C586.153 281.913 583.83 281.316 581.444 279.46C580.507 278.731 579.151 278.085 578.113 277.536C577.238 277.073 576.602 275.793 575.448 275.216" stroke="#FDB90B" stroke-opacity="0.25" stroke-width="3" stroke-linecap="round"/>
<path d="M609.479 255.034C607.776 254.385 605.32 254.067 603.516 254.067C602.318 254.067 601.045 253.745 599.971 253.745C597.434 253.745 593.028 254.53 591.431 252.134" stroke="#FDB90B" stroke-opacity="0.25" stroke-width="3" stroke-linecap="round"/>
<path d="M186.677 769.877C183.244 761.295 182.137 752.943 180.336 743.937" stroke="#FDB90B" stroke-opacity="0.25" stroke-width="4" stroke-linecap="round"/>
<path d="M180.91 745.114C179.052 742.661 178.442 739.797 177.263 737.102C176.587 735.557 176.891 733.878 176.196 732.349C175.546 730.919 175.323 729.213 175.323 727.655C175.323 725.05 175.521 722.283 174.625 719.818C173.679 717.218 172.879 715.201 172.879 712.388C172.879 700.926 173.228 689.524 173.228 678.07C173.228 676.105 173.228 674.139 173.228 672.173C173.228 670.645 173.903 669.539 174.237 668.119C174.591 666.613 174.276 664.767 174.276 663.211C174.276 660.442 173.321 659.145 172.53 656.77" stroke="#FDB90B" stroke-opacity="0.25" stroke-width="4" stroke-linecap="round"/>
<path d="M173.996 656.32C174.417 652.478 174.799 648.638 175.148 644.791" stroke="#FDB90B" stroke-opacity="0.25" stroke-width="4" stroke-linecap="round"/>
<path d="M174.948 644.804C173.714 643.329 173.278 642.319 173.278 640.377C173.278 639.876 173.307 639.372 172.92 638.986C172.733 638.798 172.176 638.74 172.099 638.469C171.447 636.187 170.654 633.947 170.654 631.444C170.654 627.949 170.415 624.47 170.415 620.947C170.415 619.039 170.415 617.13 170.415 615.222C170.415 613.897 170.791 611.658 170.058 610.517C169.376 609.456 168.268 607.811 168.268 606.514C168.268 605.268 168.04 603.948 168.745 602.869C169.455 601.784 169.461 601.056 169.461 599.768C169.461 598.584 169.461 597.4 169.461 596.216C169.461 594.961 168.811 593.973 168.745 592.796C168.725 592.431 168.356 592.296 168.282 591.961C168.198 591.584 168.339 591.172 168.255 590.795C168.117 590.173 168.03 589.564 168.03 588.847C168.03 587.336 168.03 585.825 168.03 584.314C168.03 582.584 168.451 580.142 167.977 578.482C167.785 577.811 167.464 577.178 167.261 576.494C167.081 575.888 167.085 575.361 167.076 574.692C167.054 573.251 166.653 571.847 166.598 570.424C166.542 568.956 166.121 567.33 166.121 565.732C166.121 564.801 166.07 563.996 165.869 563.095C165.638 562.052 164.703 561.29 165.286 560.007C165.729 559.033 165.933 558.286 166.678 557.541C167.364 556.855 168.33 555.464 167.553 554.493C166.841 553.604 167.076 552.499 167.076 551.392C167.076 550.559 166.93 549.75 167.5 549.085C167.856 548.67 167.791 548.22 167.791 547.707" stroke="#FDB90B" stroke-opacity="0.25" stroke-width="4" stroke-linecap="round"/>
<path d="M167.167 546.494C167.112 543.288 165.937 540.88 165.937 537.68C165.937 536.595 165.937 535.509 165.937 534.424C165.937 533.259 166.719 532.769 166.757 531.827C166.853 529.42 167.033 526.722 166.734 524.335C166.438 521.962 164.297 521.065 164.297 518.527C164.297 515.856 166.347 514.643 166.347 512.059C166.347 510.283 166.347 508.506 166.347 506.73C166.347 503.387 163.068 502.968 163.068 499.966C163.068 497.513 163.301 495.094 163.979 492.792C164.341 491.561 165.634 490.831 166.028 489.604C166.484 488.185 166.347 486.686 166.347 485.208C166.347 483.227 166.347 481.245 166.347 479.264C166.347 476.26 167.719 470.387 165.527 468.196C163.517 466.186 164.297 461.507 164.297 458.995C164.297 457.406 163.235 456.21 163.09 454.622C162.905 452.578 163.013 450.39 163.386 448.382C164.01 445.03 164.006 439.523 162.863 436.22C162.462 435.062 162.176 432.714 161.2 431.916C159.984 430.921 159.549 429.884 158.968 428.432" stroke="#FDB90B" stroke-opacity="0.25" stroke-width="4" stroke-linecap="round"/>
<path d="M355.6 674.79C355.221 678.578 354.107 681.889 352.278 685.242C351.585 686.512 351.958 688.52 351.958 689.963C351.958 691.11 351.351 691.919 351.351 692.997C351.351 693.851 351.351 694.706 351.351 695.56C351.351 697.263 350.835 698.79 350.744 700.415C350.556 703.805 347.067 706.078 349.766 709.452C349.903 709.622 348.524 713.899 348.451 713.919C345.836 714.666 346.749 717.319 346.799 719.264C346.892 722.884 348.058 727.905 346.024 731.233C345.521 732.057 344.48 732.605 344.136 733.509C343.897 734.134 344.068 735.035 344.068 735.701C344.068 737.458 344.978 738.89 344.978 740.573C344.978 742.226 344.91 742.991 344.136 744.282C343.495 745.35 342.568 746.19 341.809 747.165C341.394 747.698 341.495 748.788 341.168 749.441C340.676 750.425 340.459 751.468 340.056 752.476C339.377 754.172 339.17 756.055 338.42 757.803C337.999 758.786 337.456 760.415 336.903 761.276C336.279 762.247 335.436 763.112 335.032 764.243C334.65 765.311 335.309 766.553 334.661 767.581C334.036 768.574 334.27 769.109 333.902 770.211C333.469 771.512 333.75 773.265 333.75 774.628" stroke="#FDB90B" stroke-opacity="0.25" stroke-width="4" stroke-linecap="round"/>
<path d="M334.875 775.583C335.023 776.341 335.779 778.418 334.875 779.04C334.378 779.382 334.481 779.719 334.481 780.309C334.481 782.091 333.786 782.36 332.599 783.547C330.845 785.301 332.299 789.489 331.637 791.642C330.871 794.131 331.031 798.062 330.936 800.7C330.894 801.895 330.219 803.197 329.842 804.42C329.475 805.614 329.755 807.217 329.755 808.467C329.755 810.927 329.808 813.242 330.171 815.6C330.766 819.47 330.457 822.821 329.777 826.561C328.832 831.755 330.13 838.57 331.658 843.408C332.37 845.662 332.099 850.245 330.543 851.985C329.117 853.578 329.755 856.628 329.755 858.68C329.755 859.939 329.035 860.922 328.661 862.137C328.247 863.481 329.361 864.764 329.361 866.163C329.361 867.7 332.274 871.682 329.755 873.164C328.351 873.99 327.767 874.417 327.304 875.921C326.747 877.731 326.998 879.792 326.998 881.697C326.998 883.187 327.786 884.35 327.786 885.854C327.786 887.01 327.649 888.632 328.398 889.595C329.361 890.834 329.361 891.007 329.361 892.768C329.361 894.249 328.18 895.426 328.18 896.684C328.18 898.167 327.392 899.428 327.392 901.06C327.392 902.404 327.617 903.626 327.83 904.955C328.24 907.521 329.288 909.38 330.105 911.628C330.73 913.346 329.361 914.8 329.361 916.354C329.361 918.693 330.149 920.636 330.149 922.874" stroke="#FDB90B" stroke-opacity="0.25" stroke-width="4" stroke-linecap="round"/>
<path d="M187.096 770.365C187.14 773.656 186.867 776.821 189.879 778.542C191.186 779.289 191.865 782.072 192.235 783.369C193.193 786.722 193.754 790.212 194.507 793.676C194.884 795.41 194.763 797.22 194.763 798.986C194.763 800.385 195.709 801.209 195.785 802.564C195.953 805.587 196.296 808.289 196.296 811.253C196.296 812.615 196.031 814.276 196.324 815.597C196.518 816.468 197.614 816.586 197.801 817.613C197.935 818.349 197.829 819.196 197.829 819.941C197.829 822.251 197.829 824.56 197.829 826.869C197.829 829.511 198.397 830.974 199.334 833.485C199.846 834.857 200.176 838.018 201.634 838.852C203.505 839.921 201.005 848.918 201.52 850.721C202.198 853.092 201.235 855.931 202.826 857.876C203.76 859.017 202.318 861.229 203.451 862.362" stroke="#FDB90B" stroke-opacity="0.25" stroke-width="4" stroke-linecap="round"/>
<path d="M204.26 862.227C204.26 863.532 204.005 864.503 203.852 865.722C203.727 866.726 202.716 867.241 202.716 868.21C202.716 869.027 202.621 869.908 202.737 870.719C202.847 871.486 203.488 872.058 203.488 872.842C203.488 873.549 203.488 874.257 203.488 874.965C203.488 876.02 202.909 876.552 202.737 877.495C202.517 878.704 202.966 879.533 202.115 880.583C201.515 881.325 200.572 882.206 200.807 883.264C201.095 884.561 202.716 885.629 202.716 886.931C202.716 888.441 203.102 889.893 203.102 891.477C203.102 894.435 203.874 896.988 203.874 899.97C203.874 909.113 205.182 918.071 203.895 927.076C203.084 932.751 203.488 938.684 203.488 944.446C203.488 946.204 202.33 947.358 202.33 949.25C202.33 949.983 202.135 950.966 202.544 951.609C202.824 952.049 204.179 952.946 204.238 953.153C204.955 955.66 204.646 958.708 204.646 961.43C204.646 962.871 204.592 964.323 204.646 965.762C204.712 967.564 205.804 969.326 205.804 971.081C205.804 972.746 205.804 974.412 205.804 976.077C205.804 978.558 204.218 980.412 203.895 982.832C203.644 984.714 202.223 986.005 201.386 987.679C200.959 988.534 200.786 989.44 200.786 990.381C200.786 991.405 200.228 991.635 200.035 992.504C199.761 993.737 199.695 994.895 199.628 996.171C199.552 997.602 199.56 1000.64 198.856 1001.88C198.097 1003.2 198.47 1005.35 198.47 1006.85C198.47 1009.82 198.47 1012.8 198.47 1015.77C198.47 1017.35 197.851 1019.49 197.397 1020.96C196.784 1022.95 196.926 1025.93 196.926 1028.04C196.926 1030.76 196.143 1034.6 198.169 1036.79C199.079 1037.77 198.783 1038.84 199.027 1040.09C199.98 1044.97 200.989 1049.67 202.33 1054.46" stroke="#FDB90B" stroke-opacity="0.25" stroke-width="4" stroke-linecap="round"/>
<path d="M335.749 959.923C336.591 954.766 336.81 952.412 339.975 948.653C341.843 946.435 341.384 942.933 341.384 940.2C341.384 938.453 340.395 932.257 342.089 931.199C344.938 929.418 345.611 928.403 345.611 924.703C345.611 921.65 345.611 918.598 345.611 915.545C345.611 912.888 346.923 911.068 347.02 908.658C347.085 907.035 348.428 906.664 348.428 905.331C348.428 903.857 348.428 902.383 348.428 900.909C348.428 897.681 349.133 894.74 349.133 891.595" stroke="#FDB90B" stroke-opacity="0.25" stroke-width="4" stroke-linecap="round"/>
<path d="M348.714 891.931C348.714 890.013 348.714 888.095 348.714 886.177C348.714 884.774 348.375 882.821 348.787 881.482C349.011 880.756 349.504 880.239 349.755 879.528C350.276 878.052 350.687 877.374 350.687 875.82C350.687 873.417 349.7 871.226 349.7 868.915C349.7 864.969 349.7 861.023 349.7 857.078C349.7 856.001 349.805 854.39 350.048 853.297C350.206 852.582 350.687 852.575 350.687 851.634C350.687 850.873 350.687 850.112 350.687 849.351C350.687 847.518 349.562 846.294 349.372 844.583C349.215 843.173 349.043 841.798 349.043 840.309C349.043 838.884 349.043 837.459 349.043 836.034C349.043 834.275 351.248 833.689 351.344 831.76C351.499 828.678 351.317 825.571 351.016 822.554C350.927 821.669 350.358 821.011 350.358 820.088C350.358 819.174 350.687 818.332 350.687 817.457C350.687 815.888 351.673 814.401 352.166 813.018C352.654 811.654 352.331 809.795 352.331 808.342C352.331 806.887 352.628 805.067 352.313 803.647C352.003 802.255 351.344 801.34 351.344 799.866C351.344 799.16 351.344 798.454 351.344 797.747C351.344 796.669 352.002 795.966 352.002 795.08C352.002 794.226 352.378 793.522 352.331 792.633C352.283 791.722 351.508 791.297 351.271 790.587C350.311 787.704 352.331 785.699 352.331 782.969C352.331 781.491 353.133 779.756 352.587 778.238C352.277 777.379 351.344 777.351 351.344 776.119C351.344 775.153 350.654 774.68 350.687 773.818C350.715 773.086 351.376 771.996 351.819 771.425C352.204 770.93 352.002 769.863 352.002 769.269C352.002 767.635 352.331 766.04 352.331 764.356C352.331 763.268 351.673 762.798 351.673 761.743C351.673 760.909 351.673 760.075 351.673 759.241C351.673 757.713 351.673 756.184 351.673 754.656C351.673 753.061 352.331 751.568 352.331 749.888C352.331 748.048 352.518 746.71 352.952 744.975C353.653 742.169 352.989 738.638 352.989 735.75C352.989 732.189 353.443 728.344 354.304 724.899" stroke="#FDB90B" stroke-opacity="0.25" stroke-width="4" stroke-linecap="round"/>
<path d="M354.563 724.889C354.894 720.783 355.21 716.677 355.511 712.57" stroke="#FDB90B" stroke-opacity="0.25" stroke-width="4" stroke-linecap="round"/>
<path d="M355.512 711.939C355.512 710.658 355.124 710.274 354.898 709.254C354.743 708.556 353.933 708.323 353.933 707.674C353.933 706.148 353.933 704.621 353.933 703.094C353.933 701.238 354.564 699.71 354.564 697.865C354.564 696.531 354.564 695.197 354.564 693.863C354.564 692.044 354.564 690.225 354.564 688.406C354.564 686.236 355.173 684.526 355.494 682.439C355.661 681.356 357.618 676.034 356.144 675.297" stroke="#FDB90B" stroke-opacity="0.25" stroke-width="4" stroke-linecap="round"/>
<path d="M616.346 258.269C617.63 258.019 618.607 257.655 619.962 257.655C620.431 257.655 621.294 257.477 621.718 257.689C622.326 257.993 622.227 258.455 622.605 258.917C622.792 259.146 622.838 259.739 623.031 260.043C623.341 260.529 623.636 260.953 623.935 261.424C624.663 262.568 625.72 263.289 626.553 264.4C626.839 264.782 627.178 265.046 627.431 265.482C627.744 266.024 628.014 266.628 628.437 267.051C628.766 267.381 629.134 267.68 629.469 268.015C630.001 268.547 630.828 268.774 631.148 269.473C631.47 270.175 632.026 270.576 632.462 271.195C633.148 272.171 633.6 272.827 634.576 273.617C635.566 274.417 635.279 275.916 636.298 276.652C636.731 276.964 636.838 278.348 636.298 278.528" stroke="#FDB90B" stroke-opacity="0.25" stroke-width="3" stroke-linecap="round"/>
<path d="M635.838 278.068C634.055 278.125 632.383 278.449 630.628 278.23C629.853 278.133 629.103 278.068 628.318 278.068C627.681 278.068 627.044 278.068 626.408 278.068C625.77 278.068 625.193 277.761 624.515 277.761C623.309 277.761 618.955 278.444 618.955 276.687" stroke="#FDB90B" stroke-opacity="0.25" stroke-width="3" stroke-linecap="round"/>
<path d="M608.171 271.934C606.855 272.191 606.481 271.75 605.701 270.747C605.219 270.128 604.907 269.222 604.07 269.129C603.67 269.084 602.487 268.064 602.224 267.726C601.773 267.145 601.152 266.612 600.618 266.107C600.05 265.571 599.366 265.277 598.675 264.932C598.031 264.61 597.76 263.752 597.117 263.47C596.336 263.126 596.558 262.134 595.738 261.755C594.838 261.34 594.33 260.928 593.28 260.928" stroke="#FDB90B" stroke-opacity="0.25" stroke-width="3" stroke-linecap="round"/>
<path d="M617.91 276.92C616.967 276.368 615.628 276.198 614.778 275.56C614.233 275.152 614.441 274.589 613.754 274.437C612.997 274.268 612.508 273.716 611.67 273.601C610.872 273.49 610.409 273.463 609.823 272.877" stroke="#FDB90B" stroke-opacity="0.25" stroke-width="3" stroke-linecap="round"/>
<path d="M616.113 258.276C615.716 259.867 614.682 259.624 613.318 259.624C612.664 259.624 612.095 260.073 611.396 260.073C611.021 260.073 610.647 260.073 610.273 260.073C608.454 260.073 606.932 260.747 605.106 260.747C601.92 260.747 598.718 260.523 595.446 260.523" stroke="#FDB90B" stroke-opacity="0.25" stroke-width="3" stroke-linecap="round"/>
<path d="M590.729 260.299C590.068 260.428 589.286 260.973 588.695 260.973C587.847 260.973 586.998 260.973 586.149 260.973C585.155 260.973 584.161 260.973 583.167 260.973C580.895 260.973 578.624 260.973 576.352 260.973" stroke="#FDB90B" stroke-opacity="0.25" stroke-width="3" stroke-linecap="round"/>
<path d="M836.3 420.977C832.18 422.995 831.002 421.498 826.914 421.498C823.188 421.498 819.595 420.995 816.803 423.787C811.046 429.544 799.011 421.764 793.28 427.495C791.318 429.457 789.798 430.363 787.023 430.363C785.258 430.363 783.716 431.927 781.837 431.927C780.622 431.927 778.257 432.473 777.347 433.231C776.684 433.783 775.873 433.312 775.406 434.245C775.033 434.992 774.704 436.716 773.958 437.142C772.025 438.246 771.69 441.613 768.917 441.835C767.223 441.97 766.281 443.562 764.775 443.863C763.268 444.164 760.836 443.325 759.473 444.153C757.812 445.161 757.825 447.77 756.518 449.077C755.144 450.451 752.502 451.382 750.782 452.264C747.14 454.132 744.243 454.444 741.512 457.594C738.524 461.042 733.822 462.999 729.403 463.736C725.918 464.317 725.15 468.477 724.073 471.036C722.456 474.876 719.166 478.336 714.802 478.336" stroke="#FDB90B" stroke-opacity="0.25" stroke-width="4" stroke-linecap="round"/>
<path d="M838.906 481.465C835.9 483.326 833.6 486.166 830.215 486.796C826.354 487.514 823.292 488.244 819.323 488.244C816.514 488.244 814.007 488.629 811.27 488.766C810.24 488.817 809.264 489.279 808.778 490.214C808.293 491.148 807.339 490.662 806.519 491.141C804.725 492.187 803.49 492.416 801.478 492.416C799.971 492.416 798.465 492.416 796.959 492.416C795.974 492.416 795.243 491.343 794.351 490.967C792.883 490.349 791.762 491.993 790.643 492.705C788.306 494.193 786.324 495.467 783.401 495.544C782.003 495.581 780.599 495.544 779.2 495.544C777.076 495.544 774.043 499.337 772.682 500.527C771.462 501.595 767.565 500.574 765.961 501.02C764.788 501.346 763.823 502.32 762.775 502.845" stroke="#FDB90B" stroke-opacity="0.25" stroke-width="4" stroke-linecap="round"/>
<path d="M846.729 542.997C842.617 543.78 837.929 544.408 833.808 544.561C830.92 544.668 828.366 545.59 825.581 546.096C824.407 546.31 821.824 546.503 821.178 545.372C820.767 544.654 817.973 545.082 817.267 545.082C815.712 545.082 814.157 545.082 812.603 545.082C810.729 545.082 809.702 546.523 808.025 546.647C805.128 546.861 802.361 547.168 799.393 547.168C798.248 547.168 797.173 546.647 796.148 546.647C795.726 546.647 793.791 549.12 793.309 549.515C790.443 551.859 786.737 551.34 783.286 551.34C781.404 551.34 779.464 550.413 777.579 550.905C775.141 551.541 774.699 554.468 772.161 554.468" stroke="#FDB90B" stroke-opacity="0.25" stroke-width="4" stroke-linecap="round"/>
<path d="M840.993 589.927C838.295 589.983 835.638 590.592 833.925 592.795C832.499 594.627 828.873 594.62 826.798 594.62C822.552 594.62 815.032 593.254 811.3 595.431C807.215 597.814 803.804 595.663 799.509 595.663C797.162 595.663 794.091 595.092 791.861 595.779C789.962 596.363 788.397 597.725 786.763 598.27" stroke="#FDB90B" stroke-opacity="0.25" stroke-width="4" stroke-linecap="round"/>
<path d="M837.864 634.249C834.718 633.868 832.583 633.148 830.072 635.031C828.967 635.86 828.271 637.378 826.653 637.378C823.772 637.378 821.053 637.317 818.31 636.595C812.937 635.182 807.569 637.378 802.406 637.378" stroke="#FDB90B" stroke-opacity="0.25" stroke-width="4" stroke-linecap="round"/>
<path d="M836.3 665.537C832.443 665.086 828.322 663.759 824.799 665.827C823.54 666.566 822.288 667.57 820.772 667.623C819.173 667.678 817.564 667.623 815.963 667.623C813.704 667.623 811.444 667.623 809.185 667.623" stroke="#FDB90B" stroke-opacity="0.25" stroke-width="4" stroke-linecap="round"/>
<path d="M830.042 691.608C826.289 694.087 823.706 695.78 819.381 695.78C817.286 695.78 815.323 695.646 813.356 696.301" stroke="#FDB90B" stroke-opacity="0.25" stroke-width="4" stroke-linecap="round"/>
<path d="M962 782.622C961.833 781.621 961.199 779.418 959.998 778.617C958.496 777.616 895.379 722.481 883.914 704.536C872.401 686.516 874.904 692.022 866.394 678.006C859.243 666.228 848.041 648.307 843.87 640.465" stroke="#FDB90B" stroke-opacity="0.25" stroke-width="4"/>
<path d="M962 782.122C962 782.79 961.6 784.024 959.998 783.624C957.996 783.123 947.484 787.128 906.939 759.597C866.394 732.067 843.369 698.029 839.865 695.026C837.062 692.623 837.696 692.69 838.364 693.024" stroke="#FDB90B" stroke-opacity="0.25" stroke-width="4"/>
</svg>
