<svg width="376" height="476" viewBox="0 0 376 476" fill="none" xmlns="http://www.w3.org/2000/svg">
<g opacity="0.4">
<path d="M324.885 347.568C324.546 347.926 323.413 348.642 321.586 348.642C319.302 348.642 314.987 349.072 312.45 348.642C309.912 348.213 302.806 347.353 302.299 346.709C301.791 346.064 285.042 345.849 274.891 335.106C252.051 323.074 226.927 279.458 227.434 259.691" stroke="#FDB90B" stroke-opacity="0.25" stroke-width="4"/>
<path d="M227.435 259.691V258.187C234.118 262.054 248.093 270.261 249.514 271.293" stroke="#FDB90B" stroke-opacity="0.25" stroke-width="4"/>
<path d="M324.885 347.783C324.885 346.78 324.58 344.732 323.362 344.56C321.839 344.345 323.108 344.345 312.957 340.907C302.806 337.47 301.283 335.751 300.268 335.321C299.253 334.891 296.715 331.883 294.939 331.239C293.163 330.594 288.087 328.446 286.818 326.727C285.549 325.008 264.232 311.257 253.827 278.169C252.643 275.734 250.02 270.907 249.005 271.079" stroke="#FDB90B" stroke-opacity="0.25" stroke-width="4"/>
<path d="M216.94 484.556C225.667 484.368 233.591 482.836 242.028 481.645C250.063 480.511 256.599 478.436 264.19 475.979C270.606 473.902 273.384 469.447 278.526 465.885C281.7 463.686 283.4 460.824 285.548 457.928C286.607 456.499 288.303 454.79 289.717 453.593C291.55 452.041 292.471 450.394 294.325 448.825C295.92 447.474 296.764 446.01 298.055 444.552C299.422 443.008 301.245 441.401 302.444 439.753C303.709 438.011 305.808 435.608 305.808 433.56C305.808 427.951 313.049 424.205 313.049 418.512C313.049 415.04 316.673 411.831 318.023 408.573C319.459 405.109 319.278 401.494 321.241 398.17C321.959 396.955 322.826 396.088 323.436 394.826C324.939 391.714 327.302 387.76 328.153 384.515C328.938 381.527 328.834 378.75 330.531 375.877C332.101 373.218 332.798 369.546 332.798 366.526C332.798 362.208 334.525 357.987 334.773 353.584C334.879 351.694 335.844 349.579 336.419 347.732C337.056 345.681 336.796 343.51 337.552 341.446C338.401 339.132 337.755 336.142 339.381 334.077" stroke="#FDB90B" stroke-opacity="0.25" stroke-width="4" stroke-linecap="round"/>
<path d="M216.034 484.568C214.54 483.648 212.596 482.216 212.092 480.594C211.633 479.12 211.101 477.627 210.318 476.303C209.435 474.807 209.798 473.398 211.695 473.106C213.439 472.837 214.093 471.183 215.826 470.916C219.132 470.407 222.199 468.548 223.628 466.13C224.556 464.557 225.941 463.214 226.757 461.538C226.996 461.045 227.287 461.252 227.591 460.973C228.243 460.374 228.522 459.455 229.176 458.818C229.619 458.387 230.416 457.568 230.678 457.069C231.572 455.367 235.411 454.675 237.145 453.731C239.74 452.319 242.451 450.274 243.737 447.762C244.091 447.071 244.196 446.614 244.196 445.855C244.196 444.781 244.524 444.841 244.947 444.035C245.781 442.447 247.11 441.188 247.951 439.585C249.01 437.568 250.517 435.601 251.914 433.704C252.634 432.727 254.063 431.551 254.313 430.383C254.418 429.898 254.342 429.44 254.522 428.953C255.22 427.062 255.978 424.89 256.295 422.93C256.929 419.012 259.112 415.833 260.655 412.174C261.519 410.126 261.624 407.692 262.032 405.551C262.396 403.64 263.346 401.946 263.346 400.006C263.346 398.522 263.346 397.039 263.346 395.555C263.346 392.652 264.097 390.259 264.097 387.29C264.097 384.828 263.1 380.577 264.639 378.53C265.581 377.278 264.821 375.522 265.307 374.185C265.746 372.978 265.599 371.701 265.599 370.441C265.599 368.805 264.848 367.387 264.848 365.672C264.848 363.812 264.848 361.952 264.848 360.091C264.848 358.765 265.224 357.642 265.224 356.382C265.224 354.424 266.35 352.927 266.35 351.049C266.35 350.672 266.535 349.843 266.267 349.53C265.951 349.162 264.973 348.107 264.869 347.711C264.536 346.441 266.174 346.004 266.35 345.008C266.556 343.844 266.116 342.637 266.538 341.494C267.442 339.043 265.743 337.139 264.931 334.942C264.107 332.709 266.35 331.058 266.35 329.113" stroke="#FDB90B" stroke-opacity="0.25" stroke-width="4" stroke-linecap="round"/>
<path d="M336.256 329.912C336.871 329.225 337.689 328.636 338.216 327.898C338.645 327.297 339.405 326.716 339.405 326.002C339.405 325.264 338.566 325.029 338.566 324.225C338.566 322.019 338.566 319.814 338.566 317.609C338.566 316.873 338.455 316.065 338.577 315.338C338.721 314.488 340.235 314.396 339.569 313.205C339.192 312.532 338.566 311.754 338.566 310.974C338.566 310.262 338.776 309.618 338.776 308.939" stroke="#FDB90B" stroke-opacity="0.25" stroke-width="4" stroke-linecap="round"/>
<path d="M339.112 308.364C338.974 307.83 337.939 306.025 338.507 305.545C339.174 304.98 340.336 304.779 341.08 304.264C341.651 303.868 342.386 303.848 342.866 303.238C343.372 302.596 343.471 301.362 343.471 300.573C343.471 298.847 343.471 297.122 343.471 295.396C343.471 293.74 343.543 292.61 342.381 291.244C341.88 290.655 340.747 290.437 340.747 289.681C340.747 286.812 344.603 287.324 345.863 285.298C346.787 283.811 346.063 281.964 344.894 280.864C343.558 279.608 343.243 276.502 343.683 274.918C344.019 273.709 344.016 272.242 344.016 270.997C344.016 269.87 343.303 269.418 342.926 268.46" stroke="#FDB90B" stroke-opacity="0.25" stroke-width="4" stroke-linecap="round"/>
<path d="M343.034 267.324C346.786 267.246 346.349 262.787 346.349 260.419C346.349 258.176 344.691 256.504 344.691 254.294C344.691 252.515 345.26 249.963 344.56 248.269C343.723 246.244 342.56 244.419 342.56 242.267C342.56 241.417 342.895 241.424 343.928 241.264C345.631 241.002 345.165 238.63 345.165 237.645C345.165 236.846 345.143 236.149 344.797 235.396C344.193 234.081 344.54 232.743 343.863 231.42C343.252 230.227 343.439 229.229 343.218 228.012C343.092 227.319 342.56 226.664 342.56 225.985C342.56 225.359 342.939 223.524 342.508 223.068C342.196 222.738 342.418 222.327 342.205 221.932C341.88 221.327 341.575 220.786 341.021 220.317C340.378 219.772 340.371 219.053 339.838 218.502C339.39 218.038 339.066 217.42 339.272 216.809C339.616 215.789 341.007 215.046 341.324 214.002C341.689 212.8 341.85 211.828 341.85 210.595" stroke="#FDB90B" stroke-opacity="0.25" stroke-width="4" stroke-linecap="round"/>
<path d="M342.087 210.595C342.087 208.857 342.087 207.12 342.087 205.383C342.087 204.816 342.102 203.865 341.797 203.378C341.618 203.092 341.166 203.175 341.14 202.777C341.122 202.512 341.14 202.241 341.14 201.975C341.14 201.327 341.303 200.558 340.956 199.971C340.61 199.386 340.016 198.788 339.956 198.122C339.879 197.275 339.068 196.524 338.825 195.783C338.547 194.937 338.72 193.801 338.167 193.066C337.357 191.988 337.588 190.222 337.588 188.946C337.588 188.302 337.801 187.324 337.457 186.741C337.034 186.025 336.589 185.422 336.418 184.625C336.297 184.065 336.404 183.403 336.404 182.832C336.404 181.858 336.066 180.843 335.944 179.858C335.845 179.059 335.931 178.212 335.931 177.408C335.931 175.416 335.505 173.492 335.221 171.506" stroke="#FDB90B" stroke-opacity="0.25" stroke-width="4" stroke-linecap="round"/>
<path d="M335.606 171.226C334.27 168.326 334.303 165.206 333.281 162.286C333.016 161.528 333.05 160.682 332.785 159.898C332.586 159.308 331.874 158.782 331.832 158.155C331.754 156.953 330.46 156.008 330.46 154.814C330.46 151.868 328.582 149.314 330.117 146.391C330.535 145.595 331.146 145.311 331.146 144.357C331.146 143.337 331.719 142.248 332.156 141.323C332.928 139.691 332.519 137.587 332.519 135.853C332.519 133.335 332.519 130.818 332.519 128.3C332.519 126.085 333.413 123.584 332.843 121.41C332.597 120.473 331.832 119.784 331.832 118.795C331.832 117.687 331.82 116.738 331.299 115.729C330.609 114.394 328.729 113.72 328.116 112.421C327.862 111.885 328.058 110.962 328.058 110.388C328.058 109.122 326.822 108.411 325.904 107.515C325.485 107.105 325.657 106.379 325.657 105.869" stroke="#FDB90B" stroke-opacity="0.25" stroke-width="4" stroke-linecap="round"/>
<path d="M325.631 105.133C325.631 103.394 326.1 101.748 326.1 99.9729C326.1 98.5035 325.494 95.8576 323.756 95.1217C321.65 94.2303 322.252 92.4025 321.294 90.9431C320.867 90.2926 321.34 89.6942 320.695 89.0578C319.049 87.4319 318.046 85.5973 317.427 83.501" stroke="#FDB90B" stroke-opacity="0.25" stroke-width="4" stroke-linecap="round"/>
<path d="M317.376 83.2942C316.732 82.5747 316.554 81.9358 315.81 81.3059C315.248 80.8302 314.62 80.472 314.343 79.8147C314.122 79.2927 314.243 78.7347 314.027 78.2315C313.772 77.6378 312.966 77.1343 312.723 76.5378C312.023 74.8278 310.093 73.4772 309.167 71.7788C308.329 70.2409 308.591 68.3402 307.786 66.8081C306.999 65.3089 305.155 64.6816 304.307 63.2458C304.039 62.7912 303.731 62.3422 303.438 61.9202C303.228 61.6191 302.912 61.5179 302.894 61.1286C302.879 60.8058 302.957 60.4717 302.796 60.1713C302.241 59.1369 302.307 58.0779 302.307 56.9495C302.307 55.611 301.436 54.6407 300.545 53.6357" stroke="#FDB90B" stroke-opacity="0.25" stroke-width="4" stroke-linecap="round"/>
<path d="M300.132 53.3455C299.564 52.4026 298.698 51.6504 298.393 50.6416C298.242 50.1413 297.612 49.7049 297.581 49.1697C297.547 48.6007 297.366 48.743 297.108 48.3058C297.03 48.1736 297.089 48.0139 297.07 47.8738C297.041 47.6522 296.714 47.6186 296.598 47.4418C296.499 47.2908 296.236 46.8503 296.22 46.6898C296.144 45.9177 295.2 45.3909 295.03 44.7059C294.867 44.0524 293.536 43.2484 292.989 42.834C292.454 42.4294 291.762 41.6987 291.118 41.4261C289.157 40.5959 287.492 38.64 285.25 38.2182C284.579 38.092 283.997 37.6576 283.408 37.3783C283.027 37.198 282.391 36.8484 282.019 36.7783C281.541 36.6884 281.033 35.3105 280.497 35.0024C279.79 34.5953 279.337 34.0812 278.693 33.6264C277.84 33.025 276.798 32.5425 275.764 32.2505C274.893 32.0047 274.174 31.3918 273.26 31.1706C272.917 31.0876 272.683 30.843 272.343 30.7546C272.068 30.6829 271.774 30.7582 271.493 30.6666C270.942 30.4872 270.387 30.2359 269.858 30.0186C268.101 29.2973 266.497 27.7665 264.416 27.5707C263.701 27.5035 263.075 26.8508 262.375 26.8508C261.666 26.8508 260.799 26.5778 260.154 26.3388C259.354 26.0424 258.216 25.4284 257.698 24.8429C257.431 24.5418 256.64 24.4043 256.252 24.1229C255.894 23.8632 255.624 23.6472 255.326 23.3229C255.046 23.0183 255.301 22.4637 255.061 22.099C254.815 21.7231 254.814 21.1695 254.466 20.875C253.678 20.2079 252.953 19.4449 252.255 18.7231C251.711 18.1599 250.879 17.7445 250.488 17.0832C250.287 16.742 249.69 16.4242 249.288 16.2753C248.627 16.0302 248.178 15.5996 247.512 15.3393C246.949 15.1194 246.719 14.5902 246.104 14.4513C245.165 14.2392 244.223 13.7006 243.326 13.3794C241.9 12.8684 240.647 12.6096 239.084 12.3154C238.111 12.1325 236.952 12.0186 236.022 11.7235C235.381 11.5197 234.715 11.2113 234.01 11.5875C232.286 12.5065 231.805 13.8542 230.4 15.0433C229.725 15.6152 229.142 16.2875 228.699 16.9952C228.399 17.4756 227.064 18.6431 226.403 18.6431C225.586 18.6431 224.699 18.7727 223.937 19.0031C222.982 19.292 221.715 19.2191 220.706 19.2191C218.608 19.2191 216.511 19.2191 214.413 19.2191" stroke="#FDB90B" stroke-opacity="0.25" stroke-width="4" stroke-linecap="round"/>
<path d="M214.389 19.354C213.64 19.354 212.814 19.5009 212.075 19.4047C210.813 19.2403 209.667 19.1716 208.396 19.1716C207.089 19.1716 205.785 19.1561 204.494 19.0027C203.308 18.8617 201.943 18.9729 200.752 18.9892C199.805 19.0021 199.096 19.5956 198.202 19.6614C197.41 19.7197 196.605 19.923 195.832 20.0769C195.642 20.1149 195.433 20.0672 195.238 20.0971C194.991 20.1351 194.729 20.1905 194.48 20.2052C194.265 20.2179 194.155 20.381 193.937 20.3876C193.765 20.3928 193.591 20.3876 193.419 20.3876C193.109 20.3876 192.799 20.3876 192.489 20.3876C191.991 20.3876 191.751 20.2525 191.332 20.0532C190.989 19.8898 190.691 19.7607 190.291 19.6715C189.879 19.5799 189.58 19.3917 189.198 19.2797C188.869 19.1834 188.504 19.0589 188.176 18.9419C187.802 18.8084 187.455 18.5716 187.043 18.4555C186.761 18.3758 186.463 18.2571 186.197 18.1346C185.549 17.835 184.886 17.6057 184.198 17.378C183.511 17.1503 182.836 16.9435 182.216 16.5639C181.693 16.2446 181.182 16.1348 180.612 15.9018C179.821 15.579 179.179 15.1702 178.341 14.9257C178.074 14.8474 177.826 14.88 177.552 14.848C177.111 14.7965 176.817 14.6948 176.434 14.5507C176.123 14.4335 176.034 14.0666 175.82 13.8549C175.715 13.7511 175.48 13.7733 175.357 13.6691C175.282 13.6052 175.098 13.4757 174.994 13.4597C174.685 13.4121 174.379 13.3174 174.1 13.1996C173.987 13.1514 173.797 13.0971 173.67 13.0915C173.491 13.0835 173.395 12.9838 173.239 12.9699C172.979 12.9467 172.592 12.9655 172.345 12.9057C171.999 12.8221 171.481 12.4757 171.2 12.274C170.749 11.9514 170.363 11.779 169.831 11.5715C169.45 11.4225 168.845 11.3522 168.515 11.1323C168.144 10.8856 167.724 11.0337 167.31 10.8689C166.704 10.6273 165.925 10.9292 165.339 10.5986" stroke="#FDB90B" stroke-opacity="0.25" stroke-width="4" stroke-linecap="round"/>
<path d="M164.923 10.3119C163.603 10.2541 163.79 9.52715 163.017 8.87269C162.738 8.63666 162.597 8.36852 162.296 8.17003C161.897 7.9077 161.321 7.88958 160.853 7.74359C160.508 7.63599 160.062 7.67876 159.726 7.78235C159.298 7.91417 158.84 7.86958 158.381 7.86958C157.951 7.86958 157.682 7.26896 157.442 6.98762C157.129 6.62139 156.795 6.33954 156.269 6.21227C154.979 5.90032 153.657 5.84572 152.399 5.34C152.007 5.18228 151.605 5.02008 151.186 4.92325C150.773 4.82789 150.382 4.49349 150.007 4.31266C149.244 3.94552 148.329 3.78703 147.591 3.42101C146.778 3.01752 145.393 2.68583 144.466 2.56813C143.773 2.48007 143.042 2.22042 142.337 2.19983C141.735 2.18227 141.185 2.02538 140.563 2.02538C140.036 2.02538 139.509 2.02538 138.983 2.02538C138.065 2.02538 137.147 2.02538 136.23 2.02538C135.251 2.02538 134.184 1.93046 133.242 2.10776C132.877 2.17647 132.494 2.37429 132.109 2.37429C131.518 2.37429 130.872 2.30652 130.306 2.46636C129.817 2.60437 129.401 2.76245 128.903 2.85404C128.264 2.97172 127.599 2.97269 126.957 3.11572C126.368 3.24692 125.784 3.24836 125.177 3.35317C123.744 3.6007 122.421 4.26519 120.964 4.48712C119.395 4.72627 117.636 4.55496 116.042 4.55496C114.336 4.55496 112.631 4.55496 110.925 4.55496C109.337 4.55496 107.782 4.72941 106.197 4.72941" stroke="#FDB90B" stroke-opacity="0.25" stroke-width="4" stroke-linecap="round"/>
<path d="M105.888 4.90332C104.213 5.16814 102.632 5.25223 100.942 5.25223C100.032 5.25223 99.0861 5.42668 98.1549 5.42668C97.548 5.42668 96.9165 5.59485 96.3405 5.68352C95.8894 5.75294 95.5112 5.91298 95.0354 5.9452C94.8008 5.96109 94.681 5.9924 94.4974 6.1245C94.3278 6.24654 94.1174 6.17613 93.9308 6.26503C92.9151 6.7487 91.7871 6.99832 90.8571 7.59766C89.4519 8.50322 87.7083 8.77147 86.2323 9.5748C85.8111 9.80407 85.3008 9.89415 84.8414 10.0497C84.4186 10.1929 84.0216 10.4594 83.5536 10.4858C82.9945 10.5174 82.3845 10.4021 81.8365 10.5052C80.6792 10.7229 79.3668 10.5731 78.1732 10.5731C77.3319 10.5731 76.4905 10.5731 75.6491 10.5731C75.0778 10.5731 74.0349 10.5615 73.6572 11.0092C73.2693 11.469 72.5614 11.1422 71.9916 11.3145C71.4013 11.493 70.5012 11.3581 69.8795 11.3581C69.4205 11.3581 68.9803 11.1837 68.4886 11.1837C68.0307 11.1837 67.5728 11.1837 67.1149 11.1837C66.255 11.1837 65.7259 11.2871 64.9857 11.6004C64.8507 11.6576 64.706 11.7553 64.5679 11.7942C64.3451 11.8571 64.4127 12.0059 64.2416 12.1044C63.7231 12.4029 63.1412 12.4493 62.5588 12.5987C61.7775 12.7991 60.9623 12.8573 60.132 12.9863C59.7134 13.0514 58.2889 13.1749 58.2889 13.7132C58.2889 13.9155 58.1734 13.9802 57.9798 14.0621" stroke="#FDB90B" stroke-opacity="0.25" stroke-width="4" stroke-linecap="round"/>
<path d="M57.7783 14.2138C56.5163 14.1342 55.2445 14.0039 53.9771 14.0039C53.7512 14.0039 53.576 14.0079 53.3619 14.0739C53.1221 14.1477 52.6694 14.5275 52.5539 14.7035C52.1775 15.2771 50.5433 15.4032 49.8866 15.4032C49.3809 15.4032 48.9678 15.3607 48.5277 15.5703C48.349 15.6554 48.0666 15.6564 47.94 15.7957C47.7072 16.052 47.4579 16.1864 47.1366 16.3515C46.7851 16.5322 46.2298 16.4526 45.8328 16.4526C45.1371 16.4526 44.6804 16.4392 44.0607 16.7169C43.5825 16.9313 43.1001 17.0493 42.5549 17.0823C42.3875 17.0924 42.1465 17.1934 41.9765 17.2377C41.6922 17.3118 41.411 17.2921 41.1134 17.2921C40.4214 17.2921 39.6811 17.4476 39.1668 17.8674C38.556 18.3661 37.3496 18.357 36.5409 18.4815C36.2367 18.5283 35.8865 18.6446 35.5951 18.738C35.128 18.8878 34.8244 19.3076 34.3602 19.3949C34.2626 19.4133 34.1193 19.5592 34.0251 19.6009C33.7721 19.7128 33.5119 19.8177 33.2492 19.9119C32.7524 20.0898 32.4682 20.1275 31.9224 20.1762C31.1544 20.2446 30.4988 20.712 30.0126 21.1751C29.3621 21.7947 29.0955 22.3295 28.011 22.3295C27.4575 22.3295 27.3014 22.6659 26.9551 22.9591C26.5654 23.289 25.8886 23.3719 25.5503 23.7443C24.8555 24.5089 23.4173 24.4256 22.7085 25.159C22.5654 25.3071 22.7034 25.577 22.6121 25.7537C22.5121 25.9472 22.2828 26.0934 22.1622 26.2862C21.9345 26.6503 21.2958 26.586 21.0879 26.982C20.8843 27.3699 20.4555 27.7239 20.0137 27.9109C19.9295 27.9465 19.8148 27.9371 19.7244 27.9653C19.5624 28.0159 19.4719 28.1505 19.3158 28.1985C19.0036 28.2947 18.9085 28.3576 18.6088 28.525C18.1668 28.772 17.7674 29.0654 17.4106 29.4345C17.272 29.578 17.1545 29.7676 17.0342 29.9204C16.7784 30.2451 16.0315 30.2219 15.689 30.4607C15.3867 30.6714 15.0791 30.8972 14.7525 31.0903C14.096 31.4785 13.327 31.5973 12.5902 31.8327C11.7293 32.1078 11.0712 32.5419 10.1295 32.6178C9.73967 32.6493 9.2899 32.8157 8.8991 32.7422C8.38216 32.645 7.99623 32.2039 7.51724 32.0387C6.55869 31.7081 5.59974 31.4128 4.58826 31.2225C3.80349 31.0748 2.65528 31.0687 2.16427 30.4451" stroke="#FDB90B" stroke-opacity="0.25" stroke-width="4" stroke-linecap="round"/>
<path d="M2 30.1565C0.229056 29.8427 -1.20266 28.2068 -2.43562 27.179C-2.92498 26.771 -3.37049 26.8133 -4.06042 26.8133C-4.57688 26.8133 -5.09334 26.8133 -5.6098 26.8133C-6.20277 26.8133 -6.31915 26.6897 -6.83012 26.465C-7.88345 26.002 -8.96307 25.873 -10.1208 25.873C-11.6853 25.873 -13.1122 25.5596 -14.6593 25.5596" stroke="#FDB90B" stroke-opacity="0.25" stroke-width="4" stroke-linecap="round"/>
<path d="M-14.9871 361.504C-14.7057 361.094 -14.5274 360.705 -14.4922 360.228C-14.4821 360.091 -14.4423 359.815 -14.3382 359.702C-14.15 359.497 -13.8983 358.777 -13.8983 358.529C-13.8983 358.3 -13.7346 358.052 -13.6949 357.817C-13.6522 357.564 -13.2852 357.257 -12.9581 357.319C-12.4859 357.407 -12.5139 357.807 -12.3917 358.087C-12.2308 358.454 -11.7174 358.66 -11.5009 358.99C-11.3182 359.268 -11.2671 359.553 -11.105 359.828C-10.9661 360.063 -10.7778 360.288 -10.6871 360.54C-10.5977 360.789 -10.3848 360.939 -10.3131 361.169C-10.1652 361.642 -9.88057 362.05 -9.64779 362.509C-9.46834 362.864 -9.58003 363.275 -9.34536 363.617C-9.14093 363.915 -8.7448 364.126 -8.60303 364.446C-8.39768 364.91 -8.15763 365.313 -8.15763 365.815C-8.15763 366.144 -8.1094 366.289 -7.95417 366.574C-7.673 367.089 -7.07257 367.283 -6.62896 367.658C-6.17154 368.046 -5.7334 368.386 -5.45223 368.906C-5.2622 369.258 -5.09517 369.623 -4.86936 369.967C-4.66862 370.273 -4.44212 370.52 -4.31948 370.871C-4.24224 371.091 -4.3469 371.253 -4.05554 371.387C-3.85163 371.481 -3.69692 371.701 -3.52766 371.839C-3.24705 372.067 -2.89345 372.169 -2.81831 372.519C-2.74392 372.865 -2.2798 373.167 -2.07048 373.482C-1.95595 373.655 -1.54407 374.128 -1.37763 374.241C-1.26197 374.319 -1.25115 374.531 -1.10819 374.641C-0.932096 374.777 -0.802174 374.938 -0.629799 375.084C-0.418634 375.263 0.111724 375.761 0.156526 376.001C0.190899 376.185 0.415141 376.309 0.447961 376.504C0.474049 376.658 0.410401 376.839 0.475455 376.988C0.569114 377.202 0.798702 377.363 0.90436 377.593C0.97223 377.741 1.08815 377.876 1.1683 378.012C1.50417 378.581 2.16688 379.102 2.35604 379.725C2.41699 379.926 2.39324 380.173 2.521 380.349C2.8025 380.736 3.10784 381.107 3.37881 381.499C3.63845 381.875 3.9062 382.277 4.24762 382.602C4.4482 382.793 4.48036 383.152 4.66552 383.38C5.87065 384.864 6.44115 386.612 7.63486 388.082C8.00247 388.534 8.2286 389.046 8.66313 389.464C9.16693 389.949 9.73803 390.322 10.2083 390.842C10.5495 391.22 11.1174 391.519 11.539 391.839C11.8347 392.063 12.2518 392.335 12.4738 392.612C12.7588 392.967 12.9745 393.674 13.5186 393.766" stroke="#FDB90B" stroke-opacity="0.25" stroke-width="4" stroke-linecap="round"/>
<path d="M87.5771 414.447C87.5771 412.513 86.982 411.481 86.2548 409.771C85.764 408.617 85.3936 407.452 84.9324 406.281C84.4176 404.973 83.3766 404.18 83.3766 402.741C83.3766 401.501 83.5937 400.409 82.5987 399.399C81.9379 398.727 81.9764 396.651 81.9764 395.776C81.9764 394.745 81.9764 393.713 81.9764 392.681C81.9764 391.638 81.9764 390.596 81.9764 389.553C81.9764 389.059 81.9764 388.565 81.9764 388.071C81.9764 387.324 81.4611 387.071 81.2958 386.441C80.8151 384.61 81.2764 382.25 81.2764 380.366C81.2764 379.102 81.2357 377.903 81.5486 376.678C81.8103 375.653 82.2313 375.075 82.5987 374.142C83.2082 372.594 83.7267 371.066 83.7267 369.384C83.7267 364.146 86.8105 358.859 84.7768 353.693" stroke="#FDB90B" stroke-opacity="0.25" stroke-width="4" stroke-linecap="round"/>
<path d="M-18.6084 148.843C-18.42 149.872 -18.073 151.386 -17.1276 152.186C-16.7085 152.541 -16.0522 152.741 -15.5987 153.08C-15.2621 153.331 -14.9414 153.758 -14.5361 153.939C-14.0258 154.166 -13.2526 154.443 -12.8085 154.798C-12.4757 155.064 -12.0717 155.453 -11.9584 155.837C-11.845 156.221 -11.4621 156.367 -11.1426 156.638C-10.498 157.184 -9.72043 157.671 -9.12013 158.251C-8.42445 158.925 -8.087 159.754 -7.036 160.149C-6.76763 160.25 -6.33512 160.635 -6.08992 160.805C-5.75909 161.035 -5.29461 161.591 -4.89703 161.693C-4.23479 161.864 -3.39196 161.97 -2.8129 162.32C-2.31741 162.62 -1.51528 162.525 -0.961869 162.738C-0.43189 162.942 0.0637934 163.052 0.642361 163.052C1.21594 163.052 1.51418 163.29 2.04778 163.359C2.49274 163.417 3.03583 163.45 3.48061 163.47C4.12307 163.498 4.63092 163.783 5.26309 163.783C7.42744 163.783 8.68876 165.768 10.8093 165.768C12.025 165.768 13.054 165.858 14.1481 165.408C15.3826 164.9 15.6312 165.922 16.191 166.581C16.6212 167.086 17.2374 167.471 17.665 168.014C17.851 168.25 17.783 168.505 17.7953 168.775C17.8064 169.019 18.2274 169.257 18.4191 169.419C18.6131 169.583 19.1031 169.749 19.3721 169.819C19.7654 169.922 20.0224 170.158 20.3867 170.26" stroke="#FDB90B" stroke-opacity="0.25" stroke-width="4" stroke-linecap="round"/>
<path d="M21.4174 170.741C22.1219 171.207 22.688 171.725 23.5468 171.989C24.7062 172.346 24.5504 172.787 25.103 173.515C26.0762 174.797 27.8669 174.16 29.3414 174.338C30.3877 174.465 29.516 176.225 30.7747 176.635C31.2745 176.798 31.5038 177.067 32.0237 177.147C32.4156 177.207 32.5461 177.606 32.9349 177.606C33.3706 177.606 33.5824 177.747 33.8665 177.987C34.2515 178.313 34.681 178.519 35.0541 178.975C35.4445 179.453 35.5333 179.912 36.1597 180.224C36.7837 180.534 37.4403 180.809 38.0947 181.116C38.7357 181.418 39.1271 181.113 39.3949 181.922C39.7612 183.03 40.3248 183.179 41.2581 183.951C41.7514 184.358 42.3143 184.502 42.8347 184.852C43.4133 185.242 43.7823 185.823 44.4114 186.152C45.1348 186.531 46.1659 186.869 46.4896 187.6C46.9796 188.706 48.0319 188.683 49.2026 188.683C50.1444 188.683 52.5452 187.439 53.3899 188.154C54.4003 189.01 54.5877 189.864 54.5877 191.058C54.5877 192.128 54.8321 193.283 55.3248 194.222C55.8607 195.243 56.4907 196.682 57.7204 197.229C58.794 197.708 59.3699 198.175 60.2184 198.894C60.97 199.53 62.4681 201.609 63.4331 201.633C63.9045 201.644 65.8849 201.418 66.0028 201.867C66.315 203.056 66.5022 204.378 67.9684 204.978C68.5462 205.215 69.0804 205.3 69.5757 205.637C70.2244 206.079 71.1534 206.77 71.9714 206.937C72.8681 207.12 74.1089 207.572 74.8584 206.937" stroke="#FDB90B" stroke-opacity="0.25" stroke-width="4" stroke-linecap="round"/>
<path d="M75.3241 207.234C75.6822 208.615 75.7745 209.801 75.7745 211.248C75.7745 212.159 76.4088 212.297 77.2507 212.826C77.6038 213.048 78.041 213.178 78.3517 213.441C78.5414 213.601 78.4585 213.854 78.4768 214.055C78.5044 214.359 78.9556 214.577 79.1524 214.818C79.8675 215.692 80.4912 216.797 81.4043 217.529C82.1449 218.123 83.1928 218.068 83.9314 218.631C84.2165 218.848 85.0134 219.363 85.3452 219.425C85.8768 219.525 85.9214 219.942 86.3585 220.008C87.0033 220.104 88.1729 221.004 88.6605 221.385C90.4662 222.796 91.2694 225.346 94.0901 225.346C94.7287 225.346 97.1839 225.693 97.7182 225.24C98.0896 224.926 98.3933 224.515 98.8567 224.297C101.072 223.256 101.722 225.267 102.147 226.617C102.451 227.582 103.481 228.572 104.161 229.339C105.622 230.988 107.652 231.256 109.891 231.256C112.441 231.256 112.262 233.498 113.494 234.889C113.878 235.323 114.653 235.309 114.908 235.641C115.12 235.919 115.88 236.641 116.222 236.775C117.387 237.23 118.147 237.974 119.237 238.459C119.73 238.679 120.357 239.073 120.926 239.073C121.642 239.073 122.175 239.029 122.79 239.37C123.635 239.838 124.836 239.645 125.817 239.645C127.14 239.645 127.814 238.883 129.145 238.883C130.305 238.883 130.682 239.905 130.721 240.747C130.794 242.277 133.561 242.022 134.775 241.594C135.695 241.27 136.2 240.69 136.939 240.122C138.507 238.918 140.304 238.081 141.08 236.298C142.323 233.443 145.359 231.116 145.359 227.931C145.359 226.607 147.057 225.598 147.398 224.297C147.514 223.857 147.836 223.722 147.836 223.206C147.836 222.808 147.836 222.409 147.836 222.01C147.836 220.733 147.204 217.685 148.174 216.682C148.921 215.909 148.647 214.727 149.312 214.002C149.682 213.6 149.863 213.705 149.863 213.144C149.863 212.668 149.735 212.073 149.888 211.619C150.077 211.059 150.538 210.977 150.538 210.284C150.538 209.906 150.763 209.622 150.763 209.236C150.763 208.098 151.214 207.227 151.214 206.09" stroke="#FDB90B" stroke-opacity="0.25" stroke-width="4" stroke-linecap="round"/>
<path d="M144.473 471.963C144.841 465.469 145.516 458.9 146.121 452.491C146.232 451.32 146.129 449.435 146.524 448.305C146.994 446.962 148.361 446.055 148.429 444.553C148.501 442.965 148.758 441.373 148.758 439.732C148.758 438.802 149.747 438.666 149.747 437.778C149.747 437.027 150.077 436.313 150.077 435.546C150.077 433.527 152.615 432.343 152.714 430.166C152.784 428.612 153.01 427.15 153.702 425.701C154.513 424.005 156.905 423.276 157.346 421.593C157.53 420.894 157.862 420.188 158.152 419.5C158.44 418.818 159.048 417.73 159.489 417.144C160.794 415.407 161.283 412.698 161.283 410.586C161.283 410.085 161.211 409.532 161.302 409.035C161.445 408.245 162.442 407.772 162.712 407.004C163.318 405.279 162.932 402.961 162.932 401.16C162.932 398.665 162.272 396.417 162.272 393.951C162.272 391.957 162.215 389.959 162.272 387.966C162.296 387.146 163.225 386.593 163.261 385.796C163.321 384.478 163.261 383.147 163.261 381.827C163.261 380.568 162.873 378.691 163.444 377.517C164.159 376.047 164.909 374.29 164.909 372.618" stroke="#FDB90B" stroke-opacity="0.25" stroke-width="4" stroke-linecap="round"/>
<path d="M165.124 372.539C164.728 370.781 165.666 369.402 165.666 367.654C165.666 366.165 165.836 365.045 166.348 363.636C167.029 361.763 167.068 359.579 168.094 357.842C168.406 357.313 168.194 356.391 168.194 355.811C168.194 354.986 169.522 354.305 169.961 353.577C170.446 352.77 170.258 352.046 170.402 351.181C170.527 350.428 170.723 349.821 170.723 349.049C170.723 348.2 170.898 347.449 171.074 346.628C171.121 346.409 171.267 346.314 171.365 346.118C172.401 344.061 172.888 341.758 173.683 339.627C173.874 339.115 174.207 338.74 174.476 338.285C174.757 337.809 174.573 337.107 174.837 336.603C175.143 336.019 175.275 335.326 175.409 334.7C175.479 334.373 175.374 334.026 175.429 333.697C175.488 333.352 175.781 333.066 175.781 332.703C175.781 332 176.052 331.569 176.282 330.911C176.386 330.613 176.136 329.995 176.363 329.755C176.635 329.467 176.864 329.268 176.864 328.88C176.864 328.218 176.684 327.601 176.684 326.969" stroke="#FDB90B" stroke-opacity="0.25" stroke-width="4" stroke-linecap="round"/>
<path d="M177.218 327.248C178.215 323.93 179.662 321.099 179.662 317.723C179.662 316.818 180.07 315.978 180.07 315.098C180.07 314.115 180.019 313.314 180.522 312.415C180.765 311.982 180.853 311.167 180.885 310.691C180.91 310.307 181.292 310.236 181.292 309.732C181.292 309.26 181.292 308.787 181.292 308.314C181.292 306.923 181.088 305.553 181.088 304.137" stroke="#FDB90B" stroke-opacity="0.25" stroke-width="4" stroke-linecap="round"/>
<path d="M181.431 304.496C181.322 301.815 181.254 299.15 181.254 296.469C181.254 296.061 181.077 295.371 181.431 295.054C181.751 294.767 182.493 294.491 182.493 294.079C182.493 292.393 183.556 290.933 183.556 289.208" stroke="#FDB90B" stroke-opacity="0.25" stroke-width="4" stroke-linecap="round"/>
<path d="M183.103 289.083C183.238 288.808 183.444 288.19 183.755 287.98C183.942 287.852 183.838 287.259 183.9 287.06C184.015 286.687 183.959 286.331 184.117 285.963C184.247 285.659 184.696 285.437 184.696 285.09C184.696 283.94 185.276 282.881 185.276 281.745C185.276 280.787 185.094 280.228 184.712 279.339C184.459 278.749 184.696 277.745 184.696 277.118C184.696 276.815 184.677 276.507 184.696 276.205C184.715 275.913 185.176 275.751 185.308 275.496C185.383 275.353 185.879 274.847 186.032 274.733C186.384 274.473 186.554 273.416 186.58 273.016C186.623 272.343 186.869 271.72 186.869 271.04C186.869 270.543 186.795 270.116 187.159 269.704" stroke="#FDB90B" stroke-opacity="0.25" stroke-width="4" stroke-linecap="round"/>
<path d="M187.255 269.361C188.131 268.901 188.482 268.526 188.77 267.732C188.909 267.35 189.009 266.755 189.033 266.349C189.067 265.78 188.796 265.399 188.796 264.844C188.796 264.249 188.796 263.654 188.796 263.06C188.796 262.415 188.7 261.728 189.033 261.13C189.501 260.292 189.389 259.346 189.389 258.443C189.389 258.117 189.323 257.741 189.442 257.428C189.593 257.029 189.73 256.372 189.982 256.034C190.254 255.667 190.585 255.522 190.812 255.086C191.113 254.507 191.184 254.05 191.292 253.452C191.476 252.44 191.42 251.481 192.063 250.541C192.422 250.016 192.59 249.863 192.59 249.236C192.59 248.754 192.478 248.418 192.583 247.926C192.704 247.365 192.946 246.812 192.946 246.225C192.946 245.103 193.03 243.85 193.71 242.863C194.091 242.31 193.422 241.547 193.552 240.945C193.684 240.33 194.446 239.964 194.658 239.344C194.902 238.631 195.166 237.899 195.554 237.242" stroke="#FDB90B" stroke-opacity="0.25" stroke-width="4" stroke-linecap="round"/>
<path d="M195.859 237.455C196.514 237.685 197.02 238.047 197.646 238.302C198.208 238.531 198.803 238.661 199.347 238.917C200.211 239.324 200.966 239.362 201.86 239.568C202.287 239.667 202.584 240.131 202.962 240.328C203.37 240.54 203.827 240.588 204.202 240.769C204.671 240.997 205.086 241.057 205.612 241.11C206.031 241.151 206.314 241.427 206.706 241.5C207.355 241.622 207.552 241.688 207.552 242.275C207.552 242.637 207.64 242.564 207.86 242.825C208.244 243.279 208.472 243.775 208.698 244.294C209.196 245.438 210.006 246.817 210.971 247.717C211.427 248.141 212.026 248.511 212.407 248.99C212.79 249.472 213.121 250.126 213.672 250.481C214.317 250.896 214.741 251.516 215.433 251.943C215.786 252.16 216.152 252.545 216.553 252.695C217.393 253.011 217.744 254.08 218.698 254.374C219.669 254.673 220.644 255.081 221.621 255.423C222.352 255.679 223.179 255.898 223.946 256.053C224.307 256.126 224.692 256.025 225.049 256.096C225.445 256.175 226.571 256.236 226.835 256.531C226.987 256.7 227.035 257.233 227.083 257.457C227.181 257.912 227.399 258.495 227.399 258.948" stroke="#FDB90B" stroke-opacity="0.25" stroke-width="4" stroke-linecap="round"/>
<path d="M238.818 150.921C238.818 149.836 238.546 148.794 238.546 147.687C238.546 147.034 238.204 146.973 237.863 146.468C237.543 145.994 237.591 145.593 237.591 145.057C237.591 143.872 237.591 142.687 237.591 141.502C237.591 140.758 237.587 140.252 236.78 139.783C236.518 139.63 236.402 139.392 236.173 139.199C235.971 139.027 235.824 139.101 235.613 138.961C234.988 138.55 233.907 137.952 233.907 137.12C233.907 135.956 232.132 135.643 231.179 135.24C230.63 135.007 230.345 134.774 229.883 134.47C229.494 134.214 228.657 133.906 228.421 133.597C227.871 132.878 226.671 132.789 225.73 132.789C224.803 132.789 223.308 133.036 222.509 132.667C222.02 132.441 221.474 131.964 221.084 131.634C220.533 131.167 220.146 131.172 219.387 131.172C219.231 131.172 219.018 131.287 218.932 131.403C218.733 131.673 218.252 131.56 217.947 131.685C217.211 131.988 216.753 131.885 215.969 131.987C215.384 132.063 214.791 132.165 214.218 132.301C213.714 132.421 213.466 132.673 213.006 132.84C212.016 133.199 211.703 133.884 210.474 133.944C209.904 133.971 209.352 133.864 208.845 134.13C208.278 134.427 207.757 134.817 207.117 134.983C206.689 135.095 206.362 135.468 205.897 135.599C205.477 135.718 204.988 135.582 204.609 135.792C203.812 136.232 202.921 137.062 201.918 137.062C200.583 137.062 199.357 137.324 198.773 138.454C198.27 139.428 197.122 140.05 196.393 140.873" stroke="#FDB90B" stroke-opacity="0.25" stroke-width="3" stroke-linecap="round"/>
<path d="M235.681 145.724C235.505 144.912 235.189 144.82 234.423 144.428C234.186 144.306 233.587 143.937 233.506 143.696C233.299 143.083 233.425 142.278 233.058 141.72C232.577 140.986 232.061 140.162 231.323 139.615C230.668 139.13 230.187 138.643 229.739 137.992C229.142 137.125 228.212 136.946 227.087 136.946C226.758 136.946 226.43 136.946 226.101 136.946C225.493 136.946 225.673 136.853 225.366 136.536C224.612 135.755 224.064 135.56 222.858 135.56C222.308 135.56 221.698 135.496 221.152 135.567C220.791 135.614 220.634 135.791 220.266 135.791C219.438 135.791 219.325 135.098 218.417 135.098C217.415 135.098 215.595 134.548 214.809 135.214C214.097 135.817 213.467 136.484 212.354 136.484C211.625 136.484 210.881 136.45 210.156 136.51C209.21 136.588 209.435 136.758 209.004 137.331C208.852 137.534 208.34 137.652 208.132 137.915C207.975 138.114 207.173 138.208 206.897 138.332C206.476 138.521 206.067 138.504 205.654 138.679C205.478 138.753 205.434 138.882 205.23 138.935C204.855 139.034 204.393 138.943 204.048 139.089C203.386 139.369 202.544 139.753 201.797 139.827C200.99 139.907 200.705 140.515 200.137 140.911C199.603 141.284 198.802 141.799 198.439 142.259" stroke="#FDB90B" stroke-opacity="0.25" stroke-width="3" stroke-linecap="round"/>
<path d="M235.919 153.735C235.105 153.986 234.272 154.18 233.482 154.481C233.103 154.625 232.615 155.088 232.233 155.14C231.807 155.196 231.576 155.118 231.21 155.296C229.713 156.02 227.946 156.099 226.295 156.353C224.37 156.649 222.281 156.544 220.255 156.544" stroke="#FDB90B" stroke-opacity="0.25" stroke-width="3" stroke-linecap="round"/>
<path d="M218.965 155.451C217.826 155.451 216.352 155.197 216.201 154.047C216.063 153.001 214.55 152.649 213.713 151.941C212.957 151.301 211.991 151.272 211.768 150.233C211.577 149.346 210.558 148.73 209.751 148.274" stroke="#FDB90B" stroke-opacity="0.25" stroke-width="3" stroke-linecap="round"/>
<path d="M233.859 156.521C232.773 156.888 231.61 157.2 230.582 157.675C229.851 158.013 229.848 158.631 229.305 158.999C228.744 159.379 227.843 159.679 227.441 160.132C227.124 160.49 226.444 160.278 226.028 160.567C225.004 161.276 221.223 161.145 220.123 160.524" stroke="#FDB90B" stroke-opacity="0.25" stroke-width="3" stroke-linecap="round"/>
<path d="M217.195 159.761C214.646 160.182 214.484 158.884 212.817 157.674C212.22 157.242 211.764 156.707 211.115 156.287C210.805 156.086 210.208 155.797 209.989 155.524C209.746 155.222 209.773 154.729 209.489 154.465C208.435 153.484 207.258 153.228 206.048 152.431C205.573 152.118 204.886 151.841 204.359 151.605C203.916 151.406 203.593 150.857 203.008 150.609" stroke="#FDB90B" stroke-opacity="0.25" stroke-width="3" stroke-linecap="round"/>
<path d="M220.262 141.947C219.398 141.669 218.153 141.532 217.239 141.532C216.632 141.532 215.986 141.394 215.442 141.394C214.155 141.394 211.922 141.731 211.112 140.702" stroke="#FDB90B" stroke-opacity="0.25" stroke-width="3" stroke-linecap="round"/>
<path d="M145.051 472.028V487.146" stroke="#FDB90B" stroke-opacity="0.25" stroke-width="4" stroke-linecap="round"/>
<path d="M5.90332 362.938C4.16297 359.254 3.60176 355.669 2.68858 351.804" stroke="#FDB90B" stroke-opacity="0.25" stroke-width="4" stroke-linecap="round"/>
<path d="M2.97949 352.309C2.03743 351.256 1.72823 350.026 1.13045 348.87C0.787702 348.206 0.94179 347.486 0.589508 346.829C0.259904 346.216 0.146919 345.483 0.146919 344.814C0.146919 343.696 0.247322 342.508 -0.207153 341.45C-0.686487 340.334 -1.09233 339.468 -1.09233 338.261C-1.09233 333.341 -0.915296 328.447 -0.915296 323.531C-0.915296 322.687 -0.915296 321.843 -0.915296 320.999C-0.915296 320.343 -0.573323 319.869 -0.403859 319.259C-0.22428 318.613 -0.384189 317.82 -0.384189 317.152C-0.384189 315.964 -0.868058 315.407 -1.26937 314.388" stroke="#FDB90B" stroke-opacity="0.25" stroke-width="4" stroke-linecap="round"/>
<path d="M-0.525904 314.195C-0.312436 312.545 -0.11873 310.898 0.0585938 309.246" stroke="#FDB90B" stroke-opacity="0.25" stroke-width="4" stroke-linecap="round"/>
<path d="M-0.0429688 309.252C-0.668645 308.619 -0.889637 308.186 -0.889637 307.352C-0.889637 307.137 -0.875022 306.921 -1.07107 306.755C-1.16618 306.674 -1.44846 306.649 -1.48768 306.533C-1.81816 305.553 -2.22012 304.592 -2.22012 303.518C-2.22012 302.017 -2.34107 300.524 -2.34107 299.012C-2.34107 298.193 -2.34107 297.373 -2.34107 296.554C-2.34107 295.986 -2.15049 295.025 -2.5225 294.535C-2.86822 294.079 -3.42964 293.373 -3.42964 292.817C-3.42964 292.282 -3.54531 291.715 -3.18774 291.252C-2.82786 290.786 -2.82488 290.474 -2.82488 289.921C-2.82488 289.413 -2.82488 288.904 -2.82488 288.396C-2.82488 287.857 -3.15461 287.433 -3.18774 286.928C-3.19804 286.771 -3.38521 286.714 -3.42292 286.57C-3.46541 286.408 -3.39385 286.231 -3.43636 286.069C-3.50641 285.802 -3.5506 285.541 -3.5506 285.233C-3.5506 284.584 -3.5506 283.936 -3.5506 283.287C-3.5506 282.545 -3.33698 281.497 -3.57747 280.784C-3.67471 280.496 -3.83764 280.224 -3.94033 279.931C-4.03142 279.671 -4.02942 279.444 -4.03441 279.157C-4.04515 278.539 -4.24855 277.936 -4.27631 277.325C-4.30493 276.695 -4.51822 275.997 -4.51822 275.311C-4.51822 274.912 -4.5443 274.566 -4.64589 274.179C-4.76338 273.732 -5.23724 273.404 -4.94155 272.854C-4.7173 272.436 -4.61364 272.115 -4.23599 271.795C-3.88809 271.501 -3.3986 270.904 -3.7925 270.487C-4.15306 270.105 -4.03441 269.631 -4.03441 269.156C-4.03441 268.798 -4.10806 268.451 -3.81938 268.166C-3.63888 267.988 -3.67155 267.794 -3.67155 267.574" stroke="#FDB90B" stroke-opacity="0.25" stroke-width="4" stroke-linecap="round"/>
<path d="M91.5459 322.123C91.3538 323.749 90.7894 325.17 89.8621 326.61C89.5108 327.155 89.6997 328.017 89.6997 328.636C89.6997 329.129 89.3919 329.476 89.3919 329.939C89.3919 330.305 89.3919 330.672 89.3919 331.038C89.3919 331.77 89.13 332.425 89.0842 333.123C88.9888 334.578 87.2201 335.553 88.5885 337.001C88.6578 337.075 87.9584 338.91 87.9218 338.919C86.5959 339.24 87.0589 340.378 87.0841 341.213C87.1312 342.767 87.7221 344.922 86.691 346.351C86.4359 346.704 85.9084 346.94 85.7337 347.328C85.613 347.596 85.6995 347.983 85.6995 348.269C85.6995 349.023 86.161 349.637 86.161 350.36C86.161 351.07 86.1264 351.398 85.7337 351.952C85.4088 352.41 84.9388 352.771 84.5541 353.19C84.344 353.418 84.3948 353.886 84.2293 354.166C83.9799 354.589 83.8696 355.036 83.6652 355.469C83.3212 356.197 83.216 357.005 82.8361 357.756C82.6226 358.177 82.3474 358.877 82.0668 359.247C81.7505 359.663 81.3229 360.035 81.118 360.52C80.9247 360.978 81.2584 361.511 80.93 361.953C80.6132 362.379 80.7317 362.609 80.5454 363.082C80.3255 363.64 80.4684 364.393 80.4684 364.978" stroke="#FDB90B" stroke-opacity="0.25" stroke-width="4" stroke-linecap="round"/>
<path d="M81.0383 365.388C81.1133 365.713 81.4968 366.605 81.0383 366.872C80.7864 367.018 80.8386 367.163 80.8386 367.416C80.8386 368.181 80.4862 368.297 79.8846 368.806C78.9955 369.559 79.7325 371.357 79.3966 372.281C79.0084 373.349 79.0894 375.036 79.0416 376.169C79.02 376.682 78.6777 377.241 78.487 377.766C78.3007 378.278 78.4426 378.966 78.4426 379.503C78.4426 380.559 78.4694 381.552 78.6534 382.565C78.9552 384.226 78.7985 385.664 78.4537 387.27C77.9749 389.499 78.6329 392.424 79.4077 394.501C79.7685 395.468 79.6312 397.436 78.8419 398.183C78.1193 398.866 78.4426 400.176 78.4426 401.056C78.4426 401.597 78.0775 402.019 77.888 402.54C77.6782 403.117 78.2429 403.668 78.2429 404.268C78.2429 404.928 79.7196 406.637 78.4426 407.273C77.7306 407.628 77.4348 407.811 77.2002 408.457C76.9178 409.234 77.0449 410.118 77.0449 410.936C77.0449 411.575 77.4443 412.075 77.4443 412.72C77.4443 413.217 77.3749 413.913 77.7548 414.326C78.2431 414.858 78.2429 414.932 78.2429 415.688C78.2429 416.324 77.6439 416.829 77.6439 417.369C77.6439 418.006 77.2446 418.547 77.2446 419.247C77.2446 419.824 77.3587 420.349 77.4664 420.919C77.6747 422.021 78.2057 422.819 78.6201 423.784C78.9369 424.521 78.2429 425.145 78.2429 425.812C78.2429 426.816 78.6423 427.65 78.6423 428.611" stroke="#FDB90B" stroke-opacity="0.25" stroke-width="4" stroke-linecap="round"/>
<path d="M78.556 428.788C78.556 429.469 78.556 430.151 78.556 430.832C78.556 431.485 79.0511 431.907 79.1434 432.532C79.185 432.814 79.5875 433.252 79.2919 433.532C78.9168 433.888 78.7433 434.229 78.4398 434.614C78.0387 435.124 77.975 435.617 77.975 436.221C77.975 436.82 78.6722 437.177 78.6722 437.79C78.6722 438.316 78.8225 439.111 79.3435 439.468C80.0529 439.953 80.1827 441.23 80.1827 441.954C80.1827 442.589 80.3938 442.882 80.8799 443.293C81.2081 443.571 80.9991 443.942 81.2285 444.233" stroke="#FDB90B" stroke-opacity="0.25" stroke-width="4" stroke-linecap="round"/>
<path d="M6.11625 363.147C6.13849 364.56 6.00007 365.919 7.52703 366.658C8.18969 366.978 8.53393 368.173 8.72188 368.73C9.20749 370.169 9.49168 371.667 9.87354 373.154C10.0646 373.898 10.0031 374.675 10.0031 375.433C10.0031 376.033 10.4832 376.387 10.5213 376.969C10.6065 378.266 10.7805 379.426 10.7805 380.698C10.7805 381.283 10.6461 381.996 10.7949 382.563C10.893 382.937 11.4488 382.988 11.5434 383.428C11.6113 383.744 11.5578 384.108 11.5578 384.428C11.5578 385.419 11.5578 386.41 11.5578 387.401C11.5578 388.536 11.846 389.163 12.3208 390.241C12.5802 390.83 12.7476 392.187 13.4869 392.545C14.4354 393.004 13.1682 396.866 13.4293 397.639C13.7729 398.657 13.2848 399.876 14.0915 400.711C14.5647 401.2 13.8338 402.15 14.4082 402.636" stroke="#FDB90B" stroke-opacity="0.25" stroke-width="4" stroke-linecap="round"/>
<path d="M14.8178 402.578C14.8178 403.138 14.6885 403.555 14.6112 404.079C14.5475 404.51 14.035 404.731 14.035 405.146C14.035 405.497 13.9871 405.875 14.0458 406.223C14.1014 406.552 14.4264 406.798 14.4264 407.135C14.4264 407.438 14.4264 407.742 14.4264 408.046C14.4264 408.499 14.1327 408.727 14.0458 409.132C13.9344 409.651 14.1618 410.007 13.7305 410.458C13.4263 410.776 12.9482 411.154 13.0673 411.608C13.2134 412.165 14.035 412.624 14.035 413.182C14.035 413.831 14.2307 414.454 14.2307 415.134C14.2307 416.403 14.6221 417.499 14.6221 418.779C14.6221 422.704 15.2851 426.549 14.6329 430.414C14.2219 432.85 14.4264 435.397 14.4264 437.87C14.4264 438.625 13.8393 439.12 13.8393 439.932C13.8393 440.247 13.7405 440.668 13.948 440.945C14.0901 441.134 14.777 441.519 14.8069 441.607C15.1701 442.683 15.0135 443.992 15.0135 445.16C15.0135 445.779 14.9864 446.402 15.0135 447.02C15.0473 447.793 15.6006 448.549 15.6006 449.303C15.6006 450.018 15.6006 450.733 15.6006 451.447C15.6006 452.512 14.7965 453.308 14.6329 454.347C14.5057 455.155 13.7853 455.709 13.3609 456.427C13.1442 456.794 13.0564 457.183 13.0564 457.587C13.0564 458.027 12.7739 458.125 12.6759 458.498C12.537 459.027 12.5034 459.525 12.4693 460.073C12.4311 460.687 12.435 461.992 12.0779 462.521C11.6935 463.091 11.8822 464.014 11.8822 464.657C11.8822 465.933 11.8822 467.209 11.8822 468.486C11.8822 469.161 11.5686 470.081 11.3386 470.713C11.0278 471.569 11.0994 472.848 11.0994 473.751C11.0994 474.921 10.7027 476.567 11.73 477.507C12.1914 477.929 12.0413 478.389 12.1649 478.924C12.6482 481.018 13.1595 483.036 13.8393 485.092" stroke="#FDB90B" stroke-opacity="0.25" stroke-width="4" stroke-linecap="round"/>
<path d="M81.4821 444.514C81.9089 442.3 82.0198 441.289 83.6248 439.676C84.5716 438.724 84.3391 437.221 84.3391 436.047C84.3391 435.298 83.8375 432.638 84.6962 432.184C86.1407 431.42 86.4819 430.984 86.4819 429.396C86.4819 428.085 86.4819 426.775 86.4819 425.465C86.4819 424.324 87.1473 423.543 87.1962 422.508C87.2291 421.812 87.9104 421.653 87.9104 421.081C87.9104 420.448 87.9104 419.815 87.9104 419.182C87.9104 417.797 88.2676 416.535 88.2676 415.185" stroke="#FDB90B" stroke-opacity="0.25" stroke-width="4" stroke-linecap="round"/>
<path d="M88.0557 415.328C88.0557 414.505 88.0557 413.682 88.0557 412.859C88.0557 412.256 87.884 411.418 88.0928 410.843C88.2061 410.532 88.4563 410.31 88.5836 410.004C88.8477 409.371 89.0559 409.08 89.0559 408.413C89.0559 407.381 88.5558 406.441 88.5558 405.449C88.5558 403.755 88.5558 402.062 88.5558 400.368C88.5558 399.906 88.6087 399.214 88.7318 398.745C88.8123 398.438 89.0559 398.435 89.0559 398.032C89.0559 397.705 89.0559 397.378 89.0559 397.051C89.0559 396.265 88.4855 395.739 88.3891 395.005C88.3097 394.399 88.2224 393.809 88.2224 393.17C88.2224 392.559 88.2224 391.947 88.2224 391.335C88.2224 390.58 89.3404 390.329 89.3893 389.501C89.4675 388.178 89.3756 386.844 89.2226 385.549C89.1778 385.169 88.8892 384.887 88.8892 384.49C88.8892 384.098 89.0559 383.737 89.0559 383.361C89.0559 382.688 89.5557 382.05 89.8061 381.456C90.0532 380.87 89.8894 380.072 89.8894 379.449C89.8894 378.824 90.0401 378.043 89.8802 377.434C89.7232 376.836 89.3893 376.443 89.3893 375.811C89.3893 375.507 89.3893 375.204 89.3893 374.901C89.3893 374.438 89.7227 374.136 89.7227 373.756C89.7227 373.389 89.9132 373.087 89.8894 372.706C89.8652 372.315 89.4723 372.132 89.3523 371.827C88.8652 370.59 89.8894 369.729 89.8894 368.558C89.8894 367.923 90.2961 367.179 90.0191 366.527C89.8622 366.158 89.3893 366.146 89.3893 365.618C89.3893 365.203 89.0391 365 89.0559 364.63C89.0702 364.315 89.4051 363.847 89.6301 363.602C89.8252 363.39 89.7227 362.932 89.7227 362.677C89.7227 361.976 89.8894 361.291 89.8894 360.568C89.8894 360.101 89.556 359.899 89.556 359.447C89.556 359.089 89.556 358.731 89.556 358.373C89.556 357.717 89.556 357.061 89.556 356.405C89.556 355.72 89.8894 355.079 89.8894 354.358C89.8894 353.568 89.9844 352.994 90.2043 352.249C90.5599 351.045 90.2228 349.529 90.2228 348.289C90.2228 346.761 90.4531 345.11 90.8896 343.632" stroke="#FDB90B" stroke-opacity="0.25" stroke-width="4" stroke-linecap="round"/>
<path d="M91.0205 343.628C91.1882 341.865 91.3486 340.103 91.501 338.34" stroke="#FDB90B" stroke-opacity="0.25" stroke-width="4" stroke-linecap="round"/>
<path d="M91.5022 338.068C91.5022 337.518 91.3057 337.353 91.1908 336.915C91.1122 336.616 90.7014 336.516 90.7014 336.238C90.7014 335.582 90.7014 334.927 90.7014 334.272C90.7014 333.475 91.0217 332.819 91.0217 332.027C91.0217 331.454 91.0217 330.882 91.0217 330.309C91.0217 329.528 91.0217 328.748 91.0217 327.967C91.0217 327.035 91.3305 326.301 91.4933 325.406C91.5778 324.941 92.57 322.656 91.8225 322.34" stroke="#FDB90B" stroke-opacity="0.25" stroke-width="4" stroke-linecap="round"/>
<path d="M223.743 143.336C224.394 143.228 224.889 143.072 225.576 143.072C225.814 143.072 226.251 142.996 226.466 143.087C226.775 143.217 226.724 143.415 226.916 143.614C227.011 143.712 227.034 143.967 227.132 144.097C227.289 144.305 227.439 144.488 227.59 144.69C227.959 145.181 228.495 145.49 228.918 145.967C229.063 146.131 229.235 146.244 229.363 146.432C229.522 146.664 229.659 146.924 229.873 147.105C230.04 147.247 230.226 147.375 230.396 147.519C230.666 147.747 231.085 147.845 231.248 148.145C231.411 148.446 231.693 148.618 231.913 148.884C232.262 149.303 232.49 149.585 232.985 149.923C233.487 150.267 233.342 150.91 233.859 151.226C234.078 151.36 234.132 151.954 233.859 152.031" stroke="#FDB90B" stroke-opacity="0.25" stroke-width="3" stroke-linecap="round"/>
<path d="M233.626 151.834C232.722 151.859 231.874 151.998 230.985 151.904C230.592 151.862 230.211 151.834 229.813 151.834C229.49 151.834 229.168 151.834 228.845 151.834C228.521 151.834 228.229 151.702 227.885 151.702C227.274 151.702 225.067 151.996 225.067 151.241" stroke="#FDB90B" stroke-opacity="0.25" stroke-width="3" stroke-linecap="round"/>
<path d="M219.599 149.201C218.931 149.311 218.742 149.122 218.346 148.691C218.102 148.426 217.944 148.037 217.52 147.997C217.317 147.978 216.717 147.54 216.584 147.395C216.355 147.145 216.04 146.917 215.769 146.7C215.481 146.47 215.134 146.344 214.784 146.195C214.458 146.057 214.32 145.689 213.994 145.568C213.599 145.42 213.711 144.994 213.295 144.832C212.839 144.653 212.581 144.477 212.049 144.477" stroke="#FDB90B" stroke-opacity="0.25" stroke-width="3" stroke-linecap="round"/>
<path d="M224.536 151.341C224.058 151.104 223.379 151.031 222.948 150.757C222.672 150.582 222.777 150.341 222.429 150.275C222.045 150.203 221.797 149.966 221.372 149.916C220.968 149.869 220.733 149.857 220.436 149.605" stroke="#FDB90B" stroke-opacity="0.25" stroke-width="3" stroke-linecap="round"/>
<path d="M223.625 143.339C223.423 144.022 222.899 143.917 222.208 143.917C221.876 143.917 221.588 144.11 221.233 144.11C221.043 144.11 220.854 144.11 220.664 144.11C219.742 144.11 218.97 144.4 218.044 144.4C216.429 144.4 214.806 144.303 213.147 144.303" stroke="#FDB90B" stroke-opacity="0.25" stroke-width="3" stroke-linecap="round"/>
<path d="M210.756 144.207C210.421 144.262 210.024 144.496 209.725 144.496C209.294 144.496 208.864 144.496 208.434 144.496C207.93 144.496 207.426 144.496 206.922 144.496C205.77 144.496 204.618 144.496 203.467 144.496" stroke="#FDB90B" stroke-opacity="0.25" stroke-width="3" stroke-linecap="round"/>
<path d="M335.259 213.176C333.17 214.042 332.573 213.4 330.5 213.4C328.611 213.4 326.79 213.184 325.374 214.382C322.455 216.853 316.354 213.514 313.448 215.974C312.453 216.816 311.683 217.205 310.276 217.205C309.381 217.205 308.599 217.876 307.647 217.876C307.031 217.876 305.831 218.11 305.37 218.436C305.034 218.673 304.623 218.471 304.386 218.871C304.197 219.192 304.03 219.931 303.652 220.114C302.672 220.588 302.502 222.034 301.096 222.129C300.237 222.187 299.76 222.87 298.996 222.999C298.232 223.129 296.999 222.768 296.308 223.124C295.466 223.556 295.473 224.677 294.81 225.238C294.113 225.827 292.774 226.227 291.902 226.605C290.055 227.407 288.586 227.541 287.202 228.893C285.687 230.373 283.303 231.213 281.063 231.53C279.296 231.779 278.906 233.565 278.36 234.663C277.541 236.311 275.872 237.797 273.66 237.797" stroke="#FDB90B" stroke-opacity="0.25" stroke-width="4" stroke-linecap="round"/>
<path d="M336.58 239.141C335.056 239.939 333.89 241.158 332.174 241.429C330.216 241.737 328.664 242.05 326.651 242.05C325.227 242.05 323.956 242.215 322.568 242.274C322.047 242.296 321.552 242.495 321.305 242.896C321.059 243.297 320.576 243.088 320.16 243.294C319.25 243.743 318.624 243.841 317.604 243.841C316.84 243.841 316.077 243.841 315.313 243.841C314.814 243.841 314.443 243.38 313.991 243.219C313.247 242.954 312.678 243.66 312.111 243.965C310.926 244.604 309.921 245.151 308.439 245.184C307.731 245.2 307.019 245.184 306.31 245.184C305.232 245.184 303.695 246.812 303.005 247.323C302.386 247.781 300.411 247.343 299.597 247.534C299.002 247.674 298.513 248.092 297.982 248.318" stroke="#FDB90B" stroke-opacity="0.25" stroke-width="4" stroke-linecap="round"/>
<path d="M340.546 265.552C338.461 265.888 336.085 266.158 333.995 266.223C332.531 266.269 331.236 266.665 329.824 266.882C329.229 266.974 327.919 267.057 327.592 266.571C327.384 266.263 325.967 266.447 325.609 266.447C324.821 266.447 324.032 266.447 323.244 266.447C322.294 266.447 321.774 267.065 320.924 267.119C319.455 267.211 318.052 267.342 316.547 267.342C315.967 267.342 315.422 267.119 314.902 267.119C314.688 267.119 313.707 268.18 313.463 268.35C312.01 269.356 310.131 269.133 308.381 269.133C307.427 269.133 306.443 268.735 305.487 268.946C304.251 269.219 304.028 270.476 302.741 270.476" stroke="#FDB90B" stroke-opacity="0.25" stroke-width="4" stroke-linecap="round"/>
<path d="M337.639 285.696C336.27 285.72 334.923 285.982 334.055 286.927C333.332 287.714 331.494 287.711 330.442 287.711C328.289 287.711 324.477 287.124 322.584 288.059C320.513 289.082 318.784 288.158 316.606 288.158C315.416 288.158 313.86 287.914 312.729 288.208C311.766 288.459 310.972 289.044 310.144 289.278" stroke="#FDB90B" stroke-opacity="0.25" stroke-width="4" stroke-linecap="round"/>
<path d="M336.052 304.721C334.456 304.557 333.374 304.248 332.101 305.057C331.541 305.413 331.188 306.064 330.368 306.064C328.907 306.064 327.529 306.038 326.138 305.728C323.414 305.122 320.692 306.064 318.074 306.064" stroke="#FDB90B" stroke-opacity="0.25" stroke-width="4" stroke-linecap="round"/>
<path d="M335.259 318.151C333.303 317.957 331.214 317.388 329.428 318.275C328.79 318.592 328.155 319.024 327.386 319.046C326.576 319.07 325.76 319.046 324.948 319.046C323.803 319.046 322.657 319.046 321.511 319.046" stroke="#FDB90B" stroke-opacity="0.25" stroke-width="4" stroke-linecap="round"/>
<path d="M332.086 329.342C330.183 330.406 328.874 331.132 326.681 331.132C325.619 331.132 324.623 331.075 323.626 331.356" stroke="#FDB90B" stroke-opacity="0.25" stroke-width="4" stroke-linecap="round"/>
<path d="M398.988 368.409C398.904 367.979 398.582 367.034 397.973 366.69C397.212 366.261 365.212 342.594 359.399 334.891C353.562 327.157 354.831 329.52 350.517 323.504C346.891 318.448 341.212 310.756 339.097 307.39" stroke="#FDB90B" stroke-opacity="0.25" stroke-width="4"/>
<path d="M398.988 368.194C398.988 368.481 398.785 369.011 397.973 368.839C396.958 368.624 391.629 370.343 371.073 358.526C350.517 346.708 338.843 332.098 337.067 330.809C335.645 329.778 335.967 329.806 336.305 329.95" stroke="#FDB90B" stroke-opacity="0.25" stroke-width="4"/>
</g>
</svg>
